<svg width="391" height="546" viewBox="0 0 391 546" fill="none" xmlns="http://www.w3.org/2000/svg">
<path d="M159.573 230.484C158.593 225.837 157.485 221.212 156.656 216.539C153.429 198.348 147.677 181.033 138.904 164.756C135.8 158.996 131.91 153.835 127.225 149.221C116.805 138.965 106.434 128.632 94.5969 120.008C76.1983 106.604 56.8663 94.7772 35.573 86.4039C31.2183 84.6906 26.9103 82.7772 22.797 80.5559C19.637 78.8492 16.6143 76.7492 13.8969 74.3999C10.1129 71.1306 8.01696 66.7532 8.01162 61.7159C8.00896 57.4946 8.53029 53.2706 8.81429 49.1066C8.78095 49.1666 8.60229 49.3972 8.51562 49.6586C7.01029 54.1452 6.27028 58.7332 6.48228 63.4826C6.73828 69.2599 8.99295 74.1532 13.5209 77.6212C17.0449 80.3199 20.9289 82.6492 24.9116 84.6199C30.3476 87.3092 36.0636 89.4212 41.5969 91.9199C69.3383 104.451 94.4383 120.917 116.288 142.205C119.268 145.108 122.153 148.111 125.206 150.931C130.848 156.144 135.129 162.335 138.632 169.107C147.128 185.529 152.622 202.937 155.688 221.14C155.721 221.343 155.665 221.56 155.141 222.284C155.025 221.921 154.953 221.536 154.786 221.197C149.012 209.463 140.142 200.331 130.284 192.02C120.72 183.957 109.844 178.164 98.329 173.491C86.5836 168.724 74.761 164.151 63.0463 159.311C54.561 155.805 46.3863 151.645 38.8916 146.283C20.7689 133.317 8.33962 116.364 3.48628 94.4146C-1.45372 72.0679 2.70628 51.2479 14.8756 31.9426C16.9743 28.6132 18.953 25.2052 20.9076 21.7879C24.9823 14.6706 29.0023 7.52256 33.2649 -0.000108332C34.3729 1.08522 35.2036 1.85057 35.9823 2.6679C49.3836 16.7359 63.2263 30.3386 78.6383 42.2252C84.4596 46.7159 90.3476 51.1786 96.5623 55.0879C115.826 67.2026 130.336 83.6372 141.301 103.371C152.245 123.064 158.948 144.175 162.244 166.428C164.062 178.712 164.612 191.045 164.05 203.425C163.669 211.845 162.628 220.201 160.708 228.428C160.548 229.113 160.296 229.779 160.088 230.453C159.916 230.464 159.745 230.473 159.573 230.484Z" fill="black"/>
<path d="M356.689 44.9435C357.067 45.6462 357.497 46.3275 357.813 47.0569C365.825 65.5582 369.201 84.9102 368.524 105.025C367.672 130.31 360.875 154.173 351.285 177.365C341.851 200.182 330.119 221.83 316.792 242.554C301.345 266.575 285.3 290.212 269.516 314.016C266.041 319.256 262.571 324.499 259.092 329.738C258.512 330.61 257.903 331.463 257.177 332.514C256.157 331.807 255.261 331.262 254.447 330.614C242.379 321.024 232.412 309.606 224.7 296.244C224.115 295.229 223.627 294.158 223.031 293.15C217.773 284.257 217.024 274.805 218.829 264.772C221.329 250.885 226.697 238.05 232.475 225.345C241.393 205.729 253.985 188.612 268.615 172.922C274.213 166.918 279.984 161.077 285.52 155.018C299.251 139.988 313.019 124.985 326.521 109.75C334.023 101.288 340.637 92.1048 346.247 82.2475C350.751 74.3342 354.529 66.1129 355.832 57.0022C356.267 53.9635 356.18 50.8475 356.311 47.7662C356.349 46.8622 356.317 45.9568 356.317 45.0515C356.441 45.0155 356.565 44.9795 356.689 44.9435Z" fill="black"/>
<path d="M48.8425 465.925C48.6158 465.609 48.3732 465.301 48.1652 464.973C38.3572 449.491 32.5452 432.597 30.4918 414.415C27.9438 391.845 30.8252 369.756 36.5918 347.941C42.9078 324.045 52.0252 301.181 62.9105 279.067C74.4865 255.548 86.6985 232.343 98.6345 209.001C101.497 203.401 104.36 197.803 107.232 192.208C107.663 191.368 108.144 190.555 108.669 189.608C109.648 190.099 110.512 190.472 111.317 190.945C123.768 198.271 134.549 207.527 143.475 218.903C144.855 220.663 146.024 222.585 147.357 224.383C152.123 230.808 153.116 238.121 152.901 245.889C152.522 259.609 148.704 272.565 144.528 285.443C138.649 303.568 129.501 320.011 118.188 335.268C110.376 345.801 102.201 356.069 94.5358 366.709C84.5652 380.547 74.8225 394.552 65.2185 408.645C60.5358 415.519 56.7038 422.936 53.5492 430.651C48.9318 441.947 45.7758 453.467 48.8425 465.925Z" fill="black"/>
<path d="M325.855 513.332C318.247 523.964 310.64 534.593 302.724 545.657C301.724 544.34 301.035 543.473 300.391 542.576C290.267 528.437 279.76 514.598 268.088 501.682C260.431 493.208 252.46 485.03 243.739 477.657C226.841 463.372 214.767 445.678 206.161 425.46C199.36 409.474 195.073 392.817 192.697 375.628C190.779 361.74 190.299 347.801 191.093 333.829C192.053 316.948 194.835 300.382 200.472 284.374C200.821 283.382 201.232 282.413 202.063 281.442C202.172 283.148 202.247 284.857 202.404 286.558C202.569 288.358 202.949 290.148 203.001 291.948C203.547 310.48 206.379 328.634 211.827 346.369C215.111 357.06 219.859 366.916 226.865 375.777C236.859 388.416 246.621 401.254 258.481 412.226C274.787 427.308 291.836 441.46 311.391 452.292C315.208 454.406 318.877 456.802 322.537 459.186C324.497 460.462 326.337 461.934 328.156 463.414C336.493 470.196 339.037 478.85 336.397 489.162C334.961 494.774 332.611 500.012 329.968 505.137C329.344 506.35 328.884 507.645 328.348 508.904L328.461 508.768C327.797 509.978 327.132 511.192 326.468 512.404C326.264 512.712 326.059 513.022 325.855 513.332Z" fill="black"/>
<path d="M288.099 350.12C281.31 346.948 266.166 337.722 261.942 334.16C262.484 333.241 263.011 332.237 263.639 331.301C273.038 317.321 282.454 303.353 291.856 289.377C307.094 266.732 322.243 244.03 335.568 220.177C346.711 200.228 356.574 179.698 363.596 157.892C370.047 137.86 373.82 117.422 373.071 96.2743C372.527 80.8876 369.432 66.0597 363.708 51.773C363.248 50.625 362.804 49.4717 362.848 48.0863C364.979 52.109 367.212 56.0797 369.222 60.1637C379.618 81.2983 386.032 103.594 388.98 126.966C396.988 190.472 376.103 258.62 333.764 306.564C325.066 316.412 315.472 325.357 305.762 334.18C299.924 339.481 294.055 344.748 288.099 350.12Z" fill="black"/>
<path d="M39.3483 460.708C38.7509 459.971 38.1256 459.256 37.5616 458.495C19.9589 434.685 8.76294 408.132 3.37494 379.056C0.328272 362.612 -0.670395 346.025 0.438939 329.388C3.43761 284.384 18.5936 243.992 47.3309 209.012C55.9896 198.473 65.2029 188.391 74.1336 178.075C75.0589 177.007 75.9109 176.376 77.4043 177.033C85.2949 180.504 93.2123 183.917 101.115 187.365C101.395 187.487 101.615 187.745 102.171 188.183C101.538 189.537 100.93 190.972 100.211 192.352C91.8496 208.417 83.4376 224.457 75.1083 240.54C63.6896 262.587 52.5563 284.768 43.3376 307.853C36.2136 325.693 30.2469 343.888 26.6483 362.795C23.6443 378.576 22.3096 394.471 23.9243 410.508C25.6429 427.569 30.4416 443.699 38.9603 458.652C39.2656 459.185 39.5123 459.751 39.7869 460.301C39.6403 460.437 39.4936 460.572 39.3483 460.708Z" fill="black"/>
<path d="M330.571 513.379C330.775 513.069 330.98 512.759 331.184 512.451C331.848 511.239 332.514 510.025 333.178 508.815L333.064 508.951C333.244 508.849 333.5 508.795 333.594 508.64C338.295 500.847 342.398 492.785 343.843 483.676C344.956 476.648 343.348 470.244 338.37 465.048C335.807 462.373 332.926 459.924 329.888 457.804C325.612 454.821 321.106 452.159 316.615 449.497C287.596 432.304 262.487 410.631 241.592 384.121C238.887 380.688 236.335 377.129 233.531 373.781C226.419 365.287 221.936 355.467 218.688 344.997C213.482 328.212 210.67 311.016 209.846 293.479C209.819 292.908 209.843 292.336 209.843 291.555C210.278 291.891 210.531 291.983 210.583 292.141C215.542 307.065 224.722 319.24 235.452 330.415C242.522 337.777 250.603 343.852 259.372 348.997C268.286 354.227 277.374 359.156 286.284 364.389C293.723 368.759 301.206 373.097 308.334 377.941C326.015 389.955 339.316 405.704 346.302 426.06C356.816 456.696 352.212 485.256 333.151 511.453C332.527 512.311 332.151 513.715 330.571 513.379Z" fill="black"/>
<path d="M221.723 170.069C198.801 242.258 176.024 313.989 153.248 385.721C153.035 385.686 152.823 385.651 152.611 385.617C152.72 383.766 152.76 381.91 152.949 380.067C154.136 368.51 155.14 356.93 156.601 345.406C161.775 304.59 169.913 264.453 184.708 225.895C189.489 213.435 195.021 201.325 202.031 189.937C205.56 184.203 209.373 178.671 214.339 174.051C216.281 172.243 218.297 170.493 221.723 170.069Z" fill="black"/>
<path d="M333.177 508.815C332.513 510.025 331.849 511.237 331.185 512.451C331.849 511.237 332.513 510.025 333.177 508.815Z" fill="white"/>
</svg>
