<svg width="1382" height="547" viewBox="0 0 1382 547" fill="none" xmlns="http://www.w3.org/2000/svg">
<path d="M159.846 231.042C158.866 226.395 157.758 221.77 156.929 217.097C153.702 198.906 147.95 181.591 139.177 165.314C136.073 159.554 132.184 154.393 127.498 149.779C117.078 139.523 106.708 129.19 94.8703 120.566C76.4716 107.162 57.1396 95.3353 35.8463 86.962C31.4916 85.2487 27.1836 83.3353 23.0703 81.114C19.9103 79.4073 16.8876 77.3073 14.1703 74.958C10.3863 71.6887 8.29027 67.3113 8.28494 62.274C8.28227 58.0527 8.8036 53.8287 9.0876 49.6647C9.05427 49.7247 8.8756 49.9553 8.78894 50.2167C7.2836 54.7033 6.5436 59.2913 6.7556 64.0407C7.0116 69.818 9.26627 74.7113 13.7943 78.1793C17.3183 80.878 21.2023 83.2073 25.1849 85.178C30.6209 87.8673 36.3369 89.9793 41.8703 92.478C69.6116 105.009 94.7116 121.475 116.561 142.763C119.541 145.666 122.426 148.669 125.48 151.489C131.121 156.702 135.402 162.893 138.905 169.665C147.401 186.087 152.896 203.495 155.961 221.698C155.994 221.901 155.938 222.118 155.414 222.842C155.298 222.479 155.226 222.094 155.06 221.755C149.285 210.021 140.416 200.889 130.557 192.578C120.993 184.515 110.117 178.722 98.6023 174.049C86.8569 169.282 75.0343 164.709 63.3196 159.869C54.8343 156.363 46.6596 152.203 39.1649 146.841C21.0423 133.875 8.61293 116.922 3.7596 94.9727C-1.1804 72.626 2.9796 51.806 15.1489 32.5007C17.2476 29.1713 19.2263 25.7633 21.1809 22.346C25.2556 15.2287 29.2756 8.08066 33.5383 0.557997C34.6463 1.64333 35.4769 2.40867 36.2556 3.22601C49.6569 17.294 63.4996 30.8967 78.9116 42.7833C84.7329 47.274 90.6209 51.7367 96.8356 55.646C116.1 67.7607 130.609 84.1953 141.574 103.929C152.518 123.622 159.221 144.733 162.517 166.986C164.336 179.27 164.885 191.603 164.324 203.983C163.942 212.403 162.901 220.759 160.981 228.986C160.821 229.671 160.569 230.337 160.361 231.011C160.189 231.022 160.018 231.031 159.846 231.042Z" fill="black"/>
<path d="M356.963 45.5015C357.34 46.2042 357.771 46.8855 358.087 47.6148C366.099 66.1162 369.475 85.4682 368.797 105.583C367.945 130.868 361.148 154.731 351.559 177.923C342.124 200.74 330.392 222.388 317.065 243.112C301.619 267.133 285.573 290.769 269.789 314.573C266.315 319.813 262.844 325.057 259.365 330.296C258.785 331.168 258.176 332.021 257.451 333.072C256.431 332.365 255.535 331.82 254.72 331.172C242.652 321.581 232.685 310.164 224.973 296.801C224.388 295.787 223.9 294.716 223.304 293.708C218.047 284.815 217.297 275.363 219.103 265.329C221.603 251.443 226.971 238.608 232.748 225.903C241.667 206.287 254.259 189.169 268.888 173.48C274.487 167.476 280.257 161.635 285.793 155.576C299.524 140.545 313.292 125.543 326.795 110.308C334.296 101.845 340.911 92.6628 346.52 82.8055C351.024 74.8922 354.803 66.6708 356.105 57.5602C356.54 54.5215 356.453 51.4055 356.584 48.3242C356.623 47.4202 356.591 46.5148 356.591 45.6095C356.715 45.5735 356.839 45.5375 356.963 45.5015Z" fill="black"/>
<path d="M49.1158 466.483C48.8892 466.167 48.6465 465.859 48.4385 465.531C38.6305 450.049 32.8185 433.155 30.7652 414.973C28.2172 392.403 31.0985 370.314 36.8652 348.499C43.1812 324.603 52.2985 301.739 63.1838 279.625C74.7598 256.106 86.9718 232.901 98.9078 209.559C101.77 203.959 104.633 198.361 107.505 192.766C107.936 191.926 108.417 191.113 108.942 190.166C109.921 190.657 110.785 191.03 111.59 191.503C124.041 198.829 134.822 208.085 143.748 219.461C145.128 221.221 146.297 223.143 147.63 224.941C152.396 231.366 153.389 238.679 153.174 246.447C152.796 260.167 148.977 273.123 144.801 286.001C138.922 304.126 129.774 320.569 118.461 335.826C110.649 346.359 102.474 356.627 94.8092 367.267C84.8385 381.105 75.0958 395.11 65.4918 409.203C60.8092 416.077 56.9772 423.494 53.8225 431.209C49.2052 442.505 46.0492 454.025 49.1158 466.483Z" fill="black"/>
<path d="M326.128 513.889C318.52 524.521 310.913 535.151 302.997 546.215C301.997 544.897 301.308 544.031 300.664 543.133C290.54 528.995 280.033 515.156 268.361 502.24C260.704 493.765 252.733 485.588 244.012 478.215C227.115 463.929 215.04 446.236 206.435 426.017C199.633 410.032 195.347 393.375 192.971 376.185C191.052 362.297 190.572 348.359 191.367 334.387C192.327 317.505 195.108 300.94 200.745 284.932C201.095 283.94 201.505 282.971 202.336 282C202.445 283.705 202.52 285.415 202.677 287.116C202.843 288.916 203.223 290.705 203.275 292.505C203.82 311.037 206.652 329.192 212.1 346.927C215.384 357.617 220.132 367.473 227.139 376.335C237.132 388.973 246.895 401.812 258.755 412.784C275.06 427.865 292.109 442.017 311.664 452.849C315.481 454.964 319.151 457.36 322.811 459.744C324.771 461.02 326.611 462.492 328.429 463.972C336.767 470.753 339.311 479.408 336.671 489.72C335.235 495.332 332.884 500.569 330.241 505.695C329.617 506.908 329.157 508.203 328.621 509.461L328.735 509.325C328.071 510.536 327.405 511.749 326.741 512.961C326.537 513.269 326.332 513.58 326.128 513.889Z" fill="black"/>
<path d="M1361.25 304.09C1360.96 297.324 1360.74 286.772 1359.99 276.259C1359.3 266.758 1357.38 257.412 1353.08 248.827C1344.97 232.646 1332.72 221.554 1314.16 219.151C1303.3 217.748 1292.91 219.508 1283.46 225.451C1271.25 233.13 1263.49 244.104 1259.45 257.819C1256.26 268.651 1255.42 279.816 1255.18 291.018C1254.96 301.462 1254.93 311.915 1255.1 322.36C1255.27 332.592 1255.88 342.811 1258.12 352.854C1260.55 363.767 1264.89 373.695 1272.83 381.82C1287.98 397.332 1309.44 400.552 1326.97 392.908C1340.55 386.987 1349.73 376.704 1354.92 362.847C1358.58 353.06 1360.11 342.851 1360.62 332.492C1361.02 324.3 1361 316.088 1361.25 304.09ZM1381.77 308.227C1381.5 317.603 1381.44 326.991 1380.92 336.355C1380.19 349.614 1378.05 362.648 1372.68 374.92C1363.69 395.444 1348.33 408.972 1327.09 415.93C1298.36 422.635 1273.97 415.422 1254.38 393.087C1245.58 383.05 1240.79 371.046 1237.8 358.219C1235.21 347.155 1234.28 335.88 1234.18 324.58C1234.05 309.978 1234.17 295.36 1234.7 280.768C1235.19 267.39 1237.49 254.242 1242.91 241.879C1252.09 220.951 1267.17 206.312 1289.29 199.57C1297.75 196.99 1306.5 196.78 1315.28 197.552C1336.9 199.458 1352.99 210.79 1365.39 227.754C1371.72 236.414 1375.45 246.476 1377.82 256.986C1380.53 269.014 1381.31 281.23 1381.53 293.502C1381.62 298.406 1381.55 303.312 1381.55 308.219C1381.62 308.222 1381.69 308.224 1381.77 308.227" fill="black"/>
<path d="M1099.57 415.046V394.267H1103.16C1111.05 394.267 1118.95 394.164 1126.84 394.291C1139.48 394.492 1149.8 389.364 1158.43 380.546C1166.6 372.196 1170.86 361.827 1173.17 350.546C1175.29 340.152 1175.81 329.623 1175.81 319.052C1175.8 310.2 1175.83 301.35 1175.74 292.499C1175.63 280.739 1174.65 269.079 1171.24 257.739C1167.44 245.102 1160.33 234.943 1148.94 228.004C1142.8 224.26 1136.08 222.278 1128.92 222.202C1116.87 222.074 1104.81 222.163 1092.76 222.174C1091.93 222.175 1091.1 222.294 1089.89 222.386C1089.62 229.597 1089.8 236.698 1089.77 243.794C1089.74 250.939 1089.76 258.084 1089.76 265.23V286.667V308.103V329.22V350.656V372.092V393.53V415.047H1069.15C1069.09 413.899 1068.99 412.862 1068.99 411.826C1068.98 345.703 1068.98 279.58 1068.99 213.458C1068.99 205.557 1073.58 200.798 1081.42 200.764C1097.85 200.694 1114.27 200.602 1130.69 200.784C1147.29 200.967 1160.87 208.23 1172.45 219.622C1184.19 231.179 1190.52 245.515 1193.5 261.516C1195.8 273.838 1196.3 286.284 1196.26 298.774C1196.24 307.73 1196.27 316.687 1196.15 325.642C1195.98 339.01 1194.76 352.26 1190.85 365.122C1185.6 382.406 1175.57 396.14 1160.28 405.946C1151.17 411.79 1141.23 414.947 1130.43 415.142C1120.73 415.316 1111.02 415.21 1101.32 415.216C1100.8 415.216 1100.29 415.12 1099.57 415.046Z" fill="black"/>
<path d="M841.052 200.553V222.01C839.717 222.065 838.485 222.157 837.253 222.158C821.364 222.168 805.471 222.369 789.585 222.118C763.067 221.7 748.568 238.949 742.903 255.164C739.963 263.58 738.387 272.281 737.879 281.132C736.823 299.557 736.792 318.006 737.879 336.432C738.489 346.801 740.397 356.988 744.847 366.472C751.771 381.23 762.759 391.226 779.105 394.464C792.163 397.05 804.024 393.83 814.108 385.466C826.251 375.397 833.348 362.368 834.765 346.41C835.205 341.449 834.727 336.626 833.867 331.797C833.099 327.481 830.556 324.681 826.24 323.769C824.173 323.332 822.024 323.112 819.912 323.098C809.248 323.033 798.584 323.069 787.92 323.068C786.775 323.068 785.629 323.069 784.184 323.069C783.9 315.78 783.629 308.817 783.349 301.648C784.764 301.576 785.801 301.476 786.84 301.474C798.464 301.464 810.087 301.44 821.711 301.481C827.421 301.501 832.923 302.709 838.213 304.826C847.26 308.444 852.139 315.664 854.048 324.733C855.267 330.521 855.747 336.597 855.591 342.518C854.973 365.977 845.945 385.886 828.407 401.433C816.044 412.389 801.219 417.285 784.515 416.644C767.217 415.978 752.709 409.366 740.684 397.158C731.04 387.369 724.871 375.574 721.32 362.341C718.541 351.984 717.209 341.404 717.004 330.737C716.724 316.242 716.668 301.73 717.013 287.237C717.323 274.213 719.041 261.338 723.172 248.868C727.144 236.873 733.613 226.464 742.765 217.817C752.747 208.385 764.459 202.617 778.369 201.544C791.577 200.522 804.788 200.79 818.007 200.85C823.759 200.876 829.515 200.652 835.268 200.557C837.06 200.528 838.853 200.553 841.052 200.553Z" fill="black"/>
<path d="M962.794 240.583C960.961 243.915 935.91 326.526 935.894 328.82C941.173 329.464 987.125 329.195 989.518 328.447C980.655 299.306 971.79 270.162 962.794 240.583ZM996.515 350.768H928.563C921.57 373.715 914.566 396.694 907.435 420.091C901.367 417.607 895.507 415.207 889.735 412.844C889.366 409.238 889.667 406.03 890.663 402.795C903.709 360.439 916.681 318.062 929.686 275.694C936.155 254.611 942.647 233.535 949.158 212.466C949.723 210.639 950.37 208.811 951.226 207.108C953.458 202.666 957.151 200.063 962.098 199.823C967.001 199.586 970.667 202.104 973.169 206.192C974.27 207.992 975.195 209.971 975.817 211.987C991.855 264.124 1007.84 316.278 1023.84 368.426C1028.09 382.276 1032.35 396.124 1036.61 409.972C1036.76 410.48 1036.88 411 1037.11 411.887C1030.14 415.175 1022.96 417.998 1015.42 421.291C1015.34 419.946 1015.17 418.942 1015.24 417.956C1015.6 413.194 1014.57 408.702 1013.14 404.179C1007.9 387.62 1002.86 371.004 997.731 354.414C997.359 353.206 996.933 352.016 996.515 350.768" fill="black"/>
<path d="M288.372 350.677C281.583 347.505 266.439 338.28 262.215 334.717C262.758 333.799 263.284 332.795 263.912 331.859C273.311 317.879 282.727 303.911 292.13 289.935C307.367 267.289 322.516 244.588 335.842 220.735C346.984 200.785 356.847 180.256 363.87 158.449C370.32 138.417 374.094 117.98 373.344 96.832C372.8 81.4454 369.706 66.6174 363.982 52.3307C363.522 51.1827 363.078 50.0294 363.122 48.6441C365.252 52.6667 367.486 56.6374 369.495 60.7214C379.891 81.8561 386.306 104.152 389.254 127.524C397.262 191.029 376.376 259.177 334.038 307.121C325.339 316.969 315.746 325.915 306.035 334.737C300.198 340.039 294.328 345.305 288.372 350.677Z" fill="black"/>
<path d="M593.546 393.864H680.203V415.038C679.119 415.109 678.189 415.221 677.259 415.221C647.295 415.229 617.33 415.229 587.367 415.222C586.302 415.221 585.227 415.212 584.175 415.068C577.341 414.137 572.838 409.346 572.318 402.46C572.222 401.186 572.241 399.902 572.241 398.622C572.238 338.162 572.231 277.701 572.262 217.24C572.263 215.017 572.371 212.741 572.851 210.584C574.046 205.216 578.378 201.497 583.837 200.89C585.103 200.749 586.39 200.745 587.667 200.745C617.099 200.737 646.53 200.738 675.961 200.738H680.213V221.854H593.674C592.942 224.525 592.667 291.082 593.313 297.637C597.362 297.661 601.474 297.694 605.586 297.706C609.851 297.718 614.117 297.709 618.382 297.709H630.858H643.654H656.271V319.232H593.739C592.923 321.824 592.769 389.988 593.546 393.864Z" fill="black"/>
<path d="M39.6216 461.266C39.0243 460.529 38.3989 459.814 37.8349 459.053C20.2323 435.243 9.03625 408.69 3.64825 379.614C0.601587 363.17 -0.397079 346.583 0.712254 329.946C3.71092 284.942 18.8669 244.55 47.6043 209.57C56.2629 199.031 65.4763 188.949 74.4069 178.633C75.3323 177.565 76.1842 176.934 77.6776 177.591C85.5682 181.062 93.4856 184.475 101.388 187.923C101.668 188.045 101.888 188.303 102.444 188.741C101.811 190.095 101.203 191.53 100.484 192.91C92.1229 208.975 83.7109 225.015 75.3816 241.098C63.9629 263.145 52.8296 285.326 43.6109 308.411C36.4869 326.251 30.5203 344.446 26.9216 363.353C23.9176 379.134 22.5829 395.029 24.1976 411.066C25.9163 428.127 30.7149 444.257 39.2336 459.21C39.5389 459.743 39.7856 460.309 40.0602 460.859C39.9136 460.995 39.7669 461.13 39.6216 461.266Z" fill="black"/>
<path d="M330.844 513.936C331.048 513.627 331.254 513.316 331.458 513.008C332.122 511.796 332.787 510.583 333.451 509.372L333.338 509.508C333.518 509.407 333.774 509.352 333.867 509.198C338.568 501.404 342.671 493.343 344.116 484.234C345.23 477.206 343.622 470.802 338.643 465.606C336.08 462.931 333.199 460.482 330.162 458.362C325.886 455.379 321.379 452.716 316.888 450.055C287.87 432.862 262.76 411.188 241.866 384.679C239.16 381.246 236.608 377.687 233.804 374.339C226.692 365.844 222.21 356.024 218.962 345.555C213.755 328.77 210.943 311.574 210.119 294.036C210.092 293.466 210.116 292.894 210.116 292.113C210.551 292.449 210.804 292.541 210.856 292.699C215.815 307.623 224.995 319.798 235.726 330.972C242.795 338.335 250.876 344.41 259.646 349.555C268.559 354.784 277.647 359.714 286.558 364.947C293.996 369.316 301.479 373.655 308.607 378.499C326.288 390.512 339.59 406.262 346.575 426.618C357.09 457.254 352.486 485.814 333.424 512.011C332.8 512.868 332.424 514.272 330.844 513.936Z" fill="black"/>
<path d="M435.865 200.94H456.351C456.429 202.676 456.559 204.236 456.559 205.796C456.569 266.696 456.567 327.598 456.567 388.498V393.558H543.722V415.034C542.754 415.1 541.827 415.22 540.902 415.22C510.931 415.23 480.962 415.234 450.991 415.211C449.509 415.21 448.001 415.095 446.549 414.807C440.354 413.583 436.274 408.839 435.903 402.524C435.841 401.462 435.866 400.392 435.866 399.326C435.865 334.584 435.865 269.844 435.865 205.104V200.94Z" fill="black"/>
<path d="M221.996 170.627C199.075 242.816 176.297 314.547 153.521 386.279C153.308 386.244 153.096 386.209 152.884 386.175C152.993 384.324 153.033 382.468 153.223 380.625C154.409 369.068 155.413 357.488 156.875 345.964C162.048 305.148 170.187 265.011 184.981 226.453C189.763 213.993 195.295 201.883 202.304 190.495C205.833 184.761 209.647 179.229 214.612 174.609C216.555 172.801 218.571 171.051 221.996 170.627Z" fill="black"/>
<path d="M333.45 509.373C332.786 510.583 332.122 511.795 331.458 513.009C332.122 511.795 332.786 510.583 333.45 509.373Z" fill="white"/>
</svg>
