<?xml version="1.0" encoding="utf-8"?>
<!-- Generator: Adobe Illustrator 24.0.0, SVG Export Plug-In . SVG Version: 6.00 Build 0)  -->
<svg version="1.1" id="Layer_1" xmlns="http://www.w3.org/2000/svg" xmlns:xlink="http://www.w3.org/1999/xlink" x="0px" y="0px"
	 viewBox="0 0 100 100" style="enable-background:new 0 0 100 100;" xml:space="preserve">
<style type="text/css">
	.st0{fill:#FCC30B;}
	.st1{fill:#FFFFFF;}
</style>
<rect x="0.3" y="-0.2" class="st0" width="100" height="100"/>
<g>
	<polygon class="st1" points="10.6,11 15.8,11 11.3,28.4 14.7,28.4 19.1,11.3 19.1,8.2 10.6,8.2 	"/>
	<path class="st1" d="M28.6,51.7l5.6,3.2c0.5,0.3,1.2,0.1,1.6-0.5c0.3-0.6,0.1-1.3-0.4-1.6l-5.6-3.2c-0.5-0.3-1.3-0.1-1.6,0.5
		C27.9,50.7,28.1,51.5,28.6,51.7z"/>
	<path class="st1" d="M50.4,77.6C58.5,77.6,65,71,65,62.9c0-8.1-6.6-14.7-14.7-14.7c-8.1,0-14.7,6.6-14.7,14.7
		C35.7,71,42.3,77.6,50.4,77.6z M49.3,54.1c0-0.5,0.5-1,1.1-1c0.6,0,1.1,0.5,1.1,1v5c0,0.5-0.5,1-1.1,1c-0.6,0-1.1-0.5-1.1-1V54.1z
		 M48.1,55.5v2.8c-1.6,0.8-2.7,2.5-2.7,4.4c0,2.8,2.2,5,5,5c2.8,0,5-2.2,5-5c0-1.9-1.1-3.6-2.7-4.4v-2.8c3.1,1,5.4,3.9,5.4,7.3
		c0,4.2-3.4,7.6-7.6,7.6c-4.2,0-7.6-3.4-7.6-7.6C42.7,59.4,45,56.5,48.1,55.5z"/>
	<path class="st1" d="M33.5,62.8c0-0.7-0.6-1.2-1.1-1.2H26c-0.5,0-1.1,0.5-1.1,1.2c0,0.7,0.6,1.2,1.1,1.2h6.4
		C33,64,33.5,63.5,33.5,62.8z"/>
	<path class="st1" d="M74.7,61.6h-6.4c-0.5,0-1.1,0.5-1.1,1.2c0,0.7,0.6,1.2,1.1,1.2h6.4c0.5,0,1.1-0.5,1.1-1.2
		C75.9,62.1,75.3,61.6,74.7,61.6z"/>
	<path class="st1" d="M50.4,37.3c-0.7,0-1.2,0.6-1.2,1.1v6.4c0,0.5,0.5,1.1,1.2,1.1c0.7,0,1.2-0.6,1.2-1.1v-6.4
		C51.6,37.9,51,37.3,50.4,37.3z"/>
	<path class="st1" d="M50.4,79.6c-0.7,0-1.2,0.6-1.2,1.1v6.4c0,0.5,0.5,1.1,1.2,1.1c0.7,0,1.2-0.6,1.2-1.1v-6.4
		C51.6,80.2,51,79.6,50.4,79.6z"/>
	<path class="st1" d="M72.1,73.9l-5.6-3.2c-0.5-0.3-1.3-0.1-1.6,0.5c-0.3,0.6-0.1,1.3,0.4,1.6l5.6,3.2c0.5,0.3,1.2,0.1,1.6-0.5
		C72.8,74.9,72.6,74.1,72.1,73.9z"/>
	<path class="st1" d="M61.4,41l-3.2,5.6c-0.3,0.5-0.1,1.2,0.5,1.6c0.6,0.3,1.3,0.1,1.6-0.4l3.2-5.6c0.3-0.5,0.1-1.3-0.5-1.6
		C62.5,40.3,61.7,40.6,61.4,41z"/>
	<path class="st1" d="M42,77.4c-0.6-0.3-1.3-0.1-1.6,0.4l-3.2,5.6c-0.3,0.5-0.1,1.2,0.5,1.6c0.6,0.3,1.3,0.1,1.6-0.4l3.2-5.6
		C42.8,78.5,42.6,77.7,42,77.4z"/>
	<path class="st1" d="M37.7,40.7c-0.6,0.3-0.8,1.1-0.5,1.6l3.2,5.6c0.3,0.5,1,0.7,1.6,0.4c0.6-0.3,0.7-1.1,0.5-1.6l-3.2-5.6
		C39,40.6,38.2,40.3,37.7,40.7z"/>
	<path class="st1" d="M60.4,77.8c-0.3-0.5-1-0.7-1.6-0.4c-0.6,0.3-0.8,1.1-0.5,1.6l3.2,5.6c0.3,0.5,1,0.7,1.6,0.4
		c0.6-0.3,0.7-1.1,0.5-1.6L60.4,77.8z"/>
	<path class="st1" d="M66.5,54.9l5.6-3.2c0.5-0.3,0.7-1,0.4-1.6c-0.3-0.6-1.1-0.8-1.6-0.5l-5.6,3.2c-0.5,0.3-0.7,1-0.4,1.6
		C65.3,55,66.1,55.2,66.5,54.9z"/>
	<path class="st1" d="M34.2,70.7l-5.6,3.2c-0.5,0.3-0.7,1-0.4,1.6c0.3,0.6,1.1,0.7,1.6,0.5l5.6-3.2c0.5-0.3,0.7-1,0.4-1.6
		C35.4,70.6,34.7,70.4,34.2,70.7z"/>
	<polygon class="st1" points="32.2,15.2 30.3,15.2 30.3,12.7 31.6,12.7 31.6,11.6 30.3,11.6 30.3,9.3 32.2,9.3 32.2,8.2 28.9,8.2 
		28.9,16.3 32.2,16.3 	"/>
	<polygon class="st1" points="34,11.2 35.6,16.3 36.8,16.3 36.8,8.2 35.7,8.2 35.7,12.9 34.2,8.2 32.9,8.2 32.9,16.3 34,16.3 	"/>
	<polygon class="st1" points="40.8,15.2 38.9,15.2 38.9,12.7 40.3,12.7 40.3,11.6 38.9,11.6 38.9,9.3 40.8,9.3 40.8,8.2 37.6,8.2 
		37.6,16.3 40.8,16.3 	"/>
	<path class="st1" d="M42.9,12.6l1.3,3.7h1.4l-1.3-3.7c0.8-0.2,1.1-0.7,1.1-1.6v-1c0-1.1-0.5-1.8-1.9-1.8h-2v8.2h1.4V12.6z
		 M42.9,9.3h0.5c0.5,0,0.7,0.2,0.7,0.7v1.2c0,0.4-0.2,0.7-0.7,0.7h-0.5V9.3z"/>
	<path class="st1" d="M47.7,16.4c0.7,0,1.1-0.4,1.3-1v0.9h1V12h-2v1.1h0.7v1.4c0,0.5-0.2,0.8-0.7,0.8c-0.5,0-0.7-0.3-0.7-0.8v-4.4
		c0-0.5,0.2-0.8,0.7-0.8c0.5,0,0.7,0.3,0.7,0.8v0.8H50v-0.7c0-1.2-0.4-2-2-2C46.6,8.1,46,9,46,10.3v4C46,15.5,46.5,16.4,47.7,16.4z"
		/>
	<rect x="50.6" y="8.2" class="st1" width="1.4" height="8.2"/>
	<path class="st1" d="M53.9,14.9h1.5l0.3,1.5H57l-1.6-8.2h-1.6l-1.5,8.2h1.3L53.9,14.9z M54.6,10.5L54.6,10.5l0.6,3.3h-1.1
		L54.6,10.5z"/>
	<polygon class="st1" points="61.5,15.2 59.9,15.2 59.9,8.2 58.5,8.2 58.5,16.3 61.5,16.3 	"/>
	<rect x="62" y="8.2" class="st1" width="1.4" height="8.2"/>
	<polygon class="st1" points="65.1,11 65.1,11 66.1,16.3 66.8,16.3 67.7,11 67.7,11 67.7,16.3 69,16.3 69,8.2 67.3,8.2 66.5,12.8 
		66.4,12.8 65.6,8.2 64,8.2 64,16.3 65.1,16.3 	"/>
	<path class="st1" d="M71,13.6h0.7c1.4,0,1.9-0.7,1.9-1.8V10c0-1.1-0.5-1.8-1.9-1.8h-2v8.2H71V13.6z M71,9.3h0.5
		c0.5,0,0.7,0.2,0.7,0.7v1.9c0,0.4-0.2,0.7-0.7,0.7H71V9.3z"/>
	<path class="st1" d="M76.9,8.2h-1.6l-1.5,8.2h1.3l0.2-1.5h1.5l0.3,1.5h1.4L76.9,8.2z M75.6,13.8l0.5-3.3h0l0.5,3.3H75.6z"/>
	<polygon class="st1" points="32.2,27.2 30.3,27.2 30.3,24.8 31.6,24.8 31.6,23.7 30.3,23.7 30.3,21.3 32.2,21.3 32.2,20.2 
		28.9,20.2 28.9,28.3 32.2,28.3 	"/>
	<path class="st1" d="M35.1,20.2l-1.5,8.1h1.3l0.2-1.5h1.5l0.3,1.5h1.4l-1.5-8.1H35.1z M35.3,25.8l0.5-3.3h0l0.5,3.3H35.3z"/>
	<path class="st1" d="M42.6,23.1v-1c0-1.2-0.4-2-1.9-2c-1.4,0-2,0.9-2,2.2v3.9c0,1.3,0.6,2.2,2,2.2c1.5,0,1.9-0.9,1.9-2V25h-1.2v1.5
		c0,0.5-0.2,0.8-0.7,0.8c-0.5,0-0.7-0.3-0.7-0.8v-4.4c0-0.5,0.2-0.8,0.7-0.8c0.5,0,0.7,0.3,0.7,0.8v1.1H42.6z"/>
	<polygon class="st1" points="46.4,21.3 46.4,20.2 43.1,20.2 43.1,28.3 46.4,28.3 46.4,27.2 44.5,27.2 44.5,24.8 45.8,24.8 
		45.8,23.7 44.5,23.7 44.5,21.3 	"/>
	<path class="st1" d="M46.9,21.9v0.3c0,0.9,0.4,1.4,1.1,2.2l0.8,0.8c0.4,0.4,0.6,0.7,0.6,1.2v0.3c0,0.4-0.2,0.7-0.6,0.7
		c-0.5,0-0.7-0.3-0.7-0.7v-1.1h-1.3v1.1c0,1.1,0.5,1.8,1.9,1.8c1.4,0,2-0.8,2-1.9v-0.4c0-0.9-0.4-1.4-1.1-2.1l-0.9-0.9
		c-0.4-0.4-0.6-0.6-0.6-1.1v-0.2c0-0.5,0.3-0.7,0.6-0.7c0.4,0,0.6,0.2,0.6,0.7v0.7h1.2V22c0-1.2-0.5-1.8-1.9-1.8
		C47.5,20.1,46.9,20.9,46.9,21.9z"/>
	<path class="st1" d="M51.3,25.5v1.1c0,1.1,0.5,1.8,1.9,1.8c1.4,0,2-0.8,2-1.9v-0.4c0-0.9-0.4-1.4-1.1-2.1l-0.9-0.9
		c-0.4-0.4-0.6-0.6-0.6-1.1v-0.2c0-0.5,0.3-0.7,0.6-0.7c0.4,0,0.6,0.2,0.6,0.7v0.7h1.2V22c0-1.2-0.5-1.8-1.9-1.8
		c-1.3,0-1.9,0.8-1.9,1.8v0.3c0,0.9,0.4,1.4,1.1,2.2l0.8,0.8c0.4,0.4,0.6,0.7,0.6,1.2v0.3c0,0.4-0.2,0.7-0.6,0.7
		c-0.5,0-0.7-0.3-0.7-0.7v-1.1H51.3z"/>
	<polygon class="st1" points="55.4,19.9 57.5,19.6 57.5,18.7 55.4,19.1 	"/>
	<rect x="55.7" y="20.2" class="st1" width="1.4" height="8.1"/>
	<polygon class="st1" points="59.8,25.9 59.8,25.9 58.9,20.2 57.5,20.2 59,28.3 60.5,28.3 62.1,20.2 60.8,20.2 	"/>
	<polygon class="st1" points="65.7,21.3 65.7,20.2 62.5,20.2 62.5,28.3 65.7,28.3 65.7,27.2 63.8,27.2 63.8,24.8 65.2,24.8 
		65.2,23.7 63.8,23.7 63.8,21.3 	"/>
	<polygon class="st1" points="67.6,20.2 66.3,20.2 66.3,28.3 69.3,28.3 69.3,27.2 67.6,27.2 	"/>
</g>
</svg>
