<?xml version="1.0" encoding="utf-8"?>
<!-- Generator: Adobe Illustrator 24.0.0, SVG Export Plug-In . SVG Version: 6.00 Build 0)  -->
<svg version="1.1" id="Layer_1" xmlns="http://www.w3.org/2000/svg" xmlns:xlink="http://www.w3.org/1999/xlink" x="0px" y="0px"
	 viewBox="0 0 100 100" style="enable-background:new 0 0 100 100;" xml:space="preserve">
<style type="text/css">
	.st0{fill:#3F7E44;}
	.st1{fill:#FFFFFF;}
</style>
<rect x="0.3" y="-0.2" class="st0" width="100" height="100"/>
<g>
	<polygon class="st1" points="7.1,11.9 7.1,15.4 7.2,15.4 9.5,12.9 9.6,12.9 9.6,28.4 13,28.4 13,8.2 10.2,8.2 	"/>
	<path class="st1" d="M19.4,28.6c3.4,0,4.9-1.8,4.9-4.6v-3c0-1.8-0.8-3-2.5-3.4c1.4-0.4,2.3-1.6,2.3-3.3v-1.8c0-2.9-1.4-4.6-4.5-4.6
		c-3.5,0-4.7,2.1-4.7,5.1v1.8H18v-2.1c0-1.2,0.4-2,1.5-2c1.1,0,1.5,0.7,1.5,1.8v2.2c0,1.1-0.7,1.6-1.8,1.6h-1.3V19h1.4
		c1.2,0,1.7,0.6,1.7,1.6V24c0,1.1-0.5,1.8-1.5,1.8c-1.2,0-1.6-0.8-1.6-2v-2.9h-3.1v2.6C14.7,26.6,16,28.6,19.4,28.6z"/>
	<path class="st1" d="M51.1,44C28.9,44,17,58.7,14.4,62.4c-0.1,0.2-0.2,0.3-0.3,0.4c0.1,0.1,0.2,0.3,0.3,0.4
		c2.6,3.7,14.6,18.4,36.7,18.4c22.2,0,34.1-14.8,36.7-18.4c0.1-0.2,0.2-0.3,0.3-0.4c-0.1-0.1-0.2-0.3-0.3-0.4
		C85.1,58.7,73.2,44,51.1,44z M38.7,53.3c0.2-0.3,0.9-1.1,0.9-1.2c0.2-0.2,0.5-0.3,0.7-0.3c0.2,0,0.5,0.1,0.6,0.3
		c0,0.2-0.1,0.9-0.2,1c-0.3,0.3-1.2,0.8-1.6,0.7C38.8,53.7,38.6,53.4,38.7,53.3z M37.9,54.9C38,54.8,38,54.8,37.9,54.9
		c0.4-0.4,0.9-0.5,1.3-0.5c0.4-0.1,0.9,0.1,1,0.4c0.1,0.3-1,0.7-1.2,0.9c-0.5,0.5-1.4,1.5-1.9,1.6c-0.2,0-0.3,0-0.4,0
		C37.1,56.4,37.5,55.6,37.9,54.9z M45.3,73.9c-0.3,0.4-1.4,0.9-2.1,0.8c-0.7-0.1-0.8-1.9-0.8-2.9c0-0.3-0.5,0.7-0.7-1.4
		c-0.2-1.3-1,0.1-1-0.7c-0.1-0.9-0.5-0.7-0.9-1.2c-0.4-0.5-1,0.1-1.6,0.3c-0.6,0.3-0.4,0.4-1.2,0.1c0,0,0,0-0.1,0
		c-0.8-1.8-1.2-3.9-1.2-6c0-0.5,0-1,0.1-1.5c0-0.1,0.1-0.1,0.1-0.1c0.8-1,0.8-1.2,0.8-1.2l0.9-0.3c0,0,1.4,0.2,2.5,0.6
		c0.9,0.3,2.3,1.1,3.1,0.8c0.6-0.2,1.1-0.6,1-1.1c-0.1-0.6-0.6-0.8-1.1-0.3c-0.2,0.2-0.7-0.9-1-0.9c-0.4,0.1,0.4,1.3,0.1,1.3
		c-0.3,0.1-0.9-1.3-1-1.5c-0.1-0.2-0.6-0.7-1-0.3c-0.9,0.9-2.4,0.8-2.7,1c-0.9,0.7-1.1-0.2-1.1-0.8c0-0.1,0.1-0.3,0.1-0.4
		c0.3-0.3,1.4-0.4,1.7-0.2c0.4,0.3,0.7-0.1,0.8-0.2c0.2-0.2,0.1-0.4,0-0.6c-0.1-0.2,0.2-0.4,0.4-0.4c0.2-0.1,0.9-0.5,1.2-0.7
		c0.3-0.2,1.7-0.3,2.3,0c0.6,0.3,1.2,0.1,1.5-0.3c0.4-0.5,0.9-0.8,1.1-0.9c0.2-0.1-0.6-0.8-1.2,0c-0.6,0.8-1,0.9-1.3,0.9
		c-0.3,0-2.1-0.4-2.3-1c-0.2-0.6,0.6-1,1.2-1.3c0.7-0.3,2.5-0.3,2.9-0.4c0.9-0.2,2.1-0.7,2.7-0.3c0.6,0.4-2.5,1.1-1.5,1.7
		c0.4,0.2,2-0.9,2.6-1.2c1.3-0.7-1.3-0.9-0.9-2.3c0.4-1.6-3.2-1-5-0.8c2.4-1.5,5.3-2.4,8.3-2.4c7.3,0,13.4,5,15,11.8
		c0,0.3,0,0.6-0.1,0.7c-0.1,0.6-1.2,1-1.8,0.1c-0.2-0.2-0.8-0.9-0.8,0.2c0,1.1,1,1.2,0.1,1.8c-1,0.6-1.2,0.5-1.6,0.6
		c-0.5,0.2-0.9,1.3-0.8,1.9c0.1,0.6,1.5,2.2,0.5,2.1c-0.2,0-2.1-1.3-2.4-2.1c-0.3-0.9-0.7-1.7-0.9-2.3c-0.3-0.6-0.9-0.8-1.5-0.4
		c-0.5,0.4,0.2,0.8-0.2,1.6c-0.4,0.8-0.7,1.5-1.3,0.9c-1.5-1.7-3.7-0.9-4-2.8c-0.2-1-1.1-0.9-1.8-1.5c-0.8-0.6-1.2-0.9-1.3-0.5
		c-0.1,0.4,2.4,2.3,2.5,2.8c0.3,0.7-0.7,1.4-1.5,1.6c-0.7,0.2-1.1-0.4-1.8-1.2c-0.7-0.7-1-1.3-1.1-0.7c-0.1,0.8,0.7,2.1,1.4,2.6
		c0.6,0.4,1.3,0.6,1.1,1.2c-0.2,0.6,0,0.3-0.7,1c-0.7,0.7-0.8,0.9-0.8,1.9c0.1,1-0.2,1-0.4,1.8c-0.1,0.8-0.5,0.1-0.8,1.3
		C45.9,73.1,45.6,73.5,45.3,73.9z M62.8,65.7c0.5,0,1.3,0.7,1,1c-0.3,0.3-1.1,0.2-1.5-0.1C61.9,66.2,62.5,65.7,62.8,65.7z
		 M62.1,65.3c-0.2-0.1-0.3-0.2-0.4-0.6c-0.1-0.4,0.2-0.6,0.5-0.4c0.3,0.2,0.7,0.6,0.7,0.9S62.3,65.3,62.1,65.3z M55.3,65.2
		c-0.3,0.3-1.1,0.2-1.5-0.1c-0.4-0.3,0.2-0.8,0.5-0.8C54.8,64.2,55.6,64.9,55.3,65.2z M49,68.3c-0.2,0.3-0.8,2.9-1.2,2.6
		c-0.4-0.3,0.2-3,0.3-3.2C48.7,66.6,50,66.7,49,68.3z M51.1,78.3c-1.5,0-3-0.2-4.3-0.6c-0.2-0.2-0.3-0.4-0.2-0.8
		c0.5-1.2,1.9-1.7,3-1.8c2.5-0.2,5.8,1.6,6.3,1.3c0.5-0.3,1.6-1.7,3.1-1.6c1.1,0,1.1,0.2,1.4,0.4C57.9,77.2,54.6,78.3,51.1,78.3z
		 M62,73.9c-0.2,0-0.3-0.1-0.5-0.2c-0.8-0.4-0.7,0.3-1.2,0.1c-0.4-0.2,0.5-1.1-0.8-0.3c-1.2,0.8-0.9-0.1-1.4-1.5
		c-0.5-1.4,0.6-2.9,1.6-3.3c1.3-0.5,2.2-0.6,2.8-0.7c1.9-0.5,2.2-1.6,2.6-0.9c0.1,0.1,0.1,0.2,0.2,0.4c0.1,0.2,0.2,0.6,0.2,1
		C64.7,70.5,63.5,72.3,62,73.9z M66.2,66.1c-0.4-0.1-2.1-2.5-0.8-4.1c0.2-0.3-0.5-1-0.3-1c0.7-0.1,1.1,0.4,1.3,1.1
		c0,0.3,0,0.6,0,0.9C66.5,64,66.4,65,66.2,66.1z"/>
	<path class="st1" d="M33.6,15h1.5l0.3,1.5h1.4l-1.6-8.3h-1.6L32,16.5h1.3L33.6,15z M34.3,10.5L34.3,10.5l0.6,3.3h-1.1L34.3,10.5z"
		/>
	<path class="st1" d="M39.2,16.6V17h0.1c0.1,0,0.2,0,0.2,0.1c0,0.1-0.1,0.2-0.5,0.2v0.4c0.9,0,1.2-0.2,1.2-0.6
		c0-0.3-0.2-0.4-0.5-0.4v-0.1c1.4,0,1.9-0.9,1.9-2.1v-1.4h-1.3v1.5c0,0.5-0.2,0.8-0.7,0.8c-0.5,0-0.7-0.4-0.7-0.9v-4.5
		c0-0.5,0.2-0.9,0.7-0.9c0.5,0,0.7,0.3,0.7,0.8v1.1h1.3v-1c0-1.2-0.4-2.1-2-2.1c-1.5,0-2.1,0.9-2.1,2.3v4
		C37.5,15.5,38,16.4,39.2,16.6z"/>
	<path class="st1" d="M43.8,15h1.5l0.3,1.5H47l-1.6-8.3h-1.6l-1.6,8.3h1.3L43.8,15z M44.6,10.5L44.6,10.5l0.6,3.3H44L44.6,10.5z"/>
	<path class="st1" d="M44.2,7.7c0.2,0,0.5,0.2,0.8,0.2c0.6,0,0.8-0.5,0.9-1h-0.7C45.2,6.9,45.1,7,45,7c-0.2,0-0.5-0.2-0.8-0.2
		c-0.6,0-0.8,0.5-0.9,1H44C44,7.7,44.1,7.7,44.2,7.7z"/>
	<path class="st1" d="M49.8,16.6c1.5,0,2.1-1,2.1-2.3v-4c0-1.3-0.6-2.3-2.1-2.3c-1.5,0-2.1,0.9-2.1,2.3v4
		C47.7,15.7,48.4,16.6,49.8,16.6z M49.1,10.1c0-0.5,0.2-0.9,0.7-0.9c0.5,0,0.7,0.4,0.7,0.9v4.5c0,0.5-0.2,0.9-0.7,0.9
		c-0.5,0-0.7-0.4-0.7-0.9V10.1z"/>
	<path class="st1" d="M56.4,16.6c1.5,0,2-0.9,2-2.1v-1.4h-1.3v1.5c0,0.5-0.2,0.8-0.7,0.8c-0.5,0-0.7-0.4-0.7-0.9v-4.5
		c0-0.5,0.2-0.9,0.7-0.9c0.5,0,0.7,0.3,0.7,0.8v1.1h1.3v-1c0-1.2-0.4-2.1-2-2.1c-1.5,0-2.1,0.9-2.1,2.3v4
		C54.3,15.7,54.9,16.6,56.4,16.6z"/>
	<path class="st1" d="M61.4,16.6c1.5,0,2.1-1,2.1-2.3v-4c0-1.3-0.6-2.3-2.1-2.3c-1.5,0-2.1,0.9-2.1,2.3v4
		C59.3,15.7,59.9,16.6,61.4,16.6z M60.7,10.1c0-0.5,0.2-0.9,0.7-0.9c0.5,0,0.7,0.4,0.7,0.9v4.5c0,0.5-0.2,0.9-0.7,0.9
		c-0.5,0-0.7-0.4-0.7-0.9V10.1z"/>
	<polygon class="st1" points="65.7,11.3 67.3,16.5 68.5,16.5 68.5,8.2 67.4,8.2 67.4,13 65.9,8.2 64.5,8.2 64.5,16.5 65.7,16.5 	"/>
	<polygon class="st1" points="70.5,16.5 71.9,16.5 71.9,9.3 73,9.3 73,8.2 69.3,8.2 69.3,9.3 70.5,9.3 	"/>
	<path class="st1" d="M75.2,12.7l1.3,3.8H78l-1.3-3.8c0.8-0.2,1.1-0.7,1.1-1.6V10c0-1.2-0.5-1.9-1.9-1.9h-2v8.3h1.4V12.7z M75.2,9.3
		h0.5c0.5,0,0.7,0.2,0.7,0.7v1.2c0,0.4-0.2,0.7-0.7,0.7h-0.5V9.3z"/>
	<path class="st1" d="M80.1,15h1.5l0.3,1.5h1.4l-1.6-8.3h-1.6l-1.6,8.3h1.3L80.1,15z M80.8,10.5L80.8,10.5l0.6,3.3h-1.1L80.8,10.5z"
		/>
	<path class="st1" d="M86.7,15h1.5l0.3,1.5h1.4l-1.6-8.3h-1.6l-1.6,8.3h1.3L86.7,15z M87.5,10.5L87.5,10.5l0.6,3.3h-1.1L87.5,10.5z"
		/>
	<polygon class="st1" points="34.8,24.7 34.8,24.7 33.9,20 32.2,20 32.2,28.4 33.4,28.4 33.4,22.9 33.4,22.9 34.4,28.4 35.1,28.4 
		36,22.9 36.1,22.9 36.1,28.4 37.4,28.4 37.4,20 35.6,20 	"/>
	<path class="st1" d="M42,26.3V20h-1.3v6.4c0,0.5-0.2,0.8-0.7,0.8c-0.5,0-0.7-0.3-0.7-0.8V20H38v6.3c0,1.3,0.6,2.1,2.1,2.1
		C41.5,28.4,42,27.6,42,26.3z"/>
	<path class="st1" d="M46.9,26.1v-3.9c0-1.3-0.5-2.2-2-2.2h-2.2v8.3h2.2C46.3,28.4,46.9,27.4,46.9,26.1z M44.1,27.2v-6.1h0.6
		c0.6,0,0.8,0.3,0.8,0.8v4.4c0,0.5-0.2,0.8-0.8,0.8H44.1z"/>
	<path class="st1" d="M48.8,26.8h1.5l0.3,1.5H52L50.4,20h-1.6l-1.6,8.3h1.3L48.8,26.8z M49.6,22.4L49.6,22.4l0.6,3.3H49L49.6,22.4z"
		/>
	<polygon class="st1" points="53.6,23.1 55.2,28.4 56.5,28.4 56.5,20 55.3,20 55.3,24.8 53.8,20 52.4,20 52.4,28.4 53.6,28.4 	"/>
	<path class="st1" d="M57.1,22.2v4c0,1.2,0.5,2.1,1.7,2.2v0.5h0.1c0.1,0,0.2,0,0.2,0.1c0,0.1-0.1,0.2-0.5,0.2v0.4
		c0.9,0,1.2-0.2,1.2-0.6c0-0.3-0.2-0.4-0.5-0.4v-0.1c1.4,0,1.9-0.9,1.9-2.1v-1.4h-1.3v1.5c0,0.5-0.2,0.8-0.7,0.8s-0.7-0.4-0.7-0.9
		v-4.5c0-0.5,0.2-0.9,0.7-0.9s0.7,0.3,0.7,0.8V23h1.3v-1c0-1.2-0.4-2.1-2-2.1C57.7,19.9,57.1,20.9,57.1,22.2z"/>
	<path class="st1" d="M64.8,28.4h1.4L64.7,20h-1.6l-1.6,8.3h1.3l0.2-1.5h1.5L64.8,28.4z M63.3,25.7l0.6-3.3h0l0.6,3.3H63.3z"/>
	<path class="st1" d="M71.9,22.7V22c0-1.2-0.5-2.1-2-2.1c-1.5,0-2.1,0.9-2.1,2.3v4c0,1.3,0.6,2.3,1.8,2.3c0.8,0,1.2-0.4,1.3-1v0.9h1
		v-4.5h-2V25h0.7v1.5c0,0.5-0.2,0.8-0.7,0.8c-0.5,0-0.7-0.4-0.7-0.9v-4.5c0-0.5,0.2-0.9,0.7-0.9c0.5,0,0.7,0.3,0.7,0.8v0.8H71.9z"/>
	<polygon class="st1" points="72.5,20 72.5,28.4 75.6,28.4 75.6,27.2 73.9,27.2 73.9,20 	"/>
	<path class="st1" d="M76,22.2v4c0,1.3,0.6,2.3,2.1,2.3c1.5,0,2.1-1,2.1-2.3v-4c0-1.3-0.6-2.3-2.1-2.3C76.7,19.9,76,20.9,76,22.2z
		 M77.4,21.9c0-0.5,0.2-0.9,0.7-0.9c0.5,0,0.7,0.4,0.7,0.9v4.5c0,0.5-0.2,0.9-0.7,0.9c-0.5,0-0.7-0.4-0.7-0.9V21.9z"/>
	<path class="st1" d="M80.9,20v8.3h2.2c1.4,0,1.9-0.7,1.9-1.8v-1.1c0-0.8-0.3-1.2-1-1.4c0.6-0.2,0.8-0.6,0.8-1.3v-0.8
		c0-1.2-0.5-1.8-1.9-1.8H80.9z M83.6,26.5c0,0.4-0.2,0.7-0.7,0.7h-0.6v-2.6h0.6c0.5,0,0.7,0.2,0.7,0.7V26.5z M83.5,21.8v1
		c0,0.4-0.2,0.7-0.7,0.7h-0.5v-2.4h0.5C83.2,21.1,83.5,21.4,83.5,21.8z"/>
	<path class="st1" d="M86.9,20l-1.6,8.3h1.3l0.2-1.5h1.5l0.3,1.5h1.4L88.5,20H86.9z M87.1,25.7l0.6-3.3h0l0.6,3.3H87.1z"/>
	<polygon class="st1" points="91.9,27.2 91.9,20 90.5,20 90.5,28.4 93.5,28.4 93.5,27.2 	"/>
	<path class="st1" d="M34.4,31.2h-2.2v8.3h2.2c1.5,0,2-1,2-2.2v-3.9C36.4,32.1,35.9,31.2,34.4,31.2z M35,37.5c0,0.5-0.2,0.8-0.8,0.8
		h-0.6v-6.1h0.6c0.6,0,0.8,0.3,0.8,0.8V37.5z"/>
	<path class="st1" d="M37,33.3v4c0,1.3,0.6,2.3,2.1,2.3c1.5,0,2.1-1,2.1-2.3v-4c0-1.3-0.6-2.3-2.1-2.3C37.7,31.1,37,32,37,33.3z
		 M39.9,33.1v4.5c0,0.5-0.2,0.9-0.7,0.9c-0.5,0-0.7-0.4-0.7-0.9v-4.5c0-0.5,0.2-0.9,0.7-0.9C39.6,32.3,39.9,32.6,39.9,33.1z"/>
	<path class="st1" d="M47.1,34.2v-1c0-1.2-0.4-2.1-2-2.1c-1.5,0-2.1,0.9-2.1,2.3v4c0,1.3,0.6,2.3,2.1,2.3c1.5,0,2-0.9,2-2.1v-1.4
		h-1.3v1.5c0,0.5-0.2,0.8-0.7,0.8s-0.7-0.4-0.7-0.9v-4.5c0-0.5,0.2-0.9,0.7-0.9s0.7,0.3,0.7,0.8v1.1H47.1z"/>
	<polygon class="st1" points="47.6,31.2 47.6,39.5 50.7,39.5 50.7,38.4 49,38.4 49,31.2 	"/>
	<rect x="51.2" y="31.2" class="st1" width="1.4" height="8.3"/>
	<polygon class="st1" points="58.4,39.5 58.4,31.2 56.6,31.2 55.8,35.9 55.8,35.9 54.8,31.2 53.2,31.2 53.2,39.5 54.4,39.5 
		54.4,34.1 54.4,34.1 55.4,39.5 56.1,39.5 57,34.1 57.1,34.1 57.1,39.5 	"/>
	<path class="st1" d="M60.3,31.2l-1.6,8.3h1.3l0.2-1.5h1.5l0.3,1.5h1.4l-1.6-8.3H60.3z M60.5,36.9l0.6-3.3h0l0.6,3.3H60.5z"/>
</g>
</svg>
