<?xml version="1.0" encoding="utf-8"?>
<!-- Generator: Adobe Illustrator 24.0.0, SVG Export Plug-In . SVG Version: 6.00 Build 0)  -->
<svg version="1.1" id="Layer_1" xmlns="http://www.w3.org/2000/svg" xmlns:xlink="http://www.w3.org/1999/xlink" x="0px" y="0px"
	 viewBox="0 0 295 200" style="enable-background:new 0 0 295 200;" xml:space="preserve">
<path d="M31.5,164.4c0-1.9-1.9-3.1-4.1-3.1c-2.8,0-4.5,1.2-4.5,3.1c0,1.9,1.9,2.9,3.3,3.3l5.2,1.6c3.7,1.2,6.4,3.4,6.4,7.7
	c0,3.4-2.5,8.6-10.2,8.6c-9.8,0-10.7-6.3-10.7-8.8l5.6-0.1c0,3,2.4,4.2,5.1,4.2c1.9,0,4.6-0.9,4.6-3.1c0-1.5-0.6-2.3-3.4-3.3
	l-6.1-2.2c-3.1-1.1-5.3-3.9-5.3-7c0-3.6,2.5-8.8,9.8-8.8c8.7,0,10.1,5.8,10.1,7.8L31.5,164.4z"/>
<path d="M17.8,131.7h6.4c5.1,0,8.1,3,8.1,8.5c0,5.4-3.7,8.5-8.1,8.5h-6.5V131.7z M24.1,145.8c3.5,0,4.8-3,4.8-5.6
	c0-2.8-1.2-5.6-5-5.6h-2.6v11.2H24.1z"/>
<polygon points="35.3,131.7 46.1,131.7 46.1,134.7 38.7,134.7 38.7,138.6 45.9,138.6 45.9,141.6 38.7,141.6 38.7,145.6 46.1,145.6 
	46.1,148.7 35.3,148.7 "/>
<g>
	<path d="M170.3,28.7c2.5,4.8,3.2,11.5,1.6,16.9c-1.6,6.4-7.1,12.9-13.4,15.6c-7.1,3.5-17.2,2.6-23.5-1.9c-8.8-6-12.4-16.4-9.7-26.6
		c1.6-6.1,6.5-12.2,12.4-15.1c3.3-1.6,7-2.5,10.9-2.6C157.7,15,166.3,20.3,170.3,28.7 M149.1,16.1c0.1,1,0.1,2.2,0,3.3
		c0-0.1,0-0.2,0.1-0.3c0.2-0.1,0.3,0,0.4,0.2c0,0.2,0.1,0.5-0.1,0.6c0.1,0,0.2-0.1,0.3-0.1c2.8,0.2,5.3,1,7.6,2.3v-0.1
		c0.5-0.2,1.1-0.5,1.6-0.1c0.6-0.2,0.7,0.5,1.2,0.6c0.6,0.3,1.2,1,1.3,1.6c0.1,0.2,0.4,0.4,0.5,0.6c0.4-0.8,1.2-1.4,1.8-2.1l0.4-0.2
		c-3.6-3.5-7.9-5.4-12.8-6C150.7,16.3,149.8,16.4,149.1,16.1 M147.8,16.3c-4.8,0.2-9.1,1.8-12.9,4.6c-0.7,0.5-1.4,1.3-2.1,1.7h0.1
		c0.9,0.7,1.9,1.7,2.7,2.6l0.1-0.2c3.5-3.2,7.6-5,12.3-5.2l-0.1-0.3l0-2.9L147.8,16.3z M151.9,18.1l-1.7,0.7
		c-0.1-0.1-0.4-0.1-0.5,0.1c-0.1,0.1,0,0.1,0,0.2c0.6,0.8,1.7,0.4,2.5,0.2c0.6,0.2,1.1,0,1.6-0.4v-0.1
		C153.3,18.2,152.6,18.1,151.9,18.1 M149.1,21l0.1,0.2c0,1.1,0,2.3-0.1,3.4c0.5-0.2,0.9,0,1.4,0c2.4,0.4,4.6,1.1,6.5,2.6
		c-0.2-0.2-0.5-0.5-0.6-0.9c0,0,0.1-0.1,0.1,0c0-0.4-0.4-0.6-0.4-0.9c0.1-0.1,0.1-0.1,0.3-0.1c0.4,0.4,0.8,0.8,1.1,1.2
		c0.3-0.1,0.5,0.1,0.7,0.2c0.3,0.2,0.1,0.6,0.4,0.9c0,0.7,0.9,1.1,0.9,1.8c0,0.2,0.2,0,0.3,0.1l0.7,0.9c-0.1,0.2,0,0.4,0.1,0.5
		c0.3,0.1,0.5-0.3,0.8-0.2c0.5,0.3-0.1,0.6,0,0.9c0.2,0,0.4-0.1,0.6,0c0.1,0.3-0.2,0.4-0.3,0.6c0,0.3,0.2,0.2,0.4,0.3
		c0.2,0,0.3,0.3,0.3,0.4c0.6,0.6-0.2,1.3,0.1,2c0.2,0.4,0,0.9-0.3,1.2c0,0.5-0.5,0.9-0.7,1.3l-0.6,0.1c-0.3,0.3,0.3,0.7,0,0.9l1.3,0
		l-0.1-0.1c-0.2-0.5-0.1-1.2,0.2-1.7c0.2-0.4,0.3-0.9,0.6-1.3c0.1,0,0.2-0.2,0.3,0c0,0.4,0,0.9-0.2,1.2c0.4,0.6,0.3,1.3,0.4,2
		c1.2-0.1,2.4-0.1,3.5-0.1l-0.1-0.2c-0.2-2.2-0.6-4.3-1.6-6.2c-0.3,0-0.4,0.2-0.7,0.1c-0.1,0-0.2-0.1-0.1-0.2
		c-0.5-0.5-0.8-1.1-1.3-1.5c-0.6,0.1-0.9-0.6-1.4-0.7c-0.5-0.2-0.2-1-0.9-0.8c-0.3-0.1-0.7-0.4-0.8-0.8c0-0.6-0.1-1.3-0.7-1.7
		c-0.4-0.2-0.6,0.4-1,0.3c-0.2-0.1-0.1-0.4-0.2-0.6c-0.1-0.2-0.3-0.3-0.3-0.6c0.6-0.7-0.7-0.7-0.4-1.5c-0.1-0.5-0.6-0.7-0.9-1.2
		c-1.9-0.8-3.7-1.4-5.8-1.7C150,21.2,149.5,21.3,149.1,21 M160,21.1c-0.3,0.2-0.5-0.2-0.7,0.1c0,0.1,0,0.3,0.1,0.3
		c0.5,0.2,0.6,0.9,1.2,0.7c0.2-0.2-0.1-0.4-0.1-0.7C160.4,21.2,160.2,21.1,160,21.1 M138.4,24.3c-0.7,0.5-1.4,1.2-2.2,1.6
		c0.9,0.6,1.6,1.5,2.4,2.2l0.1,0.2c2-2,4.5-3.1,7.2-3.7c0.6-0.1,1.3-0.3,1.9-0.1c0-1.1-0.1-2.3,0-3.5
		C144.3,21.4,141.2,22.4,138.4,24.3 M165.1,23.2c-0.7,0.9-1.6,1.7-2.4,2.6l-0.4,0.1c0.3,0.1,0.3,0.4,0.5,0.5
		c0.9,0.5,1.1,1.4,1.9,1.9c0.4,0.9,1.4,1.6,1.5,2.6c1,2.3,1.8,4.7,1.8,7.5l-0.1,0.1c0.1,0,0.2,0,0.3-0.1l3.5-0.1
		c-0.2-0.3-0.1-0.8-0.2-1.2C171,31.8,168.7,27.2,165.1,23.2 M132,23.3c-3.4,3.8-5.5,8.2-6.2,13.1c-0.1,0.7,0,1.5-0.2,2.2
		c1.2-0.1,2.5-0.1,3.7,0l-0.1-0.5c0.2-3.8,1.5-7.2,3.6-10.3c0.5-0.6,0.9-1.4,1.6-1.8c-0.8-0.7-1.6-1.6-2.4-2.4L132,23.3z
		 M147.8,25.8l-0.2,0.1c-3.1,0.2-5.7,1.5-8,3.4c0.9,0.6,1.7,1.7,2.6,2.4c0.1-0.1,0.1-0.2,0.2-0.3c1.1-0.8,2.3-1.6,3.7-1.9
		c0.6-0.1,1.2-0.3,1.8-0.2C147.7,28.2,147.7,27,147.8,25.8 M149.1,25.8l0.1,0.3l0,3.3l0.3-0.1c2,0.3,3.8,0.9,5.4,2.2l0.1,0.3
		c0.5-0.8,1.4-1.4,2-2.1l0.6-0.3l-0.3-0.1c-1.3-1.1-2.8-1.9-4.3-2.5C151.8,26.2,150.4,26,149.1,25.8 M135.3,26.7l0,0.2l-1.3,1.6
		c-2.1,2.9-3.1,6.3-3.4,10l3.3-0.1l0.3,0.1c-0.1-0.1-0.1-0.2-0.1-0.3c0.3-3.4,1.5-6.5,3.8-9C136.9,28.5,136.1,27.6,135.3,26.7
		 M158.3,30.1l-0.1,0.1c-1.1,1.2-2.3,2.3-3.4,3.5c0.1,0.1,0.2,0.3,0.3,0.3c0-0.3,0.2-0.5,0.2-0.8c0.3-0.4,0.7-0.1,1.1-0.1
		c0.6-0.1,1.1,0.1,1.7,0.1c0.4,0.2,0.5,0.8,0.9,1c0.1,0.2,0,0.3-0.1,0.5c0.1,0.9,0.6-0.2,1,0c0.2,0.1,0.4,0,0.6,0.3
		c0.1,0.4,0.5,0.3,0.6,0.7c0,0.2-0.2,0.2-0.3,0.3c0.1,0.4-0.4,0.6-0.2,1c0.7,0.1,0.7-0.7,1-1c-0.2-0.6-0.3-1.3-0.7-1.8
		c-0.4-0.1-0.6-0.6-1-0.6c-0.8-0.3,0.1-0.8,0-1.2C159.5,31.4,158.9,30.8,158.3,30.1 M138.7,30.2c-1.7,2-2.8,4.2-3.2,6.7
		c-0.1,0.6-0.1,1.3-0.3,1.8c0.4-0.2,1-0.1,1.5-0.1c-0.3-0.1,0-0.5-0.2-0.7c0-0.3-0.1-0.7,0.2-0.9c0-0.5,0.5-0.7,0.5-1.2
		c0.1-0.5,0.7-0.2,1-0.4c0.2-0.1,0-0.3,0-0.4c0.2-0.3,0.6-0.3,0.9-0.5c0.2-0.3,0.5-0.6,0.8-0.8c0.7,0,0.7-1,1.4-1
		C140.5,32,139.6,31,138.7,30.2 M149.1,30.6c0.2,0.7,0,1.7,0.2,2.5l0.9,0.3c0.3-0.4,0.8-0.5,1-0.9c0.2-0.1,0.3,0,0.5,0.1
		c0,0.3,0,0.6-0.1,1c-0.3,0.7-1.1,0.7-1.5,1.2c0.3,0.2,0.4-0.1,0.7-0.2c0.3,0,0.6,0.3,0.8,0.5c0.2,0.1,0.4,0,0.6-0.1
		c0.1-1,1.4-0.9,1.8-1.8l-0.2,0.1c-0.1-0.1-0.3-0.1-0.3-0.3c0.2-0.2,0.5-0.5,0.7-0.6c-1.1-0.7-2.2-1.3-3.4-1.6
		C150.1,30.8,149.6,30.8,149.1,30.6 M142.7,33.1h0.3c0.3,0.3,0.8,0.2,1,0.6c0.1,0.2-0.2,0.2-0.2,0.4c0.1,0,0.1,0.1,0.2,0.1
		c0.2,0.1,0.2-0.1,0.3-0.2c0.3-0.3,0.3,0.3,0.6,0.3c0.2-0.1,0.5-0.1,0.6,0.1c0.2-0.2,0.6,0,0.7-0.3c0.4-0.4,0.2-1,0.7-1.3
		c0.2,0.1,0,0.3,0.1,0.5c0.4,0.2,0.8-0.3,1.1,0.1c-0.3-0.8-0.2-1.8-0.2-2.6C145.9,30.9,144.1,31.6,142.7,33.1 M148.5,35.1
		c-0.2-0.2-0.6-0.1-0.9,0c0.2,0.2,0.1,0.7,0.3,1c-0.4,0.6-1,0.7-1.5,0.9c-0.2,0.2-0.1,0.6-0.5,0.6c-0.1,0.3-0.5,0.4-0.4,0.8
		c-0.2,0.4-0.1,0.9-0.2,1.4c-0.7,0.4-0.5-0.6-0.9-0.8l-0.1,0.2c-0.1,0-0.2,0-0.3-0.1c-0.1,0-0.3-0.1-0.4,0c-0.2,0.3-0.4,0.5-0.3,0.8
		c-0.1,0.2-0.4,0.1-0.4,0.4c0.4,0,0.8-0.1,1.2-0.2c0.3,0.1,0.5-0.1,0.8-0.1c0.1,0,0.2,0.1,0.2,0.3h0.1c0.2-0.1,0.3-0.4,0.2-0.6
		c0-0.3,0.3-0.3,0.5-0.3c0.2,0.1,0.1,0.2,0.1,0.3c0.5,0.2-0.1,0.6-0.2,0.9c-0.1,0.2,0,0.7-0.5,0.7c-0.1,0-0.1-0.1-0.1-0.2h-0.1
		c0,0.2,0.1,0.5,0.3,0.5c0.3-0.3,0.3-0.7,0.8-0.8c0.3-0.3-0.1-0.7,0.3-0.9c0.6,0,1.3-0.3,1.8,0.2c0,0.2-0.1,0.3,0.1,0.5
		c-0.1,0.3-0.2,0.6-0.4,0.8c0.1,0.2,0,0.3-0.1,0.5c-0.2,0.7-1,0.4-1.5,0.6c0.8,0.6,1.7,0.8,2.7,0.7c0.5,0,0.3-0.7,0.6-0.9
		c0.2-0.8,0.9-0.3,1.4-0.5c0.2-0.4,0.4-0.7,0.4-1.1c-0.3-0.2-0.4-0.6-0.3-0.9c-0.2-0.3-0.2-0.8-0.6-0.8c-0.1-0.1,0-0.2,0-0.3
		c0-0.3,0.3-0.3,0.3-0.6c-0.3-0.2-0.2-0.6-0.2-0.8c-0.5,0.1-0.5-0.5-0.9-0.6c-0.1-0.3-0.4-0.3-0.6-0.4c-0.6,0.3-0.7-0.4-1.1-0.6
		c0-0.1-0.1-0.3,0-0.4c0.2-0.2,0.5,0,0.8,0L148.5,35.1z M138,38.1c-1,0.3,0.2,1-0.1,1.6c-0.1,0.3-0.5,0-0.7,0.2l-0.1,0.6
		c-0.1,0.4-0.6,0.1-0.8,0.3c-0.2,0.2,0,0.5,0.1,0.7c-0.3,0.8,0.8,1,0.7,1.7c0.3,0.4,0,1.1,0.4,1.4c0.1,0.8-0.1,1.8,0.6,2.5l0.1,0.7
		c0.1,0.5-0.6,0.4-0.5,0.8c0.1-0.1,0.2,0.1,0.2,0.2v0c0.9-1.1,2-2.2,3.1-3.2l-0.5-0.5c-0.9-1.3-1.5-2.6-1.9-4.1l-0.3-0.2
		c0,0.4-0.2,0.7-0.2,1.1l-0.1,0.1c-0.3,0-0.4-0.2-0.6-0.3c0-0.1-0.2-0.3,0-0.5c0.1,0,0.2,0,0.3,0.1c0.1-0.1,0.1-0.3,0.1-0.5
		c0-0.3-0.2-0.6,0-0.8c0.2,0,0.4,0.3,0.5,0.4c0.2,0.1,0.4-0.1,0.6-0.2c0-0.2,0.3-0.5,0-0.6c0.2-0.5,0-1,0-1.4
		C138.8,38,138.4,38,138,38.1 M160.6,38.5c-0.1,0-0.2,0-0.3,0C160.3,38.5,160.4,38.5,160.6,38.5 M159.8,39.7l0.4,0.4
		c0.4,0.3,0.1,0.8,0.5,1c0.5,0.2,0.6,0.8,0.8,1.2c0.1-0.1,0.1-0.2,0.1-0.3c0.2-0.7,0.1-1.4,0.3-2.1
		C161.3,39.9,160.4,39.9,159.8,39.7 M168,39.8l-0.2-0.1L168,40c-0.2,4-1.5,7.5-3.8,10.7c-0.4,0.5-0.9,1.2-1.4,1.5
		c0.9,0.7,1.9,1.8,2.7,2.6l0.1-0.2c3.7-4.2,5.8-9.1,6-14.7l0.1-0.3l-0.2,0.1L168,39.8z M163.2,39.7c0.1,0.7-0.1,1.4-0.2,2.2l0.4,0.4
		c0.1,0.2,0.1,0.4-0.1,0.6c-0.2,0.1-0.4,0.1-0.6,0c-0.5,1.6-1.1,3.2-2.1,4.6c-0.4,0.5-0.8,1.2-1.3,1.5l1.1,1c0.1-0.1,0-0.2,0-0.2
		c0-0.1,0.1-0.3,0.3-0.3c0.5,0,0.5,0.6,0.8,0.8c-0.1,0.5,0.3,0.8,0.2,1.2c3-3.2,4.5-7.1,4.8-11.5l0.2-0.2c-1.1,0.1-2.2,0-3.3,0
		L163.2,39.7z M135.2,39.8l0.2,0.3c0,0.8,0.3,1.6,0.2,2.4c0.1-0.2,0.2-0.5,0.5-0.7c0-0.2-0.3-0.3-0.3-0.5c0.2-0.4,0-1.2,0.6-1.4
		C135.9,40,135.5,40,135.2,39.8 M129.4,39.8l-0.3,0.1l-3.3,0c0.2,3.8,1.2,7.3,2.9,10.6c0.9,1.6,2.1,3,3.2,4.5l2.4-2.5l0.3-0.1
		c-0.4-0.3-0.8-0.8-1.1-1.2c-0.4-0.1-0.8-0.4-1-0.8c-0.1-0.1,0-0.4-0.1-0.5l-0.1,0.2c-0.4,0.2-0.6-0.2-0.9-0.4
		c-0.4-0.2-0.2-0.9-0.7-0.8c-0.2,0-0.3-0.2-0.4-0.3c-0.5,0-0.6-0.5-0.8-0.7c0,0.1,0,0.3-0.1,0.3c-0.5,0.1-0.6-0.5-1-0.7
		c-0.1,0-0.1,0.1-0.3,0.1c-0.3-0.3-0.5-0.6-0.5-1c-0.4-0.4-0.2-1.2-0.1-1.7c0.1-0.1,0.3-0.2,0.2-0.4c0.1-0.3,0.4-0.3,0.6-0.3
		c0.1,0,0.2,0.1,0.2,0.2c0.2-0.1,0.5,0,0.4-0.3c0.2-0.2,0.5-0.2,0.8-0.3c0.2,0.2,0.3,0.5,0.5,0.7l-0.2-0.3c-0.3-1.2-0.5-2.4-0.6-3.7
		c0-0.1-0.2-0.1-0.1-0.2l0,0C129.3,40.2,129.3,40,129.4,39.8 M134.1,39.8l-0.3,0.1c-1.1,0-2.3,0.1-3.3-0.1l0.1,0.2l0.3,2.2
		c0.1,0.9,0.5,1.7,0.5,2.5c0.1-0.2,0-0.5,0.4-0.6c-0.1-0.3,0.3-0.5,0-0.7c0.1-0.6,0.2-1.2,0.7-1.6c0.6,0,0.7-0.8,1.3-0.9
		c0.3,0,0.5,0.4,0.6,0.6C133.9,41.1,134,40.4,134.1,39.8 M140.2,41.3c0.3,0.6,0.5,1.3,0.9,2c0.2,0.6,0.7,1,0.9,1.5
		c0.2-0.4,0.7-0.8,1-1.2c0-0.2,0-0.3-0.1-0.5c-0.1-0.3,0-0.6-0.2-0.8c-0.3,0.1,0.1,0.4,0,0.6c-0.1,0.1-0.3,0-0.3-0.1
		c-0.3,0-0.5-0.3-0.6-0.5c0.2-0.1-0.1-0.2-0.1-0.3c-0.1-0.1-0.1,0-0.2,0.1c-0.1,0-0.1,0-0.2,0C141.3,41.3,140.5,41.7,140.2,41.3
		 M144,42.3c-0.1,0.3-0.3,0.6-0.5,0.8l0,0c0.3-0.2,0.5-0.6,0.9-0.6L144,42.3z M153.5,43.2c0,0.2,0,0.4,0.2,0.6
		c0.5-0.1,0.3,0.6,0.7,0.5c0.2-0.1,0-0.3,0.1-0.4c-0.1-0.4-0.4-0.4-0.7-0.6c0-0.1,0-0.1,0.1-0.2C153.7,43,153.6,43.1,153.5,43.2
		 M160.3,43.3c-0.3,0-0.8,0.2-1.1-0.1c-0.1-0.1-0.2,0-0.2,0.1c-0.1,0.2-0.2,0.4-0.5,0.3c-0.2-0.1-0.2-0.3-0.3-0.5
		c0,0.1,0,0.3-0.1,0.4c-0.3,0.3-0.3,0.5-0.5,0.8c-0.3,0.3-0.7,0.2-0.9,0.4c0,0.6-0.7,0.5-1,0.6c0,0.1,0.1,0.1,0.1,0.1
		c0.2,0,0.4,0,0.5-0.1c0.5,0.1,0.4-0.5,0.7-0.7c0.3,0,0.5-0.3,0.8-0.1c0.3,0.3,0.3,0.8,0.3,1.2c-0.3,0.3-0.1,0.8-0.3,1.1
		c0,0.4-0.4,0.6-0.4,1c-0.2,0.2-0.4,0.2-0.7,0.2c-1-0.4-1.9-0.6-3-0.7c-0.1,0-0.2,0.1-0.1,0.2c0.4,0.2,1,0.2,1.4,0.4
		c0.4,0.1,0.7,0.6,1.2,0.5c0.4-0.2,1.2,0.1,1.4-0.3c0-0.4,0.3-0.8,0.5-1.2l0.1,0c0.2,0.3,0.2,0.6,0.3,0.9c0.3-0.4,0.6-0.8,0.9-1.1
		c0.8-1.2,1.5-2.4,1.8-3.7C161,43.1,160.6,43.2,160.3,43.3 M145.2,43.3c-0.5,0.8-1.5,1.6-2.2,2.4c1.3,1.1,2.7,1.7,4.3,2
		c0.1-0.3,0-0.7,0.1-1c0.1-0.3,0.4-0.3,0.7-0.2c0.1,0,0.2-0.2,0.1-0.3c-0.3-0.1-0.2-0.5-0.3-0.7c0-0.1,0.2-0.1,0.2-0.3
		c-0.2-0.2,0.1-0.4-0.1-0.6c0.1-0.1,0.1-0.2,0.3-0.2c-0.8,0.4-1.6-0.1-2.2-0.4C145.7,43.8,145.3,43.6,145.2,43.3 M152.2,45.4
		c0,0.1-0.2,0.3,0,0.3c0.3-0.3,0.9-0.3,0.9-0.7C152.7,44.9,152.5,45.1,152.2,45.4 M153.5,46.3c-0.4,0-0.6,0.3-0.8,0.5
		c-0.3,0.2-0.5-0.4-0.8-0.2c0,0.1,0.1,0.1,0.1,0.1c0.1,0.1,0.1,0.3,0,0.3c-0.4,0.4-0.6-0.2-1-0.1V47c0,0.1,0,0.2-0.1,0.2
		c-0.2-0.4-0.7-0.3-1-0.6c-0.2-0.1-0.3,0-0.4,0.1c-0.1,0.2-0.5,0-0.4,0.3c-0.3,0.1-0.3,0.4-0.6,0.6c-0.4-0.1-0.5,0.4-0.9,0.3
		c0,0.1,0,0.2,0.1,0.2c0.2,0.1,0.4,0.1,0.7,0.1c0.4-0.6,1-0.1,1.5-0.3c0.3,0.1,0.1,0.4,0.3,0.5c0.5-0.2,0.9,0.4,1.3,0.1
		c0-0.6,0.6-0.5,1-0.7c0.5-0.3,1.2-0.8,1.1-1.5L153.5,46.3z M141.9,46.6c-0.7,0.9-1.6,1.8-2.4,2.5c0.4,0,0.6,0.4,0.9,0.6
		c1.8,1.5,4.1,2.2,6.1,2.7l-0.6-0.3c-0.4-0.5-1-1.1-1.1-1.8c0.4-0.1,0.4-0.6,0.5-1c0.4-0.4,0.8-0.6,1.3-0.7
		c-1.2,0.5-2.3-0.4-3.3-0.9C142.9,47.5,142.2,47.2,141.9,46.6 M158.6,50l-0.1-0.2c-0.1,0.3-0.3,0.5-0.5,0.7c0,0.2-0.1,0.5,0.2,0.6
		c0.5,0.2,1.1,0.5,1.2,1c-0.2,0.5-1.2,1-0.6,1.6c0.2,0.3-0.3,0.4-0.2,0.6l0.2-0.2c0.7-0.6,1.5-1.1,2.1-1.8h0.1c-0.1,0-0.3,0.1-0.5,0
		c-0.3-0.2-0.4-0.5-0.4-0.8L158.6,50z M139.3,50.4L139.3,50.4L139.3,50.4L139.3,50.4z M139.7,50.9c-0.2-0.1-0.3-0.2-0.3-0.4
		L139.7,50.9z M139.8,51c0.1,0.3,0.5,0.5,0.3,0.8c-0.2,0.3-0.6,0.3-1,0.3c-0.7-0.1-1.2,0.4-1.8,0.5c-0.6,0.2-0.8-0.5-1.3-0.5
		c3.3,2.9,7.2,4.7,11.6,5l0.3,0.2l-0.1-0.4v-3.2l-0.3,0.1C144.6,53.8,142,52.7,139.8,51 M162,53.3l-0.1-0.3
		c-0.3,0.7-1.1,1.1-1.6,1.6c-0.8,0.8-2.1,1-2.5,2.1c-0.4,0.4-0.6,1-1.2,1.2c-0.2,0.6-0.8,0.5-1.2,1c-1,0.9-1.7-0.6-2.6-0.8l-1.8,0.3
		c-0.6,0-1.3,0.2-1.9,0c0.1,1.2,0.1,2.5,0,3.8l0.2-0.1c5.8-0.3,10.8-2.5,15.1-6.3L162,53.3z M135.3,53.2l0,0.1l-2.5,2.5
		c3.8,3.2,8,5.3,12.8,6c0.8,0.1,1.6,0.1,2.4,0.3l-0.2-0.3v-3.3l0.1-0.2l-0.4,0.1C142.9,58.2,138.7,56.5,135.3,53.2 M149,54.1
		l0.2,0.3c0,1,0.1,2,0,3c0.9-0.3,1.9-0.3,2.9-0.4c-0.2-0.1-0.4-0.1-0.5-0.3c-0.6,0-0.8-0.6-1-1.1c-0.1-0.3,0.1-0.6,0.3-0.9
		c-0.2-0.5-1-0.1-1.4-0.3C149.3,54.3,149.2,54.1,149,54.1"/>
	<path d="M171.1,19.5c1.8,1.6,2.6,3.6,3.1,5.7l0.3,0.7c-2.6-1.8-4.9-4.3-6.5-6.9l-2-2C167.7,17.7,169.6,18.2,171.1,19.5"/>
	<path d="M126.4,22.7c-1.2,1.5-2.7,2.4-4,3.7c0.7-1.5,0.7-3.3,1.8-4.6c1.5-2.5,4.1-3.4,6.6-4.4C129,18.9,127.7,20.8,126.4,22.7"/>
	<path d="M177.4,25.3c0.6,2.5-0.3,5,0.3,7.5l0,0c-1.4-2.7-4.3-4-6.3-6.1c-1.2-1.3-1.7-2.8-2-4.5c1.2,2.8,4.3,3.4,6,5.7
		c0.6,0.5,0.8,1.3,1.2,1.9l0.1-0.1c-1-2.2-1.4-4.7-2.1-7c-0.4-1-1.1-2-2-2.6C174.9,20.6,176.9,23.1,177.4,25.3"/>
	<path d="M124.2,20.6c-2.4,1.6-2.2,4.6-3,7c-0.2,0.9-0.7,1.7-0.9,2.7l0.1,0c0.4-1,1.1-2,2-2.9c1.7-1.6,4.2-2.5,5-4.8
		c0,3.2-2.7,5.7-5.3,7.5c-1.1,0.9-2.1,2-2.7,3.2c-0.1-0.8,0.1-1.6,0.1-2.5c-0.3-2.8-0.5-6,1.5-8.1C121.9,21.6,123,20.9,124.2,20.6"
		/>
	<path d="M178.9,25.9c2.1,2.9,2.6,7.5,1,10.8c-0.6,1.4-1,2.9-1.2,4.4c-0.1-0.3-0.1-0.6-0.2-0.9c-0.8-3.2-3.9-5.5-5.2-8.6
		c-0.4-1-0.7-2-0.9-3.1c1.3,2.5,4.7,3.8,5.6,6.5c0.4,0.7,0.3,1.6,0.6,2.3c0,0,0.1,0,0.1-0.1c-0.4-2.8-0.3-5.8,0.1-8.6
		c0-1.5-0.2-3-1-4.1C178.3,24.8,178.5,25.4,178.9,25.9"/>
	<path d="M119.1,25c-1.8,2.8-0.3,6.3-0.4,9.4l-0.2,3.2c0,0,0,0.1,0.1,0.1c0.1-0.4,0.1-0.7,0.2-1.1c0.4-2.6,2.7-4.5,4.7-6.3
		c0.4-0.5,0.8-0.9,1-1.5c-0.2,1.3-0.6,2.6-1.1,3.8c-1.5,3-4.4,5.5-4.9,8.9c-0.3-3.3-2.5-5.8-2.3-9.3c-0.1-2.8,1.1-5.2,2.8-7.3
		C119.1,25,119.1,24.9,119.1,25"/>
	<path d="M180.9,44.6c-1.3,1.8-2.8,3.5-4,5.3c0.1-1.4,0.3-3.2-0.3-4.6c-1-2.9-1.8-5.9-2.1-9.2l0-1.2c0.7,3.3,4,5.6,3.8,9.3
		c0.1,0.9-0.2,1.7-0.4,2.5l0.1,0.1l0.1-0.2c0.5-1.8,0.7-3.7,1.5-5.4c1.1-2.4,2.4-4.9,1.9-7.9C183.1,36.7,182.6,41.3,180.9,44.6"/>
	<path d="M118.2,43.4c0.3,1.2,0.4,2.5,0.9,3.7c0,0,0.1,0,0.1-0.1c-1.2-3.5,0.5-6.7,2.3-9.4c0.4-0.7,0.7-1.6,0.9-2.4
		c0.2,1.6-0.2,3.4-0.4,5c-0.4,2.1-1.1,4-1.6,6c-0.4,1.3-0.3,2.7-0.1,4l-0.2-0.1c-1.3-2.4-3.9-4.3-4.7-6.9c-0.6-2.1-1.1-4.5-0.6-6.8
		c0.2-0.9,0.4-1.8,0.7-2.6C114.9,37.5,117.4,40.2,118.2,43.4"/>
	<path d="M175.9,50.3c-0.1,1.6-0.6,3.1-1.5,4.4h0.1c1.2-1.5,2.1-3.1,3.4-4.6c2.1-2,4.2-4.1,4.5-6.9c0.7,4.7-1.9,8.8-5.8,11.4
		c-1.6,1-3.2,2-4.8,3.2v-0.1c2.4-3.9,1.2-9.3,2.7-13.6l0.5-1.4C174.8,45.3,176,47.6,175.9,50.3"/>
	<path d="M124.3,55.6c0.3,0.9,0.8,1.7,1.1,2.5c-3.6-2.4-8.5-4.8-10.1-9.2c-0.7-1.5-0.7-3.5-0.6-5.2c0.3,4,4.6,6.1,6.6,9.4
		c0.5,0.7,0.9,1.4,1.5,2c-0.1-0.4-0.5-0.8-0.6-1.2c-0.7-1.4-0.9-3-0.8-4.7c0.2-2,1-3.9,0.7-6.1C123.8,46.8,123.3,51.5,124.3,55.6"/>
	<path d="M170.6,58.6c-0.6,1.1-1.5,2.1-2.5,2.9c0.3,0,0.6-0.3,0.9-0.5c2.6-2.6,6-3.3,8.7-5.4c1.1-0.9,2.1-2.1,2.6-3.3
		c-0.5,4.3-4.8,8.3-8.8,9.5c-2.1,0.6-4.3,0.7-6.3,1.4c3.4-2.9,3.2-7.4,5.5-10.9c0.7-1,1.3-2,2.2-2.9
		C171.6,52.3,172.2,55.9,170.6,58.6"/>
	<path d="M127.6,54.9c1.2,3,1.7,6.3,4.4,8.5c-3-1-6.5-0.7-9.2-2.6c-2.9-1.8-5.5-4.8-6-8.1c2,4.5,7,4.9,10.4,7.6c0.6,0.5,1.3,1,2,1.3
		l0,0c-0.8-0.7-1.7-1.5-2.2-2.4c-2-2.7-1.3-6.6-2.7-9.5C125.6,51.5,126.8,53.1,127.6,54.9"/>
	<path d="M163.3,63.7c-0.7,0.5-1.7,0.6-2.4,0.9c1.1,0,2.1-0.4,3.1-0.5c4-0.6,8.5,0,11.3-3.4c-1,2.4-3.6,4.3-6,5.2
		c-4.1,1.5-8.1-0.3-12-1l-0.7-0.1v0c1.9-0.4,3.7-1,5.1-2.3c2.2-2.1,4.1-4.2,6.5-5.9C166.4,59,166.3,62.3,163.3,63.7"/>
	<path d="M135.5,62.7c1.5,1.3,3.4,2,5.3,2.4c-0.5,0.2-1.1,0.1-1.6,0.3c-3.5,0.9-7.4,2.3-11.1,1c-2.4-0.8-4.9-2.7-6.1-5
		c3.2,3.6,8.4,2.4,12.7,3.4c0.6,0.1,1.2,0.3,1.8,0.2c-0.5-0.3-1.2-0.3-1.8-0.6c-3.3-1.2-3.8-4.8-5.7-7.2
		C131.4,58.6,133.3,60.6,135.5,62.7"/>
	<path d="M161.6,67.6c2.6,1,6,0.7,8.2-0.9c-1.1,1.4-2.7,2.5-4.3,3c-3.6,1.3-7.4-0.1-10.2-2.2c-1.1-0.7-2.2-1.8-3.6-1.7
		c-0.5,0-1,0-1.5,0.1c2.7,1.3,5.3,3,7.6,5.3c-0.4,0.4-0.9,0.9-1.4,1.3c-2.2-2.4-4.7-4.7-7.5-6.1c-0.5,0.1-1.1,0.4-1.6,0.7
		c-2.3,1.4-4.5,3.3-6.2,5.5l-1.4-1.2c2.3-2.3,4.9-4.1,7.6-5.4c-2.7-0.9-4.5,1.4-6.6,2.6c-2.4,1.7-5.9,2.5-8.8,1.3
		c-1.6-0.6-3.1-1.5-4.2-2.9c2.3,1.6,5.7,1.8,8.4,0.7c3.5-1.5,7.2-3.5,11.4-2.5c0.7,0,1.3,0.7,1.9,0.1c3.1-0.8,6.7-0.3,9.4,1.2
		L161.6,67.6z"/>
	<path d="M218.4,98.8c0.5-0.9,1.1-1.7,1.9-2.4l-6.1-6.7c-1.5,1.5-2.9,3.2-3.9,5.1L218.4,98.8z"/>
	<path d="M233.4,94c0.9,0.4,1.8,1,2.6,1.6l6.1-6.7c-1.6-1.4-3.5-2.5-5.4-3.4L233.4,94z"/>
	<path d="M247.5,96.1l-8.1,4.1c0.4,0.9,0.7,1.9,0.8,2.9l9-0.9C249,100,248.4,98,247.5,96.1"/>
	<path d="M238.8,98.9l8.1-4.1c-1-1.9-2.3-3.6-3.8-5l-6.1,6.7C237.7,97.3,238.3,98.1,238.8,98.9"/>
	<path d="M216.8,104.7c0-0.2,0-0.4,0-0.5l-9.1-0.8c0,0.4,0,0.9,0,1.4c0,1.7,0.2,3.4,0.6,5l8.7-2.5
		C216.9,106.4,216.8,105.6,216.8,104.7"/>
	<path d="M237.6,112.2c-0.6,0.8-1.4,1.5-2.2,2.1l4.8,7.7c1.8-1.2,3.4-2.7,4.7-4.3L237.6,112.2z"/>
	<path d="M240.3,104.7c0,0.9-0.1,1.7-0.3,2.5l8.7,2.5c0.4-1.6,0.6-3.3,0.6-5c0-0.4,0-0.9,0-1.3l-9.1,0.9
		C240.3,104.4,240.3,104.6,240.3,104.7"/>
	<path d="M219.6,112.3l-7.2,5.5c1.3,1.7,2.9,3.1,4.7,4.3l4.8-7.7C221.1,113.8,220.3,113.1,219.6,112.3"/>
	<path d="M217,102.9c0.2-1,0.5-2,0.9-2.9l-8.1-4.1c-0.9,1.9-1.5,4-1.8,6.2L217,102.9z"/>
	<path d="M239.1,122.7l-4.8-7.7c-0.9,0.5-1.8,0.9-2.8,1.1l1.7,8.9C235.3,124.5,237.3,123.7,239.1,122.7"/>
	<path d="M239.7,108.5c-0.3,0.9-0.7,1.8-1.3,2.6l7.3,5.5c1.2-1.7,2.1-3.6,2.7-5.6L239.7,108.5z"/>
	<path d="M230.3,116.3c-0.6,0.1-1.1,0.1-1.7,0.1c-0.5,0-0.9,0-1.4-0.1l-1.7,8.9c1,0.1,2,0.2,3.1,0.2c1.1,0,2.3-0.1,3.4-0.3
		L230.3,116.3z"/>
	<path d="M229.3,93c1,0.1,2,0.3,2.9,0.6l3.3-8.5c-1.9-0.7-4-1.1-6.2-1.2V93z"/>
	<path d="M225.9,116.2c-1-0.2-2-0.6-2.9-1.1l-4.8,7.7c1.8,1.1,3.9,1.8,6,2.3L225.9,116.2z"/>
	<path d="M225,93.5c0.9-0.3,1.9-0.5,3-0.5v-9.1c-2.2,0.1-4.3,0.5-6.3,1.1L225,93.5z"/>
	<path d="M218.8,111.3c-0.6-0.9-1-1.8-1.4-2.8l-8.7,2.5c0.7,2.1,1.6,4,2.9,5.8L218.8,111.3z"/>
	<path d="M221.3,95.5c0.8-0.6,1.6-1.1,2.5-1.5l-3.3-8.5c-2,0.8-3.8,1.9-5.4,3.3L221.3,95.5z"/>
	<path d="M55.3,83.9h14.1c8.4,0,12.8,4.3,12.8,10.7c0,4.4-2.5,6.8-5.3,8.2v0.1c3.5,0.8,6.6,4.1,6.6,9c0,7.3-5.6,11.6-13.7,11.6H55.3
		V83.9z M68,100.2c3.7,0,6.3-1.7,6.3-4.8c0-3.3-2.4-4.7-5.6-4.7h-5.5v9.5H68z M68.4,116.8c5,0,6.8-2.2,6.8-5c0-2.5-1.6-5.2-6.2-5.2
		h-5.8v10.2H68.4z"/>
	<path d="M84.1,83.9h18.1V110c0,12.5-7.5,13.8-15.5,13.8h-2.5v-6.7h4.1c3.8,0,6.1-1.2,6.1-5.3V91H84.1V83.9z"/>
	<polygon points="107.4,83.9 132.7,83.9 132.7,91 115.3,91 115.3,100 132.2,100 132.2,107 115.3,107 115.3,116.4 132.7,116.4 
		132.7,123.5 107.4,123.5 	"/>
	<polygon points="144.2,91 133.7,91 133.7,83.9 162.5,83.9 162.5,91 152.1,91 152.1,123.5 144.2,123.5 	"/>
	<rect x="165.8" y="83.9" width="7.9" height="39.6"/>
	<polygon points="201.4,83.9 209.9,83.9 197.1,123.5 188.7,123.5 175.8,83.9 184.5,83.9 193,113 193.1,113 	"/>
	<path d="M32.8,83.2c12.3,0,19.3,9.9,19.3,20.5c0,10.6-6.9,20.5-19.3,20.5c-12.3,0-19.3-9.9-19.3-20.5
		C13.5,93.1,20.5,83.2,32.8,83.2 M32.8,90.2c-7.4,0-11.1,6.4-11.1,13.5c0,7.1,3.7,13.5,11.1,13.5c7.4,0,11.1-6.4,11.1-13.5
		C43.9,96.6,40.2,90.2,32.8,90.2"/>
	<path d="M271.4,94.3c0-2.7-2.6-4.4-5.8-4.4c-3.9,0-6.3,1.7-6.3,4.4c0,2.7,2.6,4.1,4.6,4.7l7.3,2.3c5.3,1.7,9,4.7,9,10.8
		c0,4.8-3.5,12.1-14.4,12.1c-13.7,0-15-8.9-15-12.4l7.9-0.2c0,4.2,3.3,5.8,7.2,5.8c2.7,0,6.5-1.3,6.5-4.4c0-2.1-0.9-3.2-4.8-4.6
		l-8.6-3.1c-4.4-1.6-7.4-5.4-7.4-9.9c0-5.1,3.5-12.3,13.7-12.3c12.2,0,14.2,8.1,14.2,11L271.4,94.3z"/>
	<path d="M60.4,157H66v16.5c0,8.8-5.6,12.2-11.7,12.2c-6.1,0-11.7-3.4-11.7-12.2V157h5.6v16.5c0,4.7,2.1,7.1,6.1,7.1
		c4,0,6.1-2.5,6.1-7.1V157z"/>
	<path d="M85.5,164.4c0-1.9-1.9-3.1-4.1-3.1c-2.8,0-4.5,1.2-4.5,3.1c0,1.9,1.9,2.9,3.3,3.3l5.2,1.6c3.7,1.2,6.4,3.4,6.4,7.7
		c0,3.4-2.5,8.6-10.2,8.6c-9.8,0-10.7-6.3-10.7-8.8l5.6-0.1c0,3,2.4,4.2,5.1,4.2c1.9,0,4.6-0.9,4.6-3.1c0-1.5-0.6-2.3-3.4-3.3
		l-6.1-2.2c-3.1-1.1-5.3-3.9-5.3-7c0-3.6,2.5-8.8,9.8-8.8c8.7,0,10.1,5.8,10.1,7.8L85.5,164.4z"/>
	<polygon points="102.4,162 95,162 95,157 115.4,157 115.4,162 108,162 108,185.1 102.4,185.1 	"/>
	<polygon points="119.7,157 137.6,157 137.6,162 125.3,162 125.3,168.4 137.3,168.4 137.3,173.4 125.3,173.4 125.3,180.1 
		137.6,180.1 137.6,185.1 119.7,185.1 	"/>
	<polygon points="148,165.9 147.9,165.9 147.9,185.1 142.5,185.1 142.5,157 148.5,157 160,175.8 160,175.8 160,157 165.4,157 
		165.4,185.1 159.6,185.1 	"/>
	<polygon points="177.1,162 169.7,162 169.7,157 190.1,157 190.1,162 182.7,162 182.7,185.1 177.1,185.1 	"/>
	<path d="M207.8,179.2h-10.3l-1.8,5.9h-6.1l10.2-28.1h5.9l10.1,28.1h-6.2L207.8,179.2z M202.7,163.7L202.7,163.7l-3.6,10.9h7.2
		L202.7,163.7z M203.3,150.1h5l-5.2,5.2H200L203.3,150.1z"/>
	<polygon points="232.7,157 238.8,157 229.7,185.1 223.8,185.1 214.6,157 220.8,157 226.8,177.6 226.9,177.6 	"/>
	<polygon points="242.3,157 260.2,157 260.2,162 247.9,162 247.9,168.4 259.9,168.4 259.9,173.4 247.9,173.4 247.9,180.1 
		260.2,180.1 260.2,185.1 242.3,185.1 	"/>
	<polygon points="265.1,157 270.7,157 270.7,179.8 281.5,179.8 281.5,185.1 265.1,185.1 	"/>
	<path d="M55.3,131.7h6.4c5.1,0,8.1,3,8.1,8.5c0,5.4-3.7,8.5-8.1,8.5h-6.5V131.7z M61.6,145.8c3.5,0,4.8-3,4.8-5.6
		c0-2.8-1.2-5.6-5-5.6h-2.6v11.2H61.6z"/>
	<polygon points="72.9,131.7 83.7,131.7 83.7,134.7 76.2,134.7 76.2,138.6 83.5,138.6 83.5,141.6 76.2,141.6 76.2,145.6 83.7,145.6 
		83.7,148.7 72.9,148.7 	"/>
	<path d="M94.8,136.2c0-1.2-1.1-1.9-2.5-1.9c-1.7,0-2.7,0.7-2.7,1.9c0,1.2,1.1,1.7,2,2l3.1,1c2.2,0.7,3.8,2,3.8,4.6
		c0,2.1-1.5,5.2-6.2,5.2c-5.9,0-6.4-3.8-6.4-5.3l3.4-0.1c0,1.8,1.4,2.5,3.1,2.5c1.1,0,2.8-0.6,2.8-1.9c0-0.9-0.4-1.4-2-2l-3.7-1.3
		c-1.9-0.7-3.2-2.3-3.2-4.2c0-2.2,1.5-5.3,5.9-5.3c5.2,0,6.1,3.5,6.1,4.7L94.8,136.2z"/>
	<polygon points="101.6,131.7 112.4,131.7 112.4,134.7 105,134.7 105,138.6 112.2,138.6 112.2,141.6 105,141.6 105,145.6 
		112.4,145.6 112.4,148.7 101.6,148.7 	"/>
	<polygon points="118.6,137.1 118.6,137.1 118.6,148.7 115.4,148.7 115.4,131.7 119,131.7 125.8,143.1 125.9,143.1 125.9,131.7 
		129.1,131.7 129.1,148.7 125.6,148.7 	"/>
	<polygon points="142.1,131.7 145.8,131.7 140.3,148.7 136.7,148.7 131.2,131.7 134.9,131.7 138.6,144.2 138.6,144.2 	"/>
	<path d="M155.4,131.4c5.3,0,8.2,4.2,8.2,8.8s-3,8.8-8.2,8.8c-5.3,0-8.2-4.2-8.2-8.8S150.1,131.4,155.4,131.4 M155.4,134.4
		c-3.2,0-4.7,2.7-4.7,5.8c0,3,1.6,5.8,4.7,5.8c3.2,0,4.7-2.7,4.7-5.8C160.1,137.2,158.5,134.4,155.4,134.4"/>
	<polygon points="166.6,131.7 170,131.7 170,145.5 176.5,145.5 176.5,148.7 166.6,148.7 	"/>
	<polygon points="186.7,131.7 190.4,131.7 184.9,148.7 181.3,148.7 175.8,131.7 179.5,131.7 183.1,144.2 183.2,144.2 	"/>
	<rect x="192.6" y="131.7" width="3.4" height="16.9"/>
	<polygon points="214.2,137.4 214.1,137.4 209.6,148.7 207.7,148.7 203.2,137.6 203.2,137.6 203.2,148.7 199.9,148.7 199.9,131.7 
		203.8,131.7 208.7,143.3 213.6,131.7 217.4,131.7 217.4,148.7 214.2,148.7 	"/>
	<polygon points="221.2,131.7 232,131.7 232,134.7 224.5,134.7 224.5,138.6 231.8,138.6 231.8,141.6 224.5,141.6 224.5,145.6 
		232,145.6 232,148.7 221.2,148.7 	"/>
	<polygon points="238.2,137.1 238.1,137.1 238.1,148.7 234.9,148.7 234.9,131.7 238.5,131.7 245.4,143.1 245.4,143.1 245.4,131.7 
		248.7,131.7 248.7,148.7 245.2,148.7 	"/>
	<polygon points="255.7,134.7 251.3,134.7 251.3,131.7 263.5,131.7 263.5,134.7 259.1,134.7 259.1,148.7 255.7,148.7 	"/>
	<path d="M272.2,131.4c5.3,0,8.2,4.2,8.2,8.8s-3,8.8-8.2,8.8c-5.3,0-8.2-4.2-8.2-8.8S267,131.4,272.2,131.4 M272.2,134.4
		c-3.2,0-4.7,2.7-4.7,5.8c0,3,1.6,5.8,4.7,5.8c3.2,0,4.7-2.7,4.7-5.8C277,137.2,275.4,134.4,272.2,134.4"/>
</g>
</svg>
