<?xml version="1.0" encoding="utf-8"?>
<!-- Generator: Adobe Illustrator 24.0.0, SVG Export Plug-In . SVG Version: 6.00 Build 0)  -->
<svg version="1.1" id="Layer_1" xmlns="http://www.w3.org/2000/svg" xmlns:xlink="http://www.w3.org/1999/xlink" x="0px" y="0px"
	 viewBox="0 0 100 100" style="enable-background:new 0 0 100 100;" xml:space="preserve">
<style type="text/css">
	.st0{fill:#FD9D24;}
	.st1{fill:#FFFFFF;}
</style>
<rect x="0.3" y="-0.2" class="st0" width="100" height="100"/>
<g>
	<polygon class="st1" points="7.5,11.8 7.5,15.4 7.5,15.4 9.9,12.9 9.9,12.9 9.9,28.4 13.3,28.4 13.3,8.2 10.6,8.2 	"/>
	<polygon class="st1" points="17.7,12.9 17.7,28.4 21.1,28.4 21.1,8.2 18.3,8.2 15.2,11.8 15.2,15.4 15.3,15.4 17.6,12.9 	"/>
	<path class="st1" d="M32.8,75.3l-7.5-9.7l-0.1-0.1c-0.1-0.1-0.2-0.1-0.3-0.1c-0.1,0-0.2,0-0.2,0.1l0,0.1l-0.1,0.1l-7.3,9.6
		l-0.1,0.1c0,0.1-0.1,0.1-0.1,0.2c0,0.2,0.2,0.4,0.4,0.4h0.2h14.9c0.2,0,0.4-0.2,0.4-0.4C32.9,75.5,32.9,75.4,32.8,75.3L32.8,75.3z"
		/>
	<path class="st1" d="M32.5,77.3H17.5c-0.2,0-0.4,0.2-0.4,0.4v11.8c0,0.2,0.2,0.4,0.4,0.4h4.9v-7.4c0-0.2,0.2-0.4,0.4-0.4h4.5
		c0.2,0,0.4,0.2,0.4,0.4v7.4h5c0.2,0,0.4-0.2,0.4-0.4V77.7C32.9,77.5,32.7,77.3,32.5,77.3z"/>
	<path class="st1" d="M84.6,74.2H69.7c-0.2,0-0.4,0.2-0.4,0.4v15.1c0,0.2,0.2,0.4,0.4,0.4h14.9c0.2,0,0.4-0.2,0.4-0.4V74.6
		C85,74.4,84.8,74.2,84.6,74.2z M76.5,84.1c0,0.2-0.2,0.4-0.4,0.4h-4.5c-0.2,0-0.4-0.2-0.4-0.4v-2.7c0-0.2,0.2-0.4,0.4-0.4h4.5
		c0.2,0,0.4,0.2,0.4,0.4V84.1z M76.5,79c0,0.2-0.2,0.4-0.4,0.4h-4.5c-0.2,0-0.4-0.2-0.4-0.4v-2.7c0-0.2,0.2-0.4,0.4-0.4h4.5
		c0.2,0,0.4,0.2,0.4,0.4V79z M83.3,84.1c0,0.2-0.2,0.4-0.4,0.4h-4.5c-0.2,0-0.4-0.2-0.4-0.4v-2.7c0-0.2,0.2-0.4,0.4-0.4h4.5
		c0.2,0,0.4,0.2,0.4,0.4V84.1z M83.3,79c0,0.2-0.2,0.4-0.4,0.4h-4.5c-0.2,0-0.4-0.2-0.4-0.4v-2.7c0-0.2,0.2-0.4,0.4-0.4h4.5
		c0.2,0,0.4,0.2,0.4,0.4V79z"/>
	<path class="st1" d="M49.9,39.3H35.3c-0.2,0-0.4,0.2-0.4,0.4v49.9c0,0.2,0.2,0.4,0.4,0.4h14.6c0.2,0,0.4-0.2,0.4-0.4V39.6
		C50.3,39.4,50.1,39.3,49.9,39.3z M41.3,84.2c0,0.1-0.1,0.2-0.2,0.2h-3.3c-0.1,0-0.2-0.1-0.2-0.2v-3.7c0-0.1,0.1-0.2,0.2-0.2h3.3
		c0.1,0,0.2,0.1,0.2,0.2V84.2z M41.3,75.6c0,0.1-0.1,0.2-0.2,0.2h-3.3c-0.1,0-0.2-0.1-0.2-0.2v-3.7c0-0.1,0.1-0.2,0.2-0.2h3.3
		c0.1,0,0.2,0.1,0.2,0.2V75.6z M41.3,67.1c0,0.1-0.1,0.2-0.2,0.2h-3.3c-0.1,0-0.2-0.1-0.2-0.2v-3.7c0-0.1,0.1-0.2,0.2-0.2h3.3
		c0.1,0,0.2,0.1,0.2,0.2V67.1z M41.3,58.5c0,0.1-0.1,0.2-0.2,0.2h-3.3c-0.1,0-0.2-0.1-0.2-0.2v-3.7c0-0.1,0.1-0.2,0.2-0.2h3.3
		c0.1,0,0.2,0.1,0.2,0.2V58.5z M41.3,50c0,0.1-0.1,0.2-0.2,0.2h-3.3c-0.1,0-0.2-0.1-0.2-0.2v-3.7c0-0.1,0.1-0.2,0.2-0.2h3.3
		c0.1,0,0.2,0.1,0.2,0.2V50z M47.8,84.2c0,0.1-0.1,0.2-0.2,0.2h-3.3c-0.1,0-0.2-0.1-0.2-0.2v-3.7c0-0.1,0.1-0.2,0.2-0.2h3.3
		c0.1,0,0.2,0.1,0.2,0.2V84.2z M47.8,75.6c0,0.1-0.1,0.2-0.2,0.2h-3.3c-0.1,0-0.2-0.1-0.2-0.2v-3.7c0-0.1,0.1-0.2,0.2-0.2h3.3
		c0.1,0,0.2,0.1,0.2,0.2V75.6z M47.8,67.1c0,0.1-0.1,0.2-0.2,0.2h-3.3c-0.1,0-0.2-0.1-0.2-0.2v-3.7c0-0.1,0.1-0.2,0.2-0.2h3.3
		c0.1,0,0.2,0.1,0.2,0.2V67.1z M47.8,58.5c0,0.1-0.1,0.2-0.2,0.2h-3.3c-0.1,0-0.2-0.1-0.2-0.2v-3.7c0-0.1,0.1-0.2,0.2-0.2h3.3
		c0.1,0,0.2,0.1,0.2,0.2V58.5z M47.8,50c0,0.1-0.1,0.2-0.2,0.2h-3.3c-0.1,0-0.2-0.1-0.2-0.2v-3.7c0-0.1,0.1-0.2,0.2-0.2h3.3
		c0.1,0,0.2,0.1,0.2,0.2V50z"/>
	<path class="st1" d="M69.4,69.7v3c0,0.2,0.1,0.3,0.3,0.3h15c0.2,0,0.3-0.1,0.3-0.3v-3c0-0.2-0.1-0.3-0.3-0.3h-15
		C69.5,69.4,69.4,69.5,69.4,69.7z"/>
	<path class="st1" d="M67.2,48.4c-0.1,0-0.1,0-0.2,0.1c0,0,0,0,0,0l-0.1,0.2L52.5,66.8l-0.1,0.1c-0.1,0.1-0.1,0.2-0.1,0.3v0v22.3
		c0,0.2,0.2,0.4,0.4,0.4h14.6c0.2,0,0.4-0.2,0.4-0.4V48.8c0-0.1,0-0.1,0-0.1C67.5,48.5,67.4,48.4,67.2,48.4z M61.5,58.6l0.1-0.1
		c1-1.3,2.6-3.3,3.4-4.3l0.1-0.1c0.1-0.1,0.2-0.2,0.3-0.2c0.2,0,0.4,0.1,0.4,0.3v0.2v0.1v4.3c0,0.2-0.2,0.4-0.4,0.4c0,0,0,0,0,0
		s0,0,0,0h-3.4h-0.2c0,0,0,0,0,0c0,0,0,0,0,0c-0.2,0-0.4-0.2-0.4-0.4C61.5,58.7,61.5,58.6,61.5,58.6z M59.3,84.1
		c0,0.2-0.2,0.4-0.4,0.4h-4.4c-0.2,0-0.4-0.2-0.4-0.4v-2.7c0-0.2,0.2-0.4,0.4-0.4h4.4c0.2,0,0.4,0.2,0.4,0.4V84.1z M59.3,79
		c0,0.2-0.2,0.4-0.4,0.4h-4.4c-0.2,0-0.4-0.2-0.4-0.4v-2.7c0-0.2,0.2-0.4,0.4-0.4h4.4c0.2,0,0.4,0.2,0.4,0.4V79z M59.3,74
		c0,0.2-0.2,0.4-0.4,0.4h-4.4c-0.2,0-0.4-0.2-0.4-0.4v-2.7c0-0.2,0.2-0.4,0.4-0.4h4.4c0.2,0,0.4,0.2,0.4,0.4V74z M59.3,63v0.1V69
		c0,0.2-0.2,0.4-0.4,0.4h-4.3c-0.2,0-0.4-0.2-0.4-0.4v-0.7v0c0,0,0-0.1,0-0.1c0,0,0,0,0,0c0,0,0,0,0,0c0,0,0,0,0-0.1
		c0.6-0.8,3.1-3.9,4.1-5.2l0.1-0.1c0.1-0.1,0.2-0.2,0.3-0.2c0.2,0,0.4,0.1,0.4,0.3V63z M65.9,84.1c0,0.2-0.2,0.4-0.4,0.4h-4.3
		c-0.2,0-0.4-0.2-0.4-0.4v-2.7c0-0.2,0.2-0.4,0.4-0.4h4.3c0.2,0,0.4,0.2,0.4,0.4V84.1z M65.9,79c0,0.2-0.2,0.4-0.4,0.4h-4.3
		c-0.2,0-0.4-0.2-0.4-0.4v-2.7c0-0.2,0.2-0.4,0.4-0.4h4.3c0.2,0,0.4,0.2,0.4,0.4V79z M65.9,74c0,0.2-0.2,0.4-0.4,0.4h-4.3
		c-0.2,0-0.4-0.2-0.4-0.4v-2.7c0-0.2,0.2-0.4,0.4-0.4h4.3c0.2,0,0.4,0.2,0.4,0.4V74z M65.9,69c0,0.2-0.2,0.4-0.4,0.4h-4.3
		c-0.2,0-0.4-0.2-0.4-0.4v-2.7c0-0.2,0.2-0.4,0.4-0.4h4.3c0.2,0,0.4,0.2,0.4,0.4V69z M65.9,63.9c0,0.2-0.2,0.4-0.4,0.4h-4.3
		c-0.2,0-0.4-0.2-0.4-0.4v-2.7c0-0.2,0.2-0.4,0.4-0.4h4.3c0.2,0,0.4,0.2,0.4,0.4V63.9z"/>
	<path class="st1" d="M29.8,15.2c1.5,0,1.9-0.9,1.9-2v-1.4h-1.3v1.5c0,0.5-0.2,0.8-0.7,0.8c-0.5,0-0.7-0.3-0.7-0.8V8.8
		c0-0.5,0.2-0.8,0.7-0.8c0.5,0,0.7,0.3,0.7,0.8v1.1h1.3v-1c0-1.2-0.4-2-1.9-2c-1.4,0-2,0.9-2,2.2v4C27.7,14.3,28.3,15.2,29.8,15.2z"
		/>
	<rect x="32.3" y="6.9" class="st1" width="1.4" height="8.2"/>
	<path class="st1" d="M38.5,12.9V9.1c0-1.3-0.5-2.2-2-2.2h-2.1v8.2h2.1C37.9,15.1,38.5,14.2,38.5,12.9z M35.7,14V8.1h0.6
		c0.6,0,0.8,0.3,0.8,0.8v4.3c0,0.5-0.2,0.8-0.8,0.8H35.7z"/>
	<path class="st1" d="M40.4,13.6h1.5l0.3,1.5h1.4L42,6.9h-1.6l-1.5,8.2h1.3L40.4,13.6z M41.2,9.2L41.2,9.2l0.6,3.3h-1.1L41.2,9.2z"
		/>
	<path class="st1" d="M48.1,12.9V9.1c0-1.3-0.5-2.2-2-2.2H44v8.2h2.1C47.6,15.1,48.1,14.2,48.1,12.9z M45.4,14V8.1H46
		c0.6,0,0.8,0.3,0.8,0.8v4.3c0,0.5-0.2,0.8-0.8,0.8H45.4z"/>
	<polygon class="st1" points="52,14 50.1,14 50.1,11.5 51.5,11.5 51.5,10.4 50.1,10.4 50.1,8.1 52,8.1 52,6.9 48.8,6.9 48.8,15.1 
		52,15.1 	"/>
	<path class="st1" d="M54.5,15.2c1.4,0,2-0.8,2-1.9v-0.4c0-0.9-0.4-1.4-1.1-2.1l-0.9-0.9c-0.4-0.4-0.7-0.7-0.7-1.1V8.6
		c0-0.5,0.3-0.7,0.7-0.7c0.4,0,0.7,0.2,0.7,0.7v0.7h1.3V8.7c0-1.2-0.5-1.9-1.9-1.9c-1.3,0-1.9,0.8-1.9,1.8v0.3
		c0,0.9,0.4,1.4,1.1,2.2l0.8,0.8c0.4,0.4,0.6,0.7,0.6,1.2v0.3c0,0.4-0.2,0.7-0.6,0.7c-0.5,0-0.7-0.3-0.7-0.7v-1.1h-1.3v1.1
		C52.6,14.4,53.1,15.2,54.5,15.2z"/>
	<polygon class="st1" points="61.5,14 59.6,14 59.6,11.5 61,11.5 61,10.4 59.6,10.4 59.6,8.1 61.5,8.1 61.5,6.9 58.2,6.9 58.2,15.1 
		61.5,15.1 	"/>
	<path class="st1" d="M31.9,20v-1c0-1.2-0.4-2-1.9-2c-1.4,0-2,0.9-2,2.2v4c0,1.3,0.6,2.2,2,2.2c1.5,0,1.9-0.9,1.9-2v-1.4h-1.3v1.5
		c0,0.5-0.2,0.8-0.7,0.8c-0.5,0-0.7-0.3-0.7-0.8V19c0-0.5,0.2-0.8,0.7-0.8c0.5,0,0.7,0.3,0.7,0.8V20H31.9z"/>
	<path class="st1" d="M34.8,17c-1.4,0-2.1,0.9-2.1,2.2v4c0,1.3,0.6,2.2,2.1,2.2c1.5,0,2.1-0.9,2.1-2.2v-4C36.9,17.9,36.3,17,34.8,17
		z M35.5,23.4c0,0.5-0.2,0.8-0.7,0.8c-0.5,0-0.7-0.3-0.7-0.8V19c0-0.5,0.2-0.8,0.7-0.8c0.5,0,0.7,0.3,0.7,0.8V23.4z"/>
	<polygon class="st1" points="42.8,25.2 42.8,17.1 41.1,17.1 40.3,21.7 40.3,21.7 39.4,17.1 37.8,17.1 37.8,25.2 38.9,25.2 
		38.9,19.9 39,19.9 40,25.2 40.6,25.2 41.6,19.9 41.6,19.9 41.6,25.2 	"/>
	<path class="st1" d="M45.8,25.3c1.4,0,1.9-0.8,1.9-2.1v-6.2h-1.3v6.3c0,0.5-0.2,0.8-0.7,0.8c-0.5,0-0.7-0.3-0.7-0.8v-6.3h-1.4v6.2
		C43.7,24.5,44.3,25.3,45.8,25.3z"/>
	<polygon class="st1" points="49.8,20.1 51.4,25.2 52.6,25.2 52.6,17.1 51.5,17.1 51.5,21.8 50,17.1 48.6,17.1 48.6,25.2 49.8,25.2 
			"/>
	<rect x="53.5" y="17.1" class="st1" width="1.4" height="8.2"/>
	<path class="st1" d="M55.8,25.2h2.1c1.5,0,2-0.9,2-2.2v-3.8c0-1.3-0.5-2.2-2-2.2h-2.1V25.2z M57.2,18.2h0.6c0.6,0,0.8,0.3,0.8,0.8
		v4.3c0,0.5-0.2,0.8-0.8,0.8h-0.6V18.2z"/>
	<path class="st1" d="M61.9,25.2l0.2-1.5h1.5l0.3,1.5h1.4l-1.6-8.2h-1.6l-1.5,8.2H61.9z M62.9,19.4L62.9,19.4l0.6,3.3h-1.1
		L62.9,19.4z"/>
	<path class="st1" d="M70.1,23.1v-3.8c0-1.3-0.5-2.2-2-2.2H66v8.2h2.1C69.6,25.2,70.1,24.3,70.1,23.1z M67.3,24.1v-5.9h0.6
		c0.6,0,0.8,0.3,0.8,0.8v4.3c0,0.5-0.2,0.8-0.8,0.8H67.3z"/>
	<polygon class="st1" points="74.3,24.1 72.4,24.1 72.4,21.6 73.7,21.6 73.7,20.5 72.4,20.5 72.4,18.2 74.3,18.2 74.3,17.1 71,17.1 
		71,25.2 74.3,25.2 	"/>
	<path class="st1" d="M77,25.3c1.4,0,2-0.8,2-1.9V23c0-0.9-0.4-1.4-1.1-2.1L77,20c-0.4-0.4-0.7-0.7-0.7-1.1v-0.2
		c0-0.5,0.3-0.7,0.7-0.7c0.4,0,0.7,0.2,0.7,0.7v0.7h1.3v-0.7c0-1.2-0.5-1.9-1.9-1.9c-1.3,0-1.9,0.8-1.9,1.8v0.3
		c0,0.9,0.4,1.4,1.1,2.2L77,22c0.4,0.4,0.6,0.7,0.6,1.2v0.3c0,0.4-0.2,0.7-0.6,0.7c-0.5,0-0.7-0.3-0.7-0.7v-1.1H75v1.1
		C75,24.6,75.6,25.3,77,25.3z"/>
	<path class="st1" d="M27.8,33.6v1.1c0,1.1,0.5,1.9,1.9,1.9c1.4,0,2-0.8,2-1.9v-0.4c0-0.9-0.4-1.4-1.1-2.1l-0.9-0.9
		c-0.4-0.4-0.7-0.7-0.7-1.1V30c0-0.5,0.3-0.7,0.7-0.7c0.4,0,0.7,0.2,0.7,0.7v0.7h1.3V30c0-1.2-0.5-1.9-1.9-1.9
		c-1.3,0-1.9,0.8-1.9,1.8v0.3c0,0.9,0.4,1.4,1.1,2.2l0.8,0.8c0.4,0.4,0.6,0.7,0.6,1.2v0.3c0,0.4-0.2,0.7-0.6,0.7
		c-0.5,0-0.7-0.3-0.7-0.7v-1.1H27.8z"/>
	<path class="st1" d="M36.6,34.4v-6.2h-1.3v6.3c0,0.5-0.2,0.8-0.7,0.8c-0.5,0-0.7-0.3-0.7-0.8v-6.3h-1.4v6.2c0,1.3,0.6,2.1,2,2.1
		C36,36.5,36.6,35.7,36.6,34.4z"/>
	<path class="st1" d="M37.4,33.6v1.1c0,1.1,0.5,1.9,1.9,1.9c1.4,0,2-0.8,2-1.9v-0.4c0-0.9-0.4-1.4-1.1-2.1l-0.9-0.9
		c-0.4-0.4-0.7-0.7-0.7-1.1V30c0-0.5,0.3-0.7,0.7-0.7c0.4,0,0.7,0.2,0.7,0.7v0.7h1.3V30c0-1.2-0.5-1.9-1.9-1.9
		c-1.3,0-1.9,0.8-1.9,1.8v0.3c0,0.9,0.4,1.4,1.1,2.2l0.8,0.8c0.4,0.4,0.6,0.7,0.6,1.2v0.3c0,0.4-0.2,0.7-0.6,0.7
		c-0.5,0-0.7-0.3-0.7-0.7v-1.1H37.4z"/>
	<polygon class="st1" points="44.6,36.4 44.6,29.4 45.7,29.4 45.7,28.3 42,28.3 42,29.4 43.2,29.4 43.2,36.4 	"/>
	<polygon class="st1" points="49.7,29.4 49.7,28.3 46.5,28.3 46.5,36.4 49.7,36.4 49.7,35.3 47.8,35.3 47.8,32.8 49.2,32.8 
		49.2,31.7 47.8,31.7 47.8,29.4 	"/>
	<polygon class="st1" points="54.6,36.4 54.6,28.3 53.4,28.3 53.4,33 51.9,28.3 50.6,28.3 50.6,36.4 51.8,36.4 51.8,31.3 53.4,36.4 
			"/>
	<polygon class="st1" points="57.8,36.4 57.8,29.4 59,29.4 59,28.3 55.3,28.3 55.3,29.4 56.5,29.4 56.5,36.4 	"/>
	<path class="st1" d="M60.8,36.4l0.2-1.5h1.5l0.3,1.5h1.4l-1.6-8.2h-1.6l-1.5,8.2H60.8z M61.8,30.6L61.8,30.6l0.6,3.3h-1.1
		L61.8,30.6z"/>
	<polygon class="st1" points="63,26.7 60.8,27.2 60.8,28 63,27.7 	"/>
	<polygon class="st1" points="67,34 67,34 66.1,28.3 64.7,28.3 66.2,36.4 67.7,36.4 69.3,28.3 68,28.3 	"/>
	<polygon class="st1" points="73.2,29.4 73.2,28.3 70,28.3 70,36.4 73.2,36.4 73.2,35.3 71.3,35.3 71.3,32.8 72.7,32.8 72.7,31.7 
		71.3,31.7 71.3,29.4 	"/>
	<rect x="74.1" y="28.3" class="st1" width="1.4" height="8.2"/>
	<path class="st1" d="M76.3,30v0.3c0,0.9,0.4,1.4,1.1,2.2l0.8,0.8c0.4,0.4,0.6,0.7,0.6,1.2v0.3c0,0.4-0.2,0.7-0.6,0.7
		c-0.5,0-0.7-0.3-0.7-0.7v-1.1h-1.3v1.1c0,1.1,0.5,1.9,1.9,1.9c1.4,0,2-0.8,2-1.9v-0.4c0-0.9-0.4-1.4-1.1-2.1l-0.9-0.9
		c-0.4-0.4-0.7-0.7-0.7-1.1V30c0-0.5,0.3-0.7,0.7-0.7c0.4,0,0.7,0.2,0.7,0.7v0.7h1.3V30c0-1.2-0.5-1.9-1.9-1.9
		C76.9,28.2,76.3,28.9,76.3,30z"/>
</g>
</svg>
