<?xml version="1.0" encoding="utf-8"?>
<!-- Generator: Adobe Illustrator 24.0.0, SVG Export Plug-In . SVG Version: 6.00 Build 0)  -->
<svg version="1.1" id="Layer_1" xmlns="http://www.w3.org/2000/svg" xmlns:xlink="http://www.w3.org/1999/xlink" x="0px" y="0px"
	 viewBox="0 0 100 100" style="enable-background:new 0 0 100 100;" xml:space="preserve">
<style type="text/css">
	.st0{fill:#4C9F38;}
	.st1{fill:#FFFFFF;}
</style>
<rect y="0.3" class="st0" width="100" height="100"/>
<g>
	<path class="st1" d="M19.2,24.5v-3c0-1.8-0.8-3-2.5-3.4c1.4-0.4,2.3-1.6,2.3-3.3v-1.8c0-2.9-1.4-4.6-4.5-4.6
		c-3.5,0-4.7,2.1-4.7,5.1v1.8h3.1v-2.1c0-1.2,0.4-2,1.5-2c1.1,0,1.5,0.7,1.5,1.8v2.2c0,1.1-0.7,1.6-1.8,1.6h-1.3v2.6h1.4
		c1.2,0,1.7,0.6,1.7,1.6v3.3c0,1.1-0.5,1.8-1.5,1.8c-1.2,0-1.6-0.8-1.6-2v-2.9H9.6v2.6c0,3.1,1.2,5,4.7,5
		C17.7,29.1,19.2,27.3,19.2,24.5z"/>
	<path class="st1" d="M83.6,62.8c0-2.8-1.8-5.1-4.5-5.1c-1.4,0-3,1.5-3.9,2.4c-0.9-0.9-2.4-2.4-3.8-2.4c-2.7,0-4.7,2.3-4.7,5.1
		c0,1.4,0.6,2.7,1.5,3.6l7,7l7-7l0,0C83,65.5,83.6,64.2,83.6,62.8z"/>
	<path class="st1" d="M72.5,52.7c0.3,0.6,1,0.8,1.5,0.5c0.6-0.3,0.8-1,0.5-1.5l-6.3-13.1c-0.2-0.4-0.7-0.7-1.1-0.6
		c-0.5,0-0.9,0.4-1,0.8L54,78.7l-3.3-19.2c-0.1-0.5-0.5-0.9-0.9-0.9c-0.5-0.1-1,0.2-1.2,0.6L43.3,69l-2.4-16.5c-0.1-0.5-0.5-0.9-1-1
		c-0.5-0.1-1,0.2-1.2,0.7l-5.5,12.4H17.7c-0.6,0-1.2,0.5-1.2,1.2c0,0.6,0.5,1.2,1.2,1.2H34c0.5,0,0.9-0.3,1.1-0.7l4.2-9.4l2.3,16
		c0.1,0.5,0.4,0.9,0.9,1c0.5,0.1,1-0.1,1.2-0.6l5.4-10l3.6,20.7c0.1,0.5,0.5,0.9,1.1,1c0,0,0,0,0.1,0c0.5,0,1-0.3,1.1-0.8l12.6-41.8
		L72.5,52.7z"/>
	<path class="st1" d="M30.4,16.9c1.4,0,2-0.8,2-1.9v-0.4c0-0.9-0.4-1.4-1.1-2.1l-0.9-0.9c-0.4-0.4-0.7-0.7-0.7-1.1v-0.2
		c0-0.5,0.3-0.7,0.7-0.7c0.4,0,0.7,0.2,0.7,0.7v0.7h1.3v-0.7c0-1.2-0.5-1.9-1.9-1.9c-1.3,0-1.9,0.8-1.9,1.8v0.3
		c0,0.9,0.4,1.4,1.1,2.2l0.8,0.8c0.4,0.4,0.6,0.7,0.6,1.2v0.3c0,0.4-0.2,0.7-0.6,0.7c-0.5,0-0.7-0.3-0.7-0.7V14h-1.3v1.1
		C28.5,16.1,29,16.9,30.4,16.9z"/>
	<path class="st1" d="M34.6,15.3h1.5l0.3,1.5h1.4l-1.6-8.2h-1.6l-1.5,8.2h1.3L34.6,15.3z M35.3,11L35.3,11l0.6,3.3h-1.1L35.3,11z"/>
	<polygon class="st1" points="41.6,7.1 39.4,7.6 39.4,8.3 41.6,8.1 	"/>
	<path class="st1" d="M40.5,16.9c1.4,0,1.9-0.8,1.9-2.1V8.6h-1.3V15c0,0.5-0.2,0.8-0.7,0.8c-0.5,0-0.7-0.3-0.7-0.8V8.6h-1.4v6.2
		C38.4,16.1,39,16.9,40.5,16.9z"/>
	<path class="st1" d="M47.4,14.6v-3.8c0-1.3-0.5-2.2-2-2.2h-2.1v8.2h2.1C46.9,16.8,47.4,15.9,47.4,14.6z M44.7,15.7V9.8h0.6
		c0.6,0,0.8,0.3,0.8,0.8v4.3c0,0.5-0.2,0.8-0.8,0.8H44.7z"/>
	<polygon class="st1" points="51.6,15.7 49.7,15.7 49.7,13.2 51.1,13.2 51.1,12.1 49.7,12.1 49.7,9.8 51.6,9.8 51.6,8.6 48.3,8.6 
		48.3,16.8 51.6,16.8 	"/>
	<polygon class="st1" points="57.1,15.7 55.2,15.7 55.2,13.2 56.6,13.2 56.6,12.1 55.2,12.1 55.2,9.8 57.1,9.8 57.1,8.6 53.8,8.6 
		53.8,16.8 57.1,16.8 	"/>
	<path class="st1" d="M32.4,23.1v-0.8c0-1.2-0.5-1.8-1.8-1.8h-2v8.2h2.1c1.4,0,1.9-0.6,1.9-1.8v-1.1c0-0.7-0.3-1.2-1-1.4
		C32.1,24.2,32.4,23.8,32.4,23.1z M29.9,21.6h0.5c0.5,0,0.7,0.2,0.7,0.7v1c0,0.4-0.2,0.7-0.7,0.7h-0.5V21.6z M31.2,26.8
		c0,0.4-0.2,0.7-0.7,0.7h-0.6V25h0.6c0.5,0,0.7,0.2,0.7,0.7V26.8z"/>
	<polygon class="st1" points="36.7,21.6 36.7,20.5 33.4,20.5 33.4,28.6 36.7,28.6 36.7,27.5 34.8,27.5 34.8,25 36.1,25 36.1,23.9 
		34.8,23.9 34.8,21.6 	"/>
	<polygon class="st1" points="42.6,28.6 42.6,20.5 40.8,20.5 40,25.1 40,25.1 39.1,20.5 37.5,20.5 37.5,28.6 38.7,28.6 38.7,23.3 
		38.7,23.3 39.7,28.6 40.4,28.6 41.3,23.3 41.3,23.3 41.3,28.6 	"/>
	<rect x="43.4" y="24.3" class="st1" width="1.9" height="1.1"/>
	<polygon class="st1" points="49.4,21.6 49.4,20.5 46.1,20.5 46.1,28.6 49.4,28.6 49.4,27.5 47.5,27.5 47.5,25 48.9,25 48.9,23.9 
		47.5,23.9 47.5,21.6 	"/>
	<path class="st1" d="M50.2,22.2v0.3c0,0.9,0.4,1.4,1.1,2.2l0.8,0.8c0.4,0.4,0.6,0.7,0.6,1.2v0.3c0,0.4-0.2,0.7-0.6,0.7
		c-0.5,0-0.7-0.3-0.7-0.7v-1.1h-1.3v1.1c0,1.1,0.5,1.9,1.9,1.9c1.4,0,2-0.8,2-1.9v-0.4c0-0.9-0.4-1.4-1.1-2.1l-0.9-0.9
		c-0.4-0.4-0.7-0.7-0.7-1.1v-0.2c0-0.5,0.3-0.7,0.7-0.7c0.4,0,0.7,0.2,0.7,0.7v0.7h1.3v-0.7c0-1.2-0.5-1.9-1.9-1.9
		C50.8,20.4,50.2,21.1,50.2,22.2z"/>
	<polygon class="st1" points="57.4,28.6 57.4,21.6 58.5,21.6 58.5,20.5 54.8,20.5 54.8,21.6 56,21.6 56,28.6 	"/>
	<path class="st1" d="M60.6,27.1H62l0.3,1.5h1.4l-1.6-8.2h-1.6L59,28.6h1.3L60.6,27.1z M61.3,22.8L61.3,22.8l0.6,3.3h-1.1L61.3,22.8
		z"/>
	<path class="st1" d="M65.8,24.9l1.3,3.7h1.4l-1.3-3.7c0.8-0.2,1.1-0.7,1.1-1.6v-1c0-1.1-0.5-1.8-1.9-1.8h-2v8.2h1.4V24.9z
		 M65.8,21.6h0.5c0.5,0,0.7,0.2,0.7,0.7v1.2c0,0.4-0.2,0.7-0.7,0.7h-0.5V21.6z"/>
</g>
</svg>
