<?xml version="1.0" encoding="utf-8"?>
<!-- Generator: Adobe Illustrator 24.0.0, SVG Export Plug-In . SVG Version: 6.00 Build 0)  -->
<svg version="1.1" id="Layer_1" xmlns="http://www.w3.org/2000/svg" xmlns:xlink="http://www.w3.org/1999/xlink" x="0px" y="0px"
	 viewBox="0 0 100 100" style="enable-background:new 0 0 100 100;" xml:space="preserve">
<style type="text/css">
	.st0{fill:#FD6925;}
	.st1{fill:#FFFFFF;}
</style>
<rect x="0.3" y="-0.2" class="st0" width="100" height="100"/>
<g>
	<path class="st1" d="M13.7,7.9c-3.6,0-5,2-5,5.1v3c0,3.3,1.3,5,3.7,5c1.4,0,2.3-0.7,2.8-1.6h0v4.3c0,1.2-0.5,2.1-1.7,2.1
		c-1.2,0-1.7-0.7-1.7-2v-1.3H8.8v1.1c0,3,1.1,5.1,4.8,5.1c3.6,0,5-2.3,5-5.4v-9.8C18.6,10.1,17.3,7.9,13.7,7.9z M15.3,16.4
		c-0.1,1.1-0.5,1.8-1.6,1.8c-1.2,0-1.6-0.7-1.6-2v-3.5c0-1.3,0.5-2,1.6-2c1.1,0,1.6,0.8,1.6,2V16.4z"/>
	<path class="st1" d="M75.9,65.5L64,58.7V45c0-0.3-0.2-0.6-0.4-0.7l-12.3-7.1c-0.3-0.1-0.6-0.1-0.8,0l-12.3,7.1
		c-0.3,0.1-0.4,0.4-0.4,0.7v13.7l-11.9,6.9c-0.3,0.1-0.4,0.4-0.4,0.7v14.2c0,0.3,0.2,0.6,0.4,0.7l12.3,7.1c0.1,0.1,0.3,0.1,0.4,0.1
		c0.1,0,0.3,0,0.4-0.1l11.9-6.9l11.9,6.9c0.1,0.1,0.3,0.1,0.4,0.1c0.1,0,0.3,0,0.4-0.1l12.3-7.1c0.3-0.1,0.4-0.4,0.4-0.7V66.2
		C76.3,66,76.1,65.7,75.9,65.5z M37.8,86.1L27.1,80V67.6l10.7,6.2V86.1z M39.4,46.4l9.9,5.7l-9.9,5.7V46.4z M39.4,86.1V74.7l9.9,5.7
		L39.4,86.1z M50.1,79l-9.9-5.7l9.9-5.7V79z M50.1,64.8l-9.9-5.7l9.9-5.7V64.8z M62.4,46.4v11.4L52.5,52L62.4,46.4z M51.7,53.5
		l9.9,5.7l-9.9,5.7V53.5z M63.2,72.4l-10.7-6.2l10.7-6.2l10.7,6.2L63.2,72.4z M74.7,80L64,86.1V73.8l10.7-6.2V80z"/>
	<rect x="23.9" y="8.4" class="st1" width="1.3" height="7.8"/>
	<polygon class="st1" points="26.9,11.2 28.5,16.1 29.6,16.1 29.6,8.4 28.5,8.4 28.5,12.8 27.1,8.4 25.8,8.4 25.8,16.1 26.9,16.1 	
		"/>
	<path class="st1" d="M34.1,14.1v-3.6c0-1.2-0.5-2.1-1.9-2.1h-2v7.8h2C33.6,16.1,34.1,15.2,34.1,14.1z M31.5,15.1V9.4h0.6
		c0.5,0,0.7,0.3,0.7,0.8v4.1c0,0.5-0.2,0.8-0.7,0.8H31.5z"/>
	<path class="st1" d="M36.7,16.2c1.3,0,1.9-0.8,1.9-2V8.4h-1.2v6c0,0.5-0.2,0.8-0.6,0.8S36,14.8,36,14.4v-6h-1.3v5.9
		C34.7,15.5,35.3,16.2,36.7,16.2z"/>
	<polygon class="st1" points="37.7,6.9 35.6,7.3 35.6,8.1 37.7,7.8 	"/>
	<path class="st1" d="M40.9,16.2c1.3,0,1.9-0.8,1.9-1.8V14c0-0.9-0.3-1.3-1.1-2l-0.8-0.8c-0.4-0.4-0.6-0.6-0.6-1.1V10
		c0-0.4,0.3-0.6,0.6-0.6c0.4,0,0.6,0.2,0.6,0.7v0.7h1.2V10c0-1.1-0.5-1.8-1.8-1.8C39.6,8.3,39,9,39,10v0.3c0,0.9,0.3,1.3,1.1,2.1
		l0.8,0.8c0.4,0.4,0.6,0.7,0.6,1.1v0.3c0,0.4-0.2,0.7-0.6,0.7c-0.4,0-0.6-0.3-0.6-0.7v-1.1H39v1C39,15.5,39.5,16.2,40.9,16.2z"/>
	<polygon class="st1" points="43.9,16.1 45.3,16.1 45.3,9.4 46.3,9.4 46.3,8.4 42.9,8.4 42.9,9.4 43.9,9.4 	"/>
	<path class="st1" d="M48.1,12.6l1.2,3.6h1.4l-1.3-3.5c0.7-0.2,1-0.7,1-1.5v-1c0-1.1-0.5-1.7-1.8-1.7h-1.9v7.8h1.3V12.6z M48.1,9.4
		h0.4c0.4,0,0.6,0.2,0.6,0.6v1.1c0,0.4-0.2,0.6-0.6,0.6h-0.4V9.4z"/>
	<rect x="50.7" y="8.4" class="st1" width="1.3" height="7.8"/>
	<path class="st1" d="M53.9,14.7h1.4l0.2,1.4h1.3l-1.5-7.8h-1.5l-1.5,7.8h1.2L53.9,14.7z M54.6,10.5L54.6,10.5l0.5,3.1h-1L54.6,10.5
		z"/>
	<polygon class="st1" points="58.6,15 58.6,14.9 57.3,14.9 57.2,16.8 57.9,16.8 	"/>
	<rect x="60.2" y="8.4" class="st1" width="1.3" height="7.8"/>
	<polygon class="st1" points="63.2,11.2 64.7,16.1 65.9,16.1 65.9,8.4 64.8,8.4 64.8,12.8 63.4,8.4 62.1,8.4 62.1,16.1 63.2,16.1 	
		"/>
	<path class="st1" d="M68.4,16.2c1.4,0,2-0.9,2-2.1v-3.8c0-1.2-0.6-2.1-2-2.1c-1.4,0-2,0.9-2,2.1v3.8C66.5,15.3,67.1,16.2,68.4,16.2
		z M67.8,10.2c0-0.5,0.2-0.8,0.7-0.8c0.5,0,0.7,0.3,0.7,0.8v4.2c0,0.5-0.2,0.8-0.7,0.8c-0.5,0-0.7-0.3-0.7-0.8V10.2z"/>
	<polygon class="st1" points="73.7,16.1 75.2,8.4 74,8.4 73.1,13.8 73,13.8 72.1,8.4 70.8,8.4 72.3,16.1 	"/>
	<path class="st1" d="M78.5,16.1h1.3l-1.5-7.8h-1.5l-1.5,7.8h1.2l0.2-1.4h1.4L78.5,16.1z M77,13.7l0.5-3.1h0l0.5,3.1H77z"/>
	<path class="st1" d="M81.8,16.2v0.4h0.1c0.1,0,0.2,0,0.2,0.1c0,0.1-0.1,0.2-0.4,0.2v0.4c0.8,0,1.2-0.2,1.2-0.6
		c0-0.3-0.2-0.4-0.5-0.4v-0.1c1.3,0,1.7-0.9,1.7-1.9v-1.3h-1.2v1.4c0,0.5-0.2,0.8-0.6,0.8c-0.5,0-0.7-0.3-0.7-0.8v-4.2
		c0-0.5,0.2-0.8,0.7-0.8c0.5,0,0.6,0.3,0.6,0.8v1H84v-0.9c0-1.1-0.4-2-1.8-2c-1.4,0-2,0.9-2,2.1v3.8C80.2,15.2,80.6,16.1,81.8,16.2z
		"/>
	<path class="st1" d="M85.8,8.4l-1.5,7.8h1.2l0.2-1.4h1.4l0.2,1.4h1.3l-1.5-7.8H85.8z M86,13.7l0.5-3.1h0l0.5,3.1H86z"/>
	<path class="st1" d="M86.1,7.9c0.2,0,0.4,0.2,0.8,0.2c0.6,0,0.8-0.4,0.8-1h-0.6c0,0.1-0.1,0.2-0.2,0.2c-0.2,0-0.4-0.2-0.8-0.2
		c-0.6,0-0.8,0.4-0.8,1H86C86,7.9,86.1,7.9,86.1,7.9z"/>
	<path class="st1" d="M91.1,8.3c-1.4,0-2,0.9-2,2.1v3.8c0,1.2,0.6,2.1,2,2.1c1.4,0,2-0.9,2-2.1v-3.8C93.1,9.1,92.5,8.3,91.1,8.3z
		 M91.8,14.3c0,0.5-0.2,0.8-0.7,0.8c-0.5,0-0.7-0.3-0.7-0.8v-4.2c0-0.5,0.2-0.8,0.7-0.8c0.5,0,0.7,0.3,0.7,0.8V14.3z"/>
	<polygon class="st1" points="27.1,27.1 25.3,27.1 25.3,24.7 26.6,24.7 26.6,23.7 25.3,23.7 25.3,21.4 27.1,21.4 27.1,20.4 
		23.9,20.4 23.9,28.2 27.1,28.2 	"/>
	<rect x="28.9" y="20.4" class="st1" width="1.3" height="7.8"/>
	<polygon class="st1" points="33.6,24.8 32.2,20.4 30.9,20.4 30.9,28.2 32,28.2 32,23.3 33.5,28.2 34.7,28.2 34.7,20.4 33.6,20.4 	
		"/>
	<polygon class="st1" points="38.4,21.4 38.4,20.4 35.4,20.4 35.4,28.2 36.7,28.2 36.7,24.7 38,24.7 38,23.7 36.7,23.7 36.7,21.4 	
		"/>
	<path class="st1" d="M40.3,24.6l1.2,3.6h1.4l-1.3-3.5c0.7-0.2,1-0.7,1-1.5v-1c0-1.1-0.5-1.7-1.8-1.7h-1.9v7.8h1.3V24.6z M40.3,21.4
		h0.4c0.4,0,0.6,0.2,0.6,0.6v1.1c0,0.4-0.2,0.6-0.6,0.6h-0.4V21.4z"/>
	<path class="st1" d="M44.6,20.4l-1.5,7.8h1.2l0.2-1.4H46l0.2,1.4h1.3l-1.5-7.8H44.6z M44.7,25.7l0.5-3.1h0l0.5,3.1H44.7z"/>
	<polygon class="st1" points="51.2,21.4 51.2,20.4 48,20.4 48,28.2 51.2,28.2 51.2,27.1 49.3,27.1 49.3,24.7 50.6,24.7 50.6,23.7 
		49.3,23.7 49.3,21.4 	"/>
	<path class="st1" d="M51.8,22.2c0,0.9,0.3,1.3,1.1,2.1l0.8,0.8c0.4,0.4,0.6,0.7,0.6,1.1v0.3c0,0.4-0.2,0.7-0.6,0.7
		c-0.4,0-0.6-0.3-0.6-0.7v-1.1h-1.2v1c0,1,0.5,1.8,1.9,1.8c1.3,0,1.9-0.8,1.9-1.8V26c0-0.9-0.3-1.3-1.1-2l-0.8-0.8
		c-0.4-0.4-0.6-0.6-0.6-1.1V22c0-0.4,0.3-0.6,0.6-0.6c0.4,0,0.6,0.2,0.6,0.7v0.7h1.2V22c0-1.1-0.5-1.8-1.8-1.8
		c-1.3,0-1.8,0.7-1.8,1.7V22.2z"/>
	<polygon class="st1" points="58.4,28.2 58.4,21.4 59.5,21.4 59.5,20.4 56,20.4 56,21.4 57.1,21.4 57.1,28.2 	"/>
	<path class="st1" d="M61.3,24.6l1.2,3.6h1.4l-1.3-3.5c0.7-0.2,1-0.7,1-1.5v-1c0-1.1-0.5-1.7-1.8-1.7H60v7.8h1.3V24.6z M61.3,21.4
		h0.4c0.4,0,0.6,0.2,0.6,0.6v1.1c0,0.4-0.2,0.6-0.6,0.6h-0.4V21.4z"/>
	<path class="st1" d="M65.7,26.4v-6h-1.3v5.9c0,1.2,0.6,2,2,2c1.3,0,1.8-0.8,1.8-2v-5.9H67v6c0,0.5-0.2,0.8-0.6,0.8
		C65.9,27.2,65.7,26.8,65.7,26.4z"/>
	<polygon class="st1" points="71.1,28.2 71.1,21.4 72.2,21.4 72.2,20.4 68.7,20.4 68.7,21.4 69.8,21.4 69.8,28.2 	"/>
	<path class="st1" d="M75.4,26.4c0,0.5-0.2,0.8-0.6,0.8c-0.5,0-0.6-0.3-0.6-0.8v-6h-1.3v5.9c0,1.2,0.6,2,2,2c1.3,0,1.9-0.8,1.9-2
		v-5.9h-1.2V26.4z"/>
	<path class="st1" d="M81,23.1v-1c0-1.1-0.5-1.7-1.8-1.7h-1.9v7.8h1.3v-3.6l1.2,3.6h1.4l-1.3-3.5C80.7,24.4,81,24,81,23.1z
		 M79.7,23.2c0,0.4-0.2,0.6-0.6,0.6h-0.4v-2.4H79c0.4,0,0.6,0.2,0.6,0.6V23.2z"/>
	<path class="st1" d="M82.9,20.4l-1.5,7.8h1.2l0.2-1.4h1.4l0.2,1.4h1.3l-1.5-7.8H82.9z M83.1,25.7l0.5-3.1h0l0.5,3.1H83.1z"/>
</g>
</svg>
