<?xml version="1.0" encoding="utf-8"?>
<!-- Generator: Adobe Illustrator 24.0.0, SVG Export Plug-In . SVG Version: 6.00 Build 0)  -->
<svg version="1.1" id="Layer_1" xmlns="http://www.w3.org/2000/svg" xmlns:xlink="http://www.w3.org/1999/xlink" x="0px" y="0px"
	 viewBox="0 0 263 146" style="enable-background:new 0 0 263 146;" xml:space="preserve">
<style type="text/css">
	.st0{fill:#231F20;}
</style>
<path class="st0" d="M53.4,131.4c-2.1,2.6-5.1,4.6-9,6c-3.9,1.4-8.2,2.2-12.9,2.2c-5,0-9.3-1-13.1-3.2c-3.8-2.1-6.7-5.3-8.8-9.4
	c-2.1-4.1-3.1-9-3.2-14.5l0-3.9c0-5.7,0.9-10.7,2.8-14.9c1.9-4.2,4.7-7.4,8.3-9.7c3.6-2.2,7.9-3.4,12.8-3.4c6.8,0,12.2,1.5,16,4.8
	c3.9,3.2,6.2,7.9,6.9,14.1l-11.5,0.1c-0.6-3.3-1.7-5.7-3.5-7.2c-1.8-1.5-4.3-2.3-7.5-2.2c-4,0-7.1,1.6-9.2,4.6
	c-2.1,3-3.1,7.6-3.1,13.5l0,3.7c0,6,1.2,10.6,3.5,13.6c2.3,3.1,5.7,4.6,10.1,4.6c4.4,0,7.6-1,9.5-2.9l-0.1-9.9l-10.8,0.1l-0.1-8.7
	l22.6-0.2L53.4,131.4z"/>
<path class="st0" d="M151.2,126.2l-20.8,0.1l-3.9,11.9l-12.6,0.1l21-57.6l11-0.1l21.9,57.3l-12.6,0.1L151.2,126.2z M133.6,116.7
	l14.4-0.1l-7.4-21.5L133.6,116.7z"/>
<polygon class="st0" points="183.3,128.3 208.4,128.1 208.5,137.7 171.5,137.9 171.1,80.4 183,80.3 "/>
<path class="st0" d="M243.2,122.3c0-2.2-0.8-3.9-2.4-5.1c-1.6-1.2-4.4-2.4-8.6-3.7c-4.1-1.3-7.4-2.6-9.8-3.9
	c-6.6-3.5-9.8-8.2-9.9-14.2c0-3.1,0.8-5.9,2.6-8.3c1.7-2.4,4.2-4.4,7.5-5.8c3.3-1.4,6.9-2.1,11-2.1c4.1,0,7.8,0.7,11,2.2
	c3.2,1.5,5.7,3.5,7.5,6.2s2.7,5.8,2.7,9.2l-11.8,0.1c0-2.6-0.9-4.7-2.5-6.1c-1.7-1.4-4-2.2-7-2.1c-2.9,0-5.1,0.6-6.7,1.9
	c-1.6,1.2-2.4,2.9-2.4,4.9c0,1.9,1,3.4,2.9,4.7c1.9,1.2,4.7,2.4,8.3,3.5c6.8,2,11.7,4.5,14.8,7.4c3.1,3,4.7,6.7,4.7,11.2
	c0,5-1.8,8.9-5.6,11.7c-3.7,2.9-8.8,4.3-15.2,4.3c-4.4,0-8.5-0.8-12.1-2.3c-3.6-1.6-6.4-3.8-8.4-6.6c-1.9-2.8-2.9-6.1-2.9-9.8
	l11.9-0.1c0,6.3,3.9,9.5,11.4,9.4c2.8,0,5-0.6,6.6-1.8C242.5,126,243.2,124.4,243.2,122.3"/>
<path class="st0" d="M74.5,101.8c0.7-1.2,1.6-2.3,2.6-3.3l-8.5-9.3c-2.1,2-4,4.4-5.4,7L74.5,101.8z"/>
<path class="st0" d="M95.3,95.2c1.3,0.6,2.5,1.3,3.6,2.2l8.5-9.3c-2.2-1.9-4.8-3.5-7.5-4.7L95.3,95.2z"/>
<path class="st0" d="M114.8,98l-11.3,5.6c0.5,1.3,0.9,2.6,1.1,4l12.6-1.2C116.8,103.5,116,100.7,114.8,98"/>
<path class="st0" d="M102.7,102l11.3-5.6c-1.4-2.6-3.2-5-5.3-7l-8.5,9.3C101.2,99.7,102,100.8,102.7,102"/>
<path class="st0" d="M72.2,110c0-0.3,0-0.5,0-0.8l-12.6-1.1c0,0.6-0.1,1.3-0.1,1.9c0,2.4,0.3,4.7,0.9,7l12.1-3.5
	C72.4,112.4,72.2,111.3,72.2,110"/>
<path class="st0" d="M101.1,120.4c-0.9,1.1-1.9,2.1-3.1,2.9l6.6,10.7c2.5-1.7,4.7-3.7,6.5-6L101.1,120.4z"/>
<path class="st0" d="M104.8,110c0,1.2-0.1,2.3-0.4,3.5l12.1,3.5c0.6-2.2,0.8-4.6,0.8-6.9c0-0.6,0-1.2-0.1-1.8l-12.6,1.2
	C104.8,109.7,104.8,109.9,104.8,110"/>
<path class="st0" d="M76.1,120.6l-10,7.6c1.9,2.3,4.1,4.3,6.6,5.9l6.6-10.7C78.1,122.6,77,121.7,76.1,120.6"/>
<path class="st0" d="M72.4,107.5c0.2-1.4,0.6-2.8,1.2-4l-11.3-5.6c-1.2,2.7-2.1,5.5-2.5,8.5L72.4,107.5z"/>
<path class="st0" d="M103.1,135l-6.6-10.7c-1.2,0.7-2.5,1.2-3.9,1.6l2.3,12.4C97.9,137.5,100.6,136.4,103.1,135"/>
<path class="st0" d="M103.9,115.3c-0.4,1.3-1,2.5-1.8,3.6l10.1,7.6c1.6-2.4,2.9-5,3.8-7.7L103.9,115.3z"/>
<path class="st0" d="M90.9,126.2c-0.8,0.1-1.6,0.2-2.3,0.2c-0.6,0-1.3,0-1.9-0.1l-2.3,12.4c1.4,0.2,2.8,0.3,4.2,0.3
	c1.6,0,3.2-0.1,4.7-0.4L90.9,126.2z"/>
<path class="st0" d="M89.5,93.8c1.4,0.1,2.8,0.4,4,0.8l4.5-11.8c-2.7-1-5.6-1.5-8.6-1.6V93.8z"/>
<path class="st0" d="M84.8,125.9c-1.4-0.3-2.8-0.8-4-1.5l-6.6,10.7c2.6,1.5,5.3,2.5,8.3,3.2L84.8,125.9z"/>
<path class="st0" d="M83.6,94.5c1.3-0.4,2.7-0.7,4.1-0.7V81.2c-3,0.1-5.9,0.6-8.7,1.6L83.6,94.5z"/>
<path class="st0" d="M75,119.2c-0.8-1.2-1.5-2.5-1.9-3.9L61,118.8c0.9,2.9,2.3,5.6,4,8L75,119.2z"/>
<path class="st0" d="M78.4,97.3c1.1-0.8,2.2-1.6,3.5-2.1l-4.6-11.8c-2.7,1.1-5.2,2.7-7.4,4.6L78.4,97.3z"/>
<path class="st0" d="M21.5,29.1c0-0.9-0.3-1.6-1-2.2c-0.7-0.5-1.8-1.1-3.5-1.6c-1.6-0.6-3-1.1-4-1.6c-3.4-1.7-5.1-4-5.1-6.9
	c0-1.5,0.4-2.7,1.3-3.8c0.8-1.1,2-2,3.6-2.6C14.3,9.8,16,9.5,18,9.5c1.9,0,3.6,0.3,5.1,1c1.5,0.7,2.7,1.6,3.5,2.9
	c0.8,1.2,1.2,2.7,1.2,4.3h-6.3c0-1.1-0.3-1.9-1-2.5c-0.7-0.6-1.5-0.9-2.7-0.9c-1.1,0-2,0.2-2.7,0.7c-0.7,0.5-1,1.1-1,1.9
	c0,0.7,0.4,1.3,1.1,1.8s2,1.1,3.8,1.7c1.8,0.6,3.3,1.2,4.5,1.9c2.8,1.6,4.3,3.9,4.3,6.8c0,2.3-0.9,4.1-2.6,5.4c-1.7,1.3-4.1,2-7.1,2
	c-2.1,0-4.1-0.4-5.8-1.1c-1.7-0.8-3-1.8-3.9-3.1c-0.9-1.3-1.3-2.9-1.3-4.6h6.3c0,1.4,0.4,2.4,1.1,3.1c0.7,0.7,1.9,1,3.5,1
	c1,0,1.9-0.2,2.5-0.7C21.2,30.5,21.5,29.9,21.5,29.1"/>
<path class="st0" d="M52,9.8V27c0,1.9-0.4,3.6-1.2,5.1c-0.8,1.4-2,2.5-3.6,3.3c-1.5,0.7-3.4,1.1-5.5,1.1c-3.2,0-5.7-0.8-7.6-2.5
	c-1.8-1.7-2.8-3.9-2.8-6.8V9.8h6.4v17.4c0.1,2.9,1.4,4.3,4,4.3c1.3,0,2.3-0.4,3-1.1c0.7-0.7,1-1.9,1-3.5V9.8H52z"/>
<path class="st0" d="M69.8,29.1c0-0.9-0.3-1.6-1-2.2c-0.7-0.5-1.8-1.1-3.5-1.6c-1.6-0.6-3-1.1-4-1.6c-3.4-1.7-5.1-4-5.1-6.9
	c0-1.5,0.4-2.7,1.3-3.8c0.8-1.1,2-2,3.6-2.6c1.5-0.6,3.3-0.9,5.2-0.9c1.9,0,3.6,0.3,5.1,1c1.5,0.7,2.7,1.6,3.5,2.9
	c0.8,1.2,1.2,2.7,1.2,4.3h-6.3c0-1.1-0.3-1.9-1-2.5c-0.7-0.6-1.5-0.9-2.7-0.9c-1.1,0-2,0.2-2.7,0.7c-0.7,0.5-1,1.1-1,1.9
	c0,0.7,0.4,1.3,1.1,1.8s2,1.1,3.8,1.7c1.8,0.6,3.3,1.2,4.5,1.9c2.8,1.6,4.3,3.9,4.3,6.8c0,2.3-0.9,4.1-2.6,5.4c-1.7,1.3-4.1,2-7.1,2
	c-2.1,0-4.1-0.4-5.8-1.1c-1.7-0.8-3-1.8-3.9-3.1c-0.9-1.3-1.3-2.9-1.3-4.6h6.3c0,1.4,0.4,2.4,1.1,3.1c0.7,0.7,1.9,1,3.5,1
	c1,0,1.9-0.2,2.5-0.7C69.5,30.5,69.8,29.9,69.8,29.1"/>
<polygon class="st0" points="100.4,14.7 92.5,14.7 92.5,36.1 86.2,36.1 86.2,14.7 78.5,14.7 78.5,9.8 100.4,9.8 "/>
<path class="st0" d="M116.2,31.2h-8.7l-1.5,4.9h-6.8l9.6-26.2h5.9l9.7,26.2h-6.8L116.2,31.2z M109,26.3h5.6l-2.8-9.1L109,26.3z"/>
<rect x="127.2" y="9.8" class="st0" width="6.3" height="26.2"/>
<polygon class="st0" points="160.2,36.1 153.9,36.1 144.6,19.7 144.6,36.1 138.3,36.1 138.3,9.8 144.6,9.8 153.9,26.2 153.9,9.8 
	160.2,9.8 "/>
<path class="st0" d="M179.8,31.2h-8.7l-1.5,4.9h-6.8l9.6-26.2h5.9l9.7,26.2h-6.8L179.8,31.2z M172.7,26.3h5.6l-2.8-9.1L172.7,26.3z"
	/>
<path class="st0" d="M190.4,36.1V9.8h9.4c3.4,0,5.9,0.6,7.7,1.9c1.8,1.2,2.6,3,2.6,5.4c0,1.4-0.3,2.5-0.9,3.5
	c-0.6,1-1.5,1.7-2.8,2.1c1.4,0.4,2.4,1,3.2,2c0.7,1,1.1,2.2,1.1,3.6c0,2.6-0.8,4.5-2.4,5.8c-1.6,1.3-4,1.9-7.2,2H190.4z M196.7,20.8
	h3.3c1.4,0,2.4-0.3,3-0.8c0.6-0.5,0.9-1.2,0.9-2.2c0-1.1-0.3-1.9-1-2.4c-0.6-0.5-1.7-0.7-3.1-0.7h-3.1V20.8z M196.7,24.9v6.3h4.1
	c1.1,0,2-0.3,2.6-0.8s0.9-1.3,0.9-2.2c0-2.2-1.1-3.3-3.3-3.3H196.7z"/>
<polygon class="st0" points="220.9,31.2 231.9,31.2 231.9,36.1 214.6,36.1 214.6,9.8 220.9,9.8 "/>
<polygon class="st0" points="251.3,24.9 241.3,24.9 241.3,31.2 253.1,31.2 253.1,36.1 235,36.1 235,9.8 253.1,9.8 253.1,14.7 
	241.3,14.7 241.3,20.2 251.3,20.2 "/>
<path class="st0" d="M7.9,71.6V45.9h8.3c2.3,0,4.3,0.5,6.1,1.5c1.8,1,3.2,2.5,4.2,4.4c1,1.9,1.5,4,1.5,6.3v1.2
	c0,2.4-0.5,4.5-1.5,6.3c-1,1.9-2.4,3.3-4.2,4.4c-1.8,1.1-3.8,1.6-6.1,1.6H7.9z M14.1,50.6v16.2h2.2c1.8,0,3.1-0.6,4.1-1.9
	c1-1.3,1.4-3.1,1.4-5.6v-1.1c0-2.5-0.5-4.4-1.4-5.6s-2.3-1.9-4.2-1.9H14.1z"/>
<polygon class="st0" points="45.9,60.7 36.8,60.7 36.8,66.8 47.6,66.8 47.6,71.6 30.6,71.6 30.6,45.9 47.7,45.9 47.7,50.6 
	36.8,50.6 36.8,56.1 45.9,56.1 "/>
<polygon class="st0" points="61.2,64.6 66.4,45.9 73.3,45.9 64.6,71.6 57.8,71.6 49.3,45.9 56.1,45.9 "/>
<polygon class="st0" points="90.4,60.7 81.4,60.7 81.4,66.8 92.1,66.8 92.1,71.6 75.2,71.6 75.2,45.9 92.2,45.9 92.2,50.6 
	81.4,50.6 81.4,56.1 90.4,56.1 "/>
<polygon class="st0" points="100.5,66.8 110.3,66.8 110.3,71.6 94.3,71.6 94.3,45.9 100.5,45.9 "/>
<path class="st0" d="M133.3,59.2c0,2.5-0.5,4.7-1.4,6.7c-0.9,1.9-2.3,3.4-4,4.5c-1.7,1-3.7,1.6-5.9,1.6s-4.1-0.5-5.8-1.5
	c-1.7-1-3-2.4-4-4.3c-0.9-1.9-1.4-4-1.5-6.4v-1.4c0-2.5,0.5-4.7,1.4-6.7c0.9-1.9,2.2-3.4,4-4.5c1.7-1,3.7-1.6,5.9-1.6
	c2.2,0,4.1,0.5,5.8,1.6c1.7,1,3,2.5,4,4.4c0.9,1.9,1.4,4.1,1.4,6.6V59.2z M127,58.2c0-2.6-0.4-4.5-1.3-5.8c-0.9-1.3-2.1-2-3.7-2
	c-3.1,0-4.8,2.3-4.9,7l0,1.9c0,2.5,0.4,4.5,1.3,5.8c0.8,1.4,2.1,2,3.7,2c1.6,0,2.8-0.7,3.6-2c0.8-1.3,1.3-3.2,1.3-5.7V58.2z"/>
<path class="st0" d="M142,62.8v8.7h-6.2V45.9h10.3c2,0,3.7,0.4,5.2,1.1s2.7,1.8,3.5,3.1c0.8,1.3,1.2,2.9,1.2,4.5
	c0,2.5-0.9,4.5-2.7,6c-1.8,1.5-4.3,2.3-7.4,2.3H142z M142,58.1h4.1c1.2,0,2.1-0.3,2.7-0.9c0.6-0.6,0.9-1.4,0.9-2.5
	c0-1.2-0.3-2.2-1-2.9c-0.6-0.7-1.5-1.1-2.6-1.1H142V58.1z"/>
<polygon class="st0" points="166.5,45.9 172.2,63.7 177.9,45.9 186.1,45.9 186.1,71.6 179.9,71.6 179.9,65.6 180.5,53.3 174.2,71.6 
	170.1,71.6 163.9,53.3 164.5,65.6 164.5,71.6 158.3,71.6 158.3,45.9 "/>
<polygon class="st0" points="204.2,60.7 195,60.7 195,66.8 205.9,66.8 205.9,71.6 188.8,71.6 188.8,45.9 206,45.9 206,50.6 
	195,50.6 195,56.1 204.2,56.1 "/>
<polygon class="st0" points="229.5,71.6 223.3,71.6 214.2,55.6 214.2,71.6 208,71.6 208,45.9 214.2,45.9 223.3,61.9 223.3,45.9 
	229.5,45.9 "/>
<polygon class="st0" points="253.1,50.6 245.4,50.6 245.4,71.6 239.2,71.6 239.2,50.6 231.6,50.6 231.6,45.9 253.1,45.9 "/>
</svg>
