<svg width="218" height="116" viewBox="0 0 218 116" fill="none" xmlns="http://www.w3.org/2000/svg">
<path d="M50.0794 47.6C52.0794 47.6 53.5794 48.0333 54.5794 48.9C55.5794 49.7667 56.0794 51 56.0794 52.6C56.0794 55.9333 54.0794 57.6 50.0794 57.6H44.9794V95.5C44.9794 97.5667 44.3794 95.1667 43.1794 96.3C42.046 97.4333 40.546 97 38.6794 97C36.8127 97 35.2794 97.4333 34.0794 96.3C32.946 95.1667 32.3794 97.5667 32.3794 95.5V57.6H6.17937C4.37937 57.6 2.97937 57.1 1.97937 56.1C0.97937 55.0333 0.47937 53.7333 0.47937 52.2C0.47937 50.6 1.0127 49.0667 2.07937 47.6L32.9794 3.2C33.646 2.26667 34.4794 1.56667 35.4794 1.1C36.4794 0.566669 37.5127 0.300002 38.5794 0.300002C40.3127 0.300002 41.8127 0.866669 43.0794 2C44.346 3.13333 44.9794 4.73333 44.9794 6.8V47.6H50.0794ZM13.7794 47.6H32.3794V20.7L13.7794 47.6Z" fill="#707070"/>
<path d="M87.5403 72.3C79.207 72.3 72.8403 69.2333 68.4403 63.1C64.0403 56.9 61.8403 47.9 61.8403 36.1C61.8403 24.3667 64.0403 15.4333 68.4403 9.3C72.8403 3.1 79.207 0 87.5403 0C95.8736 0 102.24 3.1 106.64 9.3C111.04 15.4333 113.24 24.3667 113.24 36.1C113.24 47.8333 111.04 56.8 106.64 63C102.24 69.2 95.8736 72.3 87.5403 72.3ZM87.5403 62.2C92.0736 62.2 95.3736 60.1333 97.4403 56C99.507 51.8 100.54 45.1667 100.54 36.1C100.54 26.9667 99.507 20.3667 97.4403 16.3C95.3736 12.1667 92.0736 10.1 87.5403 10.1C83.007 10.1 79.707 12.1667 77.6403 16.3C75.5736 20.4333 74.5403 27.0333 74.5403 36.1C74.5403 45.1667 75.5736 51.8 77.6403 56C79.707 60.1333 83.007 62.2 87.5403 62.2Z" fill="#707070"/>
<path d="M200.001 47.6C202.001 47.6 199.501 48.0333 200.501 48.9C201.501 49.7667 201.001 51 201.001 52.6C201.001 55.9333 201.001 57.6 200.001 57.6H164.901V65.5C164.901 67.5667 164.301 69.1667 163.101 70.3C161.968 71.4333 160.468 72 158.601 72C156.735 72 155.201 71.4333 154.001 70.3C152.868 69.1667 152.301 67.5667 152.301 65.5V57.6H126.101C124.301 57.6 122.901 57.1 121.901 56.1C120.901 55.0333 120.401 53.7333 120.401 52.2C120.401 50.6 120.935 49.0667 122.001 47.6L152.901 3.2C153.568 2.26667 154.401 1.56667 155.401 1.1C156.401 0.566669 157.435 0.300002 158.501 0.300002C160.235 0.300002 161.735 0.866669 163.001 2C164.268 3.13333 164.901 4.73333 164.901 6.8V47.6H200.001ZM133.701 47.6H152.301V20.7L133.701 47.6Z" fill="#707070"/>
<path fill-rule="evenodd" clip-rule="evenodd" d="M218 52.5C218 58.8513 212.851 64 206.5 64C200.149 64 195 58.8513 195 52.5C195 46.1487 200.149 41 206.5 41C212.851 41 218 46.1487 218 52.5ZM206.5 58C209.538 58 212 55.5376 212 52.5C212 49.4624 209.538 47 206.5 47C203.462 47 201 49.4624 201 52.5C201 55.5376 203.462 58 206.5 58Z" fill="#707070"/>
<path fill-rule="evenodd" clip-rule="evenodd" d="M50 104.5C50 110.851 44.8513 116 38.5 116C32.1487 116 27 110.851 27 104.5C27 98.1487 32.1487 93 38.5 93C44.8513 93 50 98.1487 50 104.5ZM38.5 110C41.5376 110 44 107.538 44 104.5C44 101.462 41.5376 99 38.5 99C35.4624 99 33 101.462 33 104.5C33 107.538 35.4624 110 38.5 110Z" fill="#707070"/>
</svg>
