<?xml version="1.0" encoding="utf-8"?>
<!-- Generator: Adobe Illustrator 24.0.0, SVG Export Plug-In . SVG Version: 6.00 Build 0)  -->
<svg version="1.1" id="Layer_1" xmlns="http://www.w3.org/2000/svg" xmlns:xlink="http://www.w3.org/1999/xlink" x="0px" y="0px"
	 viewBox="0 0 100 100" style="enable-background:new 0 0 100 100;" xml:space="preserve">
<style type="text/css">
	.st0{fill:#BF8B2E;}
	.st1{fill:#FFFFFF;}
</style>
<rect x="0.3" y="-0.2" class="st0" width="100" height="100"/>
<g>
	<polygon class="st1" points="7.9,11.9 7.9,15.4 7.9,15.4 10.3,12.9 10.3,12.9 10.3,28.4 13.7,28.4 13.7,8.2 11,8.2 	"/>
	<path class="st1" d="M24.5,25.6h-5.6v-1c0-1.6,0.6-2.2,1.4-3.1l2.2-2.3c1.8-1.9,2.1-3.1,2.1-5.1v-2c0-2.9-1.4-4.3-4.4-4.3
		c-3,0-4.5,1.6-4.5,4.4v2.4h3.1v-2.5c0-1.2,0.6-1.6,1.3-1.6c0.7,0,1.2,0.3,1.2,1.5v1.7c0,1.7-0.1,2.3-1.3,3.5l-1.9,2
		c-1.8,2-2.5,3.3-2.5,5.3v3.7h8.8V25.6z"/>
	<path class="st1" d="M77.7,53.4c-4.1-3.2-9-3.6-10.9-3.6c-1,0-1.9,0.1-2.6,0.3l-0.3,0.1C61.4,50.7,57,51.8,52,58l-0.1,0.2
		c-0.1,0.1-0.1,0.2-0.1,0.4c0,0.1,0,0.2,0.1,0.3l0.1,0.2c0.8,1.4,1.5,2.6,2.1,3.6c0.2,0.4,0.7,0.5,1.1,0.2c0,0,0.1-0.1,0.1-0.1
		c4.3-6,7.8-6.8,10-7.3l0.3-0.1c0.3-0.1,0.8-0.1,1.4-0.1c1,0,4.7,0.2,7.5,2.4c2.5,2,3.8,5.2,3.8,9.5c0,7.2-3.5,10-6.4,11.1
		c-1.1,0.4-2.3,0.6-3.6,0.6c-3,0-5.3-1.2-5.4-1.2l-0.2-0.1c-2.5-1.1-6.3-3.4-9.8-10.5c-7.3-14.6-13.4-16-17.4-16.9l-0.2,0
		c-0.3-0.1-1.2-0.2-2.6-0.2c-2.3,0-6.8,0.5-10.7,3.5c-2.6,2.1-5.8,6.2-5.8,13.7c0,4.6,0.9,7.6,3.4,10.8c0.5,0.6,4.7,6.1,12.8,6.1
		c1.2,0,2.4-0.1,3.7-0.4c1.5-0.3,3.8-1,6.3-2.9l2.1,1.9c0.2,0.2,0.6,0.2,0.9,0c0.1-0.1,0.2-0.3,0.2-0.4L47,72l0-0.1
		c0-0.2-0.1-0.3-0.2-0.4c-0.1-0.1-0.2-0.2-0.4-0.2h0L36.5,74l-0.2,0c-0.1,0-0.2,0.1-0.3,0.2c-0.1,0.1-0.2,0.3-0.2,0.4
		c0,0.2,0.1,0.3,0.2,0.4l2,1.8c-1.1,0.7-2.1,1.1-3.2,1.3c-0.9,0.2-1.8,0.3-2.6,0.3c-5.6,0-8.3-3.7-8.4-3.8l-0.1-0.1
		c-1.7-2.2-2.3-4.1-2.3-7.5c0-4.3,1.3-7.5,3.7-9.5c2.8-2.2,6.3-2.4,7.3-2.4c0.6,0,1.1,0,1.4,0.1l0.2,0c3.2,0.7,7.6,1.7,13.8,14
		c3.2,6.5,7.3,10.7,12.4,13c0.6,0.3,3.8,1.8,7.8,1.8c1.9,0,3.7-0.3,5.4-1c3-1.1,9.9-4.9,9.9-16.1C83.6,59.6,80.4,55.5,77.7,53.4z"/>
	<path class="st1" d="M34.3,16.4c1.5,0,1.9-0.9,1.9-2V13H35v1.5c0,0.5-0.2,0.8-0.7,0.8c-0.5,0-0.7-0.3-0.7-0.8v-4.4
		c0-0.5,0.2-0.8,0.7-0.8c0.5,0,0.7,0.3,0.7,0.8v1.1h1.3v-1c0-1.2-0.4-2-1.9-2c-1.4,0-2,0.9-2,2.2v4C32.3,15.5,32.9,16.4,34.3,16.4z"
		/>
	<path class="st1" d="M39.1,16.4c1.5,0,2.1-0.9,2.1-2.2v-4c0-1.3-0.6-2.2-2.1-2.2C37.6,8.1,37,9,37,10.3v4
		C37,15.5,37.6,16.4,39.1,16.4z M38.4,10.1c0-0.5,0.2-0.8,0.7-0.8c0.5,0,0.7,0.3,0.7,0.8v4.4c0,0.5-0.2,0.8-0.7,0.8
		c-0.5,0-0.7-0.3-0.7-0.8V10.1z"/>
	<polygon class="st1" points="43.1,11.2 44.7,16.3 45.9,16.3 45.9,8.2 44.7,8.2 44.7,12.9 43.3,8.2 41.9,8.2 41.9,16.3 43.1,16.3 	
		"/>
	<path class="st1" d="M48.5,16.4c1.4,0,2-0.8,2-1.9v-0.4c0-0.9-0.4-1.4-1.1-2.1l-0.9-0.9c-0.4-0.4-0.7-0.7-0.7-1.1V9.9
		c0-0.5,0.3-0.7,0.7-0.7c0.4,0,0.7,0.2,0.7,0.7v0.7h1.3V9.9c0-1.2-0.5-1.9-1.9-1.9c-1.3,0-1.9,0.8-1.9,1.8v0.3
		c0,0.9,0.4,1.4,1.1,2.2l0.8,0.8c0.4,0.4,0.6,0.7,0.6,1.2v0.3c0,0.4-0.2,0.7-0.6,0.7c-0.5,0-0.7-0.3-0.7-0.7v-1.1h-1.3v1.1
		C46.6,15.7,47.1,16.4,48.5,16.4z"/>
	<path class="st1" d="M53.3,16.4c1.4,0,1.9-0.8,1.9-2.1V8.2H54v6.3c0,0.5-0.2,0.8-0.7,0.8c-0.5,0-0.7-0.3-0.7-0.8V8.2h-1.4v6.2
		C51.2,15.6,51.8,16.4,53.3,16.4z"/>
	<polygon class="st1" points="57.1,11 57.2,11 58.2,16.3 58.8,16.3 59.8,11 59.8,11 59.8,16.3 61,16.3 61,8.2 59.3,8.2 58.5,12.8 
		58.5,12.8 57.6,8.2 56,8.2 56,16.3 57.1,16.3 	"/>
	<path class="st1" d="M63.9,16.4c1.5,0,2.1-0.9,2.1-2.2v-4c0-1.3-0.6-2.2-2.1-2.2c-1.4,0-2.1,0.9-2.1,2.2v4
		C61.8,15.5,62.4,16.4,63.9,16.4z M63.2,10.1c0-0.5,0.2-0.8,0.7-0.8c0.5,0,0.7,0.3,0.7,0.8v4.4c0,0.5-0.2,0.8-0.7,0.8
		c-0.5,0-0.7-0.3-0.7-0.8V10.1z"/>
	<polygon class="st1" points="71.3,15.2 69.4,15.2 69.4,12.7 70.7,12.7 70.7,11.6 69.4,11.6 69.4,9.3 71.3,9.3 71.3,8.2 68,8.2 
		68,16.3 71.3,16.3 	"/>
	<path class="st1" d="M33.6,25.6h0.7c1.4,0,1.9-0.7,1.9-1.8V22c0-1.1-0.5-1.8-1.9-1.8h-2v8.2h1.4V25.6z M33.6,21.3h0.5
		c0.5,0,0.7,0.2,0.7,0.7v1.9c0,0.4-0.2,0.7-0.7,0.7h-0.5V21.3z"/>
	<path class="st1" d="M40.9,23.1v-1c0-1.1-0.5-1.8-1.9-1.8h-2v8.2h1.4v-3.7l1.3,3.7h1.4l-1.3-3.7C40.6,24.5,40.9,23.9,40.9,23.1z
		 M39.5,23.2c0,0.4-0.2,0.7-0.7,0.7h-0.5v-2.5h0.5c0.5,0,0.7,0.2,0.7,0.7V23.2z"/>
	<path class="st1" d="M43.8,28.5c1.5,0,2.1-0.9,2.1-2.2v-4c0-1.3-0.6-2.2-2.1-2.2c-1.4,0-2.1,0.9-2.1,2.2v4
		C41.8,27.5,42.4,28.5,43.8,28.5z M43.1,22.1c0-0.5,0.2-0.8,0.7-0.8c0.5,0,0.7,0.3,0.7,0.8v4.4c0,0.5-0.2,0.8-0.7,0.8
		c-0.5,0-0.7-0.3-0.7-0.8V22.1z"/>
	<path class="st1" d="M49,20.2h-2.1v8.2H49c1.5,0,2-0.9,2-2.2v-3.8C50.9,21.1,50.4,20.2,49,20.2z M49.6,26.4c0,0.5-0.2,0.8-0.8,0.8
		h-0.6v-5.9h0.6c0.6,0,0.8,0.3,0.8,0.8V26.4z"/>
	<path class="st1" d="M54.6,26.5c0,0.5-0.2,0.8-0.7,0.8c-0.5,0-0.7-0.3-0.7-0.8v-6.3h-1.4v6.2c0,1.3,0.6,2.1,2,2.1
		c1.4,0,1.9-0.8,1.9-2.1v-6.2h-1.3V26.5z"/>
	<path class="st1" d="M60.7,26.4V25h-1.3v1.5c0,0.5-0.2,0.8-0.7,0.8c-0.5,0-0.7-0.3-0.7-0.8v-4.4c0-0.5,0.2-0.8,0.7-0.8
		c0.5,0,0.7,0.3,0.7,0.8v1.1h1.3v-1c0-1.2-0.4-2-1.9-2c-1.4,0-2,0.9-2,2.2v4c0,1.1,0.5,2,1.7,2.2v0.4h0.1c0.1,0,0.2,0,0.2,0.1
		c0,0.1-0.1,0.2-0.4,0.2v0.4c0.9,0,1.2-0.2,1.2-0.6c0-0.3-0.2-0.4-0.5-0.4v-0.1C60.3,28.4,60.7,27.6,60.7,26.4z"/>
	<path class="st1" d="M64.1,19c-0.2,0-0.5-0.2-0.8-0.2c-0.6,0-0.8,0.5-0.8,1h0.7c0-0.1,0.1-0.2,0.2-0.2c0.2,0,0.5,0.2,0.8,0.2
		c0.6,0,0.8-0.5,0.8-1h-0.7C64.3,19,64.2,19,64.1,19z"/>
	<path class="st1" d="M62.9,26.9h1.5l0.3,1.5h1.4l-1.6-8.2h-1.6l-1.5,8.2h1.3L62.9,26.9z M63.7,22.5L63.7,22.5l0.6,3.3h-1.1
		L63.7,22.5z"/>
	<path class="st1" d="M68.8,28.5c1.5,0,2.1-0.9,2.1-2.2v-4c0-1.3-0.6-2.2-2.1-2.2c-1.4,0-2.1,0.9-2.1,2.2v4
		C66.7,27.5,67.4,28.5,68.8,28.5z M68.1,22.1c0-0.5,0.2-0.8,0.7-0.8c0.5,0,0.7,0.3,0.7,0.8v4.4c0,0.5-0.2,0.8-0.7,0.8
		c-0.5,0-0.7-0.3-0.7-0.8V22.1z"/>
	<path class="st1" d="M33.6,36.6l1.3,3.7h1.4L35,36.7c0.8-0.2,1.1-0.7,1.1-1.6v-1c0-1.1-0.5-1.8-1.9-1.8h-2v8.2h1.4V36.6z
		 M33.6,33.3h0.5c0.5,0,0.7,0.2,0.7,0.7v1.2c0,0.4-0.2,0.7-0.7,0.7h-0.5V33.3z"/>
	<polygon class="st1" points="40.2,39.2 38.3,39.2 38.3,36.8 39.7,36.8 39.7,35.7 38.3,35.7 38.3,33.3 40.2,33.3 40.2,32.2 
		36.9,32.2 36.9,40.4 40.2,40.4 	"/>
	<path class="st1" d="M40.9,34.2c0,0.9,0.4,1.4,1.1,2.2l0.8,0.8c0.4,0.4,0.6,0.7,0.6,1.2v0.3c0,0.4-0.2,0.7-0.6,0.7
		c-0.5,0-0.7-0.3-0.7-0.7v-1.1h-1.3v1.1c0,1.1,0.5,1.9,1.9,1.9c1.4,0,2-0.8,2-1.9v-0.4c0-0.9-0.4-1.4-1.1-2.1l-0.9-0.9
		c-0.4-0.4-0.7-0.7-0.7-1.1v-0.2c0-0.5,0.3-0.7,0.7-0.7c0.4,0,0.7,0.2,0.7,0.7v0.7h1.3V34c0-1.2-0.5-1.9-1.9-1.9
		c-1.3,0-1.9,0.8-1.9,1.8V34.2z"/>
	<path class="st1" d="M45.6,32.2v8.2H47v-2.8h0.7c1.4,0,1.9-0.7,1.9-1.8V34c0-1.1-0.5-1.8-1.9-1.8H45.6z M48.2,34v1.9
		c0,0.4-0.2,0.7-0.7,0.7H47v-3.2h0.5C48,33.3,48.2,33.5,48.2,34z"/>
	<path class="st1" d="M50.3,34.3v4c0,1.3,0.6,2.2,2.1,2.2c1.5,0,2.1-0.9,2.1-2.2v-4c0-1.3-0.6-2.2-2.1-2.2
		C50.9,32.1,50.3,33,50.3,34.3z M53.1,34.1v4.4c0,0.5-0.2,0.8-0.7,0.8c-0.5,0-0.7-0.3-0.7-0.8v-4.4c0-0.5,0.2-0.8,0.7-0.8
		C52.9,33.2,53.1,33.6,53.1,34.1z"/>
	<polygon class="st1" points="58.1,36.9 56.6,32.2 55.3,32.2 55.3,40.4 56.4,40.4 56.4,35.2 58,40.4 59.2,40.4 59.2,32.2 58.1,32.2 
			"/>
	<path class="st1" d="M61.9,40.5c1.4,0,2-0.8,2-1.9v-0.4c0-0.9-0.4-1.4-1.1-2.1l-0.9-0.9c-0.4-0.4-0.7-0.7-0.7-1.1v-0.2
		c0-0.5,0.3-0.7,0.7-0.7c0.4,0,0.7,0.2,0.7,0.7v0.7h1.3V34c0-1.2-0.5-1.9-1.9-1.9c-1.3,0-1.9,0.8-1.9,1.8v0.3c0,0.9,0.4,1.4,1.1,2.2
		l0.8,0.8c0.4,0.4,0.6,0.7,0.6,1.2v0.3c0,0.4-0.2,0.7-0.6,0.7c-0.5,0-0.7-0.3-0.7-0.7v-1.1H60v1.1C60,39.7,60.5,40.5,61.9,40.5z"/>
	<polygon class="st1" points="67.9,30.7 65.8,31.1 65.8,31.9 67.9,31.6 	"/>
	<path class="st1" d="M65.8,40.4l0.2-1.5h1.5l0.3,1.5h1.4l-1.6-8.2H66l-1.5,8.2H65.8z M66.7,34.5L66.7,34.5l0.6,3.3h-1.1L66.7,34.5z
		"/>
	<polygon class="st1" points="69.5,32.2 71.1,40.4 72.6,40.4 74.1,32.2 72.9,32.2 71.9,37.9 71.9,37.9 70.9,32.2 	"/>
	<polygon class="st1" points="78,39.2 76.1,39.2 76.1,36.8 77.5,36.8 77.5,35.7 76.1,35.7 76.1,33.3 78,33.3 78,32.2 74.7,32.2 
		74.7,40.4 78,40.4 	"/>
	<rect x="78.8" y="32.2" class="st1" width="1.4" height="8.2"/>
	<path class="st1" d="M83.8,36l-0.9-0.9c-0.4-0.4-0.7-0.7-0.7-1.1v-0.2c0-0.5,0.3-0.7,0.7-0.7c0.4,0,0.7,0.2,0.7,0.7v0.7h1.3V34
		c0-1.2-0.5-1.9-1.9-1.9c-1.3,0-1.9,0.8-1.9,1.8v0.3c0,0.9,0.4,1.4,1.1,2.2l0.8,0.8c0.4,0.4,0.6,0.7,0.6,1.2v0.3
		c0,0.4-0.2,0.7-0.6,0.7c-0.5,0-0.7-0.3-0.7-0.7v-1.1h-1.3v1.1c0,1.1,0.5,1.9,1.9,1.9c1.4,0,2-0.8,2-1.9v-0.4
		C84.9,37.2,84.5,36.8,83.8,36z"/>
</g>
</svg>
