<?xml version="1.0" encoding="utf-8"?>
<!-- Generator: Adobe Illustrator 24.0.0, SVG Export Plug-In . SVG Version: 6.00 Build 0)  -->
<svg version="1.1" id="Layer_1" xmlns="http://www.w3.org/2000/svg" xmlns:xlink="http://www.w3.org/1999/xlink" x="0px" y="0px"
	 viewBox="0 0 100 100" style="enable-background:new 0 0 100 100;" xml:space="preserve">
<style type="text/css">
	.st0{fill:#E5243B;}
	.st1{fill:#FFFFFF;}
</style>
<g>
	<polygon class="st0" points="44.5,10.8 44.5,10.8 43.9,14.1 45,14.1 	"/>
	<path class="st0" d="M47.1,27.8c0.5,0,0.7-0.3,0.7-0.8v-4.4c0-0.5-0.2-0.8-0.7-0.8c-0.5,0-0.7,0.3-0.7,0.8v4.4
		C46.4,27.4,46.6,27.8,47.1,27.8z"/>
	<path class="st0" d="M35.4,11.5v-1.2c0-0.4-0.2-0.7-0.7-0.7h-0.5v2.5h0.5C35.2,12.2,35.4,12,35.4,11.5z"/>
	<path class="st0" d="M42.9,24.3v-1.9c0-0.4-0.2-0.7-0.7-0.7h-0.5V25h0.5C42.6,25,42.9,24.7,42.9,24.3z"/>
	<path class="st0" d="M40.2,11.5v-1.2c0-0.4-0.2-0.7-0.7-0.7H39v2.5h0.5C40,12.2,40.2,12,40.2,11.5z"/>
	<polygon class="st0" points="35.8,22.9 35.3,26.2 36.4,26.2 35.8,22.9 	"/>
	<polygon class="st0" points="71.8,10.8 71.8,10.8 71.2,14.1 72.3,14.1 	"/>
	<path class="st0" d="M56.8,21.8h-0.5v2.5h0.5c0.5,0,0.7-0.2,0.7-0.7v-1.2C57.5,22,57.3,21.8,56.8,21.8z"/>
	<path class="st0" d="M31.5,26.9v-4.3c0-0.5-0.2-0.8-0.8-0.8h-0.6v5.9h0.6C31.3,27.7,31.5,27.4,31.5,26.9z"/>
	<path class="st0" d="M76.9,15.7c0.5,0,0.7-0.3,0.7-0.8v-4.4c0-0.5-0.2-0.8-0.7-0.8c-0.5,0-0.7,0.3-0.7,0.8v4.4
		C76.2,15.3,76.4,15.7,76.9,15.7z"/>
	<polygon class="st0" points="61.8,10.8 61.8,10.8 61.2,14.1 62.3,14.1 	"/>
	<polygon class="st0" points="70.3,22.9 69.7,26.2 70.8,26.2 70.3,22.9 	"/>
	<path class="st0" d="M50.3,14.8v-4.3c0-0.5-0.2-0.8-0.8-0.8h-0.6v5.9h0.6C50.1,15.6,50.3,15.3,50.3,14.8z"/>
	<path class="st0" d="M0,0.3v100h100V0.3H0z M82.5,48c0,1.5-1.2,2.8-2.8,2.8c-1.5,0-2.8-1.2-2.8-2.8c0-1.5,1.2-2.8,2.8-2.8
		C81.3,45.2,82.5,46.4,82.5,48z M74.8,10.7c0-1.3,0.6-2.2,2.1-2.2c1.5,0,2.1,0.9,2.1,2.2v4c0,1.3-0.6,2.2-2.1,2.2
		c-1.4,0-2.1-0.9-2.1-2.2V10.7z M71.4,7.2c0.3,0,0.6,0.2,0.8,0.2c0.1,0,0.2-0.1,0.2-0.2h0.7c0,0.6-0.2,1-0.8,1
		c-0.3,0-0.6-0.2-0.8-0.2c-0.1,0-0.2,0.1-0.2,0.2h-0.7C70.6,7.7,70.8,7.2,71.4,7.2z M71,8.5h1.6l1.6,8.2h-1.4l-0.3-1.5H71l-0.2,1.5
		h-1.3L71,8.5z M64,21.8v-1.1h3.4v1.1l-2.2,5.9h2.1v1.1h-3.5v-1.1l2.2-5.9H64z M69.4,59.7c1.2,0,2.2,1,2.2,2.2c0,1.2-1,2.2-2.2,2.2
		s-2.2-1-2.2-2.2C67.2,60.7,68.1,59.7,69.4,59.7z M71.2,28.8L71,27.3h-1.5l-0.2,1.5H68l1.5-8.2h1.6l1.6,8.2H71.2z M64.9,10.7
		c0-1.3,0.6-2.2,2-2.2c1.5,0,1.9,0.8,1.9,2v1h-1.3v-1.1c0-0.5-0.2-0.8-0.7-0.8c-0.5,0-0.7,0.3-0.7,0.8v4.4c0,0.5,0.2,0.8,0.7,0.8
		c0.5,0,0.7-0.3,0.7-0.8v-1.5h1.3v1.4c0,1.1-0.5,2-1.8,2v0.1c0.3,0,0.5,0.2,0.5,0.4c0,0.4-0.3,0.6-1.2,0.6v-0.4
		c0.4,0,0.4-0.1,0.4-0.2c0-0.1-0.1-0.1-0.2-0.1h-0.1v-0.4c-1.2-0.1-1.7-1-1.7-2.2V10.7z M61,8.5h1.6l1.6,8.2h-1.4l-0.3-1.5H61
		l-0.2,1.5h-1.3L61,8.5z M62.5,24.1v1.1h-1.4v2.5H63v1.1h-3.3v-8.2H63v1.1h-1.9v2.3H62.5z M60.6,49.4c0,1.4-1.2,2.6-2.6,2.6
		c-1.4,0-2.6-1.2-2.6-2.6c0-1.4,1.2-2.6,2.6-2.6C59.4,46.8,60.6,48,60.6,49.4z M59.1,28.8h-1.4l-1.3-3.7v3.7H55v-8.2h2
		c1.4,0,1.9,0.7,1.9,1.8v1c0,0.9-0.3,1.4-1.1,1.6L59.1,28.8z M54.9,10.7c0-1.3,0.6-2.2,2-2.2c1.5,0,1.9,0.8,1.9,2v1h-1.3v-1.1
		c0-0.5-0.2-0.8-0.7-0.8c-0.5,0-0.7,0.3-0.7,0.8v4.4c0,0.5,0.2,0.8,0.7,0.8c0.5,0,0.7-0.3,0.7-0.8v-1.5h1.3v1.4c0,1.2-0.5,2-1.9,2
		c-1.4,0-2-0.9-2-2.2V10.7z M52.6,8.5h1.4v8.2h-1.4V8.5z M47.6,8.5h2.1c1.5,0,2,0.9,2,2.2v3.8c0,1.3-0.5,2.2-2,2.2h-2.1V8.5z
		 M49.2,22.7v4c0,1.3-0.6,2.2-2.1,2.2c-1.4,0-2.1-0.9-2.1-2.2v-4c0-1.3,0.6-2.2,2.1-2.2C48.6,20.5,49.2,21.5,49.2,22.7z M43.7,8.5
		h1.6l1.6,8.2h-1.4l-0.3-1.5h-1.5l-0.2,1.5h-1.3L43.7,8.5z M42.2,46.8c1.4,0,2.6,1.2,2.6,2.6c0,1.4-1.2,2.6-2.6,2.6
		c-1.4,0-2.6-1.2-2.6-2.6C39.6,48,40.8,46.8,42.2,46.8z M40.3,28.8v-8.2h2c1.4,0,1.9,0.7,1.9,1.8v1.7c0,1.1-0.5,1.8-1.9,1.8h-0.7
		v2.8H40.3z M37.7,8.5h2c1.4,0,1.9,0.7,1.9,1.8v1c0,0.9-0.3,1.4-1.1,1.6l1.3,3.7h-1.4L39,13v3.7h-1.4V8.5z M38.2,28.8h-1.4l-0.3-1.5
		h-1.5l-0.2,1.5h-1.3l1.5-8.2h1.6L38.2,28.8z M32.9,8.5h2c1.4,0,1.9,0.7,1.9,1.8v1c0,0.9-0.3,1.4-1.1,1.6l1.3,3.7h-1.4L34.3,13v3.7
		h-1.4V8.5z M28.8,8.5H32v1.1h-1.9V12h1.4v1.1h-1.4v2.5H32v1.1h-3.3V8.5z M28.8,20.6h2.1c1.5,0,2,0.9,2,2.2v3.8c0,1.3-0.5,2.2-2,2.2
		h-2.1V20.6z M30,59.7c1.2,0,2.2,1,2.2,2.2c0,1.2-1,2.2-2.2,2.2c-1.2,0-2.2-1-2.2-2.2C27.8,60.7,28.8,59.7,30,59.7z M21.4,48
		c0,1.5-1.2,2.8-2.8,2.8c-1.5,0-2.8-1.2-2.8-2.8c0-1.5,1.2-2.8,2.8-2.8C20.2,45.2,21.4,46.4,21.4,48z M11.6,15.9v-3.5l3.1-3.7h2.7
		v20.2H14V13.4h0L11.6,15.9L11.6,15.9z M49,64.1c-1.1,0.3-1.4-0.9-1.4-0.9l-1.8-5.9c0,0-0.1-0.5-0.4-0.4c-0.3,0.1-0.2,0.6-0.2,0.6
		l3.1,11.1h-2.8v7.9c0,0.8-0.6,1.4-1.4,1.4c-0.8,0-1.4-0.6-1.4-1.4v-7.9h-0.4h-0.4v7.9c0,0.8-0.6,1.4-1.4,1.4
		c-0.8,0-1.4-0.6-1.4-1.4v-7.9h-2.8l3.1-11.1c0,0,0.1-0.5-0.2-0.6c-0.3-0.1-0.4,0.4-0.4,0.4l-1.8,5.9c0,0-0.3,1.3-1.4,0.9
		c-0.3-0.1-0.5-0.3-0.6-0.5c-0.1,0.2-0.2,0.5-0.2,0.5l-2,3.7c0,0-0.1,0.3-0.1,0.5V69l1.2,4.3h-1.2v3.5c0,0.6-0.5,1.1-1.1,1.1
		c-0.6,0-1.1-0.5-1.1-1.1v-3.4c0,0,0-0.1,0-0.1H30h-0.3c0,0.1,0,0.1,0,0.1v3.4c0,0.6-0.5,1.1-1.1,1.1c-0.6,0-1.1-0.5-1.1-1.1h0v-3.5
		h-1.2l1.2-4.3v-0.8c0-0.3-0.1-0.5-0.1-0.5l-2.2-4c0,0,0,0,0-0.1c-0.2,0.4-0.5,0.6-1,0.6c-0.6,0-1.1-0.5-1.1-1.1v-6.6
		c0-0.2-0.1-0.6-0.5-0.6c-0.3,0-0.4,0.3-0.4,0.5v19.8c0,0.8-0.7,1.5-1.5,1.5c-0.9,0-1.5-0.7-1.5-1.5V64.9c0-0.1-0.1-0.5-0.4-0.5h0
		c-0.4,0-0.4,0.3-0.4,0.5v11.4c0,0.8-0.7,1.5-1.5,1.5c-0.9,0-1.5-0.7-1.5-1.5V56.5c0-0.2-0.1-0.5-0.4-0.5c-0.5,0-0.5,0.3-0.5,0.6
		v6.6c0,0.6-0.5,1.1-1.1,1.1c-0.6,0-1.1-0.5-1.1-1.1v-6.4v-0.4v-0.9c0-1.9,1.5-3.5,3.4-3.7c0.1,0,0.1,0,0.2,0h3h3c0.1,0,0.1,0,0.2,0
		c1.9,0.2,3.4,1.7,3.4,3.7v0.9v0.4v6.1c0.1-0.2,0.4-0.3,0.6-0.3c0.3,0,0.5,0.1,0.7,0.4l0,0c0.1,0.1,1.1,1.9,1.4,2.2
		c0.4,0.4,0.7,0.3,0.7,0.3H30h1.3c0,0,0.3,0,0.7-0.3c0.3-0.3,1.4-2.1,1.4-2.2l0,0c0.1-0.2,0.4-0.4,0.7-0.4c0.3,0,0.5,0.1,0.6,0.3
		c0-0.3,0.1-0.4,0.1-0.4l2.2-7.1c0,0,0.8-2.1,2.5-2.1h2.8H45c1.7,0,2.5,2.1,2.5,2.1l2.2,7.1C49.7,62.5,50.1,63.8,49,64.1z
		 M50.1,20.6h2c1.4,0,1.8,0.6,1.8,1.8v0.8c0,0.7-0.3,1.1-0.8,1.3c0.7,0.2,1,0.6,1,1.4V27c0,1.2-0.5,1.8-1.9,1.8h-2.1V20.6z
		 M61.1,68.5v7.9c0,0.8-0.6,1.4-1.4,1.4c-0.8,0-1.4-0.6-1.4-1.4v-7.9h-0.4h-0.4v7.9c0,0.8-0.6,1.4-1.4,1.4c-0.8,0-1.4-0.6-1.4-1.4
		v-7.9H52L55,57.5c0,0,0.1-0.5-0.2-0.6c-0.3-0.1-0.4,0.4-0.4,0.4l-1.8,5.9c0,0-0.3,1.3-1.4,0.9c-1.1-0.3-0.7-1.6-0.7-1.6l2.2-7.1
		c0,0,0.8-2.1,2.5-2.1h2.8h2.8c1.7,0,2.5,2.1,2.5,2.1l2.2,7.1c0,0,0.4,1.3-0.7,1.6c-1.1,0.3-1.4-0.9-1.4-0.9l-1.8-5.9
		c0,0-0.1-0.5-0.4-0.4c-0.3,0.1-0.2,0.6-0.2,0.6l3.1,11.1H61.1z M74.6,71.1c-0.2,0.4-0.7,0.6-1.1,0.4c-0.1-0.1-0.5-1.2-0.5-1.2
		l-0.9-2.6c0,0-0.1-0.2-0.1,0.1v8.9c0,0.6-0.5,1.1-1.1,1.1c-0.6,0-1.1-0.5-1.1-1.1v-3.5c0,0,0.1-0.5-0.3-0.5c-0.4,0-0.3,0.5-0.3,0.5
		v3.5c0,0.6-0.5,1.1-1.1,1.1c-0.6,0-1.1-0.5-1.1-1.1h0v-8.9c0-0.3-0.2,0-0.2,0l-1.2,3.8c0,0-0.3,0.6-0.9,0.3c-0.5-0.2-0.4-0.8-0.3-1
		l0,0c0-0.1,0.6-1.6,0.8-2.1c1.3-3.2,1.6-3.8,2.8-3.8c1.1,0,1.7,0,1.7,0s0.5,0,1.4,0c0.9,0,1.8,0,2.3,1.4c0.2,0.5,1.5,3.8,1.5,3.9
		l0,0C74.7,70.5,74.7,70.8,74.6,71.1z M86.4,56.4v0.4v6.4c0,0.6-0.5,1.1-1.1,1.1c-0.6,0-1.1-0.5-1.1-1.1v-6.6c0-0.2-0.1-0.6-0.5-0.6
		c-0.3,0-0.4,0.3-0.4,0.5v19.8c0,0.8-0.7,1.5-1.5,1.5c-0.9,0-1.5-0.7-1.5-1.5V64.9c0-0.1,0-0.5-0.4-0.5h0c-0.4,0-0.4,0.3-0.4,0.5
		v11.4c0,0.8-0.7,1.5-1.5,1.5c-0.9,0-1.5-0.7-1.5-1.5V56.5c0-0.2-0.1-0.5-0.4-0.5c-0.5,0-0.5,0.3-0.5,0.6v6.6c0,0.6-0.5,1.1-1.1,1.1
		c-0.6,0-1.1-0.5-1.1-1.1v-6.4v-0.4v-0.9c0-1.9,1.5-3.5,3.4-3.7c0.1,0,0.1,0,0.2,0h3h3c0.1,0,0.1,0,0.2,0c1.9,0.2,3.4,1.7,3.4,3.7
		V56.4z"/>
	<path class="st0" d="M52.8,27v-1.2c0-0.4-0.2-0.7-0.7-0.7h-0.6v2.6h0.6C52.6,27.7,52.8,27.5,52.8,27z"/>
	<path class="st0" d="M52.6,23.4v-1c0-0.4-0.2-0.7-0.7-0.7h-0.5v2.3H52C52.4,24.1,52.6,23.9,52.6,23.4z"/>
	<polygon class="st1" points="14,13.4 14,28.9 17.4,28.9 17.4,8.7 14.7,8.7 11.6,12.3 11.6,15.9 11.6,15.9 14,13.4 	"/>
	<path class="st1" d="M77,48c0,1.5,1.2,2.8,2.8,2.8c1.5,0,2.8-1.2,2.8-2.8c0-1.5-1.2-2.8-2.8-2.8C78.3,45.2,77,46.4,77,48z"/>
	<path class="st1" d="M83,51.8c-0.1,0-0.1,0-0.2,0h-3h-3c-0.1,0-0.1,0-0.2,0c-1.9,0.2-3.4,1.7-3.4,3.7v0.9v0.4v6.4
		c0,0.6,0.5,1.1,1.1,1.1c0.6,0,1.1-0.5,1.1-1.1v-6.6c0-0.2,0.1-0.6,0.5-0.6c0.3,0,0.4,0.3,0.4,0.5v19.8c0,0.8,0.7,1.5,1.5,1.5
		c0.9,0,1.5-0.7,1.5-1.5V64.9c0-0.1,0.1-0.5,0.4-0.5h0c0.4,0,0.4,0.3,0.4,0.5v11.4c0,0.8,0.7,1.5,1.5,1.5c0.9,0,1.5-0.7,1.5-1.5
		V56.5c0-0.2,0.1-0.5,0.4-0.5c0.5,0,0.5,0.3,0.5,0.6v6.6c0,0.6,0.5,1.1,1.1,1.1c0.6,0,1.1-0.5,1.1-1.1v-6.4v-0.4v-0.9
		C86.4,53.6,84.9,52,83,51.8z"/>
	<path class="st1" d="M55.3,49.4c0,1.4,1.2,2.6,2.6,2.6c1.4,0,2.6-1.2,2.6-2.6c0-1.4-1.2-2.6-2.6-2.6C56.5,46.8,55.3,48,55.3,49.4z"
		/>
	<path class="st1" d="M61.1,56.9c0.3-0.1,0.4,0.4,0.4,0.4l1.8,5.9c0,0,0.3,1.3,1.4,0.9c1.1-0.3,0.7-1.6,0.7-1.6l-2.2-7.1
		c0,0-0.8-2.1-2.5-2.1h-2.8h-2.8c-1.7,0-2.5,2.1-2.5,2.1l-2.2,7.1c0,0-0.4,1.3,0.7,1.6c1.1,0.3,1.4-0.9,1.4-0.9l1.8-5.9
		c0,0,0.1-0.5,0.4-0.4c0.3,0.1,0.2,0.6,0.2,0.6L52,68.5h2.8v7.9c0,0.8,0.6,1.4,1.4,1.4c0.8,0,1.4-0.6,1.4-1.4v-7.9h0.4h0.4v7.9
		c0,0.8,0.6,1.4,1.4,1.4c0.8,0,1.4-0.6,1.4-1.4v-7.9h2.8l-3.1-11.1C60.8,57.5,60.7,57,61.1,56.9z"/>
	<path class="st1" d="M42.2,52.1c1.4,0,2.6-1.2,2.6-2.6c0-1.4-1.2-2.6-2.6-2.6c-1.4,0-2.6,1.2-2.6,2.6
		C39.6,50.9,40.8,52.1,42.2,52.1z"/>
	<path class="st1" d="M47.5,55.4c0,0-0.8-2.1-2.5-2.1h-2.8h-2.8c-1.7,0-2.5,2.1-2.5,2.1l-2.2,7.1c0,0-0.1,0.2-0.1,0.4
		c-0.1-0.2-0.4-0.3-0.6-0.3c-0.3,0-0.5,0.1-0.7,0.4l0,0c-0.1,0.1-1.1,1.9-1.4,2.2c-0.4,0.4-0.7,0.3-0.7,0.3H30h-1.3
		c0,0-0.3,0-0.7-0.3c-0.3-0.3-1.4-2.1-1.4-2.2l0,0c-0.1-0.2-0.4-0.4-0.7-0.4c-0.3,0-0.5,0.1-0.6,0.3v-6.1v-0.4v-0.9
		c0-1.9-1.5-3.5-3.4-3.7c-0.1,0-0.1,0-0.2,0h-3h-3c-0.1,0-0.1,0-0.2,0c-1.9,0.2-3.4,1.7-3.4,3.7v0.9v0.4v6.4c0,0.6,0.5,1.1,1.1,1.1
		c0.6,0,1.1-0.5,1.1-1.1v-6.6c0-0.2,0.1-0.6,0.5-0.6c0.3,0,0.4,0.3,0.4,0.5v19.8c0,0.8,0.7,1.5,1.5,1.5c0.9,0,1.5-0.7,1.5-1.5V64.9
		c0-0.1,0-0.5,0.4-0.5h0c0.4,0,0.4,0.3,0.4,0.5v11.4c0,0.8,0.7,1.5,1.5,1.5c0.9,0,1.5-0.7,1.5-1.5V56.5c0-0.2,0.1-0.5,0.4-0.5
		c0.5,0,0.5,0.3,0.5,0.6v6.6c0,0.6,0.5,1.1,1.1,1.1c0.4,0,0.8-0.3,1-0.6c0,0.1,0,0.1,0,0.1l2.2,4c0,0,0.1,0.3,0.1,0.5V69l-1.2,4.3
		h1.2v3.5h0c0,0.6,0.5,1.1,1.1,1.1c0.6,0,1.1-0.5,1.1-1.1v-3.4c0,0,0-0.1,0-0.1H30h0.3c0,0.1,0,0.1,0,0.1v3.4c0,0.6,0.5,1.1,1.1,1.1
		c0.6,0,1.1-0.5,1.1-1.1v-3.5h1.2L32.5,69v-0.8c0-0.3,0.1-0.5,0.1-0.5l2-3.7c0,0,0.1-0.3,0.2-0.5c0.1,0.2,0.3,0.4,0.6,0.5
		c1.1,0.3,1.4-0.9,1.4-0.9l1.8-5.9c0,0,0.1-0.5,0.4-0.4c0.3,0.1,0.2,0.6,0.2,0.6l-3.1,11.1h2.8v7.9c0,0.8,0.6,1.4,1.4,1.4
		c0.8,0,1.4-0.6,1.4-1.4v-7.9h0.4h0.4v7.9c0,0.8,0.6,1.4,1.4,1.4c0.8,0,1.4-0.6,1.4-1.4v-7.9h2.8l-3.1-11.1c0,0-0.1-0.5,0.2-0.6
		c0.3-0.1,0.4,0.4,0.4,0.4l1.8,5.9c0,0,0.3,1.3,1.4,0.9c1.1-0.3,0.7-1.6,0.7-1.6L47.5,55.4z"/>
	<path class="st1" d="M69.4,64.1c1.2,0,2.2-1,2.2-2.2c0-1.2-1-2.2-2.2-2.2s-2.2,1-2.2,2.2C67.2,63.1,68.1,64.1,69.4,64.1z"/>
	<path class="st1" d="M74.5,70.3c0-0.1-1.4-3.4-1.5-3.9C72.5,65,71.6,65,70.7,65c-0.9,0-1.4,0-1.4,0s-0.6,0-1.7,0
		c-1.1,0-1.5,0.6-2.8,3.8c-0.2,0.5-0.8,2-0.8,2.1l0,0c-0.1,0.3-0.2,0.8,0.3,1c0.6,0.3,0.9-0.3,0.9-0.3l1.2-3.8c0,0,0.2-0.3,0.2,0
		v8.9h0c0,0.6,0.5,1.1,1.1,1.1c0.6,0,1.1-0.5,1.1-1.1v-3.5c0,0-0.1-0.5,0.3-0.5c0.4,0,0.3,0.5,0.3,0.5v3.5c0,0.6,0.5,1.1,1.1,1.1
		c0.6,0,1.1-0.5,1.1-1.1v-8.9c0-0.3,0.1-0.1,0.1-0.1l0.9,2.6c0,0,0.4,1.2,0.5,1.2c0.4,0.2,0.9,0,1.1-0.4
		C74.7,70.8,74.7,70.5,74.5,70.3L74.5,70.3z"/>
	<path class="st1" d="M15.9,48c0,1.5,1.2,2.8,2.8,2.8c1.5,0,2.8-1.2,2.8-2.8c0-1.5-1.2-2.8-2.8-2.8C17.1,45.2,15.9,46.4,15.9,48z"/>
	<path class="st1" d="M30,64.1c1.2,0,2.2-1,2.2-2.2c0-1.2-1-2.2-2.2-2.2c-1.2,0-2.2,1-2.2,2.2C27.8,63.1,28.8,64.1,30,64.1z"/>
	<polygon class="st1" points="32,15.6 30.1,15.6 30.1,13.1 31.5,13.1 31.5,12 30.1,12 30.1,9.7 32,9.7 32,8.5 28.8,8.5 28.8,16.7 
		32,16.7 	"/>
	<path class="st1" d="M34.3,13l1.3,3.7H37L35.7,13c0.8-0.2,1.1-0.7,1.1-1.6v-1c0-1.1-0.5-1.8-1.9-1.8h-2v8.2h1.4V13z M34.3,9.7h0.5
		c0.5,0,0.7,0.2,0.7,0.7v1.2c0,0.4-0.2,0.7-0.7,0.7h-0.5V9.7z"/>
	<path class="st1" d="M39,13l1.3,3.7h1.4L40.5,13c0.8-0.2,1.1-0.7,1.1-1.6v-1c0-1.1-0.5-1.8-1.9-1.8h-2v8.2H39V13z M39,9.7h0.5
		c0.5,0,0.7,0.2,0.7,0.7v1.2c0,0.4-0.2,0.7-0.7,0.7H39V9.7z"/>
	<path class="st1" d="M43.7,15.2h1.5l0.3,1.5h1.4l-1.6-8.2h-1.6l-1.5,8.2h1.3L43.7,15.2z M44.5,10.8L44.5,10.8l0.6,3.3h-1.1
		L44.5,10.8z"/>
	<path class="st1" d="M51.7,14.5v-3.8c0-1.3-0.5-2.2-2-2.2h-2.1v8.2h2.1C51.1,16.7,51.7,15.8,51.7,14.5z M48.9,15.6V9.7h0.6
		c0.6,0,0.8,0.3,0.8,0.8v4.3c0,0.5-0.2,0.8-0.8,0.8H48.9z"/>
	<rect x="52.6" y="8.5" class="st1" width="1.4" height="8.2"/>
	<path class="st1" d="M56.9,16.8c1.5,0,1.9-0.9,1.9-2v-1.4h-1.3v1.5c0,0.5-0.2,0.8-0.7,0.8c-0.5,0-0.7-0.3-0.7-0.8v-4.4
		c0-0.5,0.2-0.8,0.7-0.8c0.5,0,0.7,0.3,0.7,0.8v1.1h1.3v-1c0-1.2-0.4-2-1.9-2c-1.4,0-2,0.9-2,2.2v4C54.9,15.9,55.5,16.8,56.9,16.8z"
		/>
	<path class="st1" d="M61,15.2h1.5l0.3,1.5h1.4l-1.6-8.2H61l-1.5,8.2h1.3L61,15.2z M61.8,10.8L61.8,10.8l0.6,3.3h-1.1L61.8,10.8z"/>
	<path class="st1" d="M66.5,16.8v0.4h0.1c0.1,0,0.2,0,0.2,0.1c0,0.1-0.1,0.2-0.4,0.2v0.4c0.9,0,1.2-0.2,1.2-0.6
		c0-0.3-0.2-0.4-0.5-0.4v-0.1c1.4,0,1.8-0.9,1.8-2v-1.4h-1.3v1.5c0,0.5-0.2,0.8-0.7,0.8c-0.5,0-0.7-0.3-0.7-0.8v-4.4
		c0-0.5,0.2-0.8,0.7-0.8c0.5,0,0.7,0.3,0.7,0.8v1.1h1.3v-1c0-1.2-0.4-2-1.9-2c-1.4,0-2,0.9-2,2.2v4C64.9,15.8,65.3,16.6,66.5,16.8z"
		/>
	<path class="st1" d="M71.4,8c0.2,0,0.5,0.2,0.8,0.2c0.6,0,0.8-0.5,0.8-1h-0.7c0,0.1-0.1,0.2-0.2,0.2c-0.2,0-0.5-0.2-0.8-0.2
		c-0.6,0-0.8,0.5-0.8,1h0.7C71.2,8.1,71.3,8,71.4,8z"/>
	<path class="st1" d="M71,15.2h1.5l0.3,1.5h1.4l-1.6-8.2H71l-1.5,8.2h1.3L71,15.2z M71.8,10.8L71.8,10.8l0.6,3.3h-1.1L71.8,10.8z"/>
	<path class="st1" d="M76.9,16.8c1.5,0,2.1-0.9,2.1-2.2v-4c0-1.3-0.6-2.2-2.1-2.2c-1.4,0-2.1,0.9-2.1,2.2v4
		C74.8,15.9,75.5,16.8,76.9,16.8z M76.2,10.4c0-0.5,0.2-0.8,0.7-0.8c0.5,0,0.7,0.3,0.7,0.8v4.4c0,0.5-0.2,0.8-0.7,0.8
		c-0.5,0-0.7-0.3-0.7-0.8V10.4z"/>
	<path class="st1" d="M32.9,26.6v-3.8c0-1.3-0.5-2.2-2-2.2h-2.1v8.2h2.1C32.4,28.8,32.9,27.9,32.9,26.6z M30.1,27.7v-5.9h0.6
		c0.6,0,0.8,0.3,0.8,0.8v4.3c0,0.5-0.2,0.8-0.8,0.8H30.1z"/>
	<path class="st1" d="M35.1,20.6l-1.5,8.2h1.3l0.2-1.5h1.5l0.3,1.5h1.4l-1.6-8.2H35.1z M35.3,26.2l0.5-3.3h0l0.5,3.3H35.3z"/>
	<path class="st1" d="M41.7,26h0.7c1.4,0,1.9-0.7,1.9-1.8v-1.7c0-1.1-0.5-1.8-1.9-1.8h-2v8.2h1.4V26z M41.7,21.8h0.5
		c0.5,0,0.7,0.2,0.7,0.7v1.9c0,0.4-0.2,0.7-0.7,0.7h-0.5V21.8z"/>
	<path class="st1" d="M45.1,22.7v4c0,1.3,0.6,2.2,2.1,2.2c1.5,0,2.1-0.9,2.1-2.2v-4c0-1.3-0.6-2.2-2.1-2.2
		C45.7,20.5,45.1,21.5,45.1,22.7z M46.4,22.5c0-0.5,0.2-0.8,0.7-0.8c0.5,0,0.7,0.3,0.7,0.8v4.4c0,0.5-0.2,0.8-0.7,0.8
		c-0.5,0-0.7-0.3-0.7-0.8V22.5z"/>
	<path class="st1" d="M54.1,27v-1.1c0-0.7-0.3-1.2-1-1.4c0.6-0.2,0.8-0.6,0.8-1.3v-0.8c0-1.2-0.5-1.8-1.8-1.8h-2v8.2h2.1
		C53.6,28.8,54.1,28.2,54.1,27z M51.5,21.8H52c0.5,0,0.7,0.2,0.7,0.7v1c0,0.4-0.2,0.7-0.7,0.7h-0.5V21.8z M51.5,27.7v-2.6h0.6
		c0.5,0,0.7,0.2,0.7,0.7V27c0,0.4-0.2,0.7-0.7,0.7H51.5z"/>
	<path class="st1" d="M58.8,23.5v-1c0-1.1-0.5-1.8-1.9-1.8h-2v8.2h1.4v-3.7l1.3,3.7h1.4l-1.3-3.7C58.5,24.9,58.8,24.4,58.8,23.5z
		 M57.5,23.6c0,0.4-0.2,0.7-0.7,0.7h-0.5v-2.5h0.5c0.5,0,0.7,0.2,0.7,0.7V23.6z"/>
	<polygon class="st1" points="63,21.8 63,20.6 59.7,20.6 59.7,28.8 63,28.8 63,27.7 61.1,27.7 61.1,25.2 62.5,25.2 62.5,24.1 
		61.1,24.1 61.1,21.8 	"/>
	<polygon class="st1" points="63.8,28.8 67.3,28.8 67.3,27.7 65.2,27.7 67.4,21.8 67.4,20.6 64,20.6 64,21.8 65.9,21.8 63.8,27.7 	
		"/>
	<path class="st1" d="M71.1,20.6h-1.6L68,28.8h1.3l0.2-1.5H71l0.3,1.5h1.4L71.1,20.6z M69.7,26.2l0.5-3.3h0l0.5,3.3H69.7z"/>
</g>
</svg>
