<?xml version="1.0" encoding="utf-8"?>
<!-- Generator: Adobe Illustrator 24.0.0, SVG Export Plug-In . SVG Version: 6.00 Build 0)  -->
<svg version="1.1" id="Layer_1" xmlns="http://www.w3.org/2000/svg" xmlns:xlink="http://www.w3.org/1999/xlink" x="0px" y="0px"
	 viewBox="0 0 291.3 127" style="enable-background:new 0 0 291.3 127;" xml:space="preserve">
<g>
	<path d="M29.3,93.4c0-1.9-1.9-3.1-4.1-3.1c-2.8,0-4.5,1.2-4.5,3.1s1.9,2.9,3.3,3.3l5.2,1.6c3.7,1.2,6.4,3.4,6.4,7.7
		c0,3.4-2.5,8.6-10.2,8.6c-9.8,0-10.7-6.3-10.7-8.8l5.6-0.1c0,3,2.4,4.2,5.1,4.2c1.9,0,4.6-0.9,4.6-3.1c0-1.5-0.6-2.3-3.4-3.3
		l-6.1-2.2c-3.1-1.1-5.3-3.9-5.3-7c0-3.6,2.5-8.8,9.8-8.8c8.7,0,10.1,5.8,10.1,7.8L29.3,93.4z"/>
	<path d="M15.6,60.7H22c5.1,0,8.1,3,8.1,8.5c0,5.4-3.7,8.5-8.1,8.5h-6.5v-17C15.5,60.7,15.6,60.7,15.6,60.7z M21.9,74.8
		c3.5,0,4.8-3,4.8-5.6c0-2.8-1.2-5.6-5-5.6h-2.6v11.2H21.9L21.9,74.8z"/>
	<polygon points="33.1,60.7 43.9,60.7 43.9,63.7 36.5,63.7 36.5,67.6 43.7,67.6 43.7,70.6 36.5,70.6 36.5,74.6 43.9,74.6 43.9,77.7 
		33.1,77.7 	"/>
	<g>
		<path d="M216.2,27.8c0.5-0.9,1.1-1.7,1.9-2.4l-6.1-6.7c-1.5,1.5-2.9,3.2-3.9,5.1L216.2,27.8z"/>
		<path d="M231.2,23c0.9,0.4,1.8,1,2.6,1.6l6.1-6.7c-1.6-1.4-3.5-2.5-5.4-3.4L231.2,23z"/>
		<path d="M245.3,25.1l-8.1,4.1c0.4,0.9,0.7,1.9,0.8,2.9l9-0.9C246.8,29,246.2,27,245.3,25.1"/>
		<path d="M236.6,27.9l8.1-4.1c-1-1.9-2.3-3.6-3.8-5l-6.1,6.7C235.5,26.3,236.1,27.1,236.6,27.9"/>
		<path d="M214.6,33.7c0-0.2,0-0.4,0-0.5l-9.1-0.8c0,0.4,0,0.9,0,1.4c0,1.7,0.2,3.4,0.6,5l8.7-2.5C214.7,35.4,214.6,34.6,214.6,33.7
			"/>
		<path d="M235.4,41.2c-0.6,0.8-1.4,1.5-2.2,2.1L238,51c1.8-1.2,3.4-2.7,4.7-4.3L235.4,41.2z"/>
		<path d="M238.1,33.7c0,0.9-0.1,1.7-0.3,2.5l8.7,2.5c0.4-1.6,0.6-3.3,0.6-5c0-0.4,0-0.9,0-1.3l-9.1,0.9
			C238.1,33.4,238.1,33.6,238.1,33.7"/>
		<path d="M217.4,41.3l-7.2,5.5c1.3,1.7,2.9,3.1,4.7,4.3l4.8-7.7C218.9,42.8,218.1,42.1,217.4,41.3"/>
		<path d="M214.8,31.9c0.2-1,0.5-2,0.9-2.9l-8.1-4.1c-0.9,1.9-1.5,4-1.8,6.2L214.8,31.9z"/>
		<path d="M236.9,51.7l-4.8-7.7c-0.9,0.5-1.8,0.9-2.8,1.1L231,54C233.1,53.5,235.1,52.7,236.9,51.7"/>
		<path d="M237.5,37.5c-0.3,0.9-0.7,1.8-1.3,2.6l7.3,5.5c1.2-1.7,2.1-3.6,2.7-5.6L237.5,37.5z"/>
		<path d="M228.1,45.3c-0.6,0.1-1.1,0.1-1.7,0.1c-0.5,0-0.9,0-1.4-0.1l-1.7,8.9c1,0.1,2,0.2,3.1,0.2s2.3-0.1,3.4-0.3L228.1,45.3z"/>
		<path d="M227.1,22c1,0.1,2,0.3,2.9,0.6l3.3-8.5c-1.9-0.7-4-1.1-6.2-1.2V22z"/>
		<path d="M223.7,45.2c-1-0.2-2-0.6-2.9-1.1l-4.8,7.7c1.8,1.1,3.9,1.8,6,2.3L223.7,45.2z"/>
		<path d="M222.8,22.5c0.9-0.3,1.9-0.5,3-0.5v-9.1c-2.2,0.1-4.3,0.5-6.3,1.1L222.8,22.5z"/>
		<path d="M216.6,40.3c-0.6-0.9-1-1.8-1.4-2.8l-8.7,2.5c0.7,2.1,1.6,4,2.9,5.8L216.6,40.3z"/>
		<path d="M219.1,24.5c0.8-0.6,1.6-1.1,2.5-1.5l-3.3-8.5c-2,0.8-3.8,1.9-5.4,3.3L219.1,24.5z"/>
		<path d="M53.1,12.9h14.1c8.4,0,12.8,4.3,12.8,10.7c0,4.4-2.5,6.8-5.3,8.2v0.1c3.5,0.8,6.6,4.1,6.6,9c0,7.3-5.6,11.6-13.7,11.6
			H53.1V12.9z M65.8,29.2c3.7,0,6.3-1.7,6.3-4.8c0-3.3-2.4-4.7-5.6-4.7H61v9.5H65.8z M66.2,45.8c5,0,6.8-2.2,6.8-5
			c0-2.5-1.6-5.2-6.2-5.2H61v10.2H66.2z"/>
		<path d="M81.9,12.9H100V39c0,12.5-7.5,13.8-15.5,13.8H82v-6.7h4.1c3.8,0,6.1-1.2,6.1-5.3V20H81.9V12.9z"/>
		<polygon points="105.2,12.9 130.5,12.9 130.5,20 113.1,20 113.1,29 130,29 130,36 113.1,36 113.1,45.4 130.5,45.4 130.5,52.5 
			105.2,52.5 		"/>
		<polygon points="142,20 131.5,20 131.5,12.9 160.3,12.9 160.3,20 149.9,20 149.9,52.5 142,52.5 		"/>
		<rect x="163.6" y="12.9" width="7.9" height="39.6"/>
		<polygon points="199.2,12.9 207.7,12.9 194.9,52.5 186.5,52.5 173.6,12.9 182.3,12.9 190.8,42 190.9,42 		"/>
		<path d="M30.6,12.2c12.3,0,19.3,9.9,19.3,20.5S43,53.2,30.6,53.2c-12.3,0-19.3-9.9-19.3-20.5S18.3,12.2,30.6,12.2 M30.6,19.2
			c-7.4,0-11.1,6.4-11.1,13.5s3.7,13.5,11.1,13.5s11.1-6.4,11.1-13.5S38,19.2,30.6,19.2"/>
		<path d="M269.2,23.3c0-2.7-2.6-4.4-5.8-4.4c-3.9,0-6.3,1.7-6.3,4.4s2.6,4.1,4.6,4.7l7.3,2.3c5.3,1.7,9,4.7,9,10.8
			c0,4.8-3.5,12.1-14.4,12.1c-13.7,0-15-8.9-15-12.4l7.9-0.2c0,4.2,3.3,5.8,7.2,5.8c2.7,0,6.5-1.3,6.5-4.4c0-2.1-0.9-3.2-4.8-4.6
			l-8.6-3.1c-4.4-1.6-7.4-5.4-7.4-9.9c0-5.1,3.5-12.3,13.7-12.3c12.2,0,14.2,8.1,14.2,11L269.2,23.3z"/>
		<path d="M58.2,86h5.6v16.5c0,8.8-5.6,12.2-11.7,12.2s-11.7-3.4-11.7-12.2V86H46v16.5c0,4.7,2.1,7.1,6.1,7.1s6.1-2.5,6.1-7.1
			C58.2,102.5,58.2,86,58.2,86z"/>
		<path d="M83.3,93.4c0-1.9-1.9-3.1-4.1-3.1c-2.8,0-4.5,1.2-4.5,3.1s1.9,2.9,3.3,3.3l5.2,1.6c3.7,1.2,6.4,3.4,6.4,7.7
			c0,3.4-2.5,8.6-10.2,8.6c-9.8,0-10.7-6.3-10.7-8.8l5.6-0.1c0,3,2.4,4.2,5.1,4.2c1.9,0,4.6-0.9,4.6-3.1c0-1.5-0.6-2.3-3.4-3.3
			l-6.1-2.2c-3.1-1.1-5.3-3.9-5.3-7c0-3.6,2.5-8.8,9.8-8.8c8.7,0,10.1,5.8,10.1,7.8L83.3,93.4z"/>
		<polygon points="100.2,91 92.8,91 92.8,86 113.2,86 113.2,91 105.8,91 105.8,114.1 100.2,114.1 		"/>
		<polygon points="117.5,86 135.4,86 135.4,91 123.1,91 123.1,97.4 135.1,97.4 135.1,102.4 123.1,102.4 123.1,109.1 135.4,109.1 
			135.4,114.1 117.5,114.1 		"/>
		<polygon points="145.8,94.9 145.7,94.9 145.7,114.1 140.3,114.1 140.3,86 146.3,86 157.8,104.8 157.8,104.8 157.8,86 163.2,86 
			163.2,114.1 157.4,114.1 		"/>
		<polygon points="174.9,91 167.5,91 167.5,86 187.9,86 187.9,91 180.5,91 180.5,114.1 174.9,114.1 		"/>
		<path d="M205.6,108.2h-10.3l-1.8,5.9h-6.1L197.6,86h5.9l10.1,28.1h-6.2L205.6,108.2z M200.5,92.7L200.5,92.7l-3.6,10.9h7.2
			L200.5,92.7z M201.1,79.1h5l-5.2,5.2h-3.1L201.1,79.1z"/>
		<polygon points="230.5,86 236.6,86 227.5,114.1 221.6,114.1 212.4,86 218.6,86 224.6,106.6 224.7,106.6 		"/>
		<polygon points="240.1,86 258,86 258,91 245.7,91 245.7,97.4 257.7,97.4 257.7,102.4 245.7,102.4 245.7,109.1 258,109.1 
			258,114.1 240.1,114.1 		"/>
		<polygon points="262.9,86 268.5,86 268.5,108.8 279.3,108.8 279.3,114.1 262.9,114.1 		"/>
		<path d="M53.1,60.7h6.4c5.1,0,8.1,3,8.1,8.5c0,5.4-3.7,8.5-8.1,8.5H53L53.1,60.7L53.1,60.7z M59.4,74.8c3.5,0,4.8-3,4.8-5.6
			c0-2.8-1.2-5.6-5-5.6h-2.6v11.2H59.4L59.4,74.8z"/>
		<polygon points="70.7,60.7 81.5,60.7 81.5,63.7 74,63.7 74,67.6 81.3,67.6 81.3,70.6 74,70.6 74,74.6 81.5,74.6 81.5,77.7 
			70.7,77.7 		"/>
		<path d="M92.6,65.2c0-1.2-1.1-1.9-2.5-1.9c-1.7,0-2.7,0.7-2.7,1.9c0,1.2,1.1,1.7,2,2l3.1,1c2.2,0.7,3.8,2,3.8,4.6
			c0,2.1-1.5,5.2-6.2,5.2c-5.9,0-6.4-3.8-6.4-5.3l3.4-0.1c0,1.8,1.4,2.5,3.1,2.5c1.1,0,2.8-0.6,2.8-1.9c0-0.9-0.4-1.4-2-2l-3.7-1.3
			c-1.9-0.7-3.2-2.3-3.2-4.2c0-2.2,1.5-5.3,5.9-5.3c5.2,0,6.1,3.5,6.1,4.7L92.6,65.2z"/>
		<polygon points="99.4,60.7 110.2,60.7 110.2,63.7 102.8,63.7 102.8,67.6 110,67.6 110,70.6 102.8,70.6 102.8,74.6 110.2,74.6 
			110.2,77.7 99.4,77.7 		"/>
		<polygon points="116.4,66.1 116.4,66.1 116.4,77.7 113.2,77.7 113.2,60.7 116.8,60.7 123.6,72.1 123.7,72.1 123.7,60.7 
			126.9,60.7 126.9,77.7 123.4,77.7 		"/>
		<polygon points="139.9,60.7 143.6,60.7 138.1,77.7 134.5,77.7 129,60.7 132.7,60.7 136.4,73.2 136.4,73.2 		"/>
		<path d="M153.2,60.4c5.3,0,8.2,4.2,8.2,8.8s-3,8.8-8.2,8.8c-5.3,0-8.2-4.2-8.2-8.8S147.9,60.4,153.2,60.4 M153.2,63.4
			c-3.2,0-4.7,2.7-4.7,5.8c0,3,1.6,5.8,4.7,5.8c3.2,0,4.7-2.7,4.7-5.8C157.9,66.2,156.3,63.4,153.2,63.4"/>
		<polygon points="164.4,60.7 167.8,60.7 167.8,74.5 174.3,74.5 174.3,77.7 164.4,77.7 		"/>
		<polygon points="184.5,60.7 188.2,60.7 182.7,77.7 179.1,77.7 173.6,60.7 177.3,60.7 180.9,73.2 181,73.2 		"/>
		<rect x="190.4" y="60.7" width="3.4" height="16.9"/>
		<polygon points="212,66.4 211.9,66.4 207.4,77.7 205.5,77.7 201,66.6 201,66.6 201,77.7 197.7,77.7 197.7,60.7 201.6,60.7 
			206.5,72.3 211.4,60.7 215.2,60.7 215.2,77.7 212,77.7 		"/>
		<polygon points="219,60.7 229.8,60.7 229.8,63.7 222.3,63.7 222.3,67.6 229.6,67.6 229.6,70.6 222.3,70.6 222.3,74.6 229.8,74.6 
			229.8,77.7 219,77.7 		"/>
		<polygon points="236,66.1 235.9,66.1 235.9,77.7 232.7,77.7 232.7,60.7 236.3,60.7 243.2,72.1 243.2,72.1 243.2,60.7 246.5,60.7 
			246.5,77.7 243,77.7 		"/>
		<polygon points="253.5,63.7 249.1,63.7 249.1,60.7 261.3,60.7 261.3,63.7 256.9,63.7 256.9,77.7 253.5,77.7 		"/>
		<path d="M270,60.4c5.3,0,8.2,4.2,8.2,8.8s-3,8.8-8.2,8.8c-5.3,0-8.2-4.2-8.2-8.8S264.8,60.4,270,60.4 M270,63.4
			c-3.2,0-4.7,2.7-4.7,5.8c0,3,1.6,5.8,4.7,5.8c3.2,0,4.7-2.7,4.7-5.8C274.8,66.2,273.2,63.4,270,63.4"/>
	</g>
</g>
</svg>
