<?xml version="1.0" encoding="utf-8"?>
<!-- Generator: Adobe Illustrator 24.0.0, SVG Export Plug-In . SVG Version: 6.00 Build 0)  -->
<svg version="1.1" id="Layer_1" xmlns="http://www.w3.org/2000/svg" xmlns:xlink="http://www.w3.org/1999/xlink" x="0px" y="0px"
	 viewBox="0 0 100 100" style="enable-background:new 0 0 100 100;" xml:space="preserve">
<style type="text/css">
	.st0{fill:#00689D;}
	.st1{fill:#FFFFFF;}
</style>
<g>
	<rect y="0" class="st0" width="100" height="100"/>
	<g>
		<polygon class="st1" points="7.7,12 7.7,15.6 7.7,15.6 10.1,13.1 10.1,13.1 10.1,28.5 13.5,28.5 13.5,8.4 10.8,8.4 		"/>
		<path class="st1" d="M21.6,15.8c-1.4,0-2.3,0.7-2.8,1.6h0v-4.3c0-1.2,0.4-2.1,1.6-2.1c1.2,0,1.6,0.7,1.6,2v1.3h3.1v-1.1
			c0-3-1-5.1-4.7-5.1c-3.6,0-4.9,2.3-4.9,5.4v9.8c0,3.1,1.4,5.4,4.9,5.4c3.6,0,5-2,5-5.1v-3C25.4,17.4,24.1,15.8,21.6,15.8z M22,24
			c0,1.3-0.5,2-1.6,2c-1.1,0-1.6-0.8-1.6-2v-3.7c0.1-1.1,0.5-1.8,1.6-1.8c1.2,0,1.6,0.7,1.6,2V24z"/>
		<path class="st1" d="M71.2,39.5c0,0,1.2-1.5,0.8-3c-0.3-1.5-2-2.4-2-2.4s-1.2,1.5-0.8,3C69.5,38.6,71.2,39.5,71.2,39.5z"/>
		<path class="st1" d="M68.1,42.8c0,0,1.2-1.5,0.8-3c-0.3-1.5-2-2.4-2-2.4s-1.2,1.5-0.8,3C66.4,41.9,68.1,42.8,68.1,42.8z"/>
		<path class="st1" d="M72.8,41.2c0,0,1.2,1.2,2.6,1.1c1.4-0.1,2.4-1.5,2.4-1.5s-1.2-1.2-2.6-1.1C73.9,39.8,72.8,41.2,72.8,41.2z"/>
		<path class="st1" d="M74.8,34.6c-1.1,1.1-1,3.2-1,3.2s2,0.2,3.1-1c1.1-1.1,1-3.2,1-3.2S76,33.5,74.8,34.6z"/>
		<path class="st1" d="M72.4,45.7c1.4,0.2,2.7-1,2.7-1s-0.9-1.5-2.3-1.6c-1.4-0.2-2.7,1-2.7,1S71,45.6,72.4,45.7z"/>
		<path class="st1" d="M73.6,69.7H63.3c-0.8,0-1.5,0.7-1.5,1.5c0,0.8,0.7,1.5,1.5,1.5h10.3c0.8,0,1.5-0.7,1.5-1.5
			C75,70.4,74.4,69.7,73.6,69.7z"/>
		<path class="st1" d="M73.6,85.8H63.3c-0.8,0-1.5,0.7-1.5,1.5c0,0.8,0.7,1.5,1.5,1.5h10.3c0.8,0,1.5-0.7,1.5-1.5
			C75,86.5,74.4,85.8,73.6,85.8z"/>
		<path class="st1" d="M27.2,66.2c-0.2-0.1-0.5-0.1-0.7-0.2C26.4,66,26.7,66.1,27.2,66.2z"/>
		<path class="st1" d="M62.8,84c0,0.5,0.4,0.8,0.8,0.8h9.6c0.5,0,0.8-0.4,0.8-0.8v-9.5c0-0.5-0.4-0.8-0.8-0.8h-9.6
			c-0.5,0-0.8,0.4-0.8,0.8v2.9l-6.2,0.7l-9.1-0.2v-5.6c1.2-0.2,2.4-0.4,3.6-0.7c8.8-2.5,10.7-9.7,10.5-14.8c-0.2-5.1,1.4-7.1,3.8-8
			c0.7-0.3,1.3-0.4,1.9-0.5c0,1.3,0.3,2.7,0.8,4.5c0.2,0,0.4,0,0.6-0.1c-0.6-1.8-0.8-3.2-0.9-4.5c1.2-0.1,2.1-0.1,2.1-0.1
			s-0.8-0.4-2-1.4c0.4-2.4,1.8-3.9,3.3-5.4c0.8-0.8,1.7-1.7,2.3-2.7l-0.5-0.3c-0.6,1-1.5,1.8-2.3,2.6c-1.5,1.5-2.9,3-3.4,5.4
			c-0.5-0.4-1-0.9-1.5-1.5c-2.2-2.4-5-0.6-8.9,3.1c-4,3.7-9,3.8-13.9-1.2c-6.4-6.6-12.1-6.6-15.9-6.2c2.6,1.1,3.6,3.6,4.9,9.9
			c1.4,6.6,4.9,9.5,9.8,10c-2.7,0.9-2.8,2.5-6.4,4.9c-2.8,1.9-6.8,1.3-8.4,1c2.9,0.9,6.4,4,9.5,5.1c1.8,0.6,3.7,1,5.7,1.2v5.3
			L26,77.4v3.7l30.5-0.7l6.2,0.7V84z M45.9,77.9l-2,0v-5.3c0.7,0,1.4,0,2-0.1V77.9z"/>
		<path class="st1" d="M23.9,76.5h-0.7c-0.7,0-1.2,0.6-1.2,1.4v2.6c0,0.8,0.5,1.4,1.2,1.4h0.7c0.7,0,1.2-0.6,1.2-1.4v-2.6
			C25.1,77.1,24.6,76.5,23.9,76.5z"/>
		<path class="st1" d="M33.3,11.9H34c1.4,0,1.9-0.7,1.9-1.8V8.3c0-1.1-0.5-1.8-1.9-1.8h-2v8.2h1.4V11.9z M33.3,7.6h0.5
			c0.5,0,0.7,0.2,0.7,0.7v1.9c0,0.4-0.2,0.7-0.7,0.7h-0.5V7.6z"/>
		<path class="st1" d="M37.8,13.2h1.5l0.3,1.5h1.4l-1.6-8.2h-1.6l-1.5,8.2h1.3L37.8,13.2z M38.5,8.8L38.5,8.8l0.6,3.3H38L38.5,8.8z"
			/>
		<polygon class="st1" points="44.8,13.6 42.7,13.6 44.9,7.6 44.9,6.5 41.5,6.5 41.5,7.6 43.4,7.6 41.2,13.6 41.2,14.7 44.8,14.7 		
			"/>
		<polygon class="st1" points="46.9,13.5 46.9,13.4 45.6,13.4 45.4,15.3 46.2,15.3 		"/>
		<path class="st1" d="M50.4,14.8c1.4,0,1.9-0.8,1.9-2V6.5H51V13c0,0.4-0.1,0.7-0.5,0.7c-0.4,0-0.5-0.2-0.5-0.7v-1.7h-1.3V13
			C48.6,14,49,14.8,50.4,14.8z"/>
		<path class="st1" d="M55,14.8c1.4,0,1.9-0.8,1.9-2.1V6.5h-1.3v6.3c0,0.5-0.2,0.8-0.7,0.8c-0.5,0-0.7-0.3-0.7-0.8V6.5H53v6.2
			C53,14,53.6,14.8,55,14.8z"/>
		<path class="st1" d="M59.5,14.8c1.4,0,2-0.8,2-1.9v-0.4c0-0.9-0.4-1.4-1.1-2.1l-0.9-0.9c-0.4-0.4-0.7-0.7-0.7-1.1V8.2
			c0-0.5,0.3-0.7,0.7-0.7c0.4,0,0.7,0.2,0.7,0.7v0.7h1.3V8.3c0-1.2-0.5-1.9-1.9-1.9c-1.3,0-1.9,0.8-1.9,1.8v0.3
			c0,0.9,0.4,1.4,1.1,2.2l0.8,0.8c0.4,0.4,0.6,0.7,0.6,1.2v0.3c0,0.4-0.2,0.7-0.6,0.7c-0.5,0-0.7-0.3-0.7-0.7v-1.1h-1.3v1.1
			C57.6,14,58.1,14.8,59.5,14.8z"/>
		<polygon class="st1" points="63.1,14.7 64.5,14.7 64.5,7.6 65.6,7.6 65.6,6.5 61.9,6.5 61.9,7.6 63.1,7.6 		"/>
		<rect x="66.1" y="6.5" class="st1" width="1.4" height="8.2"/>
		<path class="st1" d="M69.8,14.7v0.4h0.1c0.1,0,0.2,0,0.2,0.1c0,0.1-0.1,0.2-0.4,0.2v0.4c0.9,0,1.2-0.2,1.2-0.6
			c0-0.3-0.2-0.4-0.5-0.4v-0.1c1.4,0,1.8-0.9,1.8-2v-1.4h-1.3v1.5c0,0.5-0.2,0.8-0.7,0.8c-0.5,0-0.7-0.3-0.7-0.8V8.4
			c0-0.5,0.2-0.8,0.7-0.8c0.5,0,0.7,0.3,0.7,0.8v1.1h1.3v-1c0-1.2-0.4-2-1.9-2c-1.4,0-2,0.9-2,2.2v4C68.2,13.7,68.6,14.6,69.8,14.7z
			"/>
		<path class="st1" d="M74.1,13.2h1.5l0.3,1.5h1.4l-1.6-8.2h-1.6l-1.5,8.2h1.3L74.1,13.2z M74.8,8.8L74.8,8.8l0.6,3.3h-1.1L74.8,8.8
			z"/>
		<polygon class="st1" points="82.1,7.6 82.1,6.5 78.8,6.5 78.8,14.7 82.1,14.7 82.1,13.6 80.2,13.6 80.2,11.1 81.6,11.1 81.6,10 
			80.2,10 80.2,7.6 		"/>
		<rect x="32" y="17.2" class="st1" width="1.4" height="8.2"/>
		<polygon class="st1" points="35.4,20.3 37,25.4 38.2,25.4 38.2,17.2 37.1,17.2 37.1,21.9 35.6,17.2 34.3,17.2 34.3,25.4 
			35.4,25.4 		"/>
		<path class="st1" d="M39.1,18.9v0.3c0,0.9,0.4,1.4,1.1,2.2l0.8,0.8c0.4,0.4,0.6,0.7,0.6,1.2v0.3c0,0.4-0.2,0.7-0.6,0.7
			c-0.5,0-0.7-0.3-0.7-0.7v-1.1h-1.3v1.1c0,1.1,0.5,1.9,1.9,1.9c1.4,0,2-0.8,2-1.9v-0.4c0-0.9-0.4-1.4-1.1-2.1L41,20.2
			c-0.4-0.4-0.7-0.7-0.7-1.1v-0.2c0-0.5,0.3-0.7,0.7-0.7c0.4,0,0.7,0.2,0.7,0.7v0.7h1.3V19c0-1.2-0.5-1.9-1.9-1.9
			C39.7,17.2,39.1,17.9,39.1,18.9z"/>
		<polygon class="st1" points="43.7,18.4 44.8,18.4 44.8,25.4 46.2,25.4 46.2,18.4 47.3,18.4 47.3,17.2 43.7,17.2 		"/>
		<rect x="48.1" y="17.2" class="st1" width="1.4" height="8.2"/>
		<polygon class="st1" points="52.7,18.4 53.8,18.4 53.8,17.2 50.2,17.2 50.2,18.4 51.3,18.4 51.3,25.4 52.7,25.4 		"/>
		<path class="st1" d="M56,23.6v-6.3h-1.4v6.2c0,1.3,0.6,2.1,2,2.1c1.4,0,1.9-0.8,1.9-2.1v-6.2h-1.3v6.3c0,0.5-0.2,0.8-0.7,0.8
			C56.2,24.4,56,24,56,23.6z"/>
		<rect x="59.5" y="17.2" class="st1" width="1.4" height="8.2"/>
		<path class="st1" d="M63.4,25.5v0.4h0.1c0.1,0,0.2,0,0.2,0.1c0,0.1-0.1,0.2-0.4,0.2v0.4c0.9,0,1.2-0.2,1.2-0.6
			c0-0.3-0.2-0.4-0.5-0.4v-0.1c1.4,0,1.8-0.9,1.8-2v-1.4h-1.3v1.5c0,0.5-0.2,0.8-0.7,0.8c-0.5,0-0.7-0.3-0.7-0.8v-4.4
			c0-0.5,0.2-0.8,0.7-0.8c0.5,0,0.7,0.3,0.7,0.8v1.1h1.3v-1c0-1.2-0.4-2-1.9-2c-1.4,0-2,0.9-2,2.2v4C61.8,24.5,62.2,25.3,63.4,25.5z
			"/>
		<path class="st1" d="M68.1,16.9c0-0.1,0.1-0.2,0.2-0.2c0.2,0,0.5,0.2,0.8,0.2c0.6,0,0.8-0.5,0.8-1h-0.7c0,0.1-0.1,0.2-0.2,0.2
			c-0.2,0-0.5-0.2-0.8-0.2c-0.6,0-0.8,0.5-0.8,1H68.1z"/>
		<path class="st1" d="M70.8,23.3v-4c0-1.3-0.6-2.2-2.1-2.2c-1.4,0-2.1,0.9-2.1,2.2v4c0,1.3,0.6,2.2,2.1,2.2
			C70.1,25.5,70.8,24.6,70.8,23.3z M69.4,23.5c0,0.5-0.2,0.8-0.7,0.8c-0.5,0-0.7-0.3-0.7-0.8v-4.4c0-0.5,0.2-0.8,0.7-0.8
			c0.5,0,0.7,0.3,0.7,0.8V23.5z"/>
		<polygon class="st1" points="74.9,18.4 74.9,17.2 71.7,17.2 71.7,25.4 74.9,25.4 74.9,24.3 73,24.3 73,21.8 74.4,21.8 74.4,20.7 
			73,20.7 73,18.4 		"/>
		<path class="st1" d="M77.7,20.2c-0.4-0.4-0.7-0.7-0.7-1.1v-0.2c0-0.5,0.3-0.7,0.7-0.7c0.4,0,0.7,0.2,0.7,0.7v0.7h1.3V19
			c0-1.2-0.5-1.9-1.9-1.9c-1.3,0-1.9,0.8-1.9,1.8v0.3c0,0.9,0.4,1.4,1.1,2.2l0.8,0.8c0.4,0.4,0.6,0.7,0.6,1.2v0.3
			c0,0.4-0.2,0.7-0.6,0.7c-0.5,0-0.7-0.3-0.7-0.7v-1.1h-1.3v1.1c0,1.1,0.5,1.9,1.9,1.9c1.4,0,2-0.8,2-1.9v-0.4
			c0-0.9-0.4-1.4-1.1-2.1L77.7,20.2z"/>
		<polygon class="st1" points="35.3,29.6 35.3,28.4 32,28.4 32,36.6 35.3,36.6 35.3,35.5 33.3,35.5 33.3,33 34.7,33 34.7,31.9 
			33.3,31.9 33.3,29.6 		"/>
		<polygon class="st1" points="39.3,29.6 39.3,28.4 36.1,28.4 36.1,36.6 37.5,36.6 37.5,33 38.8,33 38.8,31.9 37.5,31.9 37.5,29.6 
					"/>
		<rect x="40" y="28.4" class="st1" width="1.4" height="8.2"/>
		<path class="st1" d="M46.3,31.4v-1c0-1.2-0.4-2-1.9-2c-1.4,0-2,0.9-2,2.2v4c0,1.3,0.6,2.2,2,2.2c1.5,0,1.9-0.9,1.9-2v-1.4H45v1.5
			c0,0.5-0.2,0.8-0.7,0.8c-0.5,0-0.7-0.3-0.7-0.8v-4.4c0-0.5,0.2-0.8,0.7-0.8c0.5,0,0.7,0.3,0.7,0.8v1.1H46.3z"/>
		<path class="st1" d="M48.5,28.4l-1.5,8.2h1.3l0.2-1.5h1.5l0.3,1.5h1.4L50,28.4H48.5z M48.7,34l0.5-3.3h0l0.5,3.3H48.7z"/>
		<polygon class="st1" points="55.8,28.4 52.4,28.4 52.4,29.6 54.3,29.6 52.2,35.5 52.2,36.6 55.7,36.6 55.7,35.5 53.6,35.5 
			55.8,29.6 		"/>
		<polygon class="st1" points="59.9,29.6 59.9,28.4 56.6,28.4 56.6,36.6 59.9,36.6 59.9,35.5 58,35.5 58,33 59.4,33 59.4,31.9 
			58,31.9 58,29.6 		"/>
		<path class="st1" d="M62.6,36.7c1.4,0,2-0.8,2-1.9v-0.4c0-0.9-0.4-1.4-1.1-2.1l-0.9-0.9C62.2,31,62,30.7,62,30.3v-0.2
			c0-0.5,0.3-0.7,0.7-0.7c0.4,0,0.7,0.2,0.7,0.7v0.7h1.3v-0.7c0-1.2-0.5-1.9-1.9-1.9c-1.3,0-1.9,0.8-1.9,1.8v0.3
			c0,0.9,0.4,1.4,1.1,2.2l0.8,0.8c0.4,0.4,0.6,0.7,0.6,1.2v0.3c0,0.4-0.2,0.7-0.6,0.7c-0.5,0-0.7-0.3-0.7-0.7v-1.1h-1.3v1.1
			C60.7,35.9,61.2,36.7,62.6,36.7z"/>
	</g>
</g>
</svg>
