<?xml version="1.0" encoding="utf-8"?>
<!-- Generator: Adobe Illustrator 24.0.0, SVG Export Plug-In . SVG Version: 6.00 Build 0)  -->
<svg version="1.1" id="Layer_1" xmlns="http://www.w3.org/2000/svg" xmlns:xlink="http://www.w3.org/1999/xlink" x="0px" y="0px"
	 viewBox="0 0 100 100" style="enable-background:new 0 0 100 100;" xml:space="preserve">
<style type="text/css">
	.st0{fill:#C5192D;}
</style>
<g>
	<path class="st0" d="M31,27.4c0.5,0,0.7-0.3,0.7-0.8v-4.5c0-0.5-0.2-0.8-0.7-0.8s-0.7,0.3-0.7,0.8v4.5C30.3,27,30.5,27.4,31,27.4z"
		/>
	<path class="st0" d="M62,21.3h-0.6v5.9H62c0.6,0,0.8-0.3,0.8-0.8v-4.3C62.8,21.6,62.6,21.3,62,21.3z"/>
	<polygon class="st0" points="58.9,10.5 58.4,13.8 59.5,13.8 	"/>
	<polygon class="st0" points="13,22.4 16,22.4 16,14.1 	"/>
	<path class="st0" d="M35.8,14.4v-4.3c0-0.5-0.2-0.8-0.8-0.8h-0.6v5.9H35C35.6,15.2,35.8,14.9,35.8,14.4z"/>
	<polygon class="st0" points="49.5,10.5 49,13.8 50.1,13.8 	"/>
	<path class="st0" d="M63.8,15.3c0.5,0,0.7-0.3,0.7-0.8v-4.4c0-0.5-0.2-0.8-0.7-0.8s-0.7,0.3-0.7,0.8v4.4
		C63.1,15,63.3,15.3,63.8,15.3z"/>
	<polygon class="st0" points="40.3,25.8 41.3,25.8 40.8,22.5 	"/>
	<path class="st0" d="M0.3-0.2v100h100v-100H0.3z M61.7,10.3c0-1.3,0.7-2.2,2.1-2.2c1.5,0,2.1,0.9,2.1,2.2v4c0,1.3-0.6,2.2-2.1,2.2
		s-2.1-1-2.1-2.2V10.3z M67.7,23.6v1.1h-1.3v2.5h1.9v1.1H65v-8.1h3.3v1.1h-1.9v2.3H67.7z M46.9,27.2v1.1h-3v-8.1h1.4v7H46.9z
		 M46.6,53.5l18.1-10.4v33.5L46.6,82V53.5z M47.7,28.4v-8.2h1.4v8.2H47.7z M49.9,28.3v-8.2H52c1.5,0,2,0.9,2,2.2v3.8
		c0,1.3-0.5,2.2-2,2.2H49.9z M54.7,28.3l1.5-8.2h1.6l1.6,8.2H58l-0.3-1.5h-1.5L56,28.3H54.7z M60,28.3v-8.2h2.1c1.5,0,2,0.9,2,2.2
		v3.8c0,1.3-0.5,2.2-2,2.2H60z M58.6,6.8c0.3,0,0.6,0.2,0.8,0.2c0.1,0,0.1,0,0.1-0.1h0.7c0,0.5-0.2,1-0.8,1c-0.3,0-0.6-0.2-0.8-0.2
		c-0.1,0-0.2,0-0.1,0.1h-0.7C57.8,7.3,58,6.8,58.6,6.8z M58.2,8.2h1.6l1.6,8.2H60l-0.3-1.5h-1.5L58,16.4h-1.3L58.2,8.2z M52.4,14.4
		v-4c0-1.3,0.6-2.2,2-2.2c1.5,0,1.9,0.8,1.9,2v1H55v-1.1c0-0.5-0.2-0.8-0.7-0.8s-0.7,0.3-0.7,0.8v4.4c0,0.5,0.2,0.8,0.7,0.8
		S55,15,55,14.5V13h1.3v1.4c0,1.1-0.4,2-1.8,2v0.1c0.3,0,0.5,0.1,0.5,0.4c0,0.4-0.3,0.6-1.2,0.6v-0.4c0.3,0,0.4-0.1,0.4-0.2
		c0-0.1-0.1-0.1-0.2-0.1h-0.1v-0.4C52.8,16.3,52.3,15.4,52.4,14.4z M48.8,8.2h1.6l1.6,8.2h-1.4l-0.3-1.5h-1.5l-0.2,1.5h-1.3
		L48.8,8.2z M43,14.4v-4c0-1.3,0.6-2.2,2-2.2c1.5,0,1.9,0.8,1.9,2v1h-1.3v-1.1c0-0.5-0.2-0.8-0.7-0.8s-0.7,0.3-0.7,0.8v4.4
		c0,0.5,0.2,0.8,0.7,0.8s0.7-0.3,0.7-0.8V13h1.3v1.5c0,1.1-0.4,2-1.9,2S42.9,15.5,43,14.4z M43.3,28.4h-1.4l-0.3-1.5h-1.5l-0.2,1.5
		h-1.3l1.5-8.2h1.6L43.3,28.4z M38,8.2h1.3v6.3c0,0.5,0.2,0.8,0.7,0.8s0.7-0.3,0.7-0.8V8.2H42v6.2c0,1.3-0.5,2.1-1.9,2.1
		c-1.5,0-2.1-0.9-2.1-2.1V8.2z M35.8,27.3c0.5,0,0.7-0.3,0.7-0.8v-6.3h1.3v6.2c0,1.3-0.5,2.1-1.9,2.1c-1.4,0-2-0.8-2-2.1v-6.2h1.2
		v6.3C35.1,27,35.3,27.3,35.8,27.3z M33,8.2h2.1c1.5,0,2,0.9,2,2.2v3.8c0,1.2-0.5,2.2-2,2.2H33V8.2z M28.9,8.2h3.3v1.1h-1.9v2.3h1.3
		v1.2h-1.3v2.4h1.9v1.2h-3.3V8.2z M28.9,22.3c0-1.3,0.7-2.2,2.1-2.2c1.5,0,2.1,0.9,2.1,2.2v4c0,0.9-0.3,1.6-1,1.9l1,0.2v1l-2.6-0.5
		v-0.6c-1.1-0.2-1.6-1-1.6-2V22.3z M26.7,43.1l18,10.3V82l-18-5.4V43.1z M20.6,25.1h-1.4v3.3H16v-3.3h-6V23l5.9-14.8h3.3v14.3h1.4
		V25.1z M68.5,78.9l-1.7,0.5l-20,6.3h-1h-0.2h-1l-21.7-6V44.5l1.9-1.5v35.4l19.9,5.5h0.9h0.2h0.9l19.9-6.4V43l1.9,1.5V78.9z
		 M71.7,14.2c0,1.3-0.5,2.2-2,2.2h-2.1V8.2h2.1c1.4,0,1.9,0.9,2,2.2V14.2z M72.2,8.2h3.3v1.1h-1.9v2.3H75v1.2h-1.4v2.4h1.9v1.2h-3.3
		V8.2z M78.8,76l-2.1,7.4L74.5,76V46.2h0.6h0.5h0.5h1.1h0.5h0.5h0.6V76z M78.8,44.5h-4.2v-2.3c0-1.2,0.9-2.1,2.1-2.1
		c1.1,0,2.1,1,2.1,2.1V44.5z"/>
	<path class="st0" d="M51.9,21.3h-0.6v5.9h0.6c0.6,0,0.8-0.3,0.8-0.8v-4.3C52.7,21.6,52.5,21.3,51.9,21.3z"/>
	<path class="st0" d="M69.5,9.3h-0.6v5.9h0.6c0.6,0,0.8-0.3,0.8-0.8v-4.3C70.3,9.6,70.1,9.3,69.5,9.3z"/>
	<polygon class="st0" points="57,22.5 56.5,25.8 57.6,25.8 	"/>
</g>
</svg>
