<?xml version="1.0" encoding="utf-8"?>
<!-- Generator: Adobe Illustrator 24.0.0, SVG Export Plug-In . SVG Version: 6.00 Build 0)  -->
<svg version="1.1" id="Layer_1" xmlns="http://www.w3.org/2000/svg" xmlns:xlink="http://www.w3.org/1999/xlink" x="0px" y="0px"
	 viewBox="0 0 100 100" style="enable-background:new 0 0 100 100;" xml:space="preserve">
<style type="text/css">
	.st0{fill:#A21942;}
</style>
<g>
	<path class="st0" d="M35.8,37.2c0.5,0,0.7-0.3,0.7-0.8V32c0-0.5-0.2-0.8-0.7-0.8s-0.7,0.3-0.7,0.8v4.4
		C35.1,36.9,35.3,37.2,35.8,37.2z"/>
	<path class="st0" d="M14.7,18.4c-1.2,0-1.6,0.9-1.6,2.1v3.3c0,1.2,0.4,2.1,1.6,2.1c1.3,0,1.7-0.9,1.7-2.1v-3.3
		C16.4,19.3,15.9,18.4,14.7,18.4z"/>
	<path class="st0" d="M42.7,13.9v-1.2c0-0.5-0.2-0.7-0.7-0.7h-0.6v2.6H42C42.5,14.6,42.7,14.3,42.7,13.9z"/>
	<path class="st0" d="M36.8,20.1h-0.5v2.5h0.5c0.5,0,0.7-0.3,0.7-0.7v-1.1C37.5,20.3,37.3,20.1,36.8,20.1z"/>
	<path class="st0" d="M32.7,10.6V9.4c0-0.5-0.2-0.7-0.7-0.7h-0.4h-0.1v2.6H32C32.5,11.3,32.7,11,32.7,10.6z"/>
	<path class="st0" d="M14.7,15.9c1.1,0,1.5-0.7,1.5-1.9v-1.4c0-1.2-0.4-1.9-1.5-1.9c-1.1,0-1.5,0.7-1.5,1.9V14
		C13.2,15.2,13.6,15.9,14.7,15.9z"/>
	<polygon class="st0" points="37,9.9 36.5,13.2 37.6,13.2 	"/>
	<path class="st0" d="M61.4,32v4.4c0,0.5,0.2,0.8,0.7,0.8s0.7-0.3,0.7-0.8V32c0-0.5-0.2-0.8-0.7-0.8S61.4,31.5,61.4,32z"/>
	<path class="st0" d="M67.7,13.8V9.5c0-0.5-0.2-0.8-0.8-0.8h-0.6v5.9h0.6C67.5,14.6,67.7,14.3,67.7,13.8z"/>
	<polygon class="st0" points="46.9,9.9 46.4,13.2 47.5,13.2 	"/>
	<path class="st0" d="M45.1,37.2c0.5,0,0.7-0.3,0.7-0.8V32c0-0.5-0.2-0.8-0.7-0.8s-0.7,0.3-0.7,0.8v4.4
		C44.4,36.9,44.6,37.2,45.1,37.2z"/>
	<path class="st0" d="M42.6,10.4v-1c0-0.5-0.2-0.7-0.7-0.7h-0.5v2.4h0.5C42.4,11.1,42.6,10.8,42.6,10.4z"/>
	<path class="st0" d="M60.7,14.7c0.5,0,0.7-0.3,0.7-0.8V9.5c0-0.5-0.2-0.8-0.7-0.8S60,9,60,9.5v4.4C60,14.4,60.2,14.7,60.7,14.7z"/>
	<path class="st0" d="M74.7,20c-0.5,0-0.7,0.3-0.7,0.8v4.4c0,0.5,0.2,0.8,0.7,0.8s0.7-0.3,0.7-0.8v-4.4C75.4,20.3,75.2,20,74.7,20z"
		/>
	<path class="st0" d="M0.3-0.2v100h100v-100H0.3z M69.9,7.6h3.3v1.1h-1.9V11h1.4v1.1h-1.4v2.5h1.9v1.1h-3.3V7.6z M68.5,20.1v-1.2
		h3.6v1.2H71v7h-1.4v-7H68.5z M65,7.6h2.1c1.5,0,2,0.9,2,2.2v3.7c0,1.3-0.5,2.2-2,2.3H65V7.6z M64,18.9h1.4l1.5,4.7v-4.7H68v8.2
		h-1.2L65.2,22v5.1H64V18.9z M64.2,32.2v4c0,1.3-0.6,2.2-2.1,2.2S60,37.5,60,36.2v-4c0-1.2,0.6-2.2,2.1-2.2S64.2,30.9,64.2,32.2z
		 M63.4,20.1h-1.9v2.3h1.4v1.1h-1.4V26h1.9v1.1h-3.3v-8.2h3.3V20.1z M58.6,9.6c0-1.3,0.7-2.2,2.1-2.2c1.5,0,2.1,0.9,2.1,2.2v4
		c0,1.3-0.6,2.2-2.1,2.2s-2.1-0.9-2.1-2.2V9.6z M59.5,18.9v8.2h-1.3v-5.3l-0.9,5.3h-0.7l-1-5.3v5.3h-1.1v-8.2h1.6l0.8,4.6H57
		l0.8-4.6H59.5z M57.5,31.2c-0.5,0-0.7,0.3-0.7,0.8v4.5c0,0.5,0.2,0.8,0.7,0.8s0.7-0.3,0.7-0.8V35h1.3v1.4c0,1.1-0.4,2-1.9,2
		c-1.4,0-2-0.9-2-2.2v-4c0-1.3,0.6-2.2,2-2.2c1.5,0,1.9,0.8,1.9,2v1h-1.3v-1C58.2,31.5,58,31.2,57.5,31.2z M50.7,38.3H50L49,33v5.3
		h-1.2v-8.2h1.6l0.9,4.6l0.8-4.6h1.8v8.2h-1.3V33L50.7,38.3z M52.4,27.1v-8.2h1.4v8.2H52.4z M53.5,30.1h1.4v8.2h-1.4V30.1z
		 M53.6,7.6H55V11h1.3V7.6h1.4v8.1h-1.4v-3.6H55v3.6h-1.4V7.6z M49.9,7.6h1.4v7h1.6v1.1h-3V7.6z M49.8,19.1c1.5,0,1.9,0.8,1.9,2v1
		h-1.3V21c0-0.5-0.2-0.8-0.7-0.8S49,20.5,49,21v4.4c0,0.5,0.2,0.8,0.7,0.8s0.7-0.3,0.7-0.8v-1.5h1.3v1.4c0,1.1-0.4,2-1.9,2
		c-1.4,0-2-0.9-2-2.2v-4C47.8,19.8,48.4,18.8,49.8,19.1z M46.1,7.5h1.6l1.6,8.2h-1.4l-0.3-1.5h-1.5l-0.2,1.5h-1.3L46.1,7.5z
		 M45.3,26.1c0.4,0,0.6-0.3,0.6-0.7v-0.3c0-0.5-0.2-0.8-0.6-1.2l-0.8-0.8c-0.7-0.8-1.1-1.3-1.1-2.2v-0.3c0-1,0.6-1.8,1.9-1.8
		c1.4,0,1.9,0.7,1.9,1.9v0.7h-1.3v-0.7c0-0.5-0.3-0.7-0.7-0.7c-0.4,0-0.7,0.2-0.7,0.7v0.2c0,0.4,0.3,0.7,0.7,1.1l0.9,0.9
		c0.7,0.7,1.1,1.2,1.1,2.1v0.4c0,1.1-0.6,1.9-2,1.9c-1.4,0-1.9-0.8-1.9-1.9v-1.1h1.3v1.1C44.6,25.8,44.8,26.1,45.3,26.1z M46.3,29.2
		v0.6l-1.1-0.3L44,29.8v-0.6l0.8-0.7h0.6L46.3,29.2z M45.2,30c1.5,0,2.1,0.9,2.1,2.2v4c0,1.3-0.6,2.2-2.1,2.2s-2.1-0.9-2.1-2.2v-4
		C43.1,30.9,43.8,30,45.2,30z M40,7.6h2c1.3,0,1.8,0.6,1.8,1.8v0.7c0,0.7-0.2,1.1-0.8,1.3c0.7,0.2,1,0.7,1,1.4v1.1
		c0,1.2-0.5,1.8-1.9,1.9H40V7.6z M39.5,18.9h3.2v1.2h-1.9v2.3h1.4v1.1h-1.4V26h1.9v1.1h-3.2V18.9z M32.3,20.1
		c-0.5,0-0.7,0.3-0.7,0.8v4.4c0,0.5,0.2,0.8,0.7,0.8s0.7-0.3,0.7-0.8v-1.5h1.3v1.4c0,1.1-0.4,2-1.9,2c-1.4,0-2-0.9-2-2.2v-4
		c0-1.3,0.6-2.2,2-2.2c1.5,0,1.9,0.9,1.9,2.2v1H33v-1.1C33,20.4,32.8,20.1,32.3,20.1z M33.7,32.2c0-1.3,0.7-2.2,2.1-2.2
		c1.5,0,2.1,1,2.1,2.2v4c0,1.3-0.6,2.2-2.1,2.2s-2.1-0.9-2.1-2.2V32.2z M37.7,27.2l-1.3-3.7v3.7H35V19h2c1.4,0,1.9,0.7,1.9,1.8v1
		c0,0.9-0.3,1.4-1.1,1.6l1.3,3.8H37.7z M38.5,30.1h1.3l1.5,4.7v-4.7h1.2v8.2h-1.2l-1.7-5.1v5.1h-1.1V30.1z M36.2,7.5h1.6l1.6,8.2H38
		l-0.3-1.5h-1.5L36,15.7h-1.3L36.2,7.5z M30.2,7.6h2c1.4,0,1.9,0.7,1.9,1.8v1c0,0.9-0.3,1.4-1.1,1.6l1.3,3.7h-1.4L31.6,12v3.8h-1.4
		V7.6z M31.2,30c1.5,0,1.9,0.8,1.9,2v1h-1.3v-1c0-0.5-0.2-0.8-0.7-0.8s-0.7,0.3-0.7,0.8v4.5c0,0.5,0.2,0.8,0.7,0.8s0.7-0.3,0.7-0.8
		V35h1.3v1.4c0,1.1-0.4,2-1.9,2c-1.4,0-2-0.9-2-2.2v-4C29.2,30.9,29.8,30,31.2,30z M25.8,7.6h3.7v1.1h-1.2v7h-1.4v-7h-1.1V7.6z
		 M25.3,18.9h3.3v1.2h-1.9v2.3h1.4v1.1h-1.4V26h1.9v1.1h-3.3V18.9z M19.8,23.3c0,3.1-1.5,5.2-5.1,5.2c-3.5,0-5-2.1-5-5.2v-2.2
		c0-1.9,0.6-3.3,2.2-4c-1.3-0.6-1.9-1.9-1.9-3.5v-0.8c0-3.1,1.6-4.8,4.7-4.7c3.2,0,4.8,1.6,4.8,4.8v0.8c0,1.7-0.7,2.8-2,3.5
		c1.6,0.7,2.3,2.1,2.3,3.9V23.3z M25.3,30.1h3.3v1.2h-1.9v2.3h1.4v1.1h-1.4v2.5h1.9v1.1h-3.3V30.1z M40.9,87.3
		c0,0.3-0.3,0.6-0.6,0.6H29.8c-0.3,0-0.6-0.3-0.6-0.6V72.8c0-0.8,0.2-1.1,0.6-1.5L40,61.6c0.7-0.7,0.9-0.1,0.9,0.2V87.3z M55.7,87.3
		c0,0.3-0.3,0.6-0.6,0.6H44.6c-0.3,0-0.6-0.3-0.6-0.6V63.9c0-0.4,0.2-1,1-0.2l4.5,4.6c0.1,0.1,0.2,0.1,0.3,0l4.9-5
		c0.7-0.7,1-0.1,1,0.2V87.3z M70.2,87.3c0,0.3-0.3,0.6-0.6,0.6H59.1c-0.3,0-0.6-0.3-0.6-0.6V60.2c0-0.8,0.2-1.1,0.6-1.5L69.3,49
		c0.7-0.7,0.9-0.1,0.9,0.3V87.3z M73.8,37.4l-1.7,7.9c0,0.1,0,0.1-0.1,0.2s-0.3,0.1-0.4,0l-1.9-1.9l-20,20c-0.1,0.1-0.2,0.1-0.3,0
		l-2.2-2.2l-5.9-5.9L28.4,68.4c-0.1,0.1-0.2,0.1-0.3,0l-2.2-2.2c-0.1-0.1-0.1-0.2,0-0.3L39,52.8l2.3-2.1c0.1-0.1,0.2-0.1,0.3,0
		l8.1,8.1l17.6-17.6l-1.8-1.8l-0.1-0.1c-0.1-0.1-0.1-0.3,0-0.4c0.1-0.1,0.1-0.1,0.2-0.1h0.1l7.8-1.8h0.1c0.1,0,0.2,0,0.1,0.1
		c0.1,0,0.1,0.1,0.1,0.2V37.4z M76.8,25c0,1.3-0.6,2.2-2.1,2.2s-2.1-0.9-2.1-2.2v-4c0-1.3,0.7-2.2,2.1-2.2c1.5,0,2.1,1,2.1,2.2V25z
		 M78,10.6h-1.3V9.5c0-0.5-0.2-0.8-0.7-0.8S75.3,9,75.3,9.5V14c0,0.5,0.2,0.8,0.7,0.8s0.7-0.3,0.7-0.8v-1.5H78v1.4
		c0,1.1-0.4,2-1.9,2c-1.4,0-2-0.9-2-2.2v-4c0-1.3,0.6-2.2,2-2.2c1.5,0,1.9,0.8,1.9,2.1V10.6z M81.9,8.7H80V11h1.3v1.1H80v2.5h1.9
		v1.1h-3.3V7.6h3.3V8.7z M86.4,15.7h-1.2l-1.6-5.1v5.1h-1.2V7.6h1.4l1.5,4.6V7.6h1.1V15.7z M90.5,8.7h-1.1v7H88v-7h-1.1V7.6h3.6V8.7
		z M94.2,8.7h-1.9V11h1.4v1.1h-1.4v2.5h1.9v1.1H91V7.6h3.2V8.7z"/>
</g>
</svg>
