<?xml version="1.0" encoding="utf-8"?>
<!-- Generator: Adobe Illustrator 24.0.0, SVG Export Plug-In . SVG Version: 6.00 Build 0)  -->
<svg version="1.1" id="Layer_1" xmlns="http://www.w3.org/2000/svg" xmlns:xlink="http://www.w3.org/1999/xlink" x="0px" y="0px"
	 viewBox="0 0 263 146" style="enable-background:new 0 0 263 146;" xml:space="preserve">
<style type="text/css">
	.st0{fill:#009DDA;}
	.st1{fill:#5FBA46;}
	.st2{fill:#D19F2A;}
	.st3{fill:#C22033;}
	.st4{fill:#2D9A47;}
	.st5{fill:#48773C;}
	.st6{fill:#FDB714;}
	.st7{fill:#EF412A;}
	.st8{fill:#F99D25;}
	.st9{fill:#007DBB;}
	.st10{fill:#8F1838;}
	.st11{fill:#00ADD8;}
	.st12{fill:#F36E24;}
	.st13{fill:#EA1D2D;}
	.st14{fill:#E01A83;}
	.st15{fill:#1B3668;}
	.st16{fill:#CD8B2A;}
	.st17{fill:#00558A;}
</style>
<g>
	<path class="st0" d="M55.2,129.2c-2.1,2.5-5,4.5-8.9,5.9c-3.8,1.4-8.1,2.1-12.8,2.2c-4.9,0-9.2-1-12.9-3.1
		c-3.7-2.1-6.6-5.2-8.6-9.3c-2-4.1-3.1-8.9-3.2-14.4l0-3.9c0-5.7,0.9-10.6,2.8-14.7c1.9-4.2,4.6-7.3,8.2-9.6
		c3.6-2.2,7.8-3.3,12.6-3.4c6.7,0,12,1.5,15.8,4.7c3.8,3.2,6.1,7.8,6.8,14l-11.4,0.1c-0.5-3.2-1.7-5.6-3.5-7.1
		c-1.8-1.5-4.2-2.2-7.4-2.2c-4,0-7,1.5-9,4.5c-2.1,3-3.1,7.5-3.1,13.3l0,3.6c0,6,1.2,10.4,3.5,13.5c2.3,3,5.6,4.5,10,4.5
		c4.4,0,7.5-1,9.4-2.9l-0.1-9.8l-10.6,0.1l-0.1-8.6l22.3-0.2L55.2,129.2z"/>
	<path class="st0" d="M151.7,124l-20.5,0.1l-3.8,11.7l-12.4,0.1L135.7,79l10.8-0.1l21.6,56.6l-12.4,0.1L151.7,124z M134.3,114.6
		l14.2-0.1l-7.3-21.2L134.3,114.6z"/>
	<polygon class="st0" points="183.4,126.1 208.2,125.9 208.3,135.3 171.7,135.5 171.4,78.8 183,78.7 	"/>
	<path class="st0" d="M242.5,120.2c0-2.2-0.8-3.9-2.4-5.1c-1.6-1.2-4.4-2.4-8.4-3.7c-4.1-1.3-7.3-2.6-9.7-3.8
		c-6.5-3.4-9.7-8.1-9.8-14c0-3.1,0.8-5.8,2.5-8.2c1.7-2.4,4.2-4.3,7.4-5.7c3.2-1.4,6.9-2.1,10.9-2.1c4.1,0,7.7,0.7,10.9,2.1
		c3.2,1.4,5.7,3.5,7.4,6.2c1.8,2.7,2.7,5.7,2.7,9.1l-11.7,0.1c0-2.6-0.8-4.6-2.5-6c-1.6-1.4-3.9-2.1-6.9-2.1c-2.9,0-5.1,0.6-6.7,1.9
		c-1.6,1.2-2.4,2.8-2.3,4.8c0,1.8,1,3.4,2.8,4.6c1.9,1.2,4.6,2.4,8.2,3.5c6.7,2,11.5,4.4,14.6,7.3c3.1,2.9,4.6,6.6,4.6,11
		c0,4.9-1.8,8.8-5.5,11.6c-3.7,2.8-8.7,4.2-15,4.3c-4.4,0-8.3-0.7-11.9-2.3c-3.6-1.6-6.3-3.7-8.2-6.5c-1.9-2.8-2.9-6-2.9-9.6
		l11.7-0.1c0,6.3,3.8,9.4,11.3,9.3c2.8,0,4.9-0.6,6.5-1.7C241.8,123.8,242.5,122.2,242.5,120.2"/>
	<path class="st1" d="M76,99.9c0.7-1.2,1.6-2.3,2.6-3.3l-8.4-9.2c-2.1,2-3.9,4.4-5.3,6.9L76,99.9z"/>
	<path class="st2" d="M96.5,93.4c1.3,0.6,2.5,1.3,3.5,2.2l8.4-9.2c-2.2-1.9-4.7-3.5-7.4-4.6L96.5,93.4z"/>
	<path class="st3" d="M115.8,96.2l-11.1,5.6c0.5,1.2,0.9,2.6,1.1,3.9l12.4-1.2C117.8,101.6,116.9,98.8,115.8,96.2"/>
	<path class="st4" d="M103.8,100.1l11.1-5.6c-1.4-2.6-3.1-4.9-5.2-6.9l-8.4,9.2C102.3,97.8,103.1,98.9,103.8,100.1"/>
	<path class="st5" d="M73.7,108c0-0.3,0-0.5,0-0.8l-12.4-1.1c0,0.6-0.1,1.2-0.1,1.9c0,2.4,0.3,4.7,0.8,6.9l12-3.4
		C73.9,110.4,73.7,109.2,73.7,108"/>
	<path class="st6" d="M102.3,118.2c-0.9,1.1-1.9,2-3,2.8l6.5,10.6c2.4-1.6,4.6-3.7,6.4-6L102.3,118.2z"/>
	<path class="st7" d="M105.9,108c0,1.2-0.1,2.3-0.4,3.4l12,3.4c0.5-2.2,0.8-4.5,0.8-6.9c0-0.6,0-1.2-0.1-1.7l-12.4,1.2
		C105.9,107.6,105.9,107.8,105.9,108"/>
	<path class="st8" d="M77.6,118.5l-9.9,7.5c1.8,2.3,4,4.2,6.5,5.9l6.5-10.6C79.5,120.5,78.5,119.5,77.6,118.5"/>
	<path class="st9" d="M73.9,105.5c0.2-1.4,0.6-2.7,1.2-4L64,95.9c-1.2,2.6-2.1,5.5-2.5,8.4L73.9,105.5z"/>
	<path class="st10" d="M104.3,132.6L97.7,122c-1.2,0.7-2.5,1.2-3.8,1.6l2.3,12.2C99.1,135.2,101.8,134.1,104.3,132.6"/>
	<path class="st11" d="M105.1,113.2c-0.4,1.3-1,2.5-1.7,3.6l9.9,7.5c1.6-2.3,2.9-4.9,3.8-7.6L105.1,113.2z"/>
	<path class="st12" d="M92.1,123.9c-0.8,0.1-1.5,0.2-2.3,0.2c-0.6,0-1.3,0-1.9-0.1l-2.3,12.2c1.4,0.2,2.8,0.3,4.2,0.3
		c1.6,0,3.1-0.1,4.6-0.4L92.1,123.9z"/>
	<path class="st13" d="M90.8,92c1.4,0.1,2.7,0.4,4,0.8l4.5-11.6c-2.7-0.9-5.5-1.5-8.5-1.6V92z"/>
	<path class="st14" d="M86.2,123.7c-1.4-0.3-2.7-0.8-3.9-1.5l-6.5,10.6c2.5,1.4,5.3,2.5,8.2,3.1L86.2,123.7z"/>
	<path class="st15" d="M85,92.7c1.3-0.4,2.7-0.7,4.1-0.7V79.5c-3,0.1-5.9,0.6-8.6,1.6L85,92.7z"/>
	<path class="st16" d="M76.5,117c-0.8-1.2-1.4-2.4-1.9-3.8l-12,3.4c0.9,2.9,2.2,5.5,4,7.9L76.5,117z"/>
	<path class="st17" d="M79.9,95.4c1.1-0.8,2.2-1.5,3.4-2.1l-4.5-11.6c-2.7,1.1-5.1,2.6-7.3,4.5L79.9,95.4z"/>
	<path class="st0" d="M23.6,28.1c0-0.9-0.3-1.6-1-2.1c-0.6-0.5-1.8-1-3.4-1.6c-1.6-0.5-3-1.1-4-1.6c-3.4-1.6-5-3.9-5-6.8
		c0-1.4,0.4-2.7,1.3-3.8c0.8-1.1,2-2,3.5-2.6c1.5-0.6,3.2-0.9,5.2-0.9c1.9,0,3.5,0.3,5,1c1.5,0.7,2.6,1.6,3.4,2.8
		c0.8,1.2,1.2,2.6,1.2,4.2h-6.2c0-1.1-0.3-1.9-1-2.5c-0.6-0.6-1.5-0.9-2.6-0.9c-1.1,0-2,0.2-2.6,0.7c-0.6,0.5-1,1.1-1,1.9
		c0,0.7,0.4,1.3,1.1,1.8c0.7,0.5,2,1.1,3.8,1.7c1.8,0.6,3.3,1.2,4.4,1.9c2.8,1.6,4.2,3.8,4.2,6.7c0,2.3-0.9,4-2.6,5.3
		c-1.7,1.3-4.1,1.9-7,1.9c-2.1,0-4-0.4-5.7-1.1c-1.7-0.8-3-1.8-3.8-3.1c-0.9-1.3-1.3-2.8-1.3-4.5h6.3c0,1.4,0.4,2.4,1.1,3.1
		c0.7,0.7,1.9,1,3.5,1c1,0,1.8-0.2,2.4-0.7C23.3,29.6,23.6,28.9,23.6,28.1"/>
	<path class="st0" d="M53.8,9.1v17c0,1.9-0.4,3.6-1.2,5c-0.8,1.4-2,2.5-3.5,3.2c-1.5,0.7-3.3,1.1-5.4,1.1c-3.2,0-5.6-0.8-7.5-2.5
		c-1.8-1.6-2.7-3.9-2.8-6.7V9.1h6.3v17.2c0.1,2.8,1.4,4.3,3.9,4.3c1.3,0,2.3-0.4,2.9-1.1c0.7-0.7,1-1.9,1-3.5V9.1H53.8z"/>
	<path class="st0" d="M71.4,28.1c0-0.9-0.3-1.6-1-2.1c-0.6-0.5-1.8-1-3.4-1.6c-1.6-0.5-3-1.1-4-1.6c-3.4-1.6-5-3.9-5-6.8
		c0-1.4,0.4-2.7,1.3-3.8c0.8-1.1,2-2,3.5-2.6c1.5-0.6,3.2-0.9,5.2-0.9c1.9,0,3.5,0.3,5,1c1.5,0.7,2.6,1.6,3.4,2.8
		c0.8,1.2,1.2,2.6,1.2,4.2h-6.2c0-1.1-0.3-1.9-1-2.5c-0.6-0.6-1.5-0.9-2.6-0.9c-1.1,0-2,0.2-2.6,0.7c-0.6,0.5-1,1.1-1,1.9
		c0,0.7,0.4,1.3,1.1,1.8c0.7,0.5,2,1.1,3.8,1.7c1.8,0.6,3.3,1.2,4.4,1.9c2.8,1.6,4.2,3.8,4.2,6.7c0,2.3-0.9,4-2.6,5.3
		c-1.7,1.3-4.1,1.9-7,1.9c-2.1,0-4-0.4-5.7-1.1c-1.7-0.8-3-1.8-3.8-3.1c-0.9-1.3-1.3-2.8-1.3-4.5h6.3c0,1.4,0.4,2.4,1.1,3.1
		c0.7,0.7,1.9,1,3.5,1c1,0,1.8-0.2,2.4-0.7C71.1,29.6,71.4,28.9,71.4,28.1"/>
	<polygon class="st0" points="101.5,13.9 93.8,13.9 93.8,35 87.5,35 87.5,13.9 79.9,13.9 79.9,9.1 101.5,9.1 	"/>
	<path class="st0" d="M117.1,30.2h-8.6l-1.5,4.8h-6.7l9.5-25.9h5.9l9.6,25.9h-6.7L117.1,30.2z M110.1,25.4h5.6l-2.8-9L110.1,25.4z"
		/>
	<rect x="128" y="9.1" class="st0" width="6.2" height="25.9"/>
	<polygon class="st0" points="160.6,35 154.4,35 145.2,18.9 145.2,35 139,35 139,9.1 145.2,9.1 154.4,25.2 154.4,9.1 160.6,9.1 	"/>
	<path class="st0" d="M179.9,30.2h-8.6l-1.5,4.8h-6.7l9.5-25.9h5.9l9.6,25.9h-6.7L179.9,30.2z M172.9,25.4h5.6l-2.8-9L172.9,25.4z"
		/>
	<path class="st0" d="M190.4,35V9.1h9.3c3.3,0,5.9,0.6,7.6,1.8c1.7,1.2,2.6,3,2.6,5.3c0,1.3-0.3,2.5-0.9,3.4c-0.6,1-1.5,1.6-2.7,2.1
		c1.4,0.4,2.4,1,3.1,2c0.7,1,1.1,2.2,1.1,3.6c0,2.5-0.8,4.4-2.4,5.7c-1.6,1.3-4,1.9-7.1,1.9H190.4z M196.7,19.9h3.3
		c1.4,0,2.3-0.3,2.9-0.7c0.6-0.5,0.9-1.2,0.9-2.2c0-1.1-0.3-1.9-0.9-2.4c-0.6-0.5-1.6-0.7-3-0.7h-3.1V19.9z M196.7,24v6.2h4.1
		c1.1,0,2-0.3,2.6-0.8c0.6-0.5,0.9-1.2,0.9-2.2c0-2.2-1.1-3.2-3.2-3.3H196.7z"/>
	<polygon class="st0" points="220.5,30.2 231.4,30.2 231.4,35 214.3,35 214.3,9.1 220.5,9.1 	"/>
	<polygon class="st0" points="250.5,24 240.6,24 240.6,30.2 252.2,30.2 252.2,35 234.4,35 234.4,9.1 252.3,9.1 252.3,13.9 
		240.6,13.9 240.6,19.4 250.5,19.4 	"/>
	<path class="st0" d="M10.3,70V44.7h8.2c2.2,0,4.3,0.5,6,1.5c1.8,1,3.2,2.5,4.2,4.3c1,1.9,1.5,3.9,1.5,6.2v1.2
		c0,2.3-0.5,4.4-1.5,6.3c-1,1.8-2.4,3.3-4.1,4.3c-1.8,1-3.8,1.6-6,1.6H10.3z M16.4,49.4v16h2.1c1.8,0,3.1-0.6,4-1.9
		c0.9-1.2,1.4-3.1,1.4-5.6v-1.1c0-2.5-0.5-4.3-1.4-5.5c-0.9-1.2-2.3-1.9-4.1-1.9H16.4z"/>
	<polygon class="st0" points="47.7,59.3 38.8,59.3 38.8,65.3 49.5,65.3 49.5,70 32.6,70 32.6,44.7 49.5,44.7 49.5,49.4 38.8,49.4 
		38.8,54.7 47.7,54.7 	"/>
	<polygon class="st0" points="62.9,63.1 68,44.7 74.8,44.7 66.2,70 59.6,70 51.1,44.7 57.9,44.7 	"/>
	<polygon class="st0" points="91.7,59.3 82.8,59.3 82.8,65.3 93.4,65.3 93.4,70 76.6,70 76.6,44.7 93.4,44.7 93.4,49.4 82.8,49.4 
		82.8,54.7 91.7,54.7 	"/>
	<polygon class="st0" points="101.6,65.3 111.3,65.3 111.3,70 95.5,70 95.5,44.7 101.6,44.7 	"/>
	<path class="st0" d="M134.1,57.9c0,2.5-0.5,4.7-1.4,6.6c-0.9,1.9-2.2,3.4-3.9,4.4c-1.7,1-3.6,1.5-5.8,1.5c-2.2,0-4.1-0.5-5.8-1.5
		c-1.7-1-3-2.4-3.9-4.3s-1.4-4-1.5-6.4v-1.4c0-2.5,0.5-4.7,1.4-6.6c0.9-1.9,2.2-3.4,3.9-4.4c1.7-1,3.6-1.6,5.8-1.6
		c2.1,0,4.1,0.5,5.8,1.5c1.7,1,3,2.5,3.9,4.4c0.9,1.9,1.4,4.1,1.4,6.5V57.9z M127.8,56.8c0-2.5-0.4-4.4-1.3-5.7c-0.8-1.3-2-2-3.6-2
		c-3.1,0-4.7,2.3-4.9,6.9l0,1.9c0,2.5,0.4,4.4,1.2,5.7c0.8,1.3,2.1,2,3.7,2c1.5,0,2.7-0.7,3.6-2c0.8-1.3,1.3-3.2,1.3-5.7V56.8z"/>
	<path class="st0" d="M142.6,61.4v8.6h-6.1V44.7h10.1c1.9,0,3.7,0.4,5.2,1.1c1.5,0.7,2.6,1.7,3.5,3c0.8,1.3,1.2,2.8,1.2,4.5
		c0,2.5-0.9,4.5-2.7,5.9c-1.8,1.5-4.2,2.2-7.3,2.2H142.6z M142.6,56.7h4c1.2,0,2.1-0.3,2.7-0.9c0.6-0.6,0.9-1.4,0.9-2.5
		c0-1.2-0.3-2.1-1-2.8c-0.6-0.7-1.5-1.1-2.6-1.1h-4.1V56.7z"/>
	<polygon class="st0" points="166.8,44.7 172.4,62.3 178.1,44.7 186.1,44.7 186.1,70 180,70 180,64.1 180.6,52 174.4,70 170.4,70 
		164.3,52 164.8,64.1 164.8,70 158.7,70 158.7,44.7 	"/>
	<polygon class="st0" points="204,59.3 195,59.3 195,65.3 205.7,65.3 205.7,70 188.9,70 188.9,44.7 205.8,44.7 205.8,49.4 195,49.4 
		195,54.7 204,54.7 	"/>
	<polygon class="st0" points="229,70 222.9,70 213.9,54.3 213.9,70 207.8,70 207.8,44.7 213.9,44.7 222.9,60.5 222.9,44.7 229,44.7 
			"/>
	<polygon class="st0" points="252.3,49.4 244.7,49.4 244.7,70 238.5,70 238.5,49.4 231.1,49.4 231.1,44.7 252.3,44.7 	"/>
</g>
</svg>
