<svg width="155" height="143" viewBox="0 0 155 143" fill="none" xmlns="http://www.w3.org/2000/svg">
<path d="M138.322 25.527C118.708 5.00101 88.1475 -3.20937 60.0954 1.12389C35.0081 4.77295 4.21912 16.6324 0.341993 62.0176C-3.7632 107.403 29.5345 136.823 76.2881 141.841C122.814 146.858 142.199 118.35 149.953 103.982C157.708 89.8417 157.936 46.0529 138.322 25.527Z" fill="#F5CE00"/>
<path d="M152.462 54.0352C152.462 55.1755 152.462 56.5439 152.462 57.6842C152.462 66.5788 151.55 75.4734 148.585 83.9118C143.796 98.052 133.305 110.139 120.533 117.894C107.761 125.876 92.7088 129.753 77.8845 130.437C58.0427 131.35 37.7448 126.56 21.3241 115.157C17.675 112.648 14.254 109.683 10.833 106.49C23.8328 126.104 47.5517 138.42 76.06 141.613C122.814 146.858 142.199 118.35 149.953 103.982C154.971 94.859 156.795 73.6489 152.462 54.0352Z" fill="#F49F00"/>
<path d="M32.0431 46.7372C31.587 50.8424 28.8502 54.0354 26.1134 53.5792C23.3766 53.3512 21.324 49.7021 22.0082 45.3688C22.4644 41.2636 25.2011 38.0707 27.9379 38.5269C30.6747 38.983 32.4993 42.632 32.0431 46.7372Z" fill="#3D3D5C"/>
<path d="M133.076 60.1929C132.62 64.2981 129.884 67.491 127.147 67.0349C124.41 66.8069 122.357 63.1578 123.042 58.8245C123.498 54.7193 126.234 51.5264 128.971 51.9825C131.708 52.4387 133.533 56.0877 133.076 60.1929Z" fill="#3D3D5C"/>
<path d="M92.4808 59.5089C91.3405 54.0353 85.4108 41.4916 72.411 42.1758C59.6393 43.0881 53.0253 51.0704 51.6569 57.0001C50.2885 62.9299 49.6044 74.1051 56.4463 75.7016C63.2883 77.298 65.7971 67.2631 71.2707 67.9473C76.9723 68.6315 79.253 76.8419 85.6388 75.9296C92.0247 75.0174 93.8492 66.5789 92.4808 59.5089Z" fill="#3D3D5C"/>
<path d="M61.6919 63.6141C58.2709 66.579 55.7622 70.4561 54.3938 74.7894C55.078 75.2455 55.7622 75.7016 56.6745 75.7016C63.5165 77.2981 66.0252 67.2632 71.4988 67.9474C77.2004 68.6316 79.4811 76.842 85.8669 75.9297C92.2528 75.0174 93.6212 66.807 92.4809 59.737C89.9721 58.3686 87.2353 57.6844 84.4986 57.2283C76.5162 56.316 67.8497 58.3686 61.6919 63.6141Z" fill="#FF2433"/>
<path d="M59.6392 116.069C61.2356 107.859 66.025 99.6487 63.0602 91.8944C62.376 89.8418 61.0076 88.0173 58.955 86.877C57.1305 85.9647 54.8498 85.9647 52.5691 86.4208C47.3236 87.5612 42.5342 91.2102 39.7974 95.9996C37.0606 100.789 35.9203 106.263 35.9203 111.736C35.9203 121.999 39.5693 132.946 47.0955 137.736C54.3937 142.525 68.7618 140.929 68.7618 140.929C63.0602 133.402 57.8146 125.192 59.6392 116.069Z" fill="#F5CE00"/>
<path d="M101.147 115.613C96.814 108.543 89.5159 102.385 89.5159 94.1748C89.5159 91.8941 90.2001 89.8415 91.5685 88.245C92.9369 86.6486 95.2175 85.9644 97.2701 85.5082C102.744 84.596 108.217 86.6486 112.551 90.0696C116.884 93.4906 119.849 98.28 121.673 103.297C125.322 113.104 125.55 124.508 120.305 131.35C115.059 138.42 101.147 141.841 101.147 141.841C103.884 132.946 105.937 123.367 101.147 115.613Z" fill="#F5CE00"/>
<path d="M59.6391 116.069C61.2356 107.859 66.025 99.6487 63.0601 91.8944C62.3759 89.8418 61.0075 88.0173 58.9549 86.877C57.1304 85.9647 54.8497 85.9647 52.5691 86.4208C49.1481 87.105 45.9551 88.9296 43.4464 91.4383C45.499 90.7541 47.5516 90.526 49.8323 90.9822C53.4813 91.8944 56.4462 94.6312 57.5865 98.0522C58.7269 101.473 58.0427 105.35 57.5865 108.999C56.6743 115.385 56.4462 121.999 58.9549 127.929C60.5514 131.578 63.0601 134.771 66.025 137.28C61.4636 130.666 58.0427 123.596 59.6391 116.069Z" fill="#F49F00"/>
<path d="M104.34 112.42C103.2 109.683 101.375 107.175 100.463 104.438C98.6385 99.6485 99.0946 93.4907 102.972 89.8417C104.568 88.4733 106.849 87.561 108.901 87.561C105.48 85.7365 101.375 84.8242 97.4982 85.5084C95.4456 85.7365 93.1649 86.6487 91.7965 88.2452C90.4281 89.8417 89.7439 92.1223 89.7439 94.1749C89.7439 102.385 97.042 108.543 101.375 115.613C103.656 119.262 104.34 123.367 104.34 127.473C105.252 122.227 105.937 117.21 104.34 112.42Z" fill="#F49F00"/>
<path d="M48.464 116.982C48.464 113.333 48.2359 109.455 45.9553 106.491C45.2711 105.578 44.3588 104.894 43.2185 104.666C42.5343 104.666 41.8501 104.894 41.1659 105.122C39.1133 106.034 37.2888 107.631 36.1484 109.683C36.1484 110.368 36.1484 111.052 36.1484 111.508C36.1484 121.771 39.7975 132.262 46.8676 137.051C48.6921 130.894 48.6921 123.824 48.464 116.982Z" fill="#F8DD4A"/>
<path d="M119.849 98.9644C118.708 98.9644 117.568 99.4205 116.656 100.105C115.287 101.245 114.831 103.298 114.831 105.122C114.831 106.947 115.515 108.771 115.972 110.596C118.024 119.034 117.568 128.157 114.831 136.367C117.112 134.999 119.165 133.402 120.533 131.578C125.778 124.508 125.55 113.104 121.901 103.526C121.217 101.701 120.533 100.333 119.849 98.9644Z" fill="#F8DD4A"/>
</svg>
