<?xml version="1.0" encoding="utf-8"?>
<!-- Generator: Adobe Illustrator 24.0.0, SVG Export Plug-In . SVG Version: 6.00 Build 0)  -->
<svg version="1.1" id="logotipo-waas" xmlns="http://www.w3.org/2000/svg" xmlns:xlink="http://www.w3.org/1999/xlink" x="0px" y="0px"
	 viewBox="0 0 209 48" style="enable-background:new 0 0 209 48;" xml:space="preserve">
<style type="text/css">
	.st0{fill:#0000FF;}
</style>
<title>logo</title>
<path class="st0" d="M84,11.7c0-1.1-0.4-2.1-1.2-2.8c-0.8-0.7-1.8-1-2.9-1c-0.9,0-1.8,0.3-2.5,0.8c-0.8,0.5-1.3,1.3-1.6,2.2
	l-7.2,20.1l-6.8-20.1c-0.5-1.8-2.2-3-4.1-3c-0.9,0-1.8,0.3-2.5,0.8C54.5,9,54,9.7,53.7,10.6l-7.2,19.7l-6.8-19.7
	c-0.3-0.9-0.9-1.7-1.7-2.2c-0.7-0.5-1.6-0.7-2.4-0.7l0,0H17.2c-0.1-0.3-0.3-0.5-0.5-0.7c-2.4-3-6.7-3.5-9.7-1.1
	c-3,2.4-3.5,6.7-1.1,9.7c2.4,3,6.7,3.5,9.7,1.1c0.7-0.5,1.3-1.2,1.7-2h14.3l9.7,26.2c0.3,0.9,1,1.7,1.8,2.2c0.9,0.5,1.9,0.8,2.9,0.8
	c1,0,2-0.2,2.8-0.8c0.8-0.5,1.5-1.3,1.8-2.2l6.8-18.6l6.5,18.6c0.3,0.9,1,1.7,1.8,2.2c1.8,1,4,1,5.8,0c0.9-0.5,1.5-1.3,1.9-2.2
	l10.1-27.2C83.8,13,84,12.3,84,11.7z M14.8,11.3c-0.1,1.9-1.6,3.3-3.4,3.3l0,0c-1.9,0-3.5-1.5-3.5-3.4c0,0,0,0,0,0l0,0
	c0-1.9,1.5-3.5,3.4-3.5c1.9,0,3.5,1.5,3.5,3.4V11.3z"/>
<path class="st0" d="M140.8,10.6c-0.4-0.9-1.1-1.6-2-2.1C138,8,137,7.7,136,7.8c-1,0-2,0.3-2.9,0.8c-0.8,0.5-1.5,1.2-1.9,2.1
	l-13.2,27.3c-0.3,0.5-0.4,1.1-0.4,1.7c0-0.6-0.2-1.2-0.4-1.8L104,10.6c-0.4-0.9-1.1-1.6-1.9-2.1c-0.8-0.5-1.8-0.8-2.8-0.8
	c-1,0-2,0.3-2.9,0.8c-0.8,0.5-1.5,1.2-1.9,2.1L81.4,37.9c-0.3,0.6-0.4,1.2-0.4,1.9c0,1.1,0.5,2.1,1.4,2.8c0.9,0.7,2,1.2,3.1,1.2
	c0.7,0,1.5-0.2,2.1-0.6c0.7-0.4,1.2-1.1,1.5-1.8l2.3-5.1h16.2l2.2,5.1c0.3,0.7,0.8,1.4,1.5,1.8c0.6,0.4,1.4,0.6,2.1,0.6
	c1.1,0,2.2-0.4,3-1.2c0.8-0.7,1.3-1.6,1.3-2.7c0,1.1,0.5,2,1.3,2.7c0.9,0.7,2,1.2,3.1,1.2c0.7,0,1.5-0.2,2.1-0.6
	c0.7-0.4,1.2-1.1,1.6-1.8l2.3-5.1h16.2l2.2,5.1c0.3,0.7,0.8,1.4,1.5,1.8c0.6,0.4,1.4,0.6,2.1,0.6c1.1,0,2.2-0.4,3-1.2
	c0.9-0.7,1.4-1.7,1.4-2.8c0-0.6-0.2-1.3-0.4-1.9L140.8,10.6z M94.4,29.3l5-11.2l5,11.2H94.4z M131.2,29.3l5-11.2l5,11.2H131.2z"/>
<path class="st0" d="M203.5,7.4c-2-3.1-6.2-4.1-9.3-2c-0.7,0.4-1.3,1-1.8,1.7c-0.2,0.2-0.3,0.5-0.5,0.7h-17.5c-0.4,0-0.7,0-1.1,0
	c-2.6,0-5.1,0.5-7.5,1.5c-2.1,0.8-3.9,2.2-5.2,4c-1.2,1.7-1.9,3.7-1.9,5.8c-0.1,1.7,0.3,3.3,1.1,4.8c1,1.5,2.3,2.6,3.9,3.4
	c2.5,1.2,5.1,2,7.8,2.5c1.9,0.3,3.7,0.8,5.4,1.6c0.8,0.3,1.4,1.1,1.4,1.9c0,1.1-0.6,2.1-1.6,2.6c-1.4,0.6-2.9,0.9-4.4,0.8
	c-1.5,0-3.1-0.1-4.6-0.5c-1.4-0.4-2.7-0.9-4-1.6c-0.5-0.3-1-0.6-1.5-0.8c-0.4-0.1-0.8-0.2-1.2-0.2c-0.8,0-1.6,0.4-2.1,1.1
	c-1,1.3-1.2,2.9-0.6,4.4c0.3,0.5,0.7,1,1.2,1.3c1.7,1.1,3.6,2,5.6,2.4c2.4,0.6,4.9,0.9,7.4,0.8c2.6,0.1,5.2-0.4,7.7-1.3
	c2.1-0.8,3.9-2.1,5.2-3.9c1.2-1.7,1.9-3.7,1.9-5.8c0-1.6-0.4-3.2-1.1-4.6c-1-1.5-2.3-2.6-3.9-3.4c-2.4-1.2-4.9-2-7.6-2.5
	c-1.5-0.3-3-0.7-4.5-1.2c-0.8-0.3-1.5-0.7-2.1-1.2c-0.4-0.4-0.6-1-0.6-1.5c0-1.1,0.6-2,1.6-2.5c1.2-0.7,2.7-1.1,4.1-1l13.3-0.1h5.2
	c1.9,3.3,6.1,4.5,9.4,2.6c3.3-1.9,4.5-6.1,2.6-9.4C203.7,7.7,203.6,7.5,203.5,7.4L203.5,7.4z M201.3,11.2c0,1.9-1.5,3.5-3.5,3.5l0,0
	c-1.9,0-3.4-1.5-3.5-3.3v-0.2c0.1-1.9,1.8-3.3,3.7-3.2C199.8,8,201.2,9.5,201.3,11.2z"/>
</svg>
