<?xml version="1.0" encoding="utf-8"?>
<!-- Generator: Adobe Illustrator 24.0.0, SVG Export Plug-In . SVG Version: 6.00 Build 0)  -->
<svg version="1.1" id="Layer_1" xmlns="http://www.w3.org/2000/svg" xmlns:xlink="http://www.w3.org/1999/xlink" x="0px" y="0px"
	 viewBox="0 0 100 100" style="enable-background:new 0 0 100 100;" xml:space="preserve">
<g>
	<path id="XMLID_5_" d="M50,57.3c-2.5,0-4.6-2-4.6-4.6v-44c0-2.5,2-4.6,4.6-4.6c2.5,0,4.6,2,4.6,4.6v44C54.6,55.3,52.5,57.3,50,57.3
		"/>
	<path id="XMLID_4_" d="M37.5,57c-2.5,0.4-4.8-1.2-5.3-3.7l-5.7-33.2c-0.4-2.5,1.2-4.8,3.7-5.3c2.5-0.4,4.8,1.2,5.3,3.7l5.7,33.2
		C41.7,54.2,40,56.6,37.5,57"/>
	<path id="XMLID_3_" d="M62.5,57c2.5,0.4,4.8-1.2,5.3-3.7l5.7-33.2c0.4-2.5-1.2-4.8-3.7-5.3c-2.5-0.4-4.8,1.2-5.3,3.7l-5.7,33.2
		C58.3,54.2,60,56.6,62.5,57"/>
	<path id="XMLID_2_" d="M56.3,84c-2.5,0-4.6-2-4.6-4.6c0-2.5,2-4.6,4.6-4.6c11.1,0,20.1-9,20.1-20.1c0-2.5,2.1-4.6,4.6-4.6
		c2.5,0,4.6,2,4.6,4.6C85.5,70.9,72.4,84,56.3,84"/>
	<path id="XMLID_1_" d="M43.7,95.8c-2.5,0-4.6-2-4.6-4.6c0-11.1-9-20.1-20.1-20.1c-2.5,0-4.6-2-4.6-4.6c0-2.5,2-4.6,4.6-4.6
		c16.1,0,29.2,13.1,29.2,29.2C48.2,93.8,46.2,95.8,43.7,95.8"/>
</g>
</svg>
