<?xml version="1.0" encoding="utf-8"?>
<!-- Generator: Adobe Illustrator 24.0.0, SVG Export Plug-In . SVG Version: 6.00 Build 0)  -->
<svg version="1.1" id="Layer_1" xmlns="http://www.w3.org/2000/svg" xmlns:xlink="http://www.w3.org/1999/xlink" x="0px" y="0px"
	 viewBox="0 0 100 100" style="enable-background:new 0 0 100 100;" xml:space="preserve">
<style type="text/css">
	.st0{fill:#231F20;}
</style>
<path class="st0" d="M28.4,45.5c-1.4,1.3-1.8,3-1.2,4.7c0.2,0.7,1.2,1.9,2.8,2.5l7.5,0.7c0.2,0,0.4,0.2,0.5,0.4
	c0.1,0.2,0.1,0.4,0,0.7l-20.5,38c-0.4,1.1-0.4,2.3,0.1,3.4c0,0.1,0.1,0.2,0.1,0.2c0.7,1.3,2.1,2.1,3.6,2.1c0.3,0,0.5,0,0.8-0.1
	c0.4-0.1,0.7-0.2,1.1-0.4c0.4-0.2,0.4-0.2,2.7-2.3c1.3-1.1,3.1-2.8,5.3-4.7c3.8-3.4,9.2-8.2,15.9-14.2c11.5-10.3,23-20.7,23-20.7
	l0.3-0.3l0.3-0.4c0.8-1.2,0.8-2.8,0.2-4.1c-0.8-1.6-2-2.3-4-2.4l-5.6-0.2c-0.2,0-0.4-0.1-0.6-0.3c-0.1-0.2-0.1-0.5,0-0.7L80.5,9.9
	l0,0c0.3-0.6,0.9-2,0.1-3.8c-0.7-1.4-2.1-2.3-3.7-2.3c-0.3,0-0.5,0-0.8,0.1C75.7,4,75.4,4.1,75,4.3c-0.4,0.2-0.4,0.2-2.7,2.2
	c-1.3,1.1-3.1,2.7-5.2,4.6c-4.3,3.8-10,8.9-15.7,13.9C51.2,25.2,28.8,45.1,28.4,45.5z M73.9,10.7c0.1-0.1,0.1-0.1,0.2-0.1L46.4,51.8
	l7.1,0.2l-0.1,0.1l4.6,0.2L23.3,90.3c0,0,0-0.1,0-0.1L45.1,50l0.1-0.2l-12.5-1c-0.3,0-0.5-0.2-0.6-0.5c-0.1-0.3,0-0.5,0.2-0.7
	C38.6,42,64.8,18.8,73.9,10.7z"/>
</svg>
