<?xml version="1.0" encoding="utf-8"?>
<!-- Generator: Adobe Illustrator 24.0.0, SVG Export Plug-In . SVG Version: 6.00 Build 0)  -->
<svg version="1.1" id="Layer_1" xmlns="http://www.w3.org/2000/svg" xmlns:xlink="http://www.w3.org/1999/xlink" x="0px" y="0px"
	 viewBox="0 0 100 100" style="enable-background:new 0 0 100 100;" xml:space="preserve">
<style type="text/css">
	.st0{fill:#DDA63A;}
	.st1{fill:#FFFFFF;}
</style>
<g>
	<rect x="-0.2" y="0.3" class="st0" width="100" height="100"/>
	<g>
		<path class="st1" d="M14.2,8.4c-3,0-4.5,1.6-4.5,4.4v2.4h3.1v-2.5c0-1.2,0.6-1.6,1.3-1.6c0.7,0,1.2,0.3,1.2,1.5v1.7
			c0,1.7-0.1,2.3-1.2,3.5l-1.9,2c-1.8,2-2.5,3.3-2.5,5.3v3.7h8.8V26h-5.6v-1c0-1.6,0.6-2.2,1.4-3.1l2.2-2.3c1.8-1.9,2.1-3.1,2.1-5.1
			v-2C18.7,9.8,17.3,8.4,14.2,8.4z"/>
		<path class="st1" d="M74.7,64.5H22.4h-0.3c-0.4,0-0.7,0.3-0.7,0.7l0,0.3c1.6,9.3,8.8,16.8,18.2,19.7v1.4c0,0,0,0,0,0c0,0,0,0,0,0
			c0,0.3,0.3,0.6,0.6,0.6c0,0,0,0,0,0c0,0,0,0,0,0h16.5c0,0,0,0,0,0c0,0,0,0,0,0c0.4,0,0.6-0.3,0.6-0.7c0,0,0,0,0,0c0,0,0,0,0,0
			v-1.6c9.3-3,16.2-10.6,17.8-19.7c0,0,0,0,0-0.1c0,0,0-0.1,0-0.1C75.3,64.8,75,64.5,74.7,64.5z"/>
		<path class="st1" d="M62.7,62.4c0.7-2.4,0.4-5.4-2.4-8.5c-4-4.4,0.1-10.2,0.1-10.3c0.5-0.7,0.2-1.5-0.6-1.9
			c-0.8-0.4-1.8-0.2-2.3,0.5c-0.2,0.3-5.3,7.6,0.1,13.5c2.5,2.7,2.3,5.1,1.6,6.7H62.7z"/>
		<path class="st1" d="M52.2,62.4c0.7-2.4,0.4-5.4-2.4-8.5c-4-4.4,0-10.2,0.1-10.3c0.5-0.7,0.2-1.5-0.6-1.9
			c-0.8-0.4-1.8-0.2-2.3,0.5c-0.2,0.3-5.3,7.6,0.1,13.5c2.5,2.7,2.3,5.1,1.6,6.7H52.2z"/>
		<path class="st1" d="M41.7,62.4c0.7-2.4,0.4-5.4-2.4-8.5c-4-4.4,0-10.2,0.1-10.3c0.5-0.7,0.2-1.5-0.6-1.9
			c-0.8-0.4-1.8-0.2-2.3,0.5c-0.2,0.3-5.3,7.6,0.1,13.5c2.5,2.7,2.3,5.1,1.6,6.7H41.7z"/>
		<polygon class="st1" points="29.7,11.4 31.1,11.4 31.1,10.3 29.7,10.3 29.7,7.9 31.6,7.9 31.6,6.8 28.4,6.8 28.4,15 29.7,15 		"/>
		<path class="st1" d="M34.4,15.1c1.5,0,2.1-0.9,2.1-2.2v-4c0-1.3-0.6-2.2-2.1-2.2c-1.4,0-2.1,0.9-2.1,2.2v4
			C32.3,14.1,32.9,15.1,34.4,15.1z M33.7,8.7c0-0.5,0.2-0.8,0.7-0.8c0.5,0,0.7,0.3,0.7,0.8v4.4c0,0.5-0.2,0.8-0.7,0.8
			c-0.5,0-0.7-0.3-0.7-0.8V8.7z"/>
		<polygon class="st1" points="38.5,9.7 38.5,9.7 39.5,15 40.2,15 41.1,9.7 41.1,9.7 41.1,15 42.4,15 42.4,6.8 40.6,6.8 39.9,11.4 
			39.8,11.4 38.9,6.8 37.3,6.8 37.3,15 38.5,15 		"/>
		<polygon class="st1" points="46.6,13.8 44.7,13.8 44.7,11.4 46,11.4 46,10.3 44.7,10.3 44.7,7.9 46.6,7.9 46.6,6.8 43.3,6.8 
			43.3,15 46.6,15 		"/>
		<polygon class="st1" points="52.2,13.8 50.1,13.8 52.3,7.9 52.3,6.8 48.9,6.8 48.9,7.9 50.8,7.9 48.7,13.8 48.7,15 52.2,15 		"/>
		<polygon class="st1" points="56.4,13.8 54.5,13.8 54.5,11.4 55.8,11.4 55.8,10.3 54.5,10.3 54.5,7.9 56.4,7.9 56.4,6.8 53.1,6.8 
			53.1,15 56.4,15 		"/>
		<path class="st1" d="M58.6,11.2l1.3,3.7h1.4L60,11.3c0.8-0.2,1.1-0.7,1.1-1.6v-1c0-1.1-0.5-1.8-1.9-1.8h-2V15h1.4V11.2z M58.6,7.9
			h0.5c0.5,0,0.7,0.2,0.7,0.7v1.2c0,0.4-0.2,0.7-0.7,0.7h-0.5V7.9z"/>
		<path class="st1" d="M64.1,15.1c1.5,0,2.1-0.9,2.1-2.2v-4c0-1.3-0.6-2.2-2.1-2.2c-1.4,0-2.1,0.9-2.1,2.2v4
			C62,14.1,62.6,15.1,64.1,15.1z M63.4,8.7c0-0.5,0.2-0.8,0.7-0.8c0.5,0,0.7,0.3,0.7,0.8v4.4c0,0.5-0.2,0.8-0.7,0.8
			c-0.5,0-0.7-0.3-0.7-0.8V8.7z"/>
		<polygon class="st1" points="31.6,25.2 29.7,25.2 29.7,22.7 31.1,22.7 31.1,21.6 29.7,21.6 29.7,19.3 31.6,19.3 31.6,18.1 
			28.3,18.1 28.3,26.3 31.6,26.3 		"/>
		<path class="st1" d="M33.6,26.3h1.3l0.2-1.5h1.5l0.3,1.5h1.4l-1.6-8.2h-1.6L33.6,26.3z M35.9,20.4L35.9,20.4l0.6,3.3h-1.1
			L35.9,20.4z"/>
		<path class="st1" d="M39,20.3v4c0,1.3,0.5,2.2,1.7,2.2c0.7,0,1.1-0.4,1.3-1v0.9h1V22h-2V23h0.7v1.4c0,0.5-0.2,0.8-0.7,0.8
			c-0.5,0-0.7-0.3-0.7-0.8V20c0-0.5,0.2-0.8,0.7-0.8c0.5,0,0.7,0.3,0.7,0.8v0.8H43v-0.7c0-1.2-0.4-2-2-2C39.6,18.1,39,19,39,20.3z"
			/>
		<path class="st1" d="M43.9,18.1v8.2h1.4v-3.7l1.3,3.7H48l-1.3-3.7c0.8-0.2,1.1-0.7,1.1-1.6v-1c0-1.1-0.5-1.8-1.9-1.8H43.9z
			 M46.4,19.9v1.2c0,0.4-0.2,0.7-0.7,0.7h-0.5v-2.5h0.5C46.2,19.3,46.4,19.5,46.4,19.9z"/>
		<rect x="48.7" y="18.1" class="st1" width="1.4" height="8.2"/>
		<path class="st1" d="M51,20.3v4c0,1.3,0.6,2.2,2,2.2c1.5,0,1.9-0.9,1.9-2V23h-1.3v1.5c0,0.5-0.2,0.8-0.7,0.8
			c-0.5,0-0.7-0.3-0.7-0.8V20c0-0.5,0.2-0.8,0.7-0.8c0.5,0,0.7,0.3,0.7,0.8v1.1H55v-1c0-1.2-0.4-2-1.9-2C51.6,18.1,51,19,51,20.3z"
			/>
		<path class="st1" d="M55.8,18.1v6.2c0,1.3,0.6,2.1,2,2.1c1.4,0,1.9-0.8,1.9-2.1v-6.2h-1.3v6.3c0,0.5-0.2,0.8-0.7,0.8
			s-0.7-0.3-0.7-0.8v-6.3H55.8z"/>
		<polygon class="st1" points="60.7,18.1 60.7,26.3 63.7,26.3 63.7,25.2 62.1,25.2 62.1,18.1 		"/>
		<polygon class="st1" points="64.3,19.3 65.5,19.3 65.5,26.3 66.9,26.3 66.9,19.3 68,19.3 68,18.1 64.3,18.1 		"/>
		<path class="st1" d="M70.8,26.4c1.4,0,1.9-0.8,1.9-2.1v-6.2h-1.3v6.3c0,0.5-0.2,0.8-0.7,0.8s-0.7-0.3-0.7-0.8v-6.3h-1.4v6.2
			C68.7,25.6,69.4,26.4,70.8,26.4z"/>
		<path class="st1" d="M77.5,21v-1c0-1.1-0.5-1.8-1.9-1.8h-2v8.2H75v-3.7l1.3,3.7h1.4l-1.3-3.7C77.2,22.4,77.5,21.9,77.5,21z
			 M76.2,21.1c0,0.4-0.2,0.7-0.7,0.7H75v-2.5h0.5c0.5,0,0.7,0.2,0.7,0.7V21.1z"/>
		<path class="st1" d="M81.3,18.1h-1.6l-1.5,8.2h1.3l0.2-1.5h1.5l0.3,1.5h1.4L81.3,18.1z M79.9,23.7l0.5-3.3h0l0.5,3.3H79.9z"/>
		<path class="st1" d="M30.2,37.6c1.4,0,2-0.8,2-1.9v-0.4c0-0.9-0.4-1.4-1.1-2.1l-0.9-0.9c-0.4-0.4-0.7-0.7-0.7-1.1V31
			c0-0.5,0.3-0.7,0.7-0.7c0.4,0,0.7,0.2,0.7,0.7v0.7h1.3v-0.7c0-1.2-0.5-1.9-1.9-1.9c-1.3,0-1.9,0.8-1.9,1.8v0.3
			c0,0.9,0.4,1.4,1.1,2.2l0.8,0.8c0.4,0.4,0.6,0.7,0.6,1.2v0.3c0,0.4-0.2,0.7-0.6,0.7c-0.5,0-0.7-0.3-0.7-0.7v-1.1h-1.3v1.1
			C28.3,36.8,28.8,37.6,30.2,37.6z"/>
		<path class="st1" d="M33.1,29.3v6.2c0,1.3,0.6,2.1,2,2.1c1.4,0,1.9-0.8,1.9-2.1v-6.2h-1.3v6.3c0,0.5-0.2,0.8-0.7,0.8
			c-0.5,0-0.7-0.3-0.7-0.8v-6.3H33.1z"/>
		<path class="st1" d="M37.9,34.6v1.1c0,1.1,0.5,1.9,1.9,1.9c1.4,0,2-0.8,2-1.9v-0.4c0-0.9-0.4-1.4-1.1-2.1l-0.9-0.9
			c-0.4-0.4-0.7-0.7-0.7-1.1V31c0-0.5,0.3-0.7,0.7-0.7c0.4,0,0.7,0.2,0.7,0.7v0.7h1.3v-0.7c0-1.2-0.5-1.9-1.9-1.9
			c-1.3,0-1.9,0.8-1.9,1.8v0.3c0,0.9,0.4,1.4,1.1,2.2l0.8,0.8c0.4,0.4,0.6,0.7,0.6,1.2v0.3c0,0.4-0.2,0.7-0.6,0.7
			c-0.5,0-0.7-0.3-0.7-0.7v-1.1H37.9z"/>
		<polygon class="st1" points="45,37.5 45,30.5 46.2,30.5 46.2,29.3 42.5,29.3 42.5,30.5 43.6,30.5 43.6,37.5 		"/>
		<polygon class="st1" points="46.9,37.5 50.2,37.5 50.2,36.4 48.3,36.4 48.3,33.9 49.7,33.9 49.7,32.8 48.3,32.8 48.3,30.5 
			50.2,30.5 50.2,29.3 46.9,29.3 		"/>
		<polygon class="st1" points="55,37.5 55,29.3 53.9,29.3 53.9,34 52.4,29.3 51.1,29.3 51.1,37.5 52.2,37.5 52.2,32.4 53.8,37.5 		
			"/>
		<polygon class="st1" points="58.3,37.5 58.3,30.5 59.4,30.5 59.4,29.3 55.8,29.3 55.8,30.5 56.9,30.5 56.9,37.5 		"/>
		<path class="st1" d="M63.2,37.5h1.4l-1.6-8.2h-1.6L60,37.5h1.3l0.2-1.5H63L63.2,37.5z M61.7,34.9l0.5-3.3h0l0.5,3.3H61.7z"/>
		<polygon class="st1" points="63.4,28.8 63.4,27.8 61.3,28.3 61.3,29 		"/>
		<polygon class="st1" points="67.5,35 66.5,29.3 65.1,29.3 66.7,37.5 68.2,37.5 69.7,29.3 68.4,29.3 67.5,35 		"/>
		<polygon class="st1" points="73.7,30.5 73.7,29.3 70.4,29.3 70.4,37.5 73.7,37.5 73.7,36.4 71.8,36.4 71.8,33.9 73.1,33.9 
			73.1,32.8 71.8,32.8 71.8,30.5 		"/>
		<polygon class="st1" points="75.9,29.3 74.5,29.3 74.5,37.5 77.6,37.5 77.6,36.4 75.9,36.4 		"/>
	</g>
</g>
</svg>
