<?xml version="1.0" encoding="utf-8"?>
<!-- Generator: Adobe Illustrator 24.0.0, SVG Export Plug-In . SVG Version: 6.00 Build 0)  -->
<svg version="1.1" id="Layer_1" xmlns="http://www.w3.org/2000/svg" xmlns:xlink="http://www.w3.org/1999/xlink" x="0px" y="0px"
	 viewBox="0 0 100 100" style="enable-background:new 0 0 100 100;" xml:space="preserve">
<style type="text/css">
	.st0{fill:#FFFFFF;}
	.st1{fill:#DC1768;}
</style>
<g>
	<polygon class="st0" points="7.4,11.8 7.4,15.3 7.4,15.3 9.8,12.8 9.8,12.8 9.8,28.3 13.2,28.3 13.2,8.1 10.5,8.1 	"/>
	<path class="st0" d="M20.6,7.9c-3.4,0-5,2.3-5,5.4v9.8c0,3.1,1.6,5.4,5,5.4c3.5,0,5-2.3,5-5.4v-9.8C25.6,10.2,24,7.9,20.6,7.9z
		 M22.2,23.6c0,1.2-0.4,2.1-1.6,2.1c-1.2,0-1.6-0.9-1.6-2.1V12.8c0-1.2,0.4-2.1,1.6-2.1c1.2,0,1.6,0.9,1.6,2.1V23.6z"/>
	<path class="st0" d="M36,11V10c0-1.2-0.5-1.9-1.9-1.9h-2v8.3h1.4v-3.8l1.3,3.8h1.5l-1.3-3.8C35.7,12.4,36,11.9,36,11z M34.6,11.1
		c0,0.4-0.2,0.7-0.7,0.7h-0.5V9.2h0.5c0.5,0,0.7,0.2,0.7,0.7V11.1z"/>
	<polygon class="st0" points="40.2,15.3 38.3,15.3 38.3,12.7 39.7,12.7 39.7,11.6 38.3,11.6 38.3,9.2 40.2,9.2 40.2,8.1 36.9,8.1 
		36.9,16.4 40.2,16.4 	"/>
	<path class="st0" d="M43.3,8.1h-2.2v8.3h2.2c1.5,0,2-1,2-2.2v-3.8C45.3,9,44.8,8.1,43.3,8.1z M43.9,14.4c0,0.5-0.2,0.8-0.8,0.8
		h-0.6v-6h0.6c0.6,0,0.8,0.3,0.8,0.8V14.4z"/>
	<path class="st0" d="M50.3,14.4V8.1H49v6.4c0,0.5-0.2,0.8-0.7,0.8c-0.5,0-0.7-0.3-0.7-0.8V8.1h-1.4v6.3c0,1.3,0.6,2.1,2.1,2.1
		C49.7,16.5,50.3,15.7,50.3,14.4z"/>
	<path class="st0" d="M52.7,17.2v0.4c0.9,0,1.2-0.2,1.2-0.6c0-0.3-0.2-0.4-0.5-0.4v-0.1c1.4,0,1.8-0.9,1.8-2.1V13h-1.3v1.5
		c0,0.5-0.2,0.8-0.7,0.8s-0.7-0.4-0.7-0.9V10c0-0.5,0.2-0.9,0.7-0.9s0.7,0.3,0.7,0.8v1.1h1.3v-1c0-1.2-0.4-2.1-2-2.1
		c-1.5,0-2.1,0.9-2.1,2.2v4c0,1.2,0.5,2.1,1.7,2.2v0.5h0.1c0.1,0,0.2,0,0.2,0.1C53.1,17.1,53,17.2,52.7,17.2z"/>
	<path class="st0" d="M57.8,7.6c0.2,0,0.5,0.2,0.8,0.2c0.6,0,0.8-0.5,0.9-1h-0.7c0,0.1-0.1,0.2-0.2,0.2c-0.2,0-0.5-0.2-0.8-0.2
		c-0.6,0-0.8,0.5-0.9,1h0.7C57.7,7.6,57.7,7.6,57.8,7.6z"/>
	<path class="st0" d="M59.2,16.4h1.4L59,8.1h-1.6l-1.6,8.3h1.3l0.2-1.5h1.5L59.2,16.4z M57.6,13.8l0.6-3.3h0l0.6,3.3H57.6z"/>
	<path class="st0" d="M65.5,14.3v-4c0-1.3-0.6-2.2-2.1-2.2c-1.5,0-2.1,0.9-2.1,2.2v4c0,1.3,0.6,2.2,2.1,2.2
		C64.9,16.5,65.5,15.5,65.5,14.3z M64.1,14.5c0,0.5-0.2,0.9-0.7,0.9c-0.5,0-0.7-0.4-0.7-0.9V10c0-0.5,0.2-0.9,0.7-0.9
		c0.5,0,0.7,0.4,0.7,0.9V14.5z"/>
	<path class="st0" d="M70,8.1h-2.2v8.3H70c1.5,0,2-1,2-2.2v-3.8C72,9,71.5,8.1,70,8.1z M70.6,14.4c0,0.5-0.2,0.8-0.8,0.8h-0.6v-6
		h0.6c0.6,0,0.8,0.3,0.8,0.8V14.4z"/>
	<path class="st0" d="M74.3,8.1l-1.6,8.3h1.3l0.2-1.5h1.5l0.3,1.5h1.4l-1.6-8.3H74.3z M74.5,13.8l0.6-3.3h0l0.6,3.3H74.5z"/>
	<path class="st0" d="M80.1,11.1c-0.4-0.4-0.7-0.7-0.7-1.1V9.8c0-0.5,0.3-0.7,0.7-0.7c0.4,0,0.7,0.2,0.7,0.7v0.7H82V9.9
		C82,8.7,81.5,8,80.1,8c-1.4,0-2,0.8-2,1.8v0.3c0,1,0.4,1.4,1.2,2.2l0.8,0.8c0.4,0.4,0.6,0.7,0.6,1.2v0.3c0,0.4-0.2,0.7-0.6,0.7
		c-0.5,0-0.7-0.3-0.7-0.7v-1.1h-1.3v1.1c0,1.1,0.6,1.9,2,1.9c1.4,0,2-0.8,2-1.9v-0.4c0-0.9-0.4-1.4-1.1-2.2L80.1,11.1z"/>
	<path class="st0" d="M34.2,20h-2.2v8.3h2.2c1.5,0,2-1,2-2.2v-3.8C36.3,20.9,35.7,20,34.2,20z M34.9,26.3c0,0.5-0.2,0.8-0.8,0.8
		h-0.6v-6h0.6c0.6,0,0.8,0.3,0.8,0.8V26.3z"/>
	<polygon class="st0" points="37.2,28.3 40.5,28.3 40.5,27.1 38.5,27.1 38.5,24.6 39.9,24.6 39.9,23.5 38.5,23.5 38.5,21.1 
		40.5,21.1 40.5,20 37.2,20 	"/>
	<path class="st0" d="M43.2,23c-0.4-0.4-0.7-0.7-0.7-1.1v-0.2c0-0.5,0.3-0.7,0.7-0.7c0.4,0,0.7,0.2,0.7,0.7v0.7h1.3v-0.7
		c0-1.2-0.6-1.9-1.9-1.9c-1.4,0-2,0.8-2,1.8V22c0,1,0.4,1.4,1.2,2.2l0.8,0.8c0.4,0.4,0.6,0.7,0.6,1.2v0.3c0,0.4-0.2,0.7-0.6,0.7
		c-0.5,0-0.7-0.3-0.7-0.7v-1.1h-1.3v1.1c0,1.1,0.6,1.9,2,1.9s2-0.8,2-1.9V26c0-0.9-0.4-1.4-1.1-2.2L43.2,23z"/>
	<rect x="46.1" y="20" class="st0" width="1.4" height="8.3"/>
	<path class="st0" d="M50.5,19.9c-1.5,0-2.1,0.9-2.1,2.2v4c0,1.3,0.6,2.2,1.7,2.2c0.8,0,1.2-0.4,1.3-1v0.9h1v-4.4h-2v1.1h0.7v1.5
		c0,0.5-0.2,0.8-0.7,0.8c-0.5,0-0.7-0.4-0.7-0.9v-4.5c0-0.5,0.2-0.9,0.7-0.9c0.5,0,0.7,0.3,0.7,0.8v0.8h1.3V22
		C52.5,20.7,52,19.9,50.5,19.9z"/>
	<path class="st0" d="M56.1,26.4c0,0.5-0.2,0.8-0.7,0.8c-0.5,0-0.7-0.3-0.7-0.8V20h-1.4v6.3c0,1.3,0.6,2.1,2.1,2.1
		c1.4,0,2-0.8,2-2.1V20h-1.3V26.4z"/>
	<path class="st0" d="M59.7,20l-1.6,8.3h1.3l0.2-1.5h1.5l0.3,1.5h1.4L61.2,20H59.7z M59.8,25.6l0.6-3.3h0l0.6,3.3H59.8z"/>
	<polygon class="st0" points="64.9,20 63.5,20 63.5,28.3 66.6,28.3 66.6,27.1 64.9,27.1 	"/>
	<path class="st0" d="M69.4,20h-2.2v8.3h2.2c1.5,0,2-1,2-2.2v-3.8C71.5,20.9,70.9,20,69.4,20z M70.1,26.3c0,0.5-0.2,0.8-0.8,0.8
		h-0.6v-6h0.6c0.6,0,0.8,0.3,0.8,0.8V26.3z"/>
	<path class="st0" d="M73.7,20l-1.6,8.3h1.3l0.2-1.5h1.5l0.3,1.5h1.4L75.3,20H73.7z M73.9,25.6l0.6-3.3h0l0.6,3.3H73.9z"/>
	<path class="st0" d="M79.7,20h-2.2v8.3h2.2c1.5,0,2-1,2-2.2v-3.8C81.7,20.9,81.2,20,79.7,20z M80.3,26.3c0,0.5-0.2,0.8-0.8,0.8
		h-0.6v-6h0.6c0.6,0,0.8,0.3,0.8,0.8V26.3z"/>
	<polygon class="st0" points="82.6,28.3 85.9,28.3 85.9,27.1 84,27.1 84,24.6 85.4,24.6 85.4,23.5 84,23.5 84,21.1 85.9,21.1 
		85.9,20 82.6,20 	"/>
	<path class="st0" d="M89.6,23.9L88.7,23c-0.4-0.4-0.7-0.7-0.7-1.1v-0.2c0-0.5,0.3-0.7,0.7-0.7c0.4,0,0.7,0.2,0.7,0.7v0.7h1.3v-0.7
		c0-1.2-0.6-1.9-1.9-1.9c-1.4,0-2,0.8-2,1.8V22c0,1,0.4,1.4,1.2,2.2l0.8,0.8c0.4,0.4,0.6,0.7,0.6,1.2v0.3c0,0.4-0.2,0.7-0.6,0.7
		c-0.5,0-0.7-0.3-0.7-0.7v-1.1h-1.3v1.1c0,1.1,0.6,1.9,2,1.9c1.4,0,2-0.8,2-1.9V26C90.7,25.1,90.3,24.6,89.6,23.9z"/>
</g>
<g>
	<rect x="0.3" y="-0.2" class="st1" width="100" height="99.9"/>
	<g>
		<polygon class="st0" points="7.5,11.8 7.5,15.4 7.5,15.4 9.9,12.9 9.9,12.9 9.9,28.3 13.3,28.3 13.3,8.2 10.6,8.2 		"/>
		<path class="st0" d="M25.7,23.1v-9.8c0-3.2-1.6-5.4-5-5.4c-3.4,0-5,2.3-5,5.4v9.8c0,3.1,1.6,5.4,5,5.4
			C24.1,28.6,25.7,26.3,25.7,23.1z M22.3,23.7c0,1.2-0.4,2.1-1.6,2.1c-1.2,0-1.6-0.9-1.6-2.1V12.8c0-1.2,0.4-2.1,1.6-2.1
			c1.2,0,1.6,0.9,1.6,2.1V23.7z"/>
		<path class="st0" d="M36.2,11.1V10c0-1.2-0.5-1.9-1.9-1.9h-2v8.3h1.4v-3.8l1.3,3.8h1.5L35,12.7C35.8,12.5,36.2,12,36.2,11.1z
			 M34.8,11.2c0,0.4-0.2,0.7-0.7,0.7h-0.5V9.3h0.5c0.5,0,0.7,0.2,0.7,0.7V11.2z"/>
		<polygon class="st0" points="40.4,15.3 38.4,15.3 38.4,12.8 39.8,12.8 39.8,11.7 38.4,11.7 38.4,9.3 40.4,9.3 40.4,8.2 37,8.2 
			37,16.5 40.4,16.5 		"/>
		<path class="st0" d="M45.4,14.2v-3.8c0-1.3-0.5-2.2-2-2.2h-2.2v8.3h2.2C44.9,16.5,45.4,15.5,45.4,14.2z M42.6,15.3v-6h0.6
			c0.6,0,0.8,0.3,0.8,0.8v4.3c0,0.5-0.2,0.8-0.8,0.8H42.6z"/>
		<path class="st0" d="M48.4,16.6c1.4,0,2-0.8,2-2.1V8.2h-1.3v6.4c0,0.5-0.2,0.8-0.7,0.8c-0.5,0-0.7-0.3-0.7-0.8V8.2h-1.4v6.3
			C46.3,15.7,46.9,16.6,48.4,16.6z"/>
		<path class="st0" d="M53,16.5V17H53c0.1,0,0.2,0,0.2,0.1c0,0.1-0.1,0.2-0.5,0.2v0.4c0.9,0,1.2-0.2,1.2-0.6c0-0.3-0.2-0.4-0.5-0.4
			v-0.1c1.4,0,1.8-0.9,1.8-2.1v-1.4h-1.3v1.5c0,0.5-0.2,0.8-0.7,0.8c-0.5,0-0.7-0.4-0.7-0.9v-4.5c0-0.5,0.2-0.9,0.7-0.9
			c0.5,0,0.7,0.3,0.7,0.8v1.1h1.3v-1c0-1.2-0.4-2.1-2-2.1c-1.5,0-2.1,0.9-2.1,2.2v4C51.3,15.5,51.8,16.4,53,16.5z"/>
		<path class="st0" d="M58,7.6c0.2,0,0.5,0.2,0.8,0.2c0.6,0,0.8-0.5,0.9-1H59C59,6.9,58.9,7,58.8,7c-0.2,0-0.5-0.2-0.8-0.2
			c-0.6,0-0.8,0.5-0.9,1h0.7C57.8,7.7,57.9,7.6,58,7.6z"/>
		<path class="st0" d="M57.6,14.9h1.5l0.3,1.5h1.4l-1.6-8.3h-1.6L56,16.5h1.3L57.6,14.9z M58.3,10.5L58.3,10.5l0.6,3.3h-1.1
			L58.3,10.5z"/>
		<path class="st0" d="M65.7,14.3v-4c0-1.3-0.6-2.2-2.1-2.2c-1.5,0-2.1,0.9-2.1,2.2v4c0,1.3,0.6,2.2,2.1,2.2
			C65,16.6,65.7,15.6,65.7,14.3z M64.3,14.5c0,0.5-0.2,0.9-0.7,0.9c-0.5,0-0.7-0.4-0.7-0.9v-4.5c0-0.5,0.2-0.9,0.7-0.9
			c0.5,0,0.7,0.4,0.7,0.9V14.5z"/>
		<path class="st0" d="M72.2,14.2v-3.8c0-1.3-0.5-2.2-2-2.2H68v8.3h2.2C71.6,16.5,72.2,15.5,72.2,14.2z M69.4,15.3v-6H70
			c0.6,0,0.8,0.3,0.8,0.8v4.3c0,0.5-0.2,0.8-0.8,0.8H69.4z"/>
		<path class="st0" d="M74.4,8.2l-1.6,8.3h1.3l0.2-1.5h1.5l0.3,1.5h1.4L76,8.2H74.4z M74.6,13.8l0.6-3.3h0l0.6,3.3H74.6z"/>
		<path class="st0" d="M80.2,11.2c-0.4-0.4-0.7-0.7-0.7-1.1V9.9c0-0.5,0.3-0.7,0.7-0.7c0.4,0,0.7,0.2,0.7,0.7v0.7h1.3V9.9
			c0-1.2-0.6-1.9-1.9-1.9c-1.4,0-2,0.8-2,1.8v0.3c0,1,0.4,1.4,1.2,2.2l0.8,0.8c0.4,0.4,0.6,0.7,0.6,1.2v0.3c0,0.4-0.2,0.7-0.6,0.7
			c-0.5,0-0.7-0.3-0.7-0.7v-1.1h-1.3v1.1c0,1.1,0.6,1.9,2,1.9c1.4,0,2-0.8,2-1.9v-0.4c0-0.9-0.4-1.4-1.1-2.2L80.2,11.2z"/>
		<path class="st0" d="M34.4,20h-2.2v8.3h2.2c1.5,0,2-1,2-2.2v-3.8C36.4,21,35.9,20,34.4,20z M35,26.4c0,0.5-0.2,0.8-0.8,0.8h-0.6
			v-6h0.6c0.6,0,0.8,0.3,0.8,0.8V26.4z"/>
		<polygon class="st0" points="40.6,27.2 38.7,27.2 38.7,24.7 40.1,24.7 40.1,23.6 38.7,23.6 38.7,21.2 40.6,21.2 40.6,20 37.3,20 
			37.3,28.3 40.6,28.3 		"/>
		<path class="st0" d="M41.4,25.4v1.1c0,1.1,0.6,1.9,2,1.9c1.4,0,2-0.8,2-1.9v-0.4c0-0.9-0.4-1.4-1.1-2.2l-0.9-0.9
			c-0.4-0.4-0.7-0.7-0.7-1.1v-0.2c0-0.5,0.3-0.7,0.7-0.7c0.4,0,0.7,0.2,0.7,0.7v0.7h1.3v-0.7c0-1.2-0.6-1.9-1.9-1.9
			c-1.4,0-2,0.8-2,1.8V22c0,1,0.4,1.4,1.2,2.2l0.8,0.8c0.4,0.4,0.6,0.7,0.6,1.2v0.3c0,0.4-0.2,0.7-0.6,0.7c-0.5,0-0.7-0.3-0.7-0.7
			v-1.1H41.4z"/>
		<rect x="46.2" y="20" class="st0" width="1.4" height="8.3"/>
		<path class="st0" d="M48.5,22.2v4c0,1.3,0.6,2.2,1.8,2.2c0.8,0,1.2-0.4,1.3-1v0.9h1v-4.4h-2V25h0.7v1.5c0,0.5-0.2,0.8-0.7,0.8
			c-0.5,0-0.7-0.4-0.7-0.9V22c0-0.5,0.2-0.9,0.7-0.9c0.5,0,0.7,0.3,0.7,0.8v0.8h1.3V22c0-1.2-0.5-2.1-2-2.1
			C49.1,19.9,48.5,20.9,48.5,22.2z"/>
		<path class="st0" d="M54.9,26.5V20h-1.4v6.3c0,1.3,0.6,2.1,2.1,2.1c1.4,0,2-0.8,2-2.1V20h-1.3v6.4c0,0.5-0.2,0.8-0.7,0.8
			C55.1,27.3,54.9,26.9,54.9,26.5z"/>
		<path class="st0" d="M59.8,20l-1.6,8.3h1.3l0.2-1.5h1.5l0.3,1.5H63L61.4,20H59.8z M60,25.7l0.6-3.3h0l0.6,3.3H60z"/>
		<polygon class="st0" points="66.7,27.2 65,27.2 65,20 63.6,20 63.6,28.3 66.7,28.3 		"/>
		<path class="st0" d="M71.6,26.1v-3.8c0-1.3-0.5-2.2-2-2.2h-2.2v8.3h2.2C71.1,28.3,71.6,27.4,71.6,26.1z M68.8,27.2v-6h0.6
			c0.6,0,0.8,0.3,0.8,0.8v4.3c0,0.5-0.2,0.8-0.8,0.8H68.8z"/>
		<path class="st0" d="M73.8,20l-1.6,8.3h1.3l0.2-1.5h1.5l0.3,1.5H77L75.4,20H73.8z M74,25.7l0.6-3.3h0l0.6,3.3H74z"/>
		<path class="st0" d="M79.8,20h-2.2v8.3h2.2c1.5,0,2-1,2-2.2v-3.8C81.9,21,81.3,20,79.8,20z M80.5,26.4c0,0.5-0.2,0.8-0.8,0.8h-0.6
			v-6h0.6c0.6,0,0.8,0.3,0.8,0.8V26.4z"/>
		<polygon class="st0" points="82.7,28.3 86.1,28.3 86.1,27.2 84.1,27.2 84.1,24.7 85.5,24.7 85.5,23.6 84.1,23.6 84.1,21.2 
			86.1,21.2 86.1,20 82.7,20 		"/>
		<path class="st0" d="M89.7,23.9l-0.9-0.9c-0.4-0.4-0.7-0.7-0.7-1.1v-0.2c0-0.5,0.3-0.7,0.7-0.7c0.4,0,0.7,0.2,0.7,0.7v0.7h1.3
			v-0.7c0-1.2-0.6-1.9-1.9-1.9c-1.4,0-2,0.8-2,1.8V22c0,1,0.4,1.4,1.2,2.2l0.8,0.8c0.4,0.4,0.6,0.7,0.6,1.2v0.3
			c0,0.4-0.2,0.7-0.6,0.7c-0.5,0-0.7-0.3-0.7-0.7v-1.1h-1.3v1.1c0,1.1,0.6,1.9,2,1.9c1.4,0,2-0.8,2-1.9v-0.4
			C90.9,25.2,90.5,24.7,89.7,23.9z"/>
		<polygon class="st0" points="66.1,72.1 75.2,62.9 66.1,53.7 		"/>
		<polygon class="st0" points="32.9,72.1 32.9,53.7 23.7,62.9 		"/>
		<polygon class="st0" points="58.8,46.8 49.7,37.6 40.5,46.8 		"/>
		<polygon class="st0" points="50.5,88.7 59.6,79.6 41.3,79.6 		"/>
		<rect x="39.7" y="54.5" class="st0" width="19.9" height="5.4"/>
		<rect x="39.7" y="66.3" class="st0" width="19.9" height="5.4"/>
	</g>
</g>
</svg>
