<?xml version="1.0" encoding="utf-8"?>
<!-- Generator: Adobe Illustrator 24.0.0, SVG Export Plug-In . SVG Version: 6.00 Build 0)  -->
<svg version="1.1" id="Layer_1" xmlns="http://www.w3.org/2000/svg" xmlns:xlink="http://www.w3.org/1999/xlink" x="0px" y="0px"
	 viewBox="0 0 100 100" style="enable-background:new 0 0 100 100;" xml:space="preserve">
<style type="text/css">
	.st0{fill:#56C02B;}
	.st1{fill:#FFFFFF;}
</style>
<g>
	<rect y="0" class="st0" width="100" height="100"/>
	<g>
		<polygon class="st1" points="7.3,12 7.3,15.6 7.4,15.6 9.7,13.1 9.8,13.1 9.8,28.5 13.2,28.5 13.2,8.4 10.4,8.4 		"/>
		<path class="st1" d="M21.2,14.8c-1.3,0-2.3,0.5-2.9,1.4h0v-5h5.8V8.4h-8.9v11.4h3.1v-0.4c0-1.2,0.5-1.8,1.5-1.8
			c1,0,1.5,0.7,1.5,1.8v4.9c0,1.1-0.4,1.8-1.4,1.8c-1.2,0-1.6-0.8-1.6-2v-2.5h-3.1v2.3c0,3.1,1.2,5,4.7,5c3.4,0,4.8-1.8,4.8-4.6
			v-4.9C24.7,16,23,14.8,21.2,14.8z"/>
		<path class="st1" d="M38.5,67.6c-0.1,0-0.2,0.1-0.2,0.2v7.3c0,0.1,0.1,0.2,0.2,0.2h2.9c0.1,0,0.2-0.1,0.2-0.2v-7.3
			c0-0.1-0.1-0.2-0.2-0.2H38.5z"/>
		<path class="st1" d="M73.8,78.5H25.2c-0.1,0-0.2,0.1-0.2,0.2v3c0,0.1,0.1,0.2,0.2,0.2h48.6c0.1,0,0.2-0.1,0.2-0.2v-3
			C74,78.6,73.9,78.5,73.8,78.5z"/>
		<path class="st1" d="M73.8,84.4H25.2c-0.1,0-0.2,0.1-0.2,0.2v3c0,0.1,0.1,0.2,0.2,0.2h48.6c0.1,0,0.2-0.1,0.2-0.2v-3
			C74,84.5,73.9,84.4,73.8,84.4z"/>
		<path class="st1" d="M64.5,59.6c-0.6-0.5-2.2-1.6-4.2-1.6c-1.4,0-2.7,0.6-3.9,1.7c-0.1,0.1-0.1,0.2-0.1,0.3v0.3
			c0,0.1,0,0.3,0.1,0.3c0.1,0.1,0.2,0.1,0.3,0.1c0,0,0.1,0,0.1,0c0.1,0,0.2-0.1,0.2-0.2c0.3-0.2,1-0.4,1.9-0.4c1,0,3.1,0.3,5,2.1
			l0,0c0.1,0.1,0.3,0.2,0.4,0.2c0.2,0,0.3-0.1,0.4-0.2l0,0c2-1.8,4-2.1,5-2.1c1,0,1.7,0.2,1.9,0.4c0.1,0.1,0.2,0.1,0.3,0.2
			c0,0,0.2,0,0.3,0c0.2-0.1,0.3-0.2,0.3-0.4V60c0-0.1,0-0.2-0.1-0.3c-1.2-1.1-2.5-1.7-3.9-1.7C66.8,58,65.2,59.1,64.5,59.6z"/>
		<path class="st1" d="M61.3,40.6c0,0.1,0,0.3,0.1,0.4c0.1,0.1,0.2,0.2,0.3,0.2c0,0,0,0,0.1,0c0.1,0,0.2,0,0.2-0.1c0,0,0.1,0,0.3,0
			c0.2,0,2.2,0.1,3.5,2.3l0,0c0.1,0.1,0.2,0.2,0.3,0.2c0,0,0.1,0,0.2,0c0.1,0,0.2,0,0.2-0.1l0,0c0.7-0.4,1.4-0.5,2.2-0.5
			c1.2,0,2,0.5,2.2,0.7c0,0.1,0.1,0.1,0.2,0.2c0,0,0.1,0.1,0.2,0.1c0,0,0,0,0.1,0c0,0,0,0,0,0c0.1,0,0.1,0,0.2,0
			c0.1-0.1,0.2-0.1,0.2-0.2l0-0.1c0,0,0-0.1,0-0.1c0-0.1,0-0.1-0.1-0.2c-0.9-1.6-2.3-2-3.3-2c-0.7,0-1.4,0.2-1.7,0.3
			c-0.4-0.6-1.6-1.8-3.3-1.8c-0.6,0-1.2,0.2-1.8,0.5c-0.1,0-0.2,0.1-0.2,0.3L61.3,40.6z"/>
		<path class="st1" d="M57.8,49.2c0.1,0.1,0.2,0.1,0.4,0.1h0c0.2,0,0.3-0.1,0.4-0.2l0,0c1.6-1.7,3.4-2,4.3-2c0.6,0,1.1,0.1,1.3,0.2
			c0.1,0.1,0.1,0.1,0.3,0.1c0,0,0.1,0,0.2,0c0,0,0.1,0,0.1,0c0.2-0.1,0.3-0.2,0.3-0.4l0-0.2c0-0.1-0.1-0.2-0.1-0.3
			c-1-0.8-2-1.2-3.1-1.2c-1.7,0-3.1,1-3.6,1.5c-0.5-0.4-1.8-1.1-3.2-1.1c-1.3,0-2.5,0.5-3.4,1.6c-0.1,0.1-0.1,0.2-0.1,0.3l0,0.2
			c0,0.1,0.1,0.3,0.2,0.3c0.1,0.1,0.2,0.1,0.3,0c0,0,0.1,0,0.1,0c0.1,0,0.2-0.1,0.2-0.2c0.2-0.1,0.9-0.4,1.9-0.4
			C54.9,47.7,56.3,47.9,57.8,49.2L57.8,49.2z"/>
		<path class="st1" d="M29.3,56.1c-1,1-1.5,2.4-1.5,3.9c0,3.1,2.5,5.6,5.6,5.6c0,0,10.3,0.1,10.6,0.1c4.4,0,8-3.6,8-8
			c0-3.8-2.7-7-6.2-7.8c0.5-0.9,0.7-2,0.7-3.1c0-3.9-3.2-7.1-7.1-7.1c-3.8,0-6.8,2.9-7.1,6.6c-0.1,0-0.2,0-0.3,0
			c-2.9,0-5.3,2.4-5.3,5.3C26.7,53.5,27.8,55.2,29.3,56.1z"/>
		<polygon class="st1" points="34.8,16.5 36.4,8.4 35.1,8.4 34.1,14.1 34.1,14.1 33.2,8.4 31.8,8.4 33.3,16.5 		"/>
		<rect x="37.1" y="8.4" class="st1" width="1.4" height="8.2"/>
		<path class="st1" d="M43.5,14.4v-3.8c0-1.3-0.5-2.2-2-2.2h-2.1v8.2h2.1C42.9,16.5,43.5,15.6,43.5,14.4z M40.7,15.4V9.5h0.6
			c0.6,0,0.8,0.3,0.8,0.8v4.3c0,0.5-0.2,0.8-0.8,0.8H40.7z"/>
		<path class="st1" d="M45.7,15h1.5l0.3,1.5h1.4l-1.6-8.2h-1.6l-1.5,8.2h1.3L45.7,15z M46.4,10.7L46.4,10.7L47,14h-1.1L46.4,10.7z"
			/>
		<polygon class="st1" points="34.3,28.6 34.3,21.5 35.5,21.5 35.5,20.4 31.8,20.4 31.8,21.5 32.9,21.5 32.9,28.6 		"/>
		<polygon class="st1" points="39.3,21.5 39.3,20.4 36.1,20.4 36.1,28.6 39.3,28.6 39.3,27.4 37.4,27.4 37.4,24.9 38.8,24.9 
			38.8,23.8 37.4,23.8 37.4,21.5 		"/>
		<path class="st1" d="M40.1,20.4v8.2h1.4v-3.7l1.3,3.7h1.4l-1.3-3.7c0.8-0.2,1.1-0.7,1.1-1.6v-1c0-1.1-0.5-1.8-1.9-1.8H40.1z
			 M42.6,22.2v1.2c0,0.4-0.2,0.7-0.7,0.7h-0.5v-2.5h0.5C42.4,21.5,42.6,21.7,42.6,22.2z"/>
		<path class="st1" d="M48.6,23.3v-1c0-1.1-0.5-1.8-1.9-1.8h-2v8.2h1.4v-3.7l1.3,3.7h1.4l-1.3-3.7C48.3,24.7,48.6,24.1,48.6,23.3z
			 M47.2,23.4c0,0.4-0.2,0.7-0.7,0.7h-0.5v-2.5h0.5c0.5,0,0.7,0.2,0.7,0.7V23.4z"/>
		<polygon class="st1" points="52.6,27.4 50.7,27.4 50.7,24.9 52,24.9 52,23.8 50.7,23.8 50.7,21.5 52.6,21.5 52.6,20.4 49.3,20.4 
			49.3,28.6 52.6,28.6 		"/>
		<path class="st1" d="M55.2,28.6c1.4,0,2-0.8,2-1.9v-0.4c0-0.9-0.4-1.4-1.1-2.1l-0.9-0.9c-0.4-0.4-0.7-0.7-0.7-1.1v-0.2
			c0-0.5,0.3-0.7,0.7-0.7c0.4,0,0.7,0.2,0.7,0.7v0.7h1.3v-0.7c0-1.2-0.5-1.9-1.9-1.9c-1.3,0-1.9,0.8-1.9,1.8v0.3
			c0,0.9,0.4,1.4,1.1,2.2l0.8,0.8c0.4,0.4,0.6,0.7,0.6,1.2v0.3c0,0.4-0.2,0.7-0.6,0.7c-0.5,0-0.7-0.3-0.7-0.7v-1.1h-1.3v1.1
			C53.2,27.9,53.8,28.6,55.2,28.6z"/>
		<polygon class="st1" points="58.8,28.6 60.2,28.6 60.2,21.5 61.3,21.5 61.3,20.4 57.7,20.4 57.7,21.5 58.8,21.5 		"/>
		<path class="st1" d="M63.3,24.8l1.3,3.7h1.4l-1.3-3.7c0.8-0.2,1.1-0.7,1.1-1.6v-1c0-1.1-0.5-1.8-1.9-1.8h-2v8.2h1.4V24.8z
			 M63.3,21.5h0.5c0.5,0,0.7,0.2,0.7,0.7v1.2c0,0.4-0.2,0.7-0.7,0.7h-0.5V21.5z"/>
		<polygon class="st1" points="69.9,27.4 68,27.4 68,24.9 69.3,24.9 69.3,23.8 68,23.8 68,21.5 69.9,21.5 69.9,20.4 66.6,20.4 
			66.6,28.6 69.9,28.6 		"/>
	</g>
</g>
</svg>
