<?xml version="1.0" encoding="utf-8"?>
<!-- Generator: Adobe Illustrator 24.0.0, SVG Export Plug-In . SVG Version: 6.00 Build 0)  -->
<svg version="1.1" id="Layer_1" xmlns="http://www.w3.org/2000/svg" xmlns:xlink="http://www.w3.org/1999/xlink" x="0px" y="0px"
	 viewBox="0 0 100 100" style="enable-background:new 0 0 100 100;" xml:space="preserve">
<style type="text/css">
	.st0{fill:#26BDE2;}
	.st1{fill:#FFFFFF;}
</style>
<rect x="0.3" y="-0.2" class="st0" width="100" height="100"/>
<g>
	<path class="st1" d="M16.7,15.6c-1.4,0-2.3,0.7-2.8,1.6h0v-4.3c0-1.2,0.4-2.1,1.6-2.1c1.2,0,1.6,0.7,1.6,2v1.3h3.1V13
		c0-3-1-5.1-4.7-5.1c-3.6,0-4.9,2.3-4.9,5.4v9.8c0,3.1,1.4,5.4,4.9,5.4c3.6,0,5-2,5-5.1v-3C20.5,17.3,19.1,15.6,16.7,15.6z
		 M17.1,23.8c0,1.3-0.5,2-1.6,2c-1.1,0-1.6-0.8-1.6-2v-3.7c0.1-1.1,0.5-1.8,1.6-1.8c1.2,0,1.6,0.7,1.6,2V23.8z"/>
	<path class="st1" d="M68.4,40.1H32.1c-0.1,0-0.2,0.1-0.3,0.1c-0.1,0.1-0.1,0.2-0.1,0.3l6.1,36.9c0,0.2,0.2,0.4,0.4,0.4h7.5l0.5,6
		l-3.1,0l7.3,7.3l7.3-7.3l-3.1,0l0.5-6h7.6c0.2,0,0.4-0.2,0.4-0.4l5.7-36.9c0-0.1,0-0.2-0.1-0.3C68.7,40.2,68.5,40.1,68.4,40.1z
		 M54.7,69.8c0,0-1.6,1.7-4.3,1.5c-2.7,0.2-4.3-1.5-4.3-1.5c-2.7-2.7-1.7-6.1-0.8-7.8c0.6-1.1,4.8-7.4,5.1-7.9v0c0,0,0,0,0,0l0,0v0
		c0.3,0.5,4.5,6.8,5.1,7.9C56.5,63.7,57.4,67,54.7,69.8z M66.2,48c-1-0.4-2.2-0.3-3.4,0.2c-4.5,1.8-7.6,2.5-12.3,1
		c-3-0.9-5.8-2.9-9.1-1.7c-2.2,0.8-4.2,1.5-6.7,1.5l-1.4-7.3h34L66.2,48z"/>
	<polygon class="st1" points="32.3,27.2 30.4,27.2 30.4,24.7 31.7,24.7 31.7,23.6 30.4,23.6 30.4,21.3 32.3,21.3 32.3,20.2 29,20.2 
		29,28.3 32.3,28.3 	"/>
	<path class="st1" d="M34.2,25.5v1.1c0,1.1,0.5,1.9,1.9,1.9c1.4,0,2-0.8,2-1.9v-0.4c0-0.9-0.4-1.4-1.1-2.1l-0.9-0.9
		c-0.4-0.4-0.7-0.7-0.7-1.1v-0.2c0-0.5,0.3-0.7,0.7-0.7c0.4,0,0.7,0.2,0.7,0.7v0.7h1.3v-0.7c0-1.2-0.5-1.9-1.9-1.9
		c-1.3,0-1.9,0.8-1.9,1.8v0.3c0,0.9,0.4,1.4,1.1,2.2l0.8,0.8c0.4,0.4,0.6,0.7,0.6,1.2v0.3c0,0.4-0.2,0.7-0.6,0.7
		c-0.5,0-0.7-0.3-0.7-0.7v-1.1H34.2z"/>
	<path class="st1" d="M40.2,26.8h1.5l0.3,1.5h1.4l-1.6-8.2h-1.6l-1.5,8.2H40L40.2,26.8z M40.9,22.5L40.9,22.5l0.6,3.3h-1.1
		L40.9,22.5z"/>
	<polygon class="st1" points="46.7,24.9 45.2,20.2 43.9,20.2 43.9,28.3 45,28.3 45,23.2 46.7,28.3 47.9,28.3 47.9,20.2 46.7,20.2 	
		"/>
	<polygon class="st1" points="51.9,27.2 50,27.2 50,24.7 51.4,24.7 51.4,23.6 50,23.6 50,21.3 51.9,21.3 51.9,20.2 48.6,20.2 
		48.6,28.3 51.9,28.3 	"/>
	<path class="st1" d="M54,20.2l-1.5,8.2h1.3l0.2-1.5h1.5l0.3,1.5h1.4l-1.6-8.2H54z M54.2,25.8l0.5-3.3h0l0.5,3.3H54.2z"/>
	<polygon class="st1" points="62.7,28.3 62.7,20.2 61,20.2 60.2,24.8 60.2,24.8 59.3,20.2 57.7,20.2 57.7,28.3 58.8,28.3 58.8,23 
		58.8,23 59.9,28.3 60.5,28.3 61.4,23 61.5,23 61.5,28.3 	"/>
	<polygon class="st1" points="66.8,21.3 66.8,20.2 63.5,20.2 63.5,28.3 66.8,28.3 66.8,27.2 64.9,27.2 64.9,24.7 66.2,24.7 
		66.2,23.6 64.9,23.6 64.9,21.3 	"/>
	<polygon class="st1" points="70.3,24.9 68.9,20.2 67.5,20.2 67.5,28.3 68.7,28.3 68.7,23.2 70.3,28.3 71.5,28.3 71.5,20.2 
		70.3,20.2 	"/>
	<polygon class="st1" points="72.1,21.3 73.3,21.3 73.3,28.3 74.6,28.3 74.6,21.3 75.8,21.3 75.8,20.2 72.1,20.2 	"/>
	<path class="st1" d="M78.5,20.1c-1.4,0-2.1,0.9-2.1,2.2v4c0,1.3,0.6,2.2,2.1,2.2c1.5,0,2.1-0.9,2.1-2.2v-4
		C80.6,21,79.9,20.1,78.5,20.1z M79.2,26.4c0,0.5-0.2,0.8-0.7,0.8c-0.5,0-0.7-0.3-0.7-0.8v-4.4c0-0.5,0.2-0.8,0.7-0.8
		c0.5,0,0.7,0.3,0.7,0.8V26.4z"/>
	<polygon class="st1" points="32.2,6.6 30,7 30,7.8 32.2,7.5 	"/>
	<path class="st1" d="M30.3,14.8h1.5l0.3,1.5h1.4l-1.6-8.2h-1.6l-1.5,8.2H30L30.3,14.8z M31,10.4L31,10.4l0.6,3.3h-1.1L31,10.4z"/>
	<path class="st1" d="M35.8,16.4c0.7,0,1.1-0.4,1.3-1v0.9h1v-4.4h-2V13h0.7v1.4c0,0.5-0.2,0.8-0.7,0.8c-0.5,0-0.7-0.3-0.7-0.8V10
		c0-0.5,0.2-0.8,0.7-0.8c0.5,0,0.7,0.3,0.7,0.8v0.8h1.3v-0.7c0-1.2-0.4-2-2-2c-1.4,0-2.1,0.9-2.1,2.2v4
		C34.1,15.4,34.6,16.4,35.8,16.4z"/>
	<path class="st1" d="M41.1,16.4c1.4,0,1.9-0.8,1.9-2.1V8.1h-1.3v6.3c0,0.5-0.2,0.8-0.7,0.8c-0.5,0-0.7-0.3-0.7-0.8V8.1H39v6.2
		C39,15.6,39.6,16.4,41.1,16.4z"/>
	<path class="st1" d="M45.2,14.8h1.5l0.3,1.5h1.4l-1.6-8.2h-1.6l-1.5,8.2H45L45.2,14.8z M45.9,10.4L45.9,10.4l0.6,3.3h-1.1
		L45.9,10.4z"/>
	<path class="st1" d="M51.8,13.5h0.7c1.4,0,1.9-0.7,1.9-1.8V9.9c0-1.1-0.5-1.8-1.9-1.8h-2v8.2h1.4V13.5z M51.8,9.2h0.5
		c0.5,0,0.7,0.2,0.7,0.7v1.9c0,0.4-0.2,0.7-0.7,0.7h-0.5V9.2z"/>
	<path class="st1" d="M57.3,16.4c1.5,0,2.1-0.9,2.1-2.2v-4c0-1.3-0.6-2.2-2.1-2.2c-1.4,0-2.1,0.9-2.1,2.2v4
		C55.2,15.4,55.8,16.4,57.3,16.4z M56.6,10c0-0.5,0.2-0.8,0.7-0.8c0.5,0,0.7,0.3,0.7,0.8v4.4c0,0.5-0.2,0.8-0.7,0.8
		c-0.5,0-0.7-0.3-0.7-0.8V10z"/>
	<polygon class="st1" points="61.2,16.3 62.6,16.3 62.6,9.2 63.7,9.2 63.7,8.1 60.1,8.1 60.1,9.2 61.2,9.2 	"/>
	<polygon class="st1" points="67.7,6.6 65.6,7 65.6,7.8 67.7,7.5 	"/>
	<path class="st1" d="M65.8,14.8h1.5l0.3,1.5h1.4l-1.6-8.2h-1.6l-1.5,8.2h1.3L65.8,14.8z M66.6,10.4L66.6,10.4l0.6,3.3H66L66.6,10.4
		z"/>
	<polygon class="st1" points="72.5,16.3 74,8.1 72.7,8.1 71.8,13.8 71.8,13.8 70.8,8.1 69.4,8.1 71,16.3 	"/>
	<polygon class="st1" points="78,15.2 76.1,15.2 76.1,12.7 77.5,12.7 77.5,11.6 76.1,11.6 76.1,9.2 78,9.2 78,8.1 74.7,8.1 
		74.7,16.3 78,16.3 	"/>
	<polygon class="st1" points="80.2,15.2 80.2,8.1 78.9,8.1 78.9,16.3 81.9,16.3 81.9,15.2 	"/>
</g>
</svg>
