<?xml version="1.0" encoding="utf-8"?>
<!-- Generator: Adobe Illustrator 24.0.0, SVG Export Plug-In . SVG Version: 6.00 Build 0)  -->
<svg version="1.1" id="Layer_1" xmlns="http://www.w3.org/2000/svg" xmlns:xlink="http://www.w3.org/1999/xlink" x="0px" y="0px"
	 viewBox="0 0 100 100" style="enable-background:new 0 0 100 100;" xml:space="preserve">
<style type="text/css">
	.st0{fill:#19486A;}
	.st1{fill:#FFFFFF;}
</style>
<g>
	<rect y="0" class="st0" width="100" height="100"/>
	<g>
		<polygon class="st1" points="9.1,12 9.1,15.6 9.2,15.6 11.5,13.1 11.6,13.1 11.6,28.5 15,28.5 15,8.4 12.3,8.4 		"/>
		<polygon class="st1" points="16.5,11.1 21.7,11.1 17.2,28.5 20.6,28.5 25,11.5 25,8.4 16.5,8.4 		"/>
		<path class="st1" d="M62.9,47.6c-1.8-5.1-6.6-8.7-12.3-8.7c-5.7,0-10.5,3.6-12.3,8.7c-7,0.3-12.5,6-12.5,13c0,4.2,2,7.9,5,10.3
			c-0.3,1.1-0.5,2.4-0.5,3.6c0,7.2,5.8,13,13,13c2.7,0,5.3-0.8,7.4-2.3c2.1,1.4,4.6,2.2,7.2,2.2c7.2,0,13-5.8,13-13
			c0-1.2-0.2-2.4-0.5-3.5c3-2.4,5-6.1,5-10.3C75.4,53.6,69.8,47.9,62.9,47.6z M61,52c0,5.2-3.9,9.5-8.9,10.3
			C52,61.7,52,61.2,52,60.6c0-5.2,3.9-9.5,8.9-10.3C60.9,50.9,61,51.4,61,52z M57.9,64c4.1,0,7.6,2.4,9.3,5.8
			c-1.4,0.8-3.1,1.2-4.8,1.2c-4.1,0-7.6-2.4-9.3-5.8C54.5,64.5,56.1,64,57.9,64z M50.6,41.6c4.3,0,7.9,2.6,9.5,6.3
			c-4.2,0.7-7.8,3.5-9.5,7.3c-1.8-3.8-5.3-6.6-9.5-7.3C42.7,44.1,46.3,41.6,50.6,41.6z M40.3,50.4c5,0.7,8.9,5.1,8.9,10.3
			c0,0.5-0.1,1.1-0.1,1.6c-5-0.7-8.9-5.1-8.9-10.3C40.2,51.4,40.2,50.9,40.3,50.4z M48.1,65.3c-1.7,3.4-5.2,5.7-9.3,5.7
			c-1.7,0-3.3-0.4-4.8-1.2c1.7-3.4,5.2-5.7,9.3-5.7C45,64.1,46.6,64.6,48.1,65.3z M28.4,60.6c0-5.4,4.1-9.8,9.3-10.3
			c-0.1,0.5-0.1,1.1-0.1,1.7c0,3.8,1.6,7.2,4.3,9.6c-4.3,0.5-8,3.1-10,6.8C29.7,66.5,28.4,63.7,28.4,60.6z M43.3,84.9
			c-5.7,0-10.4-4.7-10.4-10.4c0-0.7,0.1-1.5,0.2-2.2c1.7,0.8,3.6,1.3,5.7,1.3c2.3,0,4.4-0.6,6.3-1.6c-0.1,0.8-0.2,1.6-0.2,2.4
			c0,3.5,1.4,6.7,3.7,9.1C47,84.4,45.2,84.9,43.3,84.9z M50.6,81.9c-1.9-1.9-3.2-4.5-3.2-7.4c0-2.9,1.2-5.5,3.1-7.4
			c1.9,1.9,3.2,4.5,3.2,7.5C53.7,77.4,52.5,80,50.6,81.9z M57.9,84.8c-1.9,0-3.6-0.5-5.1-1.4c2.2-2.3,3.6-5.5,3.6-8.9
			c0-0.9-0.1-1.7-0.2-2.5c1.9,1,4,1.6,6.3,1.6c2,0,4-0.5,5.7-1.3c0.1,0.7,0.2,1.4,0.2,2.1C68.3,80.2,63.6,84.8,57.9,84.8z
			 M69.4,68.3c-2-3.7-5.6-6.3-9.9-6.8c2.6-2.4,4.2-5.8,4.2-9.5c0-0.6,0-1.1-0.1-1.7c5.2,0.6,9.3,5,9.3,10.3
			C72.8,63.7,71.5,66.4,69.4,68.3z"/>
		<path class="st1" d="M30.8,13.8h0.7c1.4,0,1.9-0.7,1.9-1.8v-1.7c0-1.1-0.5-1.8-1.9-1.8h-2v8.2h1.4V13.8z M30.8,9.5h0.5
			c0.5,0,0.7,0.2,0.7,0.7V12c0,0.4-0.2,0.7-0.7,0.7h-0.5V9.5z"/>
		<path class="st1" d="M35.1,15h1.5l0.3,1.5h1.4l-1.6-8.2h-1.6l-1.5,8.2h1.3L35.1,15z M35.8,10.7L35.8,10.7l0.6,3.3h-1.1L35.8,10.7z
			"/>
		<path class="st1" d="M39.8,12.8l1.3,3.7h1.4l-1.3-3.7c0.8-0.2,1.1-0.7,1.1-1.6v-1c0-1.1-0.5-1.8-1.9-1.8h-2v8.2h1.4V12.8z
			 M39.8,9.5h0.5c0.5,0,0.7,0.2,0.7,0.7v1.2c0,0.4-0.2,0.7-0.7,0.7h-0.5V9.5z"/>
		<path class="st1" d="M44.8,16.6c1.5,0,1.9-0.9,1.9-2v-1.4h-1.3v1.5c0,0.5-0.2,0.8-0.7,0.8c-0.5,0-0.7-0.3-0.7-0.8v-4.4
			c0-0.5,0.2-0.8,0.7-0.8c0.5,0,0.7,0.3,0.7,0.8v1.1h1.3v-1c0-1.2-0.4-2-1.9-2c-1.4,0-2,0.9-2,2.2v4C42.8,15.7,43.4,16.6,44.8,16.6z
			"/>
		<polygon class="st1" points="50.5,15.4 48.6,15.4 48.6,12.9 50,12.9 50,11.8 48.6,11.8 48.6,9.5 50.5,9.5 50.5,8.4 47.2,8.4 
			47.2,16.5 50.5,16.5 		"/>
		<path class="st1" d="M52.3,12.8l1.3,3.7H55l-1.3-3.7c0.8-0.2,1.1-0.7,1.1-1.6v-1c0-1.1-0.5-1.8-1.9-1.8h-2v8.2h1.4V12.8z
			 M52.3,9.5h0.5c0.5,0,0.7,0.2,0.7,0.7v1.2c0,0.4-0.2,0.7-0.7,0.7h-0.5V9.5z"/>
		<rect x="55.2" y="8.4" class="st1" width="1.4" height="8.2"/>
		<path class="st1" d="M58.4,15h1.5l0.3,1.5h1.4L60,8.4h-1.6l-1.5,8.2h1.3L58.4,15z M59.2,10.7L59.2,10.7l0.6,3.3h-1.1L59.2,10.7z"
			/>
		<path class="st1" d="M63.7,16.6c1.4,0,2-0.8,2-1.9v-0.4c0-0.9-0.4-1.4-1.1-2.1l-0.9-0.9C63.3,11,63,10.7,63,10.2v-0.2
			c0-0.5,0.3-0.7,0.7-0.7c0.4,0,0.7,0.2,0.7,0.7v0.7h1.3v-0.7c0-1.2-0.5-1.9-1.9-1.9c-1.3,0-1.9,0.8-1.9,1.8v0.3
			c0,0.9,0.4,1.4,1.1,2.2l0.8,0.8c0.4,0.4,0.6,0.7,0.6,1.2v0.3c0,0.4-0.2,0.7-0.6,0.7c-0.5,0-0.7-0.3-0.7-0.7v-1.1h-1.3v1.1
			C61.7,15.9,62.3,16.6,63.7,16.6z"/>
		<polygon class="st1" points="70.3,15.4 68.4,15.4 68.4,12.9 69.8,12.9 69.8,11.8 68.4,11.8 68.4,9.5 70.3,9.5 70.3,8.4 67,8.4 
			67,16.5 70.3,16.5 		"/>
		<polygon class="st1" points="72.8,11.2 72.8,11.2 73.9,16.5 74.5,16.5 75.4,11.2 75.5,11.2 75.5,16.5 76.7,16.5 76.7,8.4 75,8.4 
			74.2,13 74.2,13 73.3,8.4 71.7,8.4 71.7,16.5 72.8,16.5 		"/>
		<polygon class="st1" points="80.5,15.4 78.6,15.4 78.6,12.9 79.9,12.9 79.9,11.8 78.6,11.8 78.6,9.5 80.5,9.5 80.5,8.4 77.2,8.4 
			77.2,16.5 80.5,16.5 		"/>
		<rect x="80.9" y="8.4" class="st1" width="1.4" height="8.2"/>
		<path class="st1" d="M84.8,8.3c-1.4,0-2.1,0.9-2.1,2.2v4c0,1.3,0.6,2.2,2.1,2.2c1.5,0,2.1-0.9,2.1-2.2v-4
			C86.9,9.2,86.3,8.3,84.8,8.3z M85.5,14.7c0,0.5-0.2,0.8-0.7,0.8c-0.5,0-0.7-0.3-0.7-0.8v-4.4c0-0.5,0.2-0.8,0.7-0.8
			c0.5,0,0.7,0.3,0.7,0.8V14.7z"/>
		<path class="st1" d="M89.3,16.6c1.4,0,2-0.8,2-1.9v-0.4c0-0.9-0.4-1.4-1.1-2.1l-0.9-0.9c-0.4-0.4-0.7-0.7-0.7-1.1v-0.2
			c0-0.5,0.3-0.7,0.7-0.7c0.4,0,0.7,0.2,0.7,0.7v0.7h1.3v-0.7c0-1.2-0.5-1.9-1.9-1.9c-1.3,0-1.9,0.8-1.9,1.8v0.3
			c0,0.9,0.4,1.4,1.1,2.2l0.8,0.8c0.4,0.4,0.6,0.7,0.6,1.2v0.3c0,0.4-0.2,0.7-0.6,0.7c-0.5,0-0.7-0.3-0.7-0.7v-1.1h-1.3v1.1
			C87.3,15.9,87.9,16.6,89.3,16.6z"/>
		<path class="st1" d="M31.6,20.2h-2.2v8.3h2.2c1.5,0,2-1,2-2.2v-3.8C33.6,21.2,33.1,20.2,31.6,20.2z M32.2,26.6
			c0,0.5-0.2,0.8-0.8,0.8h-0.6v-6h0.6c0.6,0,0.8,0.3,0.8,0.8V26.6z"/>
		<polygon class="st1" points="37.6,21.4 37.6,20.2 34.3,20.2 34.3,28.5 37.6,28.5 37.6,27.4 35.7,27.4 35.7,24.9 37.1,24.9 
			37.1,23.8 35.7,23.8 35.7,21.4 		"/>
		<rect x="39.4" y="20.2" class="st1" width="1.4" height="8.3"/>
		<polygon class="st1" points="46.6,28.5 46.6,20.2 44.8,20.2 44,24.9 44,24.9 43.1,20.2 41.4,20.2 41.4,28.5 42.6,28.5 42.6,23.2 
			42.6,23.2 43.7,28.5 44.3,28.5 45.2,23.2 45.3,23.2 45.3,28.5 		"/>
		<path class="st1" d="M47.2,20.2v8.3h1.4v-2.8h0.7c1.4,0,1.9-0.7,1.9-1.9v-1.8c0-1.2-0.5-1.9-1.9-1.9H47.2z M49.8,22.1V24
			c0,0.5-0.2,0.7-0.7,0.7h-0.5v-3.3h0.5C49.6,21.4,49.8,21.6,49.8,22.1z"/>
		<polygon class="st1" points="51.8,20.2 51.8,28.5 54.9,28.5 54.9,27.4 53.2,27.4 53.2,20.2 		"/>
		<polygon class="st1" points="58.7,21.4 58.7,20.2 55.4,20.2 55.4,28.5 58.7,28.5 58.7,27.4 56.8,27.4 56.8,24.9 58.1,24.9 
			58.1,23.8 56.8,23.8 56.8,21.4 		"/>
		<polygon class="st1" points="64.4,28.5 64.4,20.2 62.7,20.2 61.8,24.9 61.8,24.9 60.9,20.2 59.3,20.2 59.3,28.5 60.5,28.5 
			60.5,23.2 60.5,23.2 61.5,28.5 62.2,28.5 63.1,23.2 63.1,23.2 63.1,28.5 		"/>
		<polygon class="st1" points="68.4,21.4 68.4,20.2 65.1,20.2 65.1,28.5 68.4,28.5 68.4,27.4 66.5,27.4 66.5,24.9 67.9,24.9 
			67.9,23.8 66.5,23.8 66.5,21.4 		"/>
		<polygon class="st1" points="69,28.5 70.2,28.5 70.2,23.3 71.8,28.5 73.1,28.5 73.1,20.2 71.9,20.2 71.9,25 70.4,20.2 69,20.2 		
			"/>
		<polygon class="st1" points="73.6,21.4 74.7,21.4 74.7,28.5 76.1,28.5 76.1,21.4 77.3,21.4 77.3,20.2 73.6,20.2 		"/>
		<path class="st1" d="M79.1,20.2l-1.6,8.3h1.3l0.2-1.5h1.5l0.3,1.5h1.4l-1.6-8.3H79.1z M79.3,25.9l0.6-3.3h0l0.6,3.3H79.3z"/>
		<path class="st1" d="M84.8,20.1c-1.5,0-2.1,0.9-2.1,2.2v4c0,1.2,0.5,2.1,1.7,2.2v0.5h0.1c0.1,0,0.2,0,0.2,0.1
			c0,0.1-0.1,0.2-0.5,0.2v0.4c0.9,0,1.2-0.2,1.2-0.6c0-0.3-0.2-0.4-0.5-0.4v-0.1c1.4,0,1.8-0.9,1.8-2.1v-1.4h-1.3v1.5
			c0,0.5-0.2,0.8-0.7,0.8c-0.5,0-0.7-0.4-0.7-0.9v-4.5c0-0.5,0.2-0.9,0.7-0.9c0.5,0,0.7,0.3,0.7,0.8v1.1h1.3v-1
			C86.8,21,86.4,20.1,84.8,20.1z"/>
		<path class="st1" d="M90,19.1c-0.2,0-0.5-0.2-0.8-0.2c-0.6,0-0.8,0.5-0.9,1H89c0-0.1,0.1-0.2,0.2-0.2c0.2,0,0.5,0.2,0.8,0.2
			c0.6,0,0.8-0.5,0.9-1h-0.7C90.2,19,90.1,19.1,90,19.1z"/>
		<path class="st1" d="M88.8,20.2l-1.6,8.3h1.3l0.2-1.5h1.5l0.3,1.5h1.4l-1.6-8.3H88.8z M89,25.9l0.6-3.3h0l0.6,3.3H89z"/>
		<path class="st1" d="M94.5,20.1c-1.5,0-2.1,0.9-2.1,2.2v4c0,1.3,0.6,2.2,2.1,2.2c1.5,0,2.1-1,2.1-2.2v-4
			C96.6,21.1,96,20.1,94.5,20.1z M95.2,26.6c0,0.5-0.2,0.9-0.7,0.9c-0.5,0-0.7-0.4-0.7-0.9v-4.5c0-0.5,0.2-0.9,0.7-0.9
			c0.5,0,0.7,0.4,0.7,0.9V26.6z"/>
	</g>
</g>
</svg>
