<?xml version="1.0" encoding="utf-8"?>
<!-- Generator: Adobe Illustrator 24.0.0, SVG Export Plug-In . SVG Version: 6.00 Build 0)  -->
<svg version="1.1" id="Layer_1" xmlns="http://www.w3.org/2000/svg" xmlns:xlink="http://www.w3.org/1999/xlink" x="0px" y="0px"
	 viewBox="0 0 100 100" style="enable-background:new 0 0 100 100;" xml:space="preserve">
<style type="text/css">
	.st0{fill:#FF3A21;}
	.st1{fill:#FFFFFF;}
</style>
<rect x="0.3" y="-0.2" class="st0" width="100" height="100"/>
<g>
	<path class="st1" d="M16.3,14.6c-1.3,0-2.3,0.5-2.9,1.4h0v-5h5.8V8.2h-8.9v11.4h3.1v-0.4c0-1.2,0.5-1.8,1.5-1.8
		c1,0,1.5,0.7,1.5,1.8v4.9c0,1.1-0.4,1.8-1.4,1.8c-1.2,0-1.6-0.8-1.6-2v-2.5h-3.1v2.3c0,3.1,1.2,5,4.7,5c3.4,0,4.8-1.8,4.8-4.6V19
		C19.7,15.9,18.1,14.6,16.3,14.6z"/>
	<path class="st1" d="M73.2,37.6H60.7c-0.1,0-0.2,0.1-0.2,0.2v4.1c0,0.1,0.1,0.2,0.2,0.2h4.9l-5.5,5.5c-2.8-2.2-6.3-3.5-10-3.5
		c-9,0-16.3,7.3-16.3,16.3c0,8.3,6.2,15.1,14.2,16.1v4.8h-4.9c-0.1,0-0.2,0.1-0.2,0.2v4.4c0,0.1,0.1,0.2,0.2,0.2h4.9v4.7
		c0,0.1,0.1,0.2,0.2,0.2h4.4c0.1,0,0.2-0.1,0.2-0.2V86h4.9c0.1,0,0.2-0.1,0.2-0.2v-4.4c0-0.1-0.1-0.2-0.2-0.2h-4.9v-4.8
		c7.7-1.3,13.6-8,13.6-16.1c0-3.5-1.1-6.7-3-9.4l5.4-5.4v4.6c0,0.1,0.1,0.2,0.2,0.2h4.1c0.1,0,0.2-0.1,0.2-0.2V37.8
		C73.3,37.7,73.3,37.6,73.2,37.6z M50.2,72.4c-6.6,0-12-5.4-12-12c0-6.6,5.4-12,12-12c6.6,0,12,5.4,12,12
		C62.1,67,56.8,72.4,50.2,72.4z"/>
	<path class="st1" d="M57.5,55.5H42.9c-0.1,0-0.2,0.1-0.2,0.1v3.5c0,0.1,0.1,0.1,0.2,0.1h14.5c0.1,0,0.2-0.1,0.2-0.1v-3.5
		C57.6,55.5,57.6,55.5,57.5,55.5z"/>
	<path class="st1" d="M57.5,61.8H42.9c-0.1,0-0.2,0.1-0.2,0.1v3.5c0,0.1,0.1,0.1,0.2,0.1h14.5c0.1,0,0.2-0.1,0.2-0.1v-3.5
		C57.6,61.8,57.6,61.8,57.5,61.8z"/>
	<path class="st1" d="M31,20.2h-2.1v8.2H31c1.5,0,2-0.9,2-2.2v-3.8C33,21.1,32.5,20.2,31,20.2z M31.6,26.4c0,0.5-0.2,0.8-0.8,0.8
		h-0.6v-5.9h0.6c0.6,0,0.8,0.3,0.8,0.8V26.4z"/>
	<polygon class="st1" points="37.2,21.3 37.2,20.2 33.9,20.2 33.9,28.3 37.2,28.3 37.2,27.2 35.3,27.2 35.3,24.7 36.6,24.7 
		36.6,23.6 35.3,23.6 35.3,21.3 	"/>
	<path class="st1" d="M43.4,22.8v-0.7c0-1.2-0.4-2-2-2c-1.4,0-2.1,0.9-2.1,2.2v4c0,1.3,0.5,2.2,1.7,2.2c0.7,0,1.1-0.4,1.3-1v0.9h1
		V24h-2v1.1h0.7v1.4c0,0.5-0.2,0.8-0.7,0.8c-0.5,0-0.7-0.3-0.7-0.8v-4.4c0-0.5,0.2-0.8,0.7-0.8s0.7,0.3,0.7,0.8v0.8H43.4z"/>
	<polygon class="st1" points="47.5,21.3 47.5,20.2 44.3,20.2 44.3,28.3 47.5,28.3 47.5,27.2 45.6,27.2 45.6,24.7 47,24.7 47,23.6 
		45.6,23.6 45.6,21.3 	"/>
	<polygon class="st1" points="44.8,19.9 46,19.5 47.2,19.9 47.2,19.2 46.3,18.6 45.7,18.6 44.8,19.2 	"/>
	<polygon class="st1" points="48.4,28.3 49.5,28.3 49.5,23.2 51.1,28.3 52.4,28.3 52.4,20.2 51.2,20.2 51.2,24.9 49.7,20.2 
		48.4,20.2 	"/>
	<polygon class="st1" points="56.5,21.3 56.5,20.2 53.2,20.2 53.2,28.3 56.5,28.3 56.5,27.2 54.6,27.2 54.6,24.7 56,24.7 56,23.6 
		54.6,23.6 54.6,21.3 	"/>
	<path class="st1" d="M61.2,23.1v-1c0-1.1-0.5-1.8-1.9-1.8h-2v8.2h1.4v-3.7l1.3,3.7h1.4l-1.3-3.7C60.9,24.4,61.2,23.9,61.2,23.1z
		 M59.8,23.2c0,0.4-0.2,0.7-0.7,0.7h-0.5v-2.5h0.5c0.5,0,0.7,0.2,0.7,0.7V23.2z"/>
	<path class="st1" d="M62.1,22.3v4c0,1.3,0.6,2.2,2.1,2.2c1.5,0,2.1-0.9,2.1-2.2v-4c0-1.3-0.6-2.2-2.1-2.2
		C62.7,20.1,62.1,21,62.1,22.3z M64.9,22.1v4.4c0,0.5-0.2,0.8-0.7,0.8c-0.5,0-0.7-0.3-0.7-0.8v-4.4c0-0.5,0.2-0.8,0.7-0.8
		C64.6,21.2,64.9,21.6,64.9,22.1z"/>
	<rect x="28.9" y="8.2" class="st1" width="1.4" height="8.2"/>
	<path class="st1" d="M34.2,16.4h1V12h-2v1.1h0.7v1.4c0,0.5-0.2,0.8-0.7,0.8c-0.5,0-0.7-0.3-0.7-0.8v-4.4c0-0.5,0.2-0.8,0.7-0.8
		c0.5,0,0.7,0.3,0.7,0.8v0.8h1.3v-0.7c0-1.2-0.4-2-2-2c-1.4,0-2.1,0.9-2.1,2.2v4c0,1.3,0.5,2.2,1.7,2.2c0.7,0,1.1-0.4,1.3-1V16.4z"
		/>
	<path class="st1" d="M38.2,16.5c1.4,0,1.9-0.8,1.9-2.1V8.2h-1.3v6.3c0,0.5-0.2,0.8-0.7,0.8c-0.5,0-0.7-0.3-0.7-0.8V8.2h-1.4v6.2
		C36.1,15.6,36.7,16.5,38.2,16.5z"/>
	<path class="st1" d="M42.3,14.9h1.5l0.3,1.5h1.4l-1.6-8.2h-1.6l-1.5,8.2h1.3L42.3,14.9z M43.1,10.5L43.1,10.5l0.6,3.3h-1.1
		L43.1,10.5z"/>
	<polygon class="st1" points="49.2,15.2 47.5,15.2 47.5,8.2 46.1,8.2 46.1,16.4 49.2,16.4 	"/>
	<path class="st1" d="M54,14.2v-3.8c0-1.3-0.5-2.2-2-2.2h-2.1v8.2H52C53.5,16.4,54,15.4,54,14.2z M51.3,15.2V9.3h0.6
		c0.6,0,0.8,0.3,0.8,0.8v4.3c0,0.5-0.2,0.8-0.8,0.8H51.3z"/>
	<path class="st1" d="M56.2,14.9h1.5l0.3,1.5h1.4l-1.6-8.2h-1.6l-1.5,8.2H56L56.2,14.9z M57,10.5L57,10.5l0.6,3.3h-1.1L57,10.5z"/>
	<path class="st1" d="M64.2,14.2v-3.8c0-1.3-0.5-2.2-2-2.2h-2.1v8.2h2.1C63.6,16.4,64.2,15.4,64.2,14.2z M61.4,15.2V9.3H62
		c0.6,0,0.8,0.3,0.8,0.8v4.3c0,0.5-0.2,0.8-0.8,0.8H61.4z"/>
	<polygon class="st1" points="68.3,15.2 66.4,15.2 66.4,12.8 67.8,12.8 67.8,11.6 66.4,11.6 66.4,9.3 68.3,9.3 68.3,8.2 65.1,8.2 
		65.1,16.4 68.3,16.4 	"/>
</g>
</svg>
