<?xml version="1.0" encoding="utf-8"?>
<!-- Generator: Adobe Illustrator 24.0.0, SVG Export Plug-In . SVG Version: 6.00 Build 0)  -->
<svg version="1.1" id="Layer_1" xmlns="http://www.w3.org/2000/svg" xmlns:xlink="http://www.w3.org/1999/xlink" x="0px" y="0px"
	 viewBox="0 0 100 100" style="enable-background:new 0 0 100 100;" xml:space="preserve">
<style type="text/css">
	.st0{fill:#0A97D9;}
	.st1{fill:#FFFFFF;}
</style>
<rect x="0.3" y="-0.2" class="st0" width="100" height="100"/>
<g>
	<polygon class="st1" points="7.5,11.9 7.5,15.4 7.6,15.4 9.9,12.9 10,12.9 10,28.4 13.4,28.4 13.4,8.2 10.6,8.2 	"/>
	<path class="st1" d="M23.7,28.4v-3.3H25v-2.6h-1.4V8.2h-3.3L14.5,23v2.1h6v3.3H23.7z M17.5,22.5l3-8.3h0v8.3H17.5z"/>
	<path class="st1" d="M77.2,72.9c0,0-0.1-0.1-0.1-0.1c-1.3-1.7-9.4-12.1-20.8-12.1c-9.9,0-20.5,9-20.5,9s-4-8.1-12.1-8.9
		c0,0-0.1,0-0.2,0h-0.1c-0.2,0-0.3,0.2-0.3,0.3c0,0.1,0.1,0.3,0.1,0.3c1,1.7,3.7,6.7,3.7,11.6c0,5-2.7,9.9-3.7,11.7l-0.1,0.1
		c0,0.1-0.1,0.1-0.1,0.2c0,0.2,0.1,0.3,0.3,0.3l0.1,0c0,0,0.1,0,0.1,0c8.2-0.8,12.2-8.9,12.2-8.9s10.6,9,20.5,9
		c11.4,0,19.5-10.4,20.8-12.1c0,0,0.1-0.1,0.1-0.1c0,0,0-0.1,0-0.1C77.2,73,77.2,72.9,77.2,72.9z M62.7,74.3c-1.8,0-3.3-1.5-3.3-3.3
		c0-1.8,1.5-3.3,3.3-3.3c1.8,0,3.3,1.5,3.3,3.3C66,72.8,64.5,74.3,62.7,74.3z"/>
	<path class="st1" d="M23.5,41.2C23.4,41.2,23.4,41.2,23.5,41.2c-0.2,0-0.4,0.1-0.4,0.3v2.3c0,0.1,0,0.2,0.1,0.2
		c5.5,4.8,10.7,0.3,11.9-0.9c0,0,0.1-0.1,0.1-0.1c0.1,0,0.1-0.1,0.2-0.1c0.1,0,0.2,0,0.2,0.1c0,0,0,0,0,0c6.2,5.9,12.7,1.1,14.1,0
		l0.1-0.1c0,0,0.1,0,0.1,0c0,0,0.1,0,0.1,0l0.1,0.1c1.4,1.1,7.9,5.9,14.1,0c0,0,0,0,0,0c0.1-0.1,0.1-0.1,0.2-0.1
		c0.1,0,0.1,0,0.2,0.1c0,0,0.1,0.1,0.1,0.1c1.2,1.2,6.4,5.7,11.9,0.9c0.1-0.1,0.1-0.1,0.1-0.2v-2.3c0-0.2-0.1-0.3-0.3-0.3
		c0,0,0,0-0.1,0c-0.1,0-0.1,0.1-0.2,0.1c-1.7,0.8-6.9,2.9-11.7-1.6c0,0-0.1-0.1-0.1-0.1c0,0-0.1,0-0.1,0c0,0-0.1,0-0.1,0
		c-0.1,0-0.1,0.1-0.2,0.1c-1.4,1.1-7.9,5.5-13.7,0.1l-0.1-0.1c-0.1-0.1-0.1-0.1-0.2-0.1c-0.1,0-0.2,0-0.2,0.1l-0.1,0.1
		c-5.8,5.4-12.3,1-13.7-0.1c0-0.1-0.1-0.1-0.2-0.1c0,0-0.1,0-0.1,0c0,0-0.1,0-0.1,0c0,0-0.1,0.1-0.1,0.1c-4.8,4.5-10,2.5-11.7,1.6
		C23.6,41.3,23.5,41.3,23.5,41.2z"/>
	<path class="st1" d="M35.1,51.4C35.1,51.4,35.1,51.4,35.1,51.4c0.1-0.1,0.2-0.2,0.3-0.2c0.1,0,0.2,0,0.2,0.1c0,0,0,0,0,0
		c6.2,5.9,12.7,1.1,14.1,0l0.1-0.1c0,0,0.1,0,0.1,0c0,0,0.1,0,0.1,0l0.1,0.1c1.4,1.1,7.9,5.9,14.1,0c0,0,0,0,0,0
		c0.1-0.1,0.1-0.1,0.2-0.1c0.1,0,0.1,0,0.2,0.1c0,0,0.1,0.1,0.1,0.1c1.2,1.2,6.4,5.7,11.9,0.9c0.1-0.1,0.1-0.1,0.1-0.2v-2.3
		c0-0.2-0.1-0.3-0.3-0.3c0,0,0,0-0.1,0c-0.1,0-0.1,0.1-0.2,0.1c-1.7,0.8-6.9,2.9-11.7-1.6c0,0-0.1-0.1-0.1-0.1c0,0-0.1,0-0.1,0
		c0,0-0.1,0-0.1,0c-0.1,0-0.1,0.1-0.2,0.1c-1.4,1.1-7.9,5.5-13.7,0.1l-0.1-0.1c-0.1-0.1-0.1-0.1-0.2-0.1c-0.1,0-0.2,0-0.2,0.1
		L49.6,48c-5.8,5.4-12.3,1-13.7-0.1c0-0.1-0.1-0.1-0.2-0.1c0,0-0.1,0-0.1,0c0,0-0.1,0-0.1,0c0,0-0.1,0.1-0.1,0.1
		c-4.8,4.5-10,2.5-11.7,1.6c-0.1,0-0.1-0.1-0.2-0.1c0,0,0,0-0.1,0c-0.2,0-0.3,0.1-0.3,0.3v2.3c0,0.1,0,0.2,0.1,0.2
		C28.7,57.1,33.9,52.6,35.1,51.4z"/>
	<polygon class="st1" points="35.1,16.4 36.6,8.2 35.4,8.2 34.4,13.9 34.4,13.9 33.4,8.2 32,8.2 33.6,16.4 	"/>
	<rect x="37.2" y="8.2" class="st1" width="1.4" height="8.2"/>
	<path class="st1" d="M43.5,14.2v-3.8c0-1.3-0.5-2.2-2-2.2h-2.1v8.2h2.1C43,16.4,43.5,15.4,43.5,14.2z M40.8,15.2V9.3h0.6
		c0.6,0,0.8,0.3,0.8,0.8v4.3c0,0.5-0.2,0.8-0.8,0.8H40.8z"/>
	<path class="st1" d="M45.6,14.9h1.5l0.3,1.5h1.4l-1.6-8.2h-1.6l-1.5,8.2h1.3L45.6,14.9z M46.4,10.5L46.4,10.5l0.6,3.3h-1.1
		L46.4,10.5z"/>
	<polygon class="st1" points="51.8,11.2 53.4,16.4 54.6,16.4 54.6,8.2 53.5,8.2 53.5,12.9 52,8.2 50.6,8.2 50.6,16.4 51.8,16.4 	"/>
	<path class="st1" d="M56.7,14.9h1.5l0.3,1.5h1.4l-1.6-8.2h-1.6l-1.5,8.2h1.3L56.7,14.9z M57.4,10.5L57.4,10.5l0.6,3.3h-1.1
		L57.4,10.5z"/>
	<polygon class="st1" points="33.3,19.9 35.5,19.6 35.5,18.6 33.3,19.1 	"/>
	<path class="st1" d="M33.6,26.9H35l0.3,1.5h1.4l-1.6-8.2h-1.6L32,28.3h1.3L33.6,26.9z M34.3,22.5L34.3,22.5l0.6,3.3h-1.1L34.3,22.5
		z"/>
	<path class="st1" d="M38.4,28.4c0.7,0,1.1-0.4,1.3-1v0.9h1V24h-2v1.1h0.7v1.4c0,0.5-0.2,0.8-0.7,0.8c-0.5,0-0.7-0.3-0.7-0.8v-4.4
		c0-0.5,0.2-0.8,0.7-0.8c0.5,0,0.7,0.3,0.7,0.8v0.8h1.3v-0.7c0-1.2-0.4-2-2-2c-1.4,0-2.1,0.9-2.1,2.2v4
		C36.7,27.5,37.2,28.4,38.4,28.4z"/>
	<path class="st1" d="M42.3,26.5v-6.3H41v6.2c0,1.3,0.6,2.1,2,2.1c1.4,0,1.9-0.8,1.9-2.1v-6.2h-1.3v6.3c0,0.5-0.2,0.8-0.7,0.8
		C42.5,27.3,42.3,27,42.3,26.5z"/>
	<path class="st1" d="M46.5,20.2L45,28.3h1.3l0.2-1.5H48l0.3,1.5h1.4l-1.6-8.2H46.5z M46.7,25.8l0.5-3.3h0l0.5,3.3H46.7z"/>
</g>
</svg>
