<?xml version="1.0" encoding="utf-8"?>
<!-- Generator: Adobe Illustrator 24.0.0, SVG Export Plug-In . SVG Version: 6.00 Build 0)  -->
<svg version="1.1" id="Layer_1" xmlns="http://www.w3.org/2000/svg" xmlns:xlink="http://www.w3.org/1999/xlink" x="0px" y="0px"
	 viewBox="0 0 74 16" style="enable-background:new 0 0 74 16;" xml:space="preserve">
<style type="text/css">
	.st0{fill-rule:evenodd;clip-rule:evenodd;}
</style>
<path class="st0" d="M16,8c0,4.4-3.6,8-8,8c-4.4,0-8-3.6-8-8c0-4.4,3.6-8,8-8C12.4,0,16,3.6,16,8z M8,12c2.2,0,4-1.8,4-4
	c0-2.2-1.8-4-4-4C5.8,4,4,5.8,4,8C4,10.2,5.8,12,8,12z"/>
<path class="st0" d="M74,8c0,4.4-3.6,8-8,8s-8-3.6-8-8c0-4.4,3.6-8,8-8S74,3.6,74,8z M66,12c2.2,0,4-1.8,4-4c0-2.2-1.8-4-4-4
	s-4,1.8-4,4C62,10.2,63.8,12,66,12z"/>
</svg>
