<svg width="89" height="90" viewBox="0 0 89 90" fill="none" xmlns="http://www.w3.org/2000/svg">
<path d="M87.4856 84.4927C87.4856 84.4927 70.0959 92.4432 35.3012 87.4856C24.5574 85.9508 9.20901 90.6474 0 86.0429V47.5799C4.50613 46.4034 9.15903 45.8864 13.8135 46.0451C17.7829 46.0238 21.6934 47.0061 25.1816 48.9004C28.6699 50.7948 31.6229 53.54 33.7664 56.881C52.1844 52.2765 62.9283 67.5328 62.9283 67.5328C59.8586 46.1372 64.4631 35.3933 64.4631 35.3933L62.3604 29.0698L61.3934 26.1689L52.1844 27.7038L41.4406 21.4877L42.9754 15.4251L43.0982 15.4097C43.0544 15.3955 43.013 15.3748 42.9754 15.3484C34.5184 10.4369 46.5516 4.06731 49.1147 3.16176C53.152 1.90238 57.25 0.847121 61.3934 0L76.7418 10.7438L81.3463 38.3709C81.3463 38.3709 81.8528 41.8857 85.9508 56.8657C90.5553 73.6721 87.4856 84.4927 87.4856 84.4927Z" fill="#FFD782"/>
<path d="M83.3417 78.7553L80.4255 77.7838L81.882 78.2703L80.4224 77.7884C81.2575 74.5432 81.2475 71.1381 80.3933 67.8979C78.8814 61.8537 75.8317 51.1682 75.801 51.0638L78.7541 50.2212C78.7832 50.3286 81.8467 61.0602 83.3693 67.1535C84.3827 70.9556 84.3732 74.9581 83.3417 78.7553Z" fill="#F9BB4B"/>
<path d="M59.0513 76.6512L57.5963 73.9468C52.6549 76.7878 46.9972 78.1385 41.3054 77.8362C35.6137 77.534 30.1308 75.5915 25.5182 72.2431C28.1858 69.8017 30.4059 66.9126 32.0781 63.7064L29.3308 62.3342C27.603 65.6937 25.162 68.6351 22.1784 70.9523C16.3921 74.8109 15.4067 82.4636 15.3668 82.789L18.4135 83.1604C18.9237 79.7424 20.5374 76.585 23.0088 74.1693C28.7952 78.4478 35.7797 80.8 42.9754 80.8935C48.605 80.85 54.1333 79.3911 59.0513 76.6512Z" fill="#F9BB4B"/>
<path d="M69.0676 27.7344L62.3604 29.0697L61.3934 26.1688L68.469 24.7261L69.0676 27.7344Z" fill="#F9BB4B"/>
<path d="M67.5329 79.9035H64.4632C64.5474 75.8751 63.5742 71.895 61.6406 68.36L64.2145 66.687C66.492 70.7127 67.6386 75.2794 67.5329 79.9035Z" fill="#F9BB4B"/>
</svg>
