<?xml version="1.0" encoding="utf-8"?>
<!-- Generator: Adobe Illustrator 24.0.0, SVG Export Plug-In . SVG Version: 6.00 Build 0)  -->
<svg version="1.1" xmlns="http://www.w3.org/2000/svg" xmlns:xlink="http://www.w3.org/1999/xlink" x="0px" y="0px"
	 viewBox="0 0 205.2 132.5" style="enable-background:new 0 0 205.2 132.5;" xml:space="preserve" id="logo-waas">
<style type="text/css">
	.st0{fill:#FFAA00;}
	.st1{fill:none;}
	.st2{fill:#0000FF;}
	.st3{fill:#FF433F;}
</style>
<g id="simbolo">
	<path class="st0" d="M86.8,77.3L86.8,77.3v-0.7C86.7,76.8,86.7,77.1,86.8,77.3z"/>
	<path class="st1" d="M131.1,8.4c-0.1,0-0.3,0.1-0.4,0.1c-7.5,6.6-29,25.7-34.2,30.3c-0.2,0.2-0.3,0.5-0.1,0.8
		c0.1,0.1,0.3,0.2,0.4,0.2l10.3,0.8l-0.1,0.2L89.2,74c-0.1,0.2-0.1,0.5,0.1,0.7s0.5,0.2,0.7,0c6.1-5.4,22.1-19.9,34-30.6
		c0.2-0.2,0.2-0.4,0.2-0.6c-0.1-0.2-0.3-0.4-0.5-0.4l-9.8-0.4l17.7-33.4c0.1-0.2,0.1-0.5-0.1-0.7C131.3,8.5,131.2,8.5,131.1,8.4z"/>
	<path class="st2" d="M127.4,31.2c-2.2,3.1-1.4,7.4,1.8,9.6c3.1,2.2,7.4,1.4,9.6-1.8c1.7-2.5,1.6-5.7-0.2-8.1l7-17.8
		c0.4-1.1,1.1-2,2-2.6c1-0.6,2.2-1,3.4-0.9c1.4,0,2.8,0.4,4,1.3c0.9,0.7,1.4,1.8,1.3,3c-0.1,0.9-0.3,1.9-0.6,2.7L134,70.1
		c-0.4,1.1-1.3,2-2.3,2.5c-1.4,0.7-3,1.1-4.6,1.1s-3.1-0.3-4.5-1.1c-1-0.5-1.9-1.4-2.3-2.5l-4-10.1l-5.7,5.1l3,7.3
		c1,2.6,3,4.7,5.4,6c2.5,1.3,5.2,2,8,2s5.5-0.7,8-2s4.5-3.4,5.5-6L162.3,19c0.6-1.6,1-3.3,1.1-5c0.1-3.2-1.4-6.3-3.9-8.2
		C157,3.9,154,2.9,151,2.9c-2.5,0-4.9,0.6-7,1.8l-1,0.6l0,0c-1.9,1.4-3.4,3.2-4.2,5.4L132,28.2C130.1,28.5,128.4,29.6,127.4,31.2z
		 M136.5,35.1c0,1.9-1.5,3.5-3.5,3.5l0,0l0,0c-1.9,0-3.5-1.5-3.5-3.5l0,0l0,0c0.1-1.9,1.7-3.4,3.7-3.3
		C135,31.9,136.4,33.3,136.5,35.1L136.5,35.1z"/>
	<path class="st2" d="M64.9,72.4c1,2.6,3,4.7,5.4,6c2.5,1.3,5.2,2,8,2c0.9,0,1.8-0.1,2.7-0.2l-0.1-0.1c-0.9-1.8-1-3.9-0.2-5.8
		l0.2-0.5l0.3-0.6c-2.5,0.8-5.1,0.6-7.4-0.6c-1.1-0.5-1.9-1.4-2.3-2.5L49.8,16.7c-0.3-0.8-0.5-1.7-0.5-2.6c-0.1-1.2,0.5-2.4,1.5-3.1
		c1.3-0.9,2.8-1.4,4.4-1.4c1.3,0,2.6,0.3,3.7,1c1,0.6,1.7,1.5,2.1,2.5l18,47.2l19-47.2c0.4-1.1,1.1-2,2.1-2.6s2.2-1,3.4-0.9
		c0.4,0,0.7,0,1.1,0.1c0.5,3.8,4,6.4,7.8,5.9c3.4-0.5,5.9-3.3,6-6.7c0-1.5-0.5-3-1.4-4.2C115.6,3,113.4,2,111.2,2
		c-1.4,0-2.8,0.6-3.9,1.4c-3.7-1.1-7.7-0.5-11.1,1.5c-2.2,1.4-4,3.4-4.9,5.9L79.1,41L67.7,10.8c-0.9-2.5-2.8-4.7-5.1-6
		c-2.2-1.3-4.8-1.9-7.3-1.9c-3.2,0-6.2,0.9-8.8,2.8c-2.7,1.9-4.3,5.1-4.2,8.4c0,1.7,0.4,3.3,1,4.9L64.9,72.4z M107.9,9
		c0-0.7,0.2-1.3,0.6-1.9l0.1-0.1c1.1-1.6,3.3-1.9,4.8-0.8c1.6,1.1,1.9,3.3,0.8,4.8c-0.6,0.9-1.7,1.5-2.8,1.5l0,0
		C109.5,12.4,107.9,10.9,107.9,9L107.9,9z"/>
	<path class="st2" d="M111.4,9L111.4,9L111.4,9L111.4,9z"/>
	<path class="st2" d="M133.1,35.1L133.1,35.1L133.1,35.1L133.1,35.1z"/>
	<g id="logotipo">
	<path class="st2" d="M82,98c0-1.1-0.4-2.1-1.2-2.9C80,94.4,79,94,78,94c-0.9,0-1.8,0.3-2.5,0.8c-0.8,0.5-1.3,1.3-1.6,2.1L66.7,117
		l-6.9-20c-0.5-1.8-2.1-3-4-3c-0.9,0-1.8,0.3-2.5,0.8c-0.8,0.5-1.3,1.3-1.6,2.1l-7.2,19.7l-7-19.6c-0.3-0.9-0.9-1.7-1.7-2.1
		c-0.7-0.5-1.6-0.7-2.4-0.7l0,0H15.2c-0.1-0.3-0.3-0.5-0.5-0.7c-2.4-3-6.7-3.5-9.6-1.1c-3,2.4-3.5,6.7-1.1,9.6
		c2.4,3,6.7,3.5,9.6,1.1c0.7-0.5,1.3-1.2,1.7-2h14.3l9.7,26.2c0.3,0.9,1,1.7,1.8,2.2c0.9,0.5,1.9,0.8,2.9,0.8s2-0.3,2.8-0.8
		s1.5-1.3,1.8-2.2l6.8-18.6l6.5,18.6c0.3,0.9,1,1.7,1.8,2.2c1.8,1,4,1,5.8,0c0.9-0.5,1.5-1.3,1.8-2.2l10-27.2
		C81.8,99.3,81.9,98.6,82,98z M12.7,97.6c-0.1,1.9-1.6,3.3-3.5,3.3l0,0c-1.9,0-3.5-1.5-3.5-3.5l0,0l0,0c0-1.9,1.5-3.5,3.4-3.5
		s3.5,1.5,3.5,3.4L12.7,97.6z"/>
	<path class="st2" d="M9.3,97.6L9.3,97.6L9.3,97.6z"/>
	<path class="st2" d="M138.8,97c-0.4-0.9-1.1-1.6-1.9-2.1c-0.8-0.5-1.8-0.8-2.8-0.8s-2,0.3-2.9,0.8c-0.8,0.5-1.5,1.2-1.9,2.1
		l-13.2,27.3c-0.3,0.5-0.4,1.1-0.4,1.8c0-0.6-0.2-1.2-0.4-1.8L102,97c-0.4-0.9-1.1-1.6-1.9-2.1c-1.8-1-3.9-1-5.6,0
		c-0.8,0.5-1.5,1.2-1.9,2.1l-13.2,27.3c-0.3,0.6-0.4,1.2-0.4,1.9c0,1.1,0.5,2.1,1.3,2.8c0.9,0.7,2,1.2,3.1,1.2
		c0.7,0,1.5-0.2,2.1-0.6c0.7-0.4,1.2-1.1,1.6-1.8l2.3-5.1h16.2l2.2,5.1c0.3,0.7,0.8,1.4,1.5,1.8c0.6,0.4,1.4,0.6,2.1,0.6
		c1.1,0,2.2-0.4,3-1.2c0.8-0.7,1.3-1.6,1.3-2.7c0,1.1,0.5,2,1.3,2.7c0.9,0.7,2,1.2,3.1,1.2c0.7,0,1.5-0.2,2.1-0.6
		c0.7-0.4,1.2-1.1,1.6-1.8l2.3-5.1h16.2l2.2,5.1c0.3,0.7,0.8,1.4,1.5,1.8c0.6,0.4,1.4,0.6,2.1,0.6c1.1,0,2.2-0.4,3-1.2
		c0.9-0.7,1.4-1.7,1.4-2.8c0-0.6-0.2-1.3-0.4-1.9L138.8,97z M92.4,115.7l5-11.2l5,11.2H92.4z M129.2,115.7l5-11.2l5,11.2H129.2z"/>
	<path class="st2" d="M201.4,93.7c-2-3.1-6.2-4-9.3-2c-0.7,0.4-1.3,1-1.8,1.7c-0.2,0.2-0.3,0.5-0.5,0.7h-17.5c-0.4,0-0.7,0-1.1,0
		c-2.6,0-5.1,0.5-7.5,1.5c-2.1,0.8-3.9,2.2-5.2,4c-1.2,1.7-1.9,3.7-1.9,5.8c0,1.7,0.3,3.3,1.1,4.8c1,1.5,2.4,2.7,4,3.4
		c2.5,1.2,5.1,2,7.8,2.5c1.9,0.3,3.7,0.8,5.4,1.6c0.8,0.3,1.4,1.1,1.4,1.9c0,1.1-0.6,2.1-1.6,2.6c-1.4,0.6-2.9,0.9-4.4,0.9
		s-3.1-0.2-4.6-0.5c-1.4-0.4-2.8-0.9-4.1-1.6c-0.5-0.3-1-0.5-1.5-0.8c-0.4-0.1-0.8-0.2-1.2-0.2c-0.8,0-1.6,0.4-2.1,1.1
		c-0.6,0.7-0.9,1.6-0.9,2.6c0,0.6,0.1,1.2,0.4,1.8c0.3,0.5,0.7,1,1.2,1.3c1.7,1.1,3.6,2,5.6,2.4c2.4,0.6,4.9,0.9,7.4,0.8
		c2.6,0.1,5.2-0.4,7.7-1.3c2.1-0.8,3.8-2.1,5.2-3.9c1.2-1.7,1.9-3.7,1.9-5.8c0-1.6-0.4-3.2-1.1-4.6c-1-1.5-2.3-2.6-3.9-3.4
		c-2.4-1.2-4.9-2-7.6-2.5c-1.5-0.3-3-0.7-4.4-1.1c-0.7-0.3-1.4-0.7-2-1.2c-0.4-0.4-0.6-1-0.6-1.5c0-1.1,0.6-2,1.6-2.5
		c1.2-0.7,2.7-1.1,4.1-1h13.2h5.2c1.9,3.3,6.1,4.5,9.4,2.6c3.3-1.9,4.5-6.1,2.6-9.4c-0.1-0.2-0.2-0.3-0.3-0.5L201.4,93.7z
		 M199.3,97.6c0,1.9-1.5,3.5-3.4,3.5l0,0l0,0c-1.9,0-3.4-1.5-3.5-3.3v-0.3c0-1.9,1.6-3.4,3.5-3.4C197.8,94.1,199.3,95.7,199.3,97.6
		L199.3,97.6L199.3,97.6z"/>
	<path class="st2" d="M195.8,97.6L195.8,97.6L195.8,97.6L195.8,97.6z"/>
</g>
</g>
<g id="raio">
	<g>
		<path class="st3" d="M86.8,76.6v0.7c0.2,0.4,0.7,0.5,1.1,0.4c0.2-0.1,38-34.1,38-34.1c0.1-0.2,0.1-0.6,0-0.8
			c-0.2-0.4-0.4-0.5-1.1-0.5l-5.7-0.3h-0.8L86.8,76.6z"/>
		<g>
			<path class="st0" d="M108.8,41.7l24-36.1C132.7,5.7,95.1,39,95.1,39c-0.4,0.3-0.5,0.6-0.4,1.1c0.1,0.2,0.3,0.4,0.6,0.4l0,0
				l10.5,0.9l-19,35.2l31.6-34.5h0.8l-3.9-0.2L108.8,41.7z"/>
			<path class="st3" d="M115.4,42.6l18.4-35.7c0.2-0.4,0.3-0.6,0.1-0.9c-0.2-0.4-0.7-0.6-1.1-0.4l-24.7,36.8L115.4,42.6z"/>
			<path class="st2" d="M136.2,4.8c-0.6-1.1-1.8-1.9-3.1-1.9c-0.2,0-0.4,0-0.6,0c-0.3,0.1-0.6,0.2-0.9,0.3c-0.3,0.2-0.3,0.2-2.2,1.8
				c-1,0.9-2.5,2.2-4.3,3.8l-13,11.5L93.3,37.2c-1.1,0.9-1.5,2.5-1,3.8c0.5,1,1.3,1.7,2.3,2.1l6.2,0.5c0.3,0,0.5,0.3,0.5,0.6
				c0,0.1,0,0.2-0.1,0.2L84.4,75.7c-0.3,0.9-0.3,1.9,0.1,2.8l0.1,0.2c0.6,1.1,1.8,1.7,3,1.7c0.5,0,1-0.1,1.5-0.4
				c0.3-0.2,0.3-0.2,2.2-1.9l4.3-3.9l13.1-11.7l18.9-17l0.3-0.2l0.2-0.3c0.6-1,0.7-2.3,0.2-3.3c-0.6-1.3-1.9-2-3.3-1.9l-4.6-0.2
				c-0.2,0-0.4-0.1-0.5-0.3s-0.1-0.4,0-0.5L136.1,8l0,0C136.7,7,136.7,5.8,136.2,4.8z M124.2,43.5c0.1,0.2,0,0.5-0.2,0.6
				c-11.9,10.7-28,25.1-34,30.5c-0.2,0.2-0.5,0.2-0.7,0s-0.3-0.5-0.1-0.7l17.9-33.1l0.1-0.2l-10.3-0.8c-0.3,0-0.5-0.3-0.5-0.6
				c0-0.2,0.1-0.3,0.2-0.4c5.1-4.6,26.7-23.7,34.2-30.3c0.1-0.1,0.2-0.1,0.4-0.1c0.1,0,0.3,0,0.4,0.1c0.2,0.2,0.3,0.5,0.1,0.7
				L114,42.7l9.8,0.4C124,43.1,124.2,43.3,124.2,43.5L124.2,43.5z"/>
		</g>
	</g>
</g>
</svg>
