<?xml version="1.0" encoding="utf-8"?>
<!-- Generator: Adobe Illustrator 24.0.0, SVG Export Plug-In . SVG Version: 6.00 Build 0)  -->
<svg version="1.1" id="Layer_1" xmlns="http://www.w3.org/2000/svg" xmlns:xlink="http://www.w3.org/1999/xlink" x="0px" y="0px"
	 viewBox="0 0 42.7 42.7" style="enable-background:new 0 0 42.7 42.7;" xml:space="preserve">
<style type="text/css">
	.st0{fill:#231F20;}
</style>
<g>
	<path class="st0" d="M9.6,13.5c-0.2,0.2-0.3,0.5-0.2,0.7c0,0.1,0.2,0.3,0.5,0.4l1.2,0.1c0,0,0.1,0,0.1,0.1c0,0,0,0.1,0,0.1
		l-3.3,6.2c-0.1,0.2-0.1,0.4,0,0.5l0,0C7.9,21.9,8.2,22,8.4,22c0.1,0,0.1,0,0.1,0c0.1,0,0.1,0,0.2-0.1c0.1,0,0.1,0,0.4-0.4
		c0.2-0.1,0.5-0.4,0.9-0.7c0.6-0.5,1.5-1.4,2.6-2.3c1.9-1.7,3.7-3.4,3.7-3.4l0.1-0.1l0.1-0.1c0.1-0.2,0.1-0.5,0-0.7
		c-0.1-0.3-0.3-0.4-0.7-0.4h-0.9c0,0-0.1,0-0.1-0.1c0,0,0-0.1,0-0.1L18,7.6l0,0c0.1-0.1,0.1-0.3,0-0.6c-0.1-0.2-0.3-0.4-0.6-0.4
		c-0.1,0-0.1,0-0.1,0c-0.1,0-0.1,0-0.2,0.1c-0.1,0-0.1,0-0.4,0.3c-0.2,0.2-0.5,0.4-0.8,0.7c-0.7,0.6-1.6,1.4-2.6,2.2
		C13.3,10.2,9.6,13.4,9.6,13.5z M17,7.9C17,7.8,17,7.8,17,7.9l-4.5,6.6h1.2l0,0h0.7l-5.6,6.2l0,0l3.5-6.5l0,0l-2-0.1
		c-0.1,0-0.1,0-0.1-0.1s0-0.1,0-0.1C11.2,12.9,15.5,9.2,17,7.9z"/>
	<path class="st0" d="M26.4,27.6c-0.2,0.2-0.3,0.5-0.2,0.7c0,0.1,0.2,0.3,0.5,0.4l1.2,0.1c0,0,0.1,0,0.1,0.1c0,0,0,0.1,0,0.1
		l-3.3,6.2c-0.1,0.2-0.1,0.4,0,0.5l0,0c0.1,0.2,0.3,0.3,0.6,0.3c0.1,0,0.1,0,0.1,0c0.1,0,0.1,0,0.2-0.1c0.1,0,0.1,0,0.4-0.4
		c0.2-0.1,0.5-0.4,0.9-0.7c0.6-0.5,1.5-1.4,2.6-2.3c1.9-1.7,3.7-3.4,3.7-3.4l0.1-0.1l0.1-0.1c0.1-0.2,0.1-0.5,0-0.7
		C33.2,28.1,33,28,32.6,28h-0.9c0,0-0.1,0-0.1-0.1c0,0,0-0.1,0-0.1l3.2-6.1l0,0c0.1-0.1,0.1-0.3,0-0.6c-0.1-0.2-0.3-0.4-0.6-0.4
		c-0.1,0-0.1,0-0.1,0s-0.1,0-0.2,0.1c-0.1,0-0.1,0-0.4,0.3c-0.2,0.2-0.5,0.4-0.8,0.7c-0.7,0.6-1.6,1.4-2.6,2.2
		C30.1,24.3,26.5,27.5,26.4,27.6z M33.8,22C33.8,21.9,33.8,21.9,33.8,22l-4.5,6.6h1.2l0,0h0.7l-5.6,6.2l0,0l3.5-6.5l0,0l-2-0.1
		c-0.1,0-0.1,0-0.1-0.1c0-0.1,0-0.1,0-0.1C28,27,32.3,23.3,33.8,22z"/>
</g>
</svg>
