<?xml version="1.0" encoding="utf-8"?>
<!-- Generator: Adobe Illustrator 24.0.0, SVG Export Plug-In . SVG Version: 6.00 Build 0)  -->
<svg version="1.1" id="logotipo-waas" xmlns="http://www.w3.org/2000/svg" xmlns:xlink="http://www.w3.org/1999/xlink" x="0px"
	 y="0px" viewBox="0 0 100 100" style="enable-background:new 0 0 100 100;" xml:space="preserve">
<g>
	<g>
		<path d="M25.9,20.6c0-0.3-0.1-0.5-0.3-0.7c-0.2-0.2-0.4-0.2-0.7-0.2c-0.2,0-0.4,0.1-0.6,0.2c-0.2,0.1-0.3,0.3-0.4,0.5l-1.7,4.9
			l-1.6-4.9c-0.1-0.4-0.5-0.7-1-0.7c-0.2,0-0.4,0.1-0.6,0.2c-0.2,0.1-0.3,0.2-0.4,0.5l-1.7,4.8l-1.6-4.8c-0.1-0.2-0.2-0.4-0.4-0.5
			c-0.2-0.1-0.4-0.2-0.6-0.2l0,0H9.8c0-0.1-0.1-0.1-0.1-0.2c-0.6-0.7-1.6-0.8-2.3-0.3c-0.7,0.6-0.8,1.6-0.3,2.3
			c0.6,0.7,1.6,0.8,2.3,0.3c0.2-0.1,0.3-0.3,0.4-0.5h3.5l2.3,6.3c0.1,0.2,0.2,0.4,0.4,0.5c0.2,0.1,0.5,0.2,0.7,0.2s0.5,0,0.7-0.2
			c0.2-0.1,0.4-0.3,0.4-0.5l1.6-4.5l1.6,4.5c0.1,0.2,0.2,0.4,0.4,0.5c0.4,0.2,1,0.2,1.4,0c0.2-0.1,0.4-0.3,0.5-0.5l2.4-6.6
			C25.9,20.9,25.9,20.7,25.9,20.6z M9.2,20.5c0,0.5-0.4,0.8-0.8,0.8l0,0c-0.5,0-0.8-0.4-0.8-0.8l0,0l0,0c0-0.5,0.4-0.8,0.8-0.8
			C8.8,19.6,9.2,20,9.2,20.5C9.2,20.5,9.2,20.5,9.2,20.5z"/>
		<path d="M39.6,20.3c-0.1-0.2-0.3-0.4-0.5-0.5c-0.2-0.1-0.4-0.2-0.7-0.2c-0.2,0-0.5,0.1-0.7,0.2c-0.2,0.1-0.4,0.3-0.5,0.5L34.1,27
			c-0.1,0.1-0.1,0.3-0.1,0.4c0-0.1,0-0.3-0.1-0.4l-3.2-6.6c-0.1-0.2-0.3-0.4-0.5-0.5c-0.2-0.1-0.4-0.2-0.7-0.2s-0.5,0.1-0.7,0.2
			c-0.2,0.1-0.4,0.3-0.5,0.5l-3.2,6.6c-0.1,0.1-0.1,0.3-0.1,0.5c0,0.3,0.1,0.5,0.3,0.7s0.5,0.3,0.7,0.3c0.2,0,0.4,0,0.5-0.1
			c0.2-0.1,0.3-0.3,0.4-0.4l0.6-1.2h3.9l0.5,1.2c0.1,0.2,0.2,0.3,0.4,0.4c0.1,0.1,0.3,0.1,0.5,0.1c0.3,0,0.5-0.1,0.7-0.3
			c0.2-0.2,0.3-0.4,0.3-0.7c0,0.3,0.1,0.5,0.3,0.7c0.2,0.2,0.5,0.3,0.7,0.3c0.2,0,0.4,0,0.5-0.1c0.2-0.1,0.3-0.3,0.4-0.4l0.6-1.2
			h3.9l0.5,1.2c0.1,0.2,0.2,0.3,0.4,0.4c0.1,0.1,0.3,0.1,0.5,0.1c0.3,0,0.5-0.1,0.7-0.3c0.2-0.2,0.3-0.4,0.3-0.7
			c0-0.1,0-0.3-0.1-0.5L39.6,20.3z M28.4,24.9l1.2-2.7l1.2,2.7H28.4z M37.3,24.9l1.2-2.7l1.2,2.7H37.3z"/>
		<path d="M54.8,19.6c-0.5-0.7-1.5-1-2.2-0.5c-0.2,0.1-0.3,0.2-0.4,0.4c0,0-0.1,0.1-0.1,0.2h-4.2c-0.1,0-0.2,0-0.3,0
			c-0.6,0-1.2,0.1-1.8,0.4c-0.5,0.2-0.9,0.5-1.3,1c-0.3,0.4-0.5,0.9-0.5,1.4c0,0.4,0.1,0.8,0.3,1.2c0.2,0.4,0.6,0.6,0.9,0.8
			c0.6,0.3,1.2,0.5,1.9,0.6c0.5,0.1,0.9,0.2,1.3,0.4c0.2,0.1,0.3,0.3,0.3,0.5c0,0.3-0.1,0.5-0.4,0.6c-0.3,0.1-0.7,0.2-1.1,0.2
			c-0.4,0-0.7,0-1.1-0.1c-0.3-0.1-0.7-0.2-1-0.4c-0.1-0.1-0.2-0.1-0.4-0.2c-0.1,0-0.2,0-0.3,0c-0.2,0-0.4,0.1-0.5,0.3
			c-0.2,0.3-0.3,0.7-0.1,1.1c0.1,0.1,0.2,0.2,0.3,0.3c0.4,0.3,0.9,0.5,1.4,0.6c0.6,0.1,1.2,0.2,1.8,0.2c0.6,0,1.3-0.1,1.9-0.3
			c0.5-0.2,0.9-0.5,1.3-0.9c0.3-0.4,0.5-0.9,0.5-1.4c0-0.4-0.1-0.8-0.3-1.1c-0.2-0.4-0.6-0.6-0.9-0.8c-0.6-0.3-1.2-0.5-1.8-0.6
			c-0.4-0.1-0.7-0.2-1.1-0.3c-0.2-0.1-0.4-0.2-0.5-0.3c-0.1-0.1-0.1-0.2-0.1-0.4c0-0.3,0.1-0.5,0.4-0.6c0.3-0.2,0.7-0.3,1-0.2l3.2,0
			H52c0.5,0.8,1.5,1.1,2.3,0.6S55.3,20.5,54.8,19.6C54.9,19.6,54.8,19.6,54.8,19.6L54.8,19.6z M54.3,20.5c0,0.5-0.4,0.8-0.8,0.8l0,0
			c-0.5,0-0.8-0.4-0.8-0.8v0c0-0.5,0.4-0.8,0.9-0.8C53.9,19.7,54.2,20.1,54.3,20.5z"/>
	</g>
	<g>
		<path d="M64.2,73.4c0-0.3-0.1-0.5-0.3-0.7c-0.2-0.2-0.4-0.2-0.7-0.2c-0.2,0-0.4,0.1-0.6,0.2c-0.2,0.1-0.3,0.3-0.4,0.5l-1.7,4.9
			l-1.6-4.9c-0.1-0.4-0.5-0.7-1-0.7c-0.2,0-0.4,0.1-0.6,0.2c-0.2,0.1-0.3,0.2-0.4,0.5l-1.7,4.8l-1.6-4.8c-0.1-0.2-0.2-0.4-0.4-0.5
			c-0.2-0.1-0.4-0.2-0.6-0.2l0,0H48c0-0.1-0.1-0.1-0.1-0.2c-0.6-0.7-1.6-0.8-2.3-0.3s-0.8,1.6-0.3,2.3c0.6,0.7,1.6,0.8,2.3,0.3
			c0.2-0.1,0.3-0.3,0.4-0.5h3.5l2.3,6.3c0.1,0.2,0.2,0.4,0.4,0.5c0.2,0.1,0.5,0.2,0.7,0.2s0.5,0,0.7-0.2c0.2-0.1,0.4-0.3,0.4-0.5
			l1.6-4.5l1.6,4.5c0.1,0.2,0.2,0.4,0.4,0.5c0.4,0.2,1,0.2,1.4,0c0.2-0.1,0.4-0.3,0.5-0.5l2.4-6.6C64.1,73.7,64.2,73.5,64.2,73.4z
			 M47.4,73.3c0,0.5-0.4,0.8-0.8,0.8l0,0c-0.5,0-0.8-0.4-0.8-0.8l0,0l0,0c0-0.5,0.4-0.8,0.8-0.8C47.1,72.4,47.4,72.8,47.4,73.3
			C47.4,73.3,47.4,73.3,47.4,73.3z"/>
		<path d="M77.9,73.1c-0.1-0.2-0.3-0.4-0.5-0.5c-0.2-0.1-0.4-0.2-0.7-0.2c-0.2,0-0.5,0.1-0.7,0.2c-0.2,0.1-0.4,0.3-0.5,0.5l-3.2,6.6
			c-0.1,0.1-0.1,0.3-0.1,0.4c0-0.1,0-0.3-0.1-0.4L69,73.1c-0.1-0.2-0.3-0.4-0.5-0.5s-0.4-0.2-0.7-0.2c-0.2,0-0.5,0.1-0.7,0.2
			c-0.2,0.1-0.4,0.3-0.5,0.5l-3.2,6.6c-0.1,0.1-0.1,0.3-0.1,0.5c0,0.3,0.1,0.5,0.3,0.7s0.5,0.3,0.7,0.3c0.2,0,0.4,0,0.5-0.1
			c0.2-0.1,0.3-0.3,0.4-0.4l0.6-1.2h3.9l0.5,1.2c0.1,0.2,0.2,0.3,0.4,0.4c0.1,0.1,0.3,0.1,0.5,0.1c0.3,0,0.5-0.1,0.7-0.3
			c0.2-0.2,0.3-0.4,0.3-0.7c0,0.3,0.1,0.5,0.3,0.7c0.2,0.2,0.5,0.3,0.7,0.3c0.2,0,0.4,0,0.5-0.1c0.2-0.1,0.3-0.3,0.4-0.4l0.6-1.2
			h3.9l0.5,1.2c0.1,0.2,0.2,0.3,0.4,0.4c0.1,0.1,0.3,0.1,0.5,0.1c0.3,0,0.5-0.1,0.7-0.3c0.2-0.2,0.3-0.4,0.3-0.7
			c0-0.1,0-0.3-0.1-0.5L77.9,73.1z M66.7,77.7l1.2-2.7l1.2,2.7H66.7z M75.6,77.7l1.2-2.7l1.2,2.7H75.6z"/>
		<path d="M93.1,72.4c-0.5-0.7-1.5-1-2.2-0.5c-0.2,0.1-0.3,0.2-0.4,0.4c0,0-0.1,0.1-0.1,0.2H86c-0.1,0-0.2,0-0.3,0
			c-0.6,0-1.2,0.1-1.8,0.4c-0.5,0.2-0.9,0.5-1.3,1c-0.3,0.4-0.5,0.9-0.5,1.4c0,0.4,0.1,0.8,0.3,1.2c0.2,0.4,0.6,0.6,0.9,0.8
			c0.6,0.3,1.2,0.5,1.9,0.6c0.5,0.1,0.9,0.2,1.3,0.4c0.2,0.1,0.3,0.3,0.3,0.5c0,0.3-0.1,0.5-0.4,0.6c-0.3,0.1-0.7,0.2-1.1,0.2
			c-0.4,0-0.7,0-1.1-0.1c-0.3-0.1-0.7-0.2-1-0.4c-0.1-0.1-0.2-0.1-0.4-0.2c-0.1,0-0.2,0-0.3,0c-0.2,0-0.4,0.1-0.5,0.3
			C82,79.3,82,79.7,82.1,80c0.1,0.1,0.2,0.2,0.3,0.3c0.4,0.3,0.9,0.5,1.4,0.6c0.6,0.1,1.2,0.2,1.8,0.2c0.6,0,1.3-0.1,1.9-0.3
			c0.5-0.2,0.9-0.5,1.3-0.9c0.3-0.4,0.5-0.9,0.5-1.4c0-0.4-0.1-0.8-0.3-1.1c-0.2-0.4-0.6-0.6-0.9-0.8c-0.6-0.3-1.2-0.5-1.8-0.6
			c-0.4-0.1-0.7-0.2-1.1-0.3c-0.2-0.1-0.4-0.2-0.5-0.3c-0.1-0.1-0.1-0.2-0.1-0.4c0-0.3,0.1-0.5,0.4-0.6c0.3-0.2,0.7-0.3,1-0.2l3.2,0
			h1.3c0.5,0.8,1.5,1.1,2.3,0.6C93.3,74.3,93.6,73.3,93.1,72.4C93.1,72.4,93.1,72.4,93.1,72.4L93.1,72.4z M92.5,73.3
			c0,0.5-0.4,0.8-0.8,0.8l0,0c-0.5,0-0.8-0.4-0.8-0.8v0c0-0.5,0.4-0.8,0.9-0.8C92.2,72.5,92.5,72.9,92.5,73.3z"/>
	</g>
</g>
</svg>
